<svg xmlns="http://www.w3.org/2000/svg" width="830" height="415" viewBox="0 0 830 415" role="img"><rect width="830" height="415" fill="#070b14"/><g><circle cx="202.7" cy="319.68" r="1.33" fill="#dbe6ff" opacity="0.12"/><circle cx="413.41" cy="126.81" r="1.04" fill="#dbe6ff" opacity="0.49"/><circle cx="605.35" cy="93.92" r="1.03" fill="#dbe6ff" opacity="0.44"/><circle cx="677.35" cy="246.82" r="1.23" fill="#dbe6ff" opacity="0.16"/><circle cx="500.04" cy="199.83" r="1.42" fill="#dbe6ff" opacity="0.28"/><circle cx="168.34" cy="138.2" r="0.64" fill="#dbe6ff" opacity="0.35"/><circle cx="526.26" cy="231.25" r="1.49" fill="#dbe6ff" opacity="0.21"/><circle cx="421.52" cy="347.69" r="1.3" fill="#dbe6ff" opacity="0.22"/><circle cx="175.69" cy="266" r="0.68" fill="#dbe6ff" opacity="0.45"/><circle cx="124.49" cy="36.76" r="0.82" fill="#dbe6ff" opacity="0.3"/><circle cx="91.45" cy="125.75" r="0.52" fill="#dbe6ff" opacity="0.24"/><circle cx="815.1" cy="276.02" r="1.14" fill="#dbe6ff" opacity="0.26"/><circle cx="615.47" cy="59.36" r="1" fill="#dbe6ff" opacity="0.32"/><circle cx="85.17" cy="280.16" r="1.15" fill="#dbe6ff" opacity="0.37"/><circle cx="64.84" cy="123.53" r="1.44" fill="#dbe6ff" opacity="0.4"/><circle cx="73.12" cy="319.77" r="1.39" fill="#dbe6ff" opacity="0.46"/><circle cx="796.69" cy="100.49" r="0.87" fill="#dbe6ff" opacity="0.54"/><circle cx="529.7" cy="137.11" r="1.17" fill="#dbe6ff" opacity="0.55"/><circle cx="512.88" cy="388.46" r="1.07" fill="#dbe6ff" opacity="0.51"/><circle cx="278.7" cy="203.16" r="1.34" fill="#dbe6ff" opacity="0.25"/><circle cx="695.68" cy="249" r="1.09" fill="#dbe6ff" opacity="0.25"/><circle cx="361.54" cy="0.63" r="0.89" fill="#dbe6ff" opacity="0.43"/><circle cx="620.98" cy="351.57" r="0.85" fill="#dbe6ff" opacity="0.35"/><circle cx="331.27" cy="30.3" r="0.99" fill="#dbe6ff" opacity="0.22"/><circle cx="609.03" cy="316.14" r="0.45" fill="#dbe6ff" opacity="0.37"/><circle cx="254.62" cy="164.9" r="1.2" fill="#dbe6ff" opacity="0.22"/><circle cx="652.89" cy="307.97" r="1.1" fill="#dbe6ff" opacity="0.27"/><circle cx="741.86" cy="385.54" r="0.92" fill="#dbe6ff" opacity="0.11"/><circle cx="185.2" cy="14.67" r="0.93" fill="#dbe6ff" opacity="0.35"/><circle cx="677.92" cy="48.89" r="0.69" fill="#dbe6ff" opacity="0.54"/><circle cx="465.56" cy="280.11" r="0.82" fill="#dbe6ff" opacity="0.45"/><circle cx="327.5" cy="134.08" r="0.44" fill="#dbe6ff" opacity="0.31"/><circle cx="114.45" cy="131.38" r="0.74" fill="#dbe6ff" opacity="0.2"/><circle cx="159.15" cy="369.76" r="1.12" fill="#dbe6ff" opacity="0.43"/><circle cx="412.42" cy="71.73" r="1.17" fill="#dbe6ff" opacity="0.11"/><circle cx="499.83" cy="200.72" r="0.57" fill="#dbe6ff" opacity="0.32"/><circle cx="316.71" cy="207.19" r="1.27" fill="#dbe6ff" opacity="0.34"/><circle cx="820.85" cy="386.56" r="1.11" fill="#dbe6ff" opacity="0.24"/><circle cx="694.55" cy="348.92" r="1.46" fill="#dbe6ff" opacity="0.16"/><circle cx="410.51" cy="35.33" r="0.67" fill="#dbe6ff" opacity="0.41"/><circle cx="420.22" cy="166.29" r="0.97" fill="#dbe6ff" opacity="0.39"/><circle cx="8.55" cy="247.03" r="1.43" fill="#dbe6ff" opacity="0.31"/><circle cx="416.15" cy="277.79" r="0.72" fill="#dbe6ff" opacity="0.48"/><circle cx="305.63" cy="295.53" r="1.23" fill="#dbe6ff" opacity="0.13"/><circle cx="508.45" cy="71.09" r="1.39" fill="#dbe6ff" opacity="0.41"/><circle cx="83.52" cy="11.21" r="0.97" fill="#dbe6ff" opacity="0.33"/><circle cx="84.26" cy="168.57" r="1.25" fill="#dbe6ff" opacity="0.35"/><circle cx="714.9" cy="159.47" r="0.83" fill="#dbe6ff" opacity="0.42"/><circle cx="792.49" cy="321.07" r="1.27" fill="#dbe6ff" opacity="0.32"/><circle cx="807.83" cy="253.94" r="0.84" fill="#dbe6ff" opacity="0.49"/><circle cx="383.17" cy="322.22" r="1.21" fill="#dbe6ff" opacity="0.41"/><circle cx="23.79" cy="144.02" r="0.88" fill="#dbe6ff" opacity="0.53"/><circle cx="382.54" cy="317.15" r="1" fill="#dbe6ff" opacity="0.28"/><circle cx="490.03" cy="156.89" r="0.87" fill="#dbe6ff" opacity="0.49"/><circle cx="612.38" cy="47.02" r="0.62" fill="#dbe6ff" opacity="0.28"/><circle cx="786.91" cy="237.19" r="0.91" fill="#dbe6ff" opacity="0.28"/><circle cx="552.05" cy="217.53" r="1.02" fill="#dbe6ff" opacity="0.55"/><circle cx="712.46" cy="296.39" r="1.25" fill="#dbe6ff" opacity="0.46"/><circle cx="571.39" cy="352.03" r="0.78" fill="#dbe6ff" opacity="0.53"/><circle cx="592.75" cy="347.94" r="1.29" fill="#dbe6ff" opacity="0.44"/><circle cx="318.68" cy="164.74" r="1" fill="#dbe6ff" opacity="0.43"/><circle cx="710.53" cy="109.68" r="0.78" fill="#dbe6ff" opacity="0.52"/><circle cx="757.22" cy="317.84" r="1.18" fill="#dbe6ff" opacity="0.48"/><circle cx="283.15" cy="41.03" r="0.53" fill="#dbe6ff" opacity="0.3"/><circle cx="501.25" cy="277.98" r="0.41" fill="#dbe6ff" opacity="0.26"/><circle cx="62.78" cy="217.16" r="1.03" fill="#dbe6ff" opacity="0.32"/><circle cx="32.84" cy="54.46" r="1.25" fill="#dbe6ff" opacity="0.27"/><circle cx="750.67" cy="79.31" r="1.02" fill="#dbe6ff" opacity="0.27"/><circle cx="733.58" cy="226.61" r="1.4" fill="#dbe6ff" opacity="0.22"/><circle cx="328.31" cy="79.6" r="0.94" fill="#dbe6ff" opacity="0.42"/><circle cx="763.68" cy="195.95" r="0.5" fill="#dbe6ff" opacity="0.3"/><circle cx="726.31" cy="172.97" r="0.68" fill="#dbe6ff" opacity="0.52"/><circle cx="88.68" cy="180.59" r="0.85" fill="#dbe6ff" opacity="0.23"/><circle cx="487.02" cy="347.74" r="0.44" fill="#dbe6ff" opacity="0.26"/><circle cx="286.54" cy="41.49" r="1.44" fill="#dbe6ff" opacity="0.52"/><circle cx="738.11" cy="351.84" r="1.11" fill="#dbe6ff" opacity="0.25"/><circle cx="253.19" cy="335.16" r="0.53" fill="#dbe6ff" opacity="0.25"/><circle cx="201.7" cy="105.59" r="0.97" fill="#dbe6ff" opacity="0.17"/><circle cx="366.28" cy="337.44" r="0.59" fill="#dbe6ff" opacity="0.24"/><circle cx="254.67" cy="216.1" r="0.95" fill="#dbe6ff" opacity="0.45"/><circle cx="438.45" cy="47.56" r="1.25" fill="#dbe6ff" opacity="0.15"/><circle cx="312.85" cy="258.88" r="1.31" fill="#dbe6ff" opacity="0.53"/><circle cx="557.95" cy="336.39" r="0.9" fill="#dbe6ff" opacity="0.5"/><circle cx="663.87" cy="318.51" r="1.5" fill="#dbe6ff" opacity="0.28"/><circle cx="720.45" cy="31.69" r="0.98" fill="#dbe6ff" opacity="0.15"/><circle cx="683.56" cy="232.97" r="0.56" fill="#dbe6ff" opacity="0.39"/><circle cx="252.72" cy="307.59" r="0.57" fill="#dbe6ff" opacity="0.42"/><circle cx="314.69" cy="277.9" r="1.4" fill="#dbe6ff" opacity="0.25"/><circle cx="454.37" cy="28.41" r="1.12" fill="#dbe6ff" opacity="0.12"/><circle cx="441.08" cy="362.5" r="1" fill="#dbe6ff" opacity="0.27"/><circle cx="356.73" cy="97.85" r="1.43" fill="#dbe6ff" opacity="0.25"/><circle cx="618.14" cy="142.76" r="1.38" fill="#dbe6ff" opacity="0.2"/><circle cx="319.77" cy="385.66" r="0.88" fill="#dbe6ff" opacity="0.35"/><circle cx="272.93" cy="360.09" r="0.47" fill="#dbe6ff" opacity="0.21"/><circle cx="117.3" cy="389.3" r="0.57" fill="#dbe6ff" opacity="0.21"/><circle cx="199.36" cy="166.14" r="1.47" fill="#dbe6ff" opacity="0.46"/><circle cx="254.59" cy="311.31" r="0.47" fill="#dbe6ff" opacity="0.29"/><circle cx="103.49" cy="276.18" r="0.49" fill="#dbe6ff" opacity="0.55"/><circle cx="96" cy="342.4" r="0.57" fill="#dbe6ff" opacity="0.35"/><circle cx="114.51" cy="412.68" r="0.96" fill="#dbe6ff" opacity="0.35"/><circle cx="250.32" cy="56.22" r="1.15" fill="#dbe6ff" opacity="0.52"/><circle cx="311.63" cy="114.79" r="0.55" fill="#dbe6ff" opacity="0.54"/><circle cx="738.24" cy="84.19" r="1" fill="#dbe6ff" opacity="0.38"/><circle cx="766.45" cy="267.71" r="0.76" fill="#dbe6ff" opacity="0.52"/><circle cx="140.63" cy="171.02" r="1.13" fill="#dbe6ff" opacity="0.18"/><circle cx="432.59" cy="262.85" r="1.26" fill="#dbe6ff" opacity="0.4"/><circle cx="5.2" cy="122.44" r="0.78" fill="#dbe6ff" opacity="0.53"/><circle cx="11.74" cy="261.15" r="0.78" fill="#dbe6ff" opacity="0.48"/><circle cx="592.92" cy="44.4" r="1.07" fill="#dbe6ff" opacity="0.43"/><circle cx="461.02" cy="243.51" r="0.98" fill="#dbe6ff" opacity="0.43"/></g><g opacity="0"><text x="415" y="200" text-anchor="middle" font-family="ui-sans-serif, system-ui, -apple-system, 'Segoe UI', sans-serif" font-size="36" fill="#e8ecf5" font-weight="bold" letter-spacing="5">THE EPIC OF UNWRITTEN-LEGEND</text><text x="415" y="240" text-anchor="middle" font-family="ui-sans-serif, system-ui, -apple-system, 'Segoe UI', sans-serif" font-size="17" fill="#8b93a7" letter-spacing="3">· est. 2026 ·</text><animate attributeName="opacity" begin="0s" dur="3s" values="0;1;1;0" keyTimes="0;0.12;0.88;1" fill="freeze"/></g><g opacity="0"><circle cx="415" cy="186" r="46" fill="#ffd27d" opacity="0.08"/><circle cx="415" cy="186" r="27" fill="#ffd27d" opacity="0.2"/><circle cx="415" cy="186" r="13" fill="#ffd27d" opacity="0.55"/><circle cx="415" cy="186" r="5" fill="#ffd27d"/><text x="415" y="372" text-anchor="middle" font-family="ui-sans-serif, system-ui, -apple-system, 'Segoe UI', sans-serif" font-size="17" fill="#e8ecf5">The chronicle is yet unwritten, and the epic has just begun.</text><animate attributeName="opacity" begin="3s" dur="3.5s" values="0;1;1;0" keyTimes="0;0.12;0.88;1" fill="freeze"/></g><g opacity="0"><text x="415" y="200" text-anchor="middle" font-family="ui-sans-serif, system-ui, -apple-system, 'Segoe UI', sans-serif" font-size="26" fill="#e8ecf5" font-weight="bold" letter-spacing="4">PRESENT DAY</text><text x="415" y="234" text-anchor="middle" font-family="ui-sans-serif, system-ui, -apple-system, 'Segoe UI', sans-serif" font-size="15" fill="#8b93a7" letter-spacing="2">2026-07-04</text><animate attributeName="opacity" begin="6.5s" dur="3s" values="0;1;1;0" keyTimes="0;0.12;0.88;1" fill="freeze"/></g><g opacity="0"><circle cx="415" cy="186" r="30" fill="#ffd27d" opacity="0.16"/><circle cx="415" cy="186" r="6" fill="#ffd27d"><animate attributeName="r" begin="9.5s" dur="7s" values="6;9;6" repeatCount="indefinite"/></circle><circle cx="417.71" cy="382.59" r="1.4" fill="#dbe6ff" opacity="0.2"><animate attributeName="opacity" begin="9.5s" dur="6.1s" values="0.2;0.8;0.2" repeatCount="indefinite"/></circle><circle cx="233.5" cy="403.6" r="1.4" fill="#dbe6ff" opacity="0.2"><animate attributeName="opacity" begin="9.5s" dur="5.68s" values="0.2;0.8;0.2" repeatCount="indefinite"/></circle><circle cx="72.69" cy="119.58" r="1.4" fill="#dbe6ff" opacity="0.2"><animate attributeName="opacity" begin="9.5s" dur="6.79s" values="0.2;0.8;0.2" repeatCount="indefinite"/></circle><circle cx="51.24" cy="205.65" r="1.4" fill="#dbe6ff" opacity="0.2"><animate attributeName="opacity" begin="9.5s" dur="6.16s" values="0.2;0.8;0.2" repeatCount="indefinite"/></circle><circle cx="349.37" cy="250.38" r="1.4" fill="#dbe6ff" opacity="0.2"><animate attributeName="opacity" begin="9.5s" dur="6.49s" values="0.2;0.8;0.2" repeatCount="indefinite"/></circle><circle cx="694.41" cy="365.01" r="1.4" fill="#dbe6ff" opacity="0.2"><animate attributeName="opacity" begin="9.5s" dur="7.93s" values="0.2;0.8;0.2" repeatCount="indefinite"/></circle><circle cx="425.77" cy="240.44" r="1.4" fill="#dbe6ff" opacity="0.2"><animate attributeName="opacity" begin="9.5s" dur="4.51s" values="0.2;0.8;0.2" repeatCount="indefinite"/></circle><circle cx="712.64" cy="81.73" r="1.4" fill="#dbe6ff" opacity="0.2"><animate attributeName="opacity" begin="9.5s" dur="5.97s" values="0.2;0.8;0.2" repeatCount="indefinite"/></circle><text x="415" y="342" text-anchor="middle" font-family="ui-sans-serif, system-ui, -apple-system, 'Segoe UI', sans-serif" font-size="20" fill="#e8ecf5" letter-spacing="1">The Epic of unwritten-legend</text><text x="415" y="390" text-anchor="middle" font-family="ui-sans-serif, system-ui, -apple-system, 'Segoe UI', sans-serif" font-size="13" fill="#8b93a7">✦ forge yours at git-epic.dev</text><animate attributeName="opacity" begin="9.5s" dur="1.2s" values="0;1" fill="freeze"/></g></svg>