<svg xmlns="http://www.w3.org/2000/svg" width="830" height="415" viewBox="0 0 830 415" role="img"><rect width="830" height="415" fill="#070b14"/><g><circle cx="318.4" cy="406.98" r="0.49" fill="#dbe6ff" opacity="0.24"/><circle cx="801.02" cy="310.59" r="0.73" fill="#dbe6ff" opacity="0.53"/><circle cx="76.33" cy="317.86" r="1.36" fill="#dbe6ff" opacity="0.24"/><circle cx="605.97" cy="248.84" r="1.05" fill="#dbe6ff" opacity="0.55"/><circle cx="749.08" cy="60.07" r="1.01" fill="#dbe6ff" opacity="0.33"/><circle cx="266.23" cy="140.78" r="1.11" fill="#dbe6ff" opacity="0.52"/><circle cx="715.79" cy="38.38" r="1.22" fill="#dbe6ff" opacity="0.26"/><circle cx="114.18" cy="210.15" r="0.58" fill="#dbe6ff" opacity="0.32"/><circle cx="137.08" cy="134.25" r="1.35" fill="#dbe6ff" opacity="0.1"/><circle cx="734.92" cy="172.05" r="0.69" fill="#dbe6ff" opacity="0.43"/><circle cx="399" cy="365.28" r="0.48" fill="#dbe6ff" opacity="0.43"/><circle cx="317.17" cy="297.04" r="0.92" fill="#dbe6ff" opacity="0.35"/><circle cx="655.51" cy="265.42" r="0.83" fill="#dbe6ff" opacity="0.52"/><circle cx="432.98" cy="19.21" r="0.55" fill="#dbe6ff" opacity="0.23"/><circle cx="203.6" cy="275.52" r="1.12" fill="#dbe6ff" opacity="0.51"/><circle cx="96.71" cy="170.45" r="0.97" fill="#dbe6ff" opacity="0.51"/><circle cx="429.47" cy="382.93" r="1.39" fill="#dbe6ff" opacity="0.1"/><circle cx="110.04" cy="310.45" r="0.9" fill="#dbe6ff" opacity="0.2"/><circle cx="551.87" cy="232.75" r="1.19" fill="#dbe6ff" opacity="0.21"/><circle cx="37.51" cy="356.15" r="0.97" fill="#dbe6ff" opacity="0.15"/><circle cx="24.27" cy="151.72" r="1.03" fill="#dbe6ff" opacity="0.53"/><circle cx="134.71" cy="315.23" r="1.29" fill="#dbe6ff" opacity="0.31"/><circle cx="720.52" cy="1.32" r="0.74" fill="#dbe6ff" opacity="0.11"/><circle cx="505.28" cy="242.18" r="1.49" fill="#dbe6ff" opacity="0.42"/><circle cx="271" cy="126.89" r="1.45" fill="#dbe6ff" opacity="0.34"/><circle cx="524.73" cy="53.13" r="1.36" fill="#dbe6ff" opacity="0.37"/><circle cx="501.27" cy="180.87" r="0.82" fill="#dbe6ff" opacity="0.17"/><circle cx="759.49" cy="399.89" r="1.15" fill="#dbe6ff" opacity="0.35"/><circle cx="348.8" cy="233.93" r="0.58" fill="#dbe6ff" opacity="0.47"/><circle cx="256.06" cy="195.43" r="0.96" fill="#dbe6ff" opacity="0.35"/><circle cx="614.64" cy="404.85" r="0.46" fill="#dbe6ff" opacity="0.53"/><circle cx="177.91" cy="355.4" r="0.95" fill="#dbe6ff" opacity="0.2"/><circle cx="33.49" cy="32.44" r="0.9" fill="#dbe6ff" opacity="0.31"/><circle cx="42.13" cy="28.82" r="0.6" fill="#dbe6ff" opacity="0.48"/><circle cx="746.3" cy="213.25" r="0.83" fill="#dbe6ff" opacity="0.29"/><circle cx="788.98" cy="172.6" r="1.3" fill="#dbe6ff" opacity="0.48"/><circle cx="452.6" cy="172.67" r="1.11" fill="#dbe6ff" opacity="0.28"/><circle cx="550.25" cy="84.99" r="0.6" fill="#dbe6ff" opacity="0.47"/><circle cx="500.44" cy="111.22" r="1.09" fill="#dbe6ff" opacity="0.5"/><circle cx="569.01" cy="222.85" r="1.45" fill="#dbe6ff" opacity="0.51"/><circle cx="652.54" cy="250.89" r="1.05" fill="#dbe6ff" opacity="0.21"/><circle cx="83.4" cy="132.58" r="0.87" fill="#dbe6ff" opacity="0.27"/><circle cx="526.91" cy="140.24" r="0.75" fill="#dbe6ff" opacity="0.47"/><circle cx="414.27" cy="141.11" r="0.86" fill="#dbe6ff" opacity="0.49"/><circle cx="486.04" cy="259.9" r="1.35" fill="#dbe6ff" opacity="0.21"/><circle cx="154.99" cy="175.05" r="0.64" fill="#dbe6ff" opacity="0.21"/><circle cx="24.7" cy="172.75" r="0.71" fill="#dbe6ff" opacity="0.37"/><circle cx="183.62" cy="361.68" r="1.35" fill="#dbe6ff" opacity="0.52"/><circle cx="667.18" cy="37.35" r="1.11" fill="#dbe6ff" opacity="0.26"/><circle cx="370.06" cy="131.13" r="1.34" fill="#dbe6ff" opacity="0.4"/><circle cx="769.46" cy="72.97" r="0.89" fill="#dbe6ff" opacity="0.14"/><circle cx="435.87" cy="312.58" r="0.45" fill="#dbe6ff" opacity="0.14"/><circle cx="570.02" cy="283.31" r="1.35" fill="#dbe6ff" opacity="0.25"/><circle cx="83.83" cy="268.29" r="0.46" fill="#dbe6ff" opacity="0.4"/><circle cx="629.76" cy="268.8" r="1.28" fill="#dbe6ff" opacity="0.15"/><circle cx="71.05" cy="208.44" r="0.82" fill="#dbe6ff" opacity="0.15"/><circle cx="473.14" cy="271.46" r="1.25" fill="#dbe6ff" opacity="0.34"/><circle cx="310.03" cy="203.01" r="0.69" fill="#dbe6ff" opacity="0.46"/><circle cx="475.6" cy="75.11" r="0.83" fill="#dbe6ff" opacity="0.18"/><circle cx="428.82" cy="136.21" r="0.62" fill="#dbe6ff" opacity="0.24"/><circle cx="769.78" cy="238.28" r="1.09" fill="#dbe6ff" opacity="0.45"/><circle cx="261.39" cy="78.55" r="0.45" fill="#dbe6ff" opacity="0.36"/><circle cx="230.77" cy="321.19" r="0.94" fill="#dbe6ff" opacity="0.43"/><circle cx="675.25" cy="352.79" r="1.2" fill="#dbe6ff" opacity="0.35"/><circle cx="373.02" cy="220.82" r="1.11" fill="#dbe6ff" opacity="0.5"/><circle cx="44.35" cy="314.46" r="0.68" fill="#dbe6ff" opacity="0.17"/><circle cx="662.94" cy="140.37" r="1.28" fill="#dbe6ff" opacity="0.43"/><circle cx="19.94" cy="279.82" r="0.94" fill="#dbe6ff" opacity="0.13"/><circle cx="234.6" cy="332.99" r="1.05" fill="#dbe6ff" opacity="0.37"/><circle cx="67.95" cy="161.16" r="1.4" fill="#dbe6ff" opacity="0.42"/><circle cx="332.5" cy="197.12" r="0.74" fill="#dbe6ff" opacity="0.55"/><circle cx="665.48" cy="95.9" r="1.25" fill="#dbe6ff" opacity="0.45"/><circle cx="508.97" cy="383.63" r="1.26" fill="#dbe6ff" opacity="0.53"/><circle cx="195.08" cy="65.41" r="0.56" fill="#dbe6ff" opacity="0.14"/><circle cx="725.09" cy="197.89" r="1.21" fill="#dbe6ff" opacity="0.29"/><circle cx="106.11" cy="170.42" r="0.74" fill="#dbe6ff" opacity="0.17"/><circle cx="634.54" cy="267.45" r="0.79" fill="#dbe6ff" opacity="0.47"/><circle cx="240.14" cy="71.21" r="0.45" fill="#dbe6ff" opacity="0.33"/><circle cx="86.68" cy="241.52" r="1.39" fill="#dbe6ff" opacity="0.3"/><circle cx="347.82" cy="8.6" r="1.05" fill="#dbe6ff" opacity="0.35"/><circle cx="682.04" cy="247.89" r="1.32" fill="#dbe6ff" opacity="0.19"/><circle cx="132.3" cy="203.73" r="1.46" fill="#dbe6ff" opacity="0.3"/><circle cx="500.04" cy="78.08" r="1.12" fill="#dbe6ff" opacity="0.32"/><circle cx="459.28" cy="215.45" r="0.63" fill="#dbe6ff" opacity="0.3"/><circle cx="794.24" cy="377.21" r="0.4" fill="#dbe6ff" opacity="0.53"/><circle cx="624.43" cy="141.48" r="0.62" fill="#dbe6ff" opacity="0.43"/><circle cx="367.99" cy="317.34" r="0.71" fill="#dbe6ff" opacity="0.3"/><circle cx="368.93" cy="403.3" r="1.32" fill="#dbe6ff" opacity="0.46"/><circle cx="208.33" cy="0.25" r="0.71" fill="#dbe6ff" opacity="0.51"/><circle cx="167.47" cy="301.17" r="0.86" fill="#dbe6ff" opacity="0.45"/><circle cx="44.51" cy="18.58" r="0.83" fill="#dbe6ff" opacity="0.44"/><circle cx="487.99" cy="92.99" r="0.66" fill="#dbe6ff" opacity="0.21"/><circle cx="792.39" cy="294.58" r="1.26" fill="#dbe6ff" opacity="0.35"/><circle cx="445.18" cy="222.02" r="0.41" fill="#dbe6ff" opacity="0.24"/><circle cx="584.94" cy="128.4" r="1.26" fill="#dbe6ff" opacity="0.44"/><circle cx="86.73" cy="79.35" r="1.17" fill="#dbe6ff" opacity="0.37"/><circle cx="685.93" cy="205.42" r="1.05" fill="#dbe6ff" opacity="0.11"/><circle cx="825.93" cy="400.92" r="1.34" fill="#dbe6ff" opacity="0.38"/><circle cx="66.29" cy="159.72" r="0.44" fill="#dbe6ff" opacity="0.2"/><circle cx="347.79" cy="331.86" r="0.67" fill="#dbe6ff" opacity="0.13"/><circle cx="682.95" cy="293.85" r="0.8" fill="#dbe6ff" opacity="0.24"/><circle cx="390.74" cy="273.34" r="1.36" fill="#dbe6ff" opacity="0.41"/><circle cx="689.13" cy="122" r="1.12" fill="#dbe6ff" opacity="0.33"/><circle cx="565.81" cy="134.47" r="1.35" fill="#dbe6ff" opacity="0.18"/><circle cx="767.55" cy="333.07" r="1.25" fill="#dbe6ff" opacity="0.52"/><circle cx="523.39" cy="318.79" r="1.2" fill="#dbe6ff" opacity="0.35"/><circle cx="640.67" cy="194.36" r="1.49" fill="#dbe6ff" opacity="0.2"/><circle cx="260.16" cy="163.79" r="1.13" fill="#dbe6ff" opacity="0.37"/><circle cx="630.62" cy="382.11" r="1.22" fill="#dbe6ff" opacity="0.31"/><circle cx="822.88" cy="201.7" r="1.11" fill="#dbe6ff" opacity="0.52"/></g><g opacity="0"><text x="415" y="200" text-anchor="middle" font-family="ui-sans-serif, system-ui, -apple-system, 'Segoe UI', sans-serif" font-size="36" fill="#e8ecf5" font-weight="bold" letter-spacing="5">THE EPIC OF A&amp;B&lt;C&gt;</text><text x="415" y="240" text-anchor="middle" font-family="ui-sans-serif, system-ui, -apple-system, 'Segoe UI', sans-serif" font-size="17" fill="#8b93a7" letter-spacing="3">· est. 2019 ·</text><animate attributeName="opacity" begin="0s" dur="3s" values="0;1;1;0" keyTimes="0;0.12;0.88;1" fill="freeze"/></g><g opacity="0"><circle cx="415" cy="186" r="46" fill="#ffd27d" opacity="0.08"/><circle cx="415" cy="186" r="27" fill="#ffd27d" opacity="0.2"/><circle cx="415" cy="186" r="13" fill="#ffd27d" opacity="0.55"/><circle cx="415" cy="186" r="5" fill="#ffd27d"/><text x="415" y="372" text-anchor="middle" font-family="ui-sans-serif, system-ui, -apple-system, 'Segoe UI', sans-serif" font-size="17" fill="#e8ecf5">In the year 2019, the developer first set foot upon the public forge, and the epic began.</text><animate attributeName="opacity" begin="3s" dur="3.5s" values="0;1;1;0" keyTimes="0;0.12;0.88;1" fill="freeze"/></g><g opacity="0"><text x="415" y="200" text-anchor="middle" font-family="ui-sans-serif, system-ui, -apple-system, 'Segoe UI', sans-serif" font-size="26" fill="#e8ecf5" font-weight="bold" letter-spacing="4">PRESENT DAY</text><text x="415" y="234" text-anchor="middle" font-family="ui-sans-serif, system-ui, -apple-system, 'Segoe UI', sans-serif" font-size="15" fill="#8b93a7" letter-spacing="2">2026-07-04</text><animate attributeName="opacity" begin="6.5s" dur="3s" values="0;1;1;0" keyTimes="0;0.12;0.88;1" fill="freeze"/></g><g opacity="0"><circle cx="415" cy="186" r="30" fill="#ffd27d" opacity="0.16"/><circle cx="415" cy="186" r="6" fill="#ffd27d"><animate attributeName="r" begin="9.5s" dur="7s" values="6;9;6" repeatCount="indefinite"/></circle><circle cx="611.64" cy="304.54" r="1.4" fill="#dbe6ff" opacity="0.2"><animate attributeName="opacity" begin="9.5s" dur="6.62s" values="0.2;0.8;0.2" repeatCount="indefinite"/></circle><circle cx="652.59" cy="372.09" r="1.4" fill="#dbe6ff" opacity="0.2"><animate attributeName="opacity" begin="9.5s" dur="5.02s" values="0.2;0.8;0.2" repeatCount="indefinite"/></circle><circle cx="504.88" cy="351.84" r="1.4" fill="#dbe6ff" opacity="0.2"><animate attributeName="opacity" begin="9.5s" dur="7.87s" values="0.2;0.8;0.2" repeatCount="indefinite"/></circle><circle cx="523.79" cy="376.88" r="1.4" fill="#dbe6ff" opacity="0.2"><animate attributeName="opacity" begin="9.5s" dur="5.95s" values="0.2;0.8;0.2" repeatCount="indefinite"/></circle><circle cx="485.81" cy="284.36" r="1.4" fill="#dbe6ff" opacity="0.2"><animate attributeName="opacity" begin="9.5s" dur="4.64s" values="0.2;0.8;0.2" repeatCount="indefinite"/></circle><circle cx="519.58" cy="397.75" r="1.4" fill="#dbe6ff" opacity="0.2"><animate attributeName="opacity" begin="9.5s" dur="6.66s" values="0.2;0.8;0.2" repeatCount="indefinite"/></circle><circle cx="571.75" cy="303.92" r="1.4" fill="#dbe6ff" opacity="0.2"><animate attributeName="opacity" begin="9.5s" dur="7.89s" values="0.2;0.8;0.2" repeatCount="indefinite"/></circle><circle cx="150.24" cy="387.95" r="1.4" fill="#dbe6ff" opacity="0.2"><animate attributeName="opacity" begin="9.5s" dur="5.87s" values="0.2;0.8;0.2" repeatCount="indefinite"/></circle><text x="415" y="342" text-anchor="middle" font-family="ui-sans-serif, system-ui, -apple-system, 'Segoe UI', sans-serif" font-size="20" fill="#e8ecf5" letter-spacing="1">The Epic of a&amp;b&lt;c&gt;</text><text x="415" y="390" text-anchor="middle" font-family="ui-sans-serif, system-ui, -apple-system, 'Segoe UI', sans-serif" font-size="13" fill="#8b93a7">✦ forge yours at git-epic.dev</text><animate attributeName="opacity" begin="9.5s" dur="1.2s" values="0;1" fill="freeze"/></g></svg>