<svg xmlns="http://www.w3.org/2000/svg" width="507" height="360" viewBox="0 0 507 360" role="img"><title>The Epic of &lt;b&gt;&amp;&quot;weird</title><desc>In the year 2022, the developer first set foot upon the public forge, and the epic began. Then fell the Dark Age: one thousand six hundred and two days without a commit, and the silence endures.</desc><defs><linearGradient id="mural-sky" x1="0" y1="0" x2="0" y2="1"><stop offset="0%" stop-color="#f6b26b"/><stop offset="100%" stop-color="#fbe3bd"/></linearGradient></defs><rect x="0" y="0" width="507" height="150" fill="url(#mural-sky)"/><rect x="0" y="150" width="507" height="60" fill="#d98b4a"/><g transform="translate(24,0)"><rect x="-24" y="210" width="172" height="90" fill="#b9793d"/></g><g transform="translate(160,0)"><rect x="0" y="210" width="199" height="90" fill="#b9793d"/></g><g transform="translate(347,0)"><rect x="0" y="210" width="160" height="90" fill="#e6bd7f"/></g><polyline points="0,300 507,300" fill="none" stroke="#caa268" stroke-width="4"/><g transform="translate(30,300) scale(28.93,46)"><polygon points="0,0 1,0 0.5,-1" fill="#a86a3a" stroke="#3a2417" stroke-width="1" vector-effect="non-scaling-stroke"/><polygon points="0.5,0 1,0 0.5,-1" fill="#6f3f20" stroke="#3a2417" stroke-width="1" vector-effect="non-scaling-stroke"/></g><g transform="translate(71.33,300) scale(28.93,34)"><rect x="0.4" y="-0.85" width="0.2" height="0.85" fill="#a86a3a" stroke="#3a2417" stroke-width="1" vector-effect="non-scaling-stroke"/><polygon points="0.4,-0.85 0.6,-0.85 0.5,-1" fill="#6f3f20" stroke="#3a2417" stroke-width="1" vector-effect="non-scaling-stroke"/></g><g transform="translate(112.67,300) scale(28.93,46)"><polygon points="0,0 1,0 0.5,-1" fill="#a86a3a" stroke="#3a2417" stroke-width="1" vector-effect="non-scaling-stroke"/><polygon points="0.5,0 1,0 0.5,-1" fill="#6f3f20" stroke="#3a2417" stroke-width="1" vector-effect="non-scaling-stroke"/></g><g transform="translate(166,300) scale(40.83,46)"><polygon points="0,0 1,0 0.5,-1" fill="#a86a3a" stroke="#3a2417" stroke-width="1" vector-effect="non-scaling-stroke"/><polygon points="0.5,0 1,0 0.5,-1" fill="#6f3f20" stroke="#3a2417" stroke-width="1" vector-effect="non-scaling-stroke"/></g><g transform="translate(224.33,300) scale(40.83,34)"><rect x="0.4" y="-0.85" width="0.2" height="0.85" fill="#a86a3a" stroke="#3a2417" stroke-width="1" vector-effect="non-scaling-stroke"/><polygon points="0.4,-0.85 0.6,-0.85 0.5,-1" fill="#6f3f20" stroke="#3a2417" stroke-width="1" vector-effect="non-scaling-stroke"/></g><g transform="translate(282.67,300) scale(40.83,46)"><polygon points="0,0 1,0 0.5,-1" fill="#a86a3a" stroke="#3a2417" stroke-width="1" vector-effect="non-scaling-stroke"/><polygon points="0.5,0 1,0 0.5,-1" fill="#6f3f20" stroke="#3a2417" stroke-width="1" vector-effect="non-scaling-stroke"/></g><g transform="translate(353,300) scale(43.4,46)"><polygon points="0,0 1,0 0.5,-1" fill="#d69a54" stroke="#3a2417" stroke-width="1" vector-effect="non-scaling-stroke"/><polygon points="0.5,0 1,0 0.5,-1" fill="#8a5228" stroke="#3a2417" stroke-width="1" vector-effect="non-scaling-stroke"/></g><g transform="translate(415,300) scale(43.4,34)"><rect x="0.4" y="-0.85" width="0.2" height="0.85" fill="#d69a54" stroke="#3a2417" stroke-width="1" vector-effect="non-scaling-stroke"/><polygon points="0.4,-0.85 0.6,-0.85 0.5,-1" fill="#8a5228" stroke="#3a2417" stroke-width="1" vector-effect="non-scaling-stroke"/></g><rect x="24" y="302.25" width="4" height="28.75" fill="#8a4a22"/><rect x="28" y="302.25" width="4" height="28.75" fill="#8a4a22"/><rect x="32" y="328.52" width="4" height="2.48" fill="#f0d5a8"/><rect x="36" y="302.25" width="4" height="28.75" fill="#8a4a22"/><rect x="40" y="302.25" width="4" height="28.75" fill="#8a4a22"/><rect x="44" y="328.52" width="4" height="2.48" fill="#f0d5a8"/><rect x="48" y="302.25" width="4" height="28.75" fill="#8a4a22"/><rect x="52" y="302.25" width="4" height="28.75" fill="#8a4a22"/><rect x="56" y="328.52" width="4" height="2.48" fill="#f0d5a8"/><rect x="60" y="302.25" width="4" height="28.75" fill="#8a4a22"/><rect x="64" y="302.25" width="4" height="28.75" fill="#8a4a22"/><rect x="68" y="328.52" width="4" height="2.48" fill="#f0d5a8"/><rect x="72" y="302.25" width="4" height="28.75" fill="#8a4a22"/><rect x="76" y="302.25" width="4" height="28.75" fill="#8a4a22"/><rect x="80" y="328.52" width="4" height="2.48" fill="#f0d5a8"/><rect x="84" y="302.25" width="4" height="28.75" fill="#8a4a22"/><rect x="88" y="328.52" width="4" height="2.48" fill="#f0d5a8"/><rect x="92" y="302.25" width="4" height="28.75" fill="#8a4a22"/><rect x="96" y="302.25" width="4" height="28.75" fill="#8a4a22"/><rect x="100" y="328.52" width="4" height="2.48" fill="#f0d5a8"/><rect x="104" y="302.25" width="4" height="28.75" fill="#8a4a22"/><rect x="108" y="302.25" width="4" height="28.75" fill="#8a4a22"/><rect x="112" y="328.52" width="4" height="2.48" fill="#f0d5a8"/><rect x="116" y="302.25" width="4" height="28.75" fill="#8a4a22"/><rect x="120" y="302.25" width="4" height="28.75" fill="#8a4a22"/><rect x="124" y="328.52" width="4" height="2.48" fill="#f0d5a8"/><rect x="128" y="302.25" width="4" height="28.75" fill="#8a4a22"/><rect x="132" y="302.25" width="4" height="28.75" fill="#8a4a22"/><rect x="136" y="328.52" width="4" height="2.48" fill="#f0d5a8"/><rect x="140" y="302.25" width="4" height="28.75" fill="#8a4a22"/><rect x="144" y="302.25" width="4" height="28.75" fill="#8a4a22"/><rect x="148" y="328.52" width="4" height="2.48" fill="#f0d5a8"/><rect x="152" y="302.25" width="4" height="28.75" fill="#8a4a22"/><rect x="156" y="328.52" width="4" height="2.48" fill="#f0d5a8"/><rect x="160" y="315.05" width="3.98" height="15.95" fill="#d18f4b"/><rect x="163.98" y="327.81" width="3.98" height="3.19" fill="#f0d5a8"/><rect x="167.96" y="328.52" width="3.98" height="2.48" fill="#f0d5a8"/><rect x="171.94" y="328.52" width="3.98" height="2.48" fill="#f0d5a8"/><rect x="175.91" y="328.52" width="3.98" height="2.48" fill="#f0d5a8"/><rect x="179.89" y="328.52" width="3.98" height="2.48" fill="#f0d5a8"/><rect x="183.87" y="328.52" width="3.98" height="2.48" fill="#f0d5a8"/><rect x="187.85" y="328.52" width="3.98" height="2.48" fill="#f0d5a8"/><rect x="191.83" y="328.52" width="3.98" height="2.48" fill="#f0d5a8"/><rect x="195.81" y="328.52" width="3.98" height="2.48" fill="#f0d5a8"/><rect x="199.79" y="328.52" width="3.98" height="2.48" fill="#f0d5a8"/><rect x="203.77" y="328.52" width="3.98" height="2.48" fill="#f0d5a8"/><rect x="207.74" y="328.52" width="3.98" height="2.48" fill="#f0d5a8"/><rect x="211.72" y="328.52" width="3.98" height="2.48" fill="#f0d5a8"/><rect x="215.7" y="328.52" width="3.98" height="2.48" fill="#f0d5a8"/><rect x="219.68" y="328.52" width="3.98" height="2.48" fill="#f0d5a8"/><rect x="223.66" y="328.52" width="3.98" height="2.48" fill="#f0d5a8"/><rect x="227.64" y="328.52" width="3.98" height="2.48" fill="#f0d5a8"/><rect x="231.62" y="328.52" width="3.98" height="2.48" fill="#f0d5a8"/><rect x="235.6" y="328.52" width="3.98" height="2.48" fill="#f0d5a8"/><rect x="239.57" y="328.52" width="3.98" height="2.48" fill="#f0d5a8"/><rect x="243.55" y="328.52" width="3.98" height="2.48" fill="#f0d5a8"/><rect x="247.53" y="328.52" width="3.98" height="2.48" fill="#f0d5a8"/><rect x="251.51" y="328.52" width="3.98" height="2.48" fill="#f0d5a8"/><rect x="255.49" y="328.52" width="3.98" height="2.48" fill="#f0d5a8"/><rect x="259.47" y="328.52" width="3.98" height="2.48" fill="#f0d5a8"/><rect x="263.45" y="328.52" width="3.98" height="2.48" fill="#f0d5a8"/><rect x="267.43" y="328.52" width="3.98" height="2.48" fill="#f0d5a8"/><rect x="271.4" y="328.52" width="3.98" height="2.48" fill="#f0d5a8"/><rect x="275.38" y="328.52" width="3.98" height="2.48" fill="#f0d5a8"/><rect x="279.36" y="328.52" width="3.98" height="2.48" fill="#f0d5a8"/><rect x="283.34" y="328.52" width="3.98" height="2.48" fill="#f0d5a8"/><rect x="287.32" y="328.52" width="3.98" height="2.48" fill="#f0d5a8"/><rect x="291.3" y="328.52" width="3.98" height="2.48" fill="#f0d5a8"/><rect x="295.28" y="328.52" width="3.98" height="2.48" fill="#f0d5a8"/><rect x="299.26" y="328.52" width="3.98" height="2.48" fill="#f0d5a8"/><rect x="303.23" y="328.52" width="3.98" height="2.48" fill="#f0d5a8"/><rect x="307.21" y="328.52" width="3.98" height="2.48" fill="#f0d5a8"/><rect x="311.19" y="328.52" width="3.98" height="2.48" fill="#f0d5a8"/><rect x="315.17" y="328.52" width="3.98" height="2.48" fill="#f0d5a8"/><rect x="319.15" y="328.52" width="3.98" height="2.48" fill="#f0d5a8"/><rect x="323.13" y="328.52" width="3.98" height="2.48" fill="#f0d5a8"/><rect x="327.11" y="328.52" width="3.98" height="2.48" fill="#f0d5a8"/><rect x="331.09" y="328.52" width="3.98" height="2.48" fill="#f0d5a8"/><rect x="335.06" y="328.52" width="3.98" height="2.48" fill="#f0d5a8"/><rect x="339.04" y="328.52" width="3.98" height="2.48" fill="#f0d5a8"/><rect x="343.02" y="328.52" width="3.98" height="2.48" fill="#f0d5a8"/><rect x="347" y="328.52" width="4" height="2.48" fill="#f0d5a8"/><rect x="351" y="328.52" width="4" height="2.48" fill="#f0d5a8"/><rect x="355" y="328.52" width="4" height="2.48" fill="#f0d5a8"/><rect x="359" y="328.52" width="4" height="2.48" fill="#f0d5a8"/><rect x="363" y="328.52" width="4" height="2.48" fill="#f0d5a8"/><rect x="367" y="328.52" width="4" height="2.48" fill="#f0d5a8"/><rect x="371" y="328.52" width="4" height="2.48" fill="#f0d5a8"/><rect x="375" y="328.52" width="4" height="2.48" fill="#f0d5a8"/><rect x="379" y="328.52" width="4" height="2.48" fill="#f0d5a8"/><rect x="383" y="328.52" width="4" height="2.48" fill="#f0d5a8"/><rect x="387" y="328.52" width="4" height="2.48" fill="#f0d5a8"/><rect x="391" y="328.52" width="4" height="2.48" fill="#f0d5a8"/><rect x="395" y="328.52" width="4" height="2.48" fill="#f0d5a8"/><rect x="399" y="328.52" width="4" height="2.48" fill="#f0d5a8"/><rect x="403" y="328.52" width="4" height="2.48" fill="#f0d5a8"/><rect x="407" y="328.52" width="4" height="2.48" fill="#f0d5a8"/><rect x="411" y="328.52" width="4" height="2.48" fill="#f0d5a8"/><rect x="415" y="328.52" width="4" height="2.48" fill="#f0d5a8"/><rect x="419" y="328.52" width="4" height="2.48" fill="#f0d5a8"/><rect x="423" y="328.52" width="4" height="2.48" fill="#f0d5a8"/><rect x="427" y="328.52" width="4" height="2.48" fill="#f0d5a8"/><rect x="431" y="328.52" width="4" height="2.48" fill="#f0d5a8"/><rect x="435" y="328.52" width="4" height="2.48" fill="#f0d5a8"/><rect x="439" y="328.52" width="4" height="2.48" fill="#f0d5a8"/><rect x="443" y="328.52" width="4" height="2.48" fill="#f0d5a8"/><rect x="447" y="328.52" width="4" height="2.48" fill="#f0d5a8"/><rect x="451" y="328.52" width="4" height="2.48" fill="#f0d5a8"/><rect x="455" y="328.52" width="4" height="2.48" fill="#f0d5a8"/><rect x="459" y="328.52" width="4" height="2.48" fill="#f0d5a8"/><rect x="463" y="328.52" width="4" height="2.48" fill="#f0d5a8"/><rect x="467" y="328.52" width="4" height="2.48" fill="#f0d5a8"/><rect x="471" y="328.52" width="4" height="2.48" fill="#f0d5a8"/><rect x="475" y="328.52" width="4" height="2.48" fill="#f0d5a8"/><rect x="479" y="328.52" width="4" height="2.48" fill="#f0d5a8"/><rect x="366" y="340" width="8" height="8" fill="#f0d5a8"/><rect x="377" y="340" width="8" height="8" fill="#e3b877"/><rect x="388" y="340" width="8" height="8" fill="#d18f4b"/><rect x="399" y="340" width="8" height="8" fill="#b3672f"/><rect x="410" y="340" width="8" height="8" fill="#8a4a22"/><text x="363" y="348" font-family="system-ui, -apple-system, 'Segoe UI', Roboto, sans-serif" font-size="9" fill="#3a2417" text-anchor="end">Less activity</text><text x="421" y="348" font-family="system-ui, -apple-system, 'Segoe UI', Roboto, sans-serif" font-size="9" fill="#3a2417" text-anchor="start">More activity</text><text x="24" y="28" font-family="system-ui, -apple-system, 'Segoe UI', Roboto, sans-serif" font-size="13" fill="#3a2417" text-anchor="start" letter-spacing="0.5">&lt;b&gt;&amp;&quot;weird · since 2019</text><text x="92" y="52" font-family="system-ui, -apple-system, 'Segoe UI', Roboto, sans-serif" font-size="14" fill="#3a2417" text-anchor="middle" letter-spacing="1.5" font-weight="bold">THE FOUNDING</text><text x="253.5" y="52" font-family="system-ui, -apple-system, 'Segoe UI', Roboto, sans-serif" font-size="14" fill="#3a2417" text-anchor="middle" letter-spacing="1.5" font-weight="bold">THE DARK AGE</text><text x="415" y="52" font-family="system-ui, -apple-system, 'Segoe UI', Roboto, sans-serif" font-size="14" fill="#3a2417" text-anchor="middle" letter-spacing="1.5" font-weight="bold">PRESENT DAY</text><text x="415" y="290" font-family="system-ui, -apple-system, 'Segoe UI', Roboto, sans-serif" font-size="11" fill="#3a2417" text-anchor="middle" letter-spacing="1">PRESENT DAY</text></svg>