<svg xmlns="http://www.w3.org/2000/svg" width="720" height="150" viewBox="0 0 720 150">
<rect x="0" y="0" width="720" height="150" fill="#fbe3bd"/>
<g transform="translate(20, 110) scale(80)"><rect x="0.46" y="-1" width="0.08" height="1" fill="#d69a54" stroke="#3a2417" stroke-width="1" vector-effect="non-scaling-stroke"/><rect x="0.3" y="-1" width="0.4" height="0.55" fill="#8a5228" stroke="#3a2417" stroke-width="1" vector-effect="non-scaling-stroke"/></g><text x="60" y="132" text-anchor="middle" font-family="system-ui, sans-serif" font-size="11" fill="#3a2417">banner</text><text x="60" y="146" text-anchor="middle" font-family="system-ui, sans-serif" font-size="9" fill="#8f4a24">languageBreadth</text>
<g transform="translate(140, 110) scale(80)"><polygon points="0.15,0 0.15,-0.7 0.5,-0.9 0.85,-0.7 0.85,0" fill="#d69a54" stroke="#3a2417" stroke-width="1" vector-effect="non-scaling-stroke"/><polygon points="0.3,-0.9 0.38,-1 0.46,-0.9 0.54,-1 0.62,-0.9 0.7,-1 0.78,-0.9" fill="#f2c14e" stroke="#3a2417" stroke-width="1" vector-effect="non-scaling-stroke"/></g><text x="180" y="132" text-anchor="middle" font-family="system-ui, sans-serif" font-size="11" fill="#3a2417">crownGate</text><text x="180" y="146" text-anchor="middle" font-family="system-ui, sans-serif" font-size="9" fill="#8f4a24">stars</text>
<g transform="translate(260, 110) scale(80)"><polygon points="0,0 0.55,0 1,-1 0.5,-1" fill="#d69a54" stroke="#3a2417" stroke-width="1" vector-effect="non-scaling-stroke"/></g><text x="300" y="132" text-anchor="middle" font-family="system-ui, sans-serif" font-size="11" fill="#3a2417">sideRoad</text><text x="300" y="146" text-anchor="middle" font-family="system-ui, sans-serif" font-size="9" fill="#8f4a24">forks</text>
<g transform="translate(380, 110) scale(80)"><polygon points="0.3,0 0.7,0 0.62,-0.6 0.38,-0.6" fill="#d69a54" stroke="#3a2417" stroke-width="1" vector-effect="non-scaling-stroke"/><circle cx="0.5" cy="-0.78" r="0.16" fill="#8a5228" stroke="#3a2417" stroke-width="1" vector-effect="non-scaling-stroke"/></g><text x="420" y="132" text-anchor="middle" font-family="system-ui, sans-serif" font-size="11" fill="#3a2417">crowd</text><text x="420" y="146" text-anchor="middle" font-family="system-ui, sans-serif" font-size="9" fill="#8f4a24">followers</text>
<g transform="translate(500, 110) scale(80)"><rect x="0.1" y="-0.5" width="0.12" height="0.5" fill="#d69a54" stroke="#3a2417" stroke-width="1" vector-effect="non-scaling-stroke"/><rect x="0.78" y="-0.5" width="0.12" height="0.5" fill="#d69a54" stroke="#3a2417" stroke-width="1" vector-effect="non-scaling-stroke"/><rect x="0" y="-0.5" width="1" height="0.16" fill="#8a5228" stroke="#3a2417" stroke-width="1" vector-effect="non-scaling-stroke"/></g><text x="540" y="132" text-anchor="middle" font-family="system-ui, sans-serif" font-size="11" fill="#3a2417">bridge</text><text x="540" y="146" text-anchor="middle" font-family="system-ui, sans-serif" font-size="9" fill="#8f4a24">pullRequests</text>
<g transform="translate(620, 110) scale(80)"><rect x="0.45" y="-0.55" width="0.1" height="0.55" fill="#d69a54" stroke="#3a2417" stroke-width="1" vector-effect="non-scaling-stroke"/><rect x="0.15" y="-1" width="0.7" height="0.45" fill="#8a5228" stroke="#3a2417" stroke-width="1" vector-effect="non-scaling-stroke"/></g><text x="660" y="132" text-anchor="middle" font-family="system-ui, sans-serif" font-size="11" fill="#3a2417">noticeBoard</text><text x="660" y="146" text-anchor="middle" font-family="system-ui, sans-serif" font-size="9" fill="#8f4a24">issues</text>
</svg>