<svg xmlns="http://www.w3.org/2000/svg" width="728" height="360" viewBox="0 0 728 360" role="img"><title>The Epic of quiet-tinkerer</title><desc>In the year 2021, the developer first set foot upon the public forge, and the epic began. In the year 2022, the developer forsook Shell, and there was much refactoring. In the year 2025, the developer forsook TypeScript, and there was much refactoring.</desc><defs><linearGradient id="mural-sky" x1="0" y1="0" x2="0" y2="1"><stop offset="0%" stop-color="#f6b26b"/><stop offset="100%" stop-color="#fbe3bd"/></linearGradient></defs><rect x="0" y="0" width="728" height="150" fill="url(#mural-sky)"/><rect x="0" y="150" width="728" height="60" fill="#d98b4a"/><g transform="translate(24,0)"><rect x="-24" y="210" width="196" height="90" fill="#b9793d"/></g><g transform="translate(184,0)"><rect x="0" y="210" width="192" height="90" fill="#b9793d"/></g><g transform="translate(364,0)"><rect x="0" y="210" width="192" height="90" fill="#cf9b57"/></g><g transform="translate(544,0)"><rect x="0" y="210" width="184" height="90" fill="#e6bd7f"/></g><polyline points="0,300 728,300" fill="none" stroke="#caa268" stroke-width="4"/><g transform="translate(30,300) scale(20.72,82)"><rect x="0.2" y="-0.8" width="0.6" height="0.8" fill="#a86a3a" stroke="#3a2417" stroke-width="1" vector-effect="non-scaling-stroke"/><polygon points="0.15,-0.8 0.85,-0.8 0.5,-1" fill="#6f3f20" stroke="#3a2417" stroke-width="1" vector-effect="non-scaling-stroke"/><rect x="0.42" y="-0.3" width="0.16" height="0.3" fill="#6f3f20" stroke="#3a2417" stroke-width="1" vector-effect="non-scaling-stroke"/><rect x="0.3" y="-0.6" width="0.12" height="0.12" fill="#6f3f20" stroke="#3a2417" stroke-width="1" vector-effect="non-scaling-stroke"/></g><g transform="translate(59.6,300) scale(20.72,54)"><rect x="0.4" y="-0.85" width="0.2" height="0.85" fill="#a86a3a" stroke="#3a2417" stroke-width="1" vector-effect="non-scaling-stroke"/><polygon points="0.4,-0.85 0.6,-0.85 0.5,-1" fill="#6f3f20" stroke="#3a2417" stroke-width="1" vector-effect="non-scaling-stroke"/></g><g transform="translate(89.2,300) scale(20.72,82)"><rect x="0.2" y="-0.8" width="0.6" height="0.8" fill="#a86a3a" stroke="#3a2417" stroke-width="1" vector-effect="non-scaling-stroke"/><polygon points="0.15,-0.8 0.85,-0.8 0.5,-1" fill="#6f3f20" stroke="#3a2417" stroke-width="1" vector-effect="non-scaling-stroke"/><rect x="0.42" y="-0.3" width="0.16" height="0.3" fill="#6f3f20" stroke="#3a2417" stroke-width="1" vector-effect="non-scaling-stroke"/><rect x="0.3" y="-0.6" width="0.12" height="0.12" fill="#6f3f20" stroke="#3a2417" stroke-width="1" vector-effect="non-scaling-stroke"/></g><g transform="translate(118.8,300) scale(20.72,16)"><polygon points="0.1,0 0.35,-0.5 0.6,-0.6 0.9,-0.3 1,0" fill="#a86a3a" stroke="#3a2417" stroke-width="1" vector-effect="non-scaling-stroke"/><circle cx="0.7" cy="-0.15" r="0.08" fill="#6f3f20" stroke="#3a2417" stroke-width="1" vector-effect="non-scaling-stroke"/></g><g transform="translate(148.4,300) scale(20.72,82)"><rect x="0.2" y="-0.8" width="0.6" height="0.8" fill="#a86a3a" stroke="#3a2417" stroke-width="1" vector-effect="non-scaling-stroke"/><polygon points="0.15,-0.8 0.85,-0.8 0.5,-1" fill="#6f3f20" stroke="#3a2417" stroke-width="1" vector-effect="non-scaling-stroke"/><rect x="0.42" y="-0.3" width="0.16" height="0.3" fill="#6f3f20" stroke="#3a2417" stroke-width="1" vector-effect="non-scaling-stroke"/><rect x="0.3" y="-0.6" width="0.12" height="0.12" fill="#6f3f20" stroke="#3a2417" stroke-width="1" vector-effect="non-scaling-stroke"/></g><g transform="translate(190,300) scale(19.6,82)"><rect x="0.2" y="-0.8" width="0.6" height="0.8" fill="#a86a3a" stroke="#3a2417" stroke-width="1" vector-effect="non-scaling-stroke"/><polygon points="0.15,-0.8 0.85,-0.8 0.5,-1" fill="#6f3f20" stroke="#3a2417" stroke-width="1" vector-effect="non-scaling-stroke"/><rect x="0.42" y="-0.3" width="0.16" height="0.3" fill="#6f3f20" stroke="#3a2417" stroke-width="1" vector-effect="non-scaling-stroke"/><rect x="0.3" y="-0.6" width="0.12" height="0.12" fill="#6f3f20" stroke="#3a2417" stroke-width="1" vector-effect="non-scaling-stroke"/></g><g transform="translate(218,300) scale(19.6,54)"><rect x="0.4" y="-0.85" width="0.2" height="0.85" fill="#a86a3a" stroke="#3a2417" stroke-width="1" vector-effect="non-scaling-stroke"/><polygon points="0.4,-0.85 0.6,-0.85 0.5,-1" fill="#6f3f20" stroke="#3a2417" stroke-width="1" vector-effect="non-scaling-stroke"/></g><g transform="translate(246,300) scale(19.6,82)"><rect x="0.2" y="-0.8" width="0.6" height="0.8" fill="#a86a3a" stroke="#3a2417" stroke-width="1" vector-effect="non-scaling-stroke"/><polygon points="0.15,-0.8 0.85,-0.8 0.5,-1" fill="#6f3f20" stroke="#3a2417" stroke-width="1" vector-effect="non-scaling-stroke"/><rect x="0.42" y="-0.3" width="0.16" height="0.3" fill="#6f3f20" stroke="#3a2417" stroke-width="1" vector-effect="non-scaling-stroke"/><rect x="0.3" y="-0.6" width="0.12" height="0.12" fill="#6f3f20" stroke="#3a2417" stroke-width="1" vector-effect="non-scaling-stroke"/></g><g transform="translate(274,300) scale(19.6,16)"><polygon points="0.1,0 0.35,-0.5 0.6,-0.6 0.9,-0.3 1,0" fill="#a86a3a" stroke="#3a2417" stroke-width="1" vector-effect="non-scaling-stroke"/><circle cx="0.7" cy="-0.15" r="0.08" fill="#6f3f20" stroke="#3a2417" stroke-width="1" vector-effect="non-scaling-stroke"/></g><g transform="translate(302,300) scale(19.6,82)"><rect x="0.2" y="-0.8" width="0.6" height="0.8" fill="#a86a3a" stroke="#3a2417" stroke-width="1" vector-effect="non-scaling-stroke"/><polygon points="0.15,-0.8 0.85,-0.8 0.5,-1" fill="#6f3f20" stroke="#3a2417" stroke-width="1" vector-effect="non-scaling-stroke"/><rect x="0.42" y="-0.3" width="0.16" height="0.3" fill="#6f3f20" stroke="#3a2417" stroke-width="1" vector-effect="non-scaling-stroke"/><rect x="0.3" y="-0.6" width="0.12" height="0.12" fill="#6f3f20" stroke="#3a2417" stroke-width="1" vector-effect="non-scaling-stroke"/></g><g transform="translate(330,300) scale(19.6,54)"><rect x="0.4" y="-0.85" width="0.2" height="0.85" fill="#a86a3a" stroke="#3a2417" stroke-width="1" vector-effect="non-scaling-stroke"/><polygon points="0.4,-0.85 0.6,-0.85 0.5,-1" fill="#6f3f20" stroke="#3a2417" stroke-width="1" vector-effect="non-scaling-stroke"/></g><g transform="translate(370,300) scale(19.6,82)"><rect x="0.2" y="-0.8" width="0.6" height="0.8" fill="#c07f3f" stroke="#3a2417" stroke-width="1" vector-effect="non-scaling-stroke"/><polygon points="0.15,-0.8 0.85,-0.8 0.5,-1" fill="#7d4a22" stroke="#3a2417" stroke-width="1" vector-effect="non-scaling-stroke"/><rect x="0.42" y="-0.3" width="0.16" height="0.3" fill="#7d4a22" stroke="#3a2417" stroke-width="1" vector-effect="non-scaling-stroke"/><rect x="0.3" y="-0.6" width="0.12" height="0.12" fill="#7d4a22" stroke="#3a2417" stroke-width="1" vector-effect="non-scaling-stroke"/></g><g transform="translate(398,300) scale(19.6,54)"><rect x="0.4" y="-0.85" width="0.2" height="0.85" fill="#c07f3f" stroke="#3a2417" stroke-width="1" vector-effect="non-scaling-stroke"/><polygon points="0.4,-0.85 0.6,-0.85 0.5,-1" fill="#7d4a22" stroke="#3a2417" stroke-width="1" vector-effect="non-scaling-stroke"/></g><g transform="translate(426,300) scale(19.6,82)"><rect x="0.2" y="-0.8" width="0.6" height="0.8" fill="#c07f3f" stroke="#3a2417" stroke-width="1" vector-effect="non-scaling-stroke"/><polygon points="0.15,-0.8 0.85,-0.8 0.5,-1" fill="#7d4a22" stroke="#3a2417" stroke-width="1" vector-effect="non-scaling-stroke"/><rect x="0.42" y="-0.3" width="0.16" height="0.3" fill="#7d4a22" stroke="#3a2417" stroke-width="1" vector-effect="non-scaling-stroke"/><rect x="0.3" y="-0.6" width="0.12" height="0.12" fill="#7d4a22" stroke="#3a2417" stroke-width="1" vector-effect="non-scaling-stroke"/></g><g transform="translate(454,300) scale(19.6,16)"><polygon points="0.1,0 0.35,-0.5 0.6,-0.6 0.9,-0.3 1,0" fill="#c07f3f" stroke="#3a2417" stroke-width="1" vector-effect="non-scaling-stroke"/><circle cx="0.7" cy="-0.15" r="0.08" fill="#7d4a22" stroke="#3a2417" stroke-width="1" vector-effect="non-scaling-stroke"/></g><g transform="translate(482,300) scale(19.6,82)"><rect x="0.2" y="-0.8" width="0.6" height="0.8" fill="#c07f3f" stroke="#3a2417" stroke-width="1" vector-effect="non-scaling-stroke"/><polygon points="0.15,-0.8 0.85,-0.8 0.5,-1" fill="#7d4a22" stroke="#3a2417" stroke-width="1" vector-effect="non-scaling-stroke"/><rect x="0.42" y="-0.3" width="0.16" height="0.3" fill="#7d4a22" stroke="#3a2417" stroke-width="1" vector-effect="non-scaling-stroke"/><rect x="0.3" y="-0.6" width="0.12" height="0.12" fill="#7d4a22" stroke="#3a2417" stroke-width="1" vector-effect="non-scaling-stroke"/></g><g transform="translate(510,300) scale(19.6,54)"><rect x="0.4" y="-0.85" width="0.2" height="0.85" fill="#c07f3f" stroke="#3a2417" stroke-width="1" vector-effect="non-scaling-stroke"/><polygon points="0.4,-0.85 0.6,-0.85 0.5,-1" fill="#7d4a22" stroke="#3a2417" stroke-width="1" vector-effect="non-scaling-stroke"/></g><g transform="translate(550,300) scale(20.72,82)"><rect x="0.2" y="-0.8" width="0.6" height="0.8" fill="#d69a54" stroke="#3a2417" stroke-width="1" vector-effect="non-scaling-stroke"/><polygon points="0.15,-0.8 0.85,-0.8 0.5,-1" fill="#8a5228" stroke="#3a2417" stroke-width="1" vector-effect="non-scaling-stroke"/><rect x="0.42" y="-0.3" width="0.16" height="0.3" fill="#8a5228" stroke="#3a2417" stroke-width="1" vector-effect="non-scaling-stroke"/><rect x="0.3" y="-0.6" width="0.12" height="0.12" fill="#8a5228" stroke="#3a2417" stroke-width="1" vector-effect="non-scaling-stroke"/></g><g transform="translate(579.6,300) scale(20.72,54)"><rect x="0.4" y="-0.85" width="0.2" height="0.85" fill="#d69a54" stroke="#3a2417" stroke-width="1" vector-effect="non-scaling-stroke"/><polygon points="0.4,-0.85 0.6,-0.85 0.5,-1" fill="#8a5228" stroke="#3a2417" stroke-width="1" vector-effect="non-scaling-stroke"/></g><g transform="translate(609.2,300) scale(20.72,82)"><rect x="0.2" y="-0.8" width="0.6" height="0.8" fill="#d69a54" stroke="#3a2417" stroke-width="1" vector-effect="non-scaling-stroke"/><polygon points="0.15,-0.8 0.85,-0.8 0.5,-1" fill="#8a5228" stroke="#3a2417" stroke-width="1" vector-effect="non-scaling-stroke"/><rect x="0.42" y="-0.3" width="0.16" height="0.3" fill="#8a5228" stroke="#3a2417" stroke-width="1" vector-effect="non-scaling-stroke"/><rect x="0.3" y="-0.6" width="0.12" height="0.12" fill="#8a5228" stroke="#3a2417" stroke-width="1" vector-effect="non-scaling-stroke"/></g><g transform="translate(638.8,300) scale(20.72,16)"><polygon points="0.1,0 0.35,-0.5 0.6,-0.6 0.9,-0.3 1,0" fill="#d69a54" stroke="#3a2417" stroke-width="1" vector-effect="non-scaling-stroke"/><circle cx="0.7" cy="-0.15" r="0.08" fill="#8a5228" stroke="#3a2417" stroke-width="1" vector-effect="non-scaling-stroke"/></g><g transform="translate(668.4,300) scale(20.72,82)"><rect x="0.2" y="-0.8" width="0.6" height="0.8" fill="#d69a54" stroke="#3a2417" stroke-width="1" vector-effect="non-scaling-stroke"/><polygon points="0.15,-0.8 0.85,-0.8 0.5,-1" fill="#8a5228" stroke="#3a2417" stroke-width="1" vector-effect="non-scaling-stroke"/><rect x="0.42" y="-0.3" width="0.16" height="0.3" fill="#8a5228" stroke="#3a2417" stroke-width="1" vector-effect="non-scaling-stroke"/><rect x="0.3" y="-0.6" width="0.12" height="0.12" fill="#8a5228" stroke="#3a2417" stroke-width="1" vector-effect="non-scaling-stroke"/></g><rect x="24" y="328.52" width="4" height="2.48" fill="#f0d5a8"/><rect x="28" y="326.46" width="4" height="4.54" fill="#f0d5a8"/><rect x="32" y="327.98" width="4" height="3.02" fill="#f0d5a8"/><rect x="36" y="328.52" width="4" height="2.48" fill="#f0d5a8"/><rect x="40" y="327.98" width="4" height="3.02" fill="#f0d5a8"/><rect x="44" y="321.93" width="4" height="9.07" fill="#e3b877"/><rect x="48" y="328.52" width="4" height="2.48" fill="#f0d5a8"/><rect x="52" y="327.98" width="4" height="3.02" fill="#f0d5a8"/><rect x="56" y="328.52" width="4" height="2.48" fill="#f0d5a8"/><rect x="60" y="328.52" width="4" height="2.48" fill="#f0d5a8"/><rect x="64" y="328.52" width="4" height="2.48" fill="#f0d5a8"/><rect x="68" y="328.52" width="4" height="2.48" fill="#f0d5a8"/><rect x="72" y="327.98" width="4" height="3.02" fill="#f0d5a8"/><rect x="76" y="326.46" width="4" height="4.54" fill="#f0d5a8"/><rect x="80" y="328.52" width="4" height="2.48" fill="#f0d5a8"/><rect x="84" y="328.52" width="4" height="2.48" fill="#f0d5a8"/><rect x="88" y="328.52" width="4" height="2.48" fill="#f0d5a8"/><rect x="92" y="328.52" width="4" height="2.48" fill="#f0d5a8"/><rect x="96" y="328.52" width="4" height="2.48" fill="#f0d5a8"/><rect x="100" y="328.52" width="4" height="2.48" fill="#f0d5a8"/><rect x="104" y="326.46" width="4" height="4.54" fill="#f0d5a8"/><rect x="108" y="328.52" width="4" height="2.48" fill="#f0d5a8"/><rect x="112" y="323.44" width="4" height="7.56" fill="#e3b877"/><rect x="116" y="328.52" width="4" height="2.48" fill="#f0d5a8"/><rect x="120" y="328.52" width="4" height="2.48" fill="#f0d5a8"/><rect x="124" y="328.52" width="4" height="2.48" fill="#f0d5a8"/><rect x="128" y="328.52" width="4" height="2.48" fill="#f0d5a8"/><rect x="132" y="328.52" width="4" height="2.48" fill="#f0d5a8"/><rect x="136" y="328.52" width="4" height="2.48" fill="#f0d5a8"/><rect x="140" y="328.52" width="4" height="2.48" fill="#f0d5a8"/><rect x="144" y="328.52" width="4" height="2.48" fill="#f0d5a8"/><rect x="148" y="328.52" width="4" height="2.48" fill="#f0d5a8"/><rect x="152" y="328.52" width="4" height="2.48" fill="#f0d5a8"/><rect x="156" y="328.52" width="4" height="2.48" fill="#f0d5a8"/><rect x="160" y="328.52" width="4" height="2.48" fill="#f0d5a8"/><rect x="164" y="328.52" width="4" height="2.48" fill="#f0d5a8"/><rect x="168" y="327.98" width="4" height="3.02" fill="#f0d5a8"/><rect x="172" y="328.52" width="4" height="2.48" fill="#f0d5a8"/><rect x="176" y="326.46" width="4" height="4.54" fill="#f0d5a8"/><rect x="180" y="328.52" width="4" height="2.48" fill="#f0d5a8"/><rect x="184" y="328.52" width="4" height="2.48" fill="#f0d5a8"/><rect x="188" y="326.68" width="4" height="4.32" fill="#f0d5a8"/><rect x="192" y="328.52" width="4" height="2.48" fill="#f0d5a8"/><rect x="196" y="328.52" width="4" height="2.48" fill="#f0d5a8"/><rect x="200" y="324.33" width="4" height="6.67" fill="#e3b877"/><rect x="204" y="328.52" width="4" height="2.48" fill="#f0d5a8"/><rect x="208" y="328.52" width="4" height="2.48" fill="#f0d5a8"/><rect x="212" y="328.52" width="4" height="2.48" fill="#f0d5a8"/><rect x="216" y="328.52" width="4" height="2.48" fill="#f0d5a8"/><rect x="220" y="328.52" width="4" height="2.48" fill="#f0d5a8"/><rect x="224" y="328.52" width="4" height="2.48" fill="#f0d5a8"/><rect x="228" y="328.52" width="4" height="2.48" fill="#f0d5a8"/><rect x="232" y="328.52" width="4" height="2.48" fill="#f0d5a8"/><rect x="236" y="328.52" width="4" height="2.48" fill="#f0d5a8"/><rect x="240" y="328.52" width="4" height="2.48" fill="#f0d5a8"/><rect x="244" y="328.52" width="4" height="2.48" fill="#f0d5a8"/><rect x="248" y="328.52" width="4" height="2.48" fill="#f0d5a8"/><rect x="252" y="328.52" width="4" height="2.48" fill="#f0d5a8"/><rect x="256" y="328.52" width="4" height="2.48" fill="#f0d5a8"/><rect x="260" y="328.25" width="4" height="2.75" fill="#f0d5a8"/><rect x="264" y="327.86" width="4" height="3.14" fill="#f0d5a8"/><rect x="268" y="328.52" width="4" height="2.48" fill="#f0d5a8"/><rect x="272" y="328.52" width="4" height="2.48" fill="#f0d5a8"/><rect x="276" y="328.52" width="4" height="2.48" fill="#f0d5a8"/><rect x="280" y="328.52" width="4" height="2.48" fill="#f0d5a8"/><rect x="284" y="328.52" width="4" height="2.48" fill="#f0d5a8"/><rect x="288" y="328.52" width="4" height="2.48" fill="#f0d5a8"/><rect x="292" y="328.52" width="4" height="2.48" fill="#f0d5a8"/><rect x="296" y="328.52" width="4" height="2.48" fill="#f0d5a8"/><rect x="300" y="328.52" width="4" height="2.48" fill="#f0d5a8"/><rect x="304" y="328.52" width="4" height="2.48" fill="#f0d5a8"/><rect x="308" y="328.52" width="4" height="2.48" fill="#f0d5a8"/><rect x="312" y="328.52" width="4" height="2.48" fill="#f0d5a8"/><rect x="316" y="328.52" width="4" height="2.48" fill="#f0d5a8"/><rect x="320" y="328.52" width="4" height="2.48" fill="#f0d5a8"/><rect x="324" y="327.47" width="4" height="3.53" fill="#f0d5a8"/><rect x="328" y="328.52" width="4" height="2.48" fill="#f0d5a8"/><rect x="332" y="328.52" width="4" height="2.48" fill="#f0d5a8"/><rect x="336" y="328.52" width="4" height="2.48" fill="#f0d5a8"/><rect x="340" y="328.52" width="4" height="2.48" fill="#f0d5a8"/><rect x="344" y="328.52" width="4" height="2.48" fill="#f0d5a8"/><rect x="348" y="328.52" width="4" height="2.48" fill="#f0d5a8"/><rect x="352" y="328.52" width="4" height="2.48" fill="#f0d5a8"/><rect x="356" y="328.52" width="4" height="2.48" fill="#f0d5a8"/><rect x="360" y="328.52" width="4" height="2.48" fill="#f0d5a8"/><rect x="364" y="328.52" width="4" height="2.48" fill="#f0d5a8"/><rect x="368" y="328.29" width="4" height="2.71" fill="#f0d5a8"/><rect x="372" y="327.27" width="4" height="3.73" fill="#f0d5a8"/><rect x="376" y="328.52" width="4" height="2.48" fill="#f0d5a8"/><rect x="380" y="328.52" width="4" height="2.48" fill="#f0d5a8"/><rect x="384" y="328.52" width="4" height="2.48" fill="#f0d5a8"/><rect x="388" y="328.52" width="4" height="2.48" fill="#f0d5a8"/><rect x="392" y="328.52" width="4" height="2.48" fill="#f0d5a8"/><rect x="396" y="328.52" width="4" height="2.48" fill="#f0d5a8"/><rect x="400" y="328.52" width="4" height="2.48" fill="#f0d5a8"/><rect x="404" y="328.29" width="4" height="2.71" fill="#f0d5a8"/><rect x="408" y="328.52" width="4" height="2.48" fill="#f0d5a8"/><rect x="412" y="328.52" width="4" height="2.48" fill="#f0d5a8"/><rect x="416" y="328.52" width="4" height="2.48" fill="#f0d5a8"/><rect x="420" y="328.52" width="4" height="2.48" fill="#f0d5a8"/><rect x="424" y="328.52" width="4" height="2.48" fill="#f0d5a8"/><rect x="428" y="328.52" width="4" height="2.48" fill="#f0d5a8"/><rect x="432" y="328.52" width="4" height="2.48" fill="#f0d5a8"/><rect x="436" y="328.52" width="4" height="2.48" fill="#f0d5a8"/><rect x="440" y="328.52" width="4" height="2.48" fill="#f0d5a8"/><rect x="444" y="328.52" width="4" height="2.48" fill="#f0d5a8"/><rect x="448" y="328.52" width="4" height="2.48" fill="#f0d5a8"/><rect x="452" y="328.52" width="4" height="2.48" fill="#f0d5a8"/><rect x="456" y="328.52" width="4" height="2.48" fill="#f0d5a8"/><rect x="460" y="328.52" width="4" height="2.48" fill="#f0d5a8"/><rect x="464" y="328.52" width="4" height="2.48" fill="#f0d5a8"/><rect x="468" y="328.52" width="4" height="2.48" fill="#f0d5a8"/><rect x="472" y="328.52" width="4" height="2.48" fill="#f0d5a8"/><rect x="476" y="328.52" width="4" height="2.48" fill="#f0d5a8"/><rect x="480" y="328.52" width="4" height="2.48" fill="#f0d5a8"/><rect x="484" y="328.52" width="4" height="2.48" fill="#f0d5a8"/><rect x="488" y="326.93" width="4" height="4.07" fill="#f0d5a8"/><rect x="492" y="328.52" width="4" height="2.48" fill="#f0d5a8"/><rect x="496" y="328.52" width="4" height="2.48" fill="#f0d5a8"/><rect x="500" y="328.52" width="4" height="2.48" fill="#f0d5a8"/><rect x="504" y="328.52" width="4" height="2.48" fill="#f0d5a8"/><rect x="508" y="328.52" width="4" height="2.48" fill="#f0d5a8"/><rect x="512" y="328.29" width="4" height="2.71" fill="#f0d5a8"/><rect x="516" y="328.52" width="4" height="2.48" fill="#f0d5a8"/><rect x="520" y="328.52" width="4" height="2.48" fill="#f0d5a8"/><rect x="524" y="328.52" width="4" height="2.48" fill="#f0d5a8"/><rect x="528" y="328.52" width="4" height="2.48" fill="#f0d5a8"/><rect x="532" y="328.52" width="4" height="2.48" fill="#f0d5a8"/><rect x="536" y="327.27" width="4" height="3.73" fill="#f0d5a8"/><rect x="540" y="328.52" width="4" height="2.48" fill="#f0d5a8"/><rect x="544" y="327.38" width="4" height="3.62" fill="#f0d5a8"/><rect x="548" y="328.52" width="4" height="2.48" fill="#f0d5a8"/><rect x="552" y="328.52" width="4" height="2.48" fill="#f0d5a8"/><rect x="556" y="328.28" width="4" height="2.72" fill="#f0d5a8"/><rect x="560" y="328.52" width="4" height="2.48" fill="#f0d5a8"/><rect x="564" y="328.52" width="4" height="2.48" fill="#f0d5a8"/><rect x="568" y="328.52" width="4" height="2.48" fill="#f0d5a8"/><rect x="572" y="328.28" width="4" height="2.72" fill="#f0d5a8"/><rect x="576" y="326.47" width="4" height="4.53" fill="#f0d5a8"/><rect x="580" y="328.52" width="4" height="2.48" fill="#f0d5a8"/><rect x="584" y="328.52" width="4" height="2.48" fill="#f0d5a8"/><rect x="588" y="328.52" width="4" height="2.48" fill="#f0d5a8"/><rect x="592" y="328.52" width="4" height="2.48" fill="#f0d5a8"/><rect x="596" y="328.28" width="4" height="2.72" fill="#f0d5a8"/><rect x="600" y="328.52" width="4" height="2.48" fill="#f0d5a8"/><rect x="604" y="328.52" width="4" height="2.48" fill="#f0d5a8"/><rect x="608" y="327.38" width="4" height="3.62" fill="#f0d5a8"/><rect x="612" y="328.52" width="4" height="2.48" fill="#f0d5a8"/><rect x="616" y="328.52" width="4" height="2.48" fill="#f0d5a8"/><rect x="620" y="328.52" width="4" height="2.48" fill="#f0d5a8"/><rect x="624" y="328.52" width="4" height="2.48" fill="#f0d5a8"/><rect x="628" y="328.52" width="4" height="2.48" fill="#f0d5a8"/><rect x="632" y="328.52" width="4" height="2.48" fill="#f0d5a8"/><rect x="636" y="328.52" width="4" height="2.48" fill="#f0d5a8"/><rect x="640" y="328.28" width="4" height="2.72" fill="#f0d5a8"/><rect x="644" y="328.52" width="4" height="2.48" fill="#f0d5a8"/><rect x="648" y="328.52" width="4" height="2.48" fill="#f0d5a8"/><rect x="652" y="328.28" width="4" height="2.72" fill="#f0d5a8"/><rect x="656" y="328.28" width="4" height="2.72" fill="#f0d5a8"/><rect x="660" y="327.38" width="4" height="3.62" fill="#f0d5a8"/><rect x="664" y="325.57" width="4" height="5.43" fill="#f0d5a8"/><rect x="668" y="328.52" width="4" height="2.48" fill="#f0d5a8"/><rect x="672" y="328.52" width="4" height="2.48" fill="#f0d5a8"/><rect x="676" y="328.28" width="4" height="2.72" fill="#f0d5a8"/><rect x="680" y="328.52" width="4" height="2.48" fill="#f0d5a8"/><rect x="684" y="328.52" width="4" height="2.48" fill="#f0d5a8"/><rect x="688" y="328.52" width="4" height="2.48" fill="#f0d5a8"/><rect x="692" y="328.52" width="4" height="2.48" fill="#f0d5a8"/><rect x="696" y="328.52" width="4" height="2.48" fill="#f0d5a8"/><rect x="700" y="328.52" width="4" height="2.48" fill="#f0d5a8"/><rect x="587" y="340" width="8" height="8" fill="#f0d5a8"/><rect x="598" y="340" width="8" height="8" fill="#e3b877"/><rect x="609" y="340" width="8" height="8" fill="#d18f4b"/><rect x="620" y="340" width="8" height="8" fill="#b3672f"/><rect x="631" y="340" width="8" height="8" fill="#8a4a22"/><text x="584" y="348" font-family="system-ui, -apple-system, 'Segoe UI', Roboto, sans-serif" font-size="9" fill="#3a2417" text-anchor="end">Less activity</text><text x="642" y="348" font-family="system-ui, -apple-system, 'Segoe UI', Roboto, sans-serif" font-size="9" fill="#3a2417" text-anchor="start">More activity</text><text x="24" y="28" font-family="system-ui, -apple-system, 'Segoe UI', Roboto, sans-serif" font-size="13" fill="#3a2417" text-anchor="start" letter-spacing="0.5">quiet-tinkerer · TypeScript artisan</text><text x="104" y="52" font-family="system-ui, -apple-system, 'Segoe UI', Roboto, sans-serif" font-size="14" fill="#3a2417" text-anchor="middle" letter-spacing="1.5" font-weight="bold">THE FOUNDING</text><text x="274" y="52" font-family="system-ui, -apple-system, 'Segoe UI', Roboto, sans-serif" font-size="14" fill="#3a2417" text-anchor="middle" letter-spacing="1.5" font-weight="bold">THE GREAT REFACTOR</text><text x="454" y="52" font-family="system-ui, -apple-system, 'Segoe UI', Roboto, sans-serif" font-size="14" fill="#3a2417" text-anchor="middle" letter-spacing="1.5" font-weight="bold">THE GREAT REFACTOR</text><text x="624" y="52" font-family="system-ui, -apple-system, 'Segoe UI', Roboto, sans-serif" font-size="14" fill="#3a2417" text-anchor="middle" letter-spacing="1.5" font-weight="bold">PRESENT DAY</text><text x="624" y="290" font-family="system-ui, -apple-system, 'Segoe UI', Roboto, sans-serif" font-size="11" fill="#3a2417" text-anchor="middle" letter-spacing="1">PRESENT DAY</text></svg>