<svg xmlns="http://www.w3.org/2000/svg" width="688" height="684" viewBox="0 0 688 684" role="img"><title>The Epic of first-spark</title><desc>In the year 2019, the developer first set foot upon the public forge, and the epic began.</desc><text x="24" y="28" font-family="system-ui, -apple-system, 'Segoe UI', Roboto, sans-serif" font-size="13" fill="#3a2417" text-anchor="start" letter-spacing="0.5">first-spark · since 2019</text><g transform="translate(24,0)"><clipPath id="export-row-0"><rect x="0" y="0" width="272" height="360"/></clipPath><g clip-path="url(#export-row-0)" transform="translate(0,48)"><defs><linearGradient id="mural-sky" x1="0" y1="0" x2="0" y2="1"><stop offset="0%" stop-color="#f6b26b"/><stop offset="100%" stop-color="#fbe3bd"/></linearGradient></defs><rect x="0" y="0" width="272" height="150" fill="url(#mural-sky)"/><rect x="0" y="150" width="272" height="60" fill="#d98b4a"/><g transform="translate(-24,0)"><g transform="translate(24,0)"><rect x="0" y="210" width="148" height="90" fill="#b9793d"/></g><g transform="translate(160,0)"><rect x="0" y="210" width="136" height="90" fill="#e6bd7f"/></g></g><polyline points="0,300 272,300" fill="none" stroke="#caa268" stroke-width="4"/><g transform="translate(-24,0)"><g transform="translate(30,300) scale(43.4,46)"><polygon points="0,0 1,0 0.5,-1" fill="#a86a3a" stroke="#3a2417" stroke-width="1" vector-effect="non-scaling-stroke"/><polygon points="0.5,0 1,0 0.5,-1" fill="#6f3f20" stroke="#3a2417" stroke-width="1" vector-effect="non-scaling-stroke"/></g><g transform="translate(92,300) scale(43.4,34)"><rect x="0.4" y="-0.85" width="0.2" height="0.85" fill="#a86a3a" stroke="#3a2417" stroke-width="1" vector-effect="non-scaling-stroke"/><polygon points="0.4,-0.85 0.6,-0.85 0.5,-1" fill="#6f3f20" stroke="#3a2417" stroke-width="1" vector-effect="non-scaling-stroke"/></g><g transform="translate(166,300) scale(43.4,46)"><polygon points="0,0 1,0 0.5,-1" fill="#d69a54" stroke="#3a2417" stroke-width="1" vector-effect="non-scaling-stroke"/><polygon points="0.5,0 1,0 0.5,-1" fill="#8a5228" stroke="#3a2417" stroke-width="1" vector-effect="non-scaling-stroke"/></g><g transform="translate(228,300) scale(43.4,34)"><rect x="0.4" y="-0.85" width="0.2" height="0.85" fill="#d69a54" stroke="#3a2417" stroke-width="1" vector-effect="non-scaling-stroke"/><polygon points="0.4,-0.85 0.6,-0.85 0.5,-1" fill="#8a5228" stroke="#3a2417" stroke-width="1" vector-effect="non-scaling-stroke"/></g><g transform="translate(166,246) scale(86.8,34)"><rect x="0.46" y="-1" width="0.08" height="1" fill="#8f4a24" stroke="#3a2417" stroke-width="1" vector-effect="non-scaling-stroke"/><rect x="0.3" y="-1" width="0.4" height="0.55" fill="#8f4a24" stroke="#3a2417" stroke-width="1" vector-effect="non-scaling-stroke"/></g><rect x="24" y="328.52" width="272" height="2.48" fill="#f0d5a8"/><text x="92" y="52" font-family="system-ui, -apple-system, 'Segoe UI', Roboto, sans-serif" font-size="14" fill="#3a2417" text-anchor="middle" letter-spacing="1.5" font-weight="bold">THE FOUNDING</text><text x="228" y="52" font-family="system-ui, -apple-system, 'Segoe UI', Roboto, sans-serif" font-size="14" fill="#3a2417" text-anchor="middle" letter-spacing="1.5" font-weight="bold">PRESENT DAY</text></g></g><g transform="translate(0,324)"><rect x="461.4" y="84" width="162.6" height="34" rx="6" fill="#fbe3bd" stroke="#3a2417" stroke-width="1"/><text x="542.7" y="105.2" font-family="system-ui, -apple-system, 'Segoe UI', Roboto, sans-serif" font-size="12" fill="#3a2417" text-anchor="middle" letter-spacing="0.5">The Journey Begins</text></g><g transform="translate(0,324)"><rect x="499" y="340" width="8" height="8" fill="#f0d5a8"/><rect x="510" y="340" width="8" height="8" fill="#e3b877"/><rect x="521" y="340" width="8" height="8" fill="#d18f4b"/><rect x="532" y="340" width="8" height="8" fill="#b3672f"/><rect x="543" y="340" width="8" height="8" fill="#8a4a22"/><text x="496" y="348" font-family="system-ui, -apple-system, 'Segoe UI', Roboto, sans-serif" font-size="9" fill="#3a2417" text-anchor="end">Less activity</text><text x="554" y="348" font-family="system-ui, -apple-system, 'Segoe UI', Roboto, sans-serif" font-size="9" fill="#3a2417" text-anchor="start">More activity</text></g></g></svg>