<svg xmlns="http://www.w3.org/2000/svg" width="1957" height="360" viewBox="0 0 1957 360" role="img"><defs><linearGradient id="mural-sky" x1="0" y1="0" x2="0" y2="1"><stop offset="0%" stop-color="#f6b26b"/><stop offset="100%" stop-color="#fbe3bd"/></linearGradient></defs><rect x="0" y="0" width="1957" height="150" fill="url(#mural-sky)"/><rect x="0" y="150" width="1957" height="60" fill="#d98b4a"/><g transform="translate(24,0)"><rect x="-24" y="210" width="220" height="90" fill="#b9793d"/></g><g transform="translate(208,0)"><rect x="0" y="210" width="219" height="90" fill="#b9793d"/></g><g transform="translate(415,0)"><rect x="0" y="210" width="242" height="90" fill="#b9793d"/></g><g transform="translate(645,0)"><rect x="0" y="210" width="242" height="90" fill="#b9793d"/></g><g transform="translate(875,0)"><rect x="0" y="210" width="219" height="90" fill="#b9793d"/></g><g transform="translate(1082,0)"><rect x="0" y="210" width="265" height="90" fill="#b9793d"/></g><g transform="translate(1335,0)"><rect x="0" y="210" width="219" height="90" fill="#b9793d"/></g><g transform="translate(1542,0)"><rect x="0" y="210" width="219" height="90" fill="#cf9b57"/></g><g transform="translate(1749,0)"><rect x="0" y="210" width="208" height="90" fill="#e6bd7f"/></g><polyline points="0,300 1957,300" fill="none" stroke="#caa268" stroke-width="4"/><g transform="translate(30,300) scale(20.07,128)"><rect x="0.2" y="-0.8" width="0.6" height="0.8" fill="#a86a3a" stroke="#3a2417" stroke-width="1" vector-effect="non-scaling-stroke"/><polygon points="0.15,-0.8 0.85,-0.8 0.5,-1" fill="#6f3f20" stroke="#3a2417" stroke-width="1" vector-effect="non-scaling-stroke"/><rect x="0.42" y="-0.3" width="0.16" height="0.3" fill="#6f3f20" stroke="#3a2417" stroke-width="1" vector-effect="non-scaling-stroke"/><rect x="0.3" y="-0.6" width="0.12" height="0.12" fill="#6f3f20" stroke="#3a2417" stroke-width="1" vector-effect="non-scaling-stroke"/></g><g transform="translate(58.67,300) scale(20.07,78)"><rect x="0.4" y="-0.85" width="0.2" height="0.85" fill="#a86a3a" stroke="#3a2417" stroke-width="1" vector-effect="non-scaling-stroke"/><polygon points="0.4,-0.85 0.6,-0.85 0.5,-1" fill="#6f3f20" stroke="#3a2417" stroke-width="1" vector-effect="non-scaling-stroke"/></g><g transform="translate(87.33,300) scale(20.07,128)"><rect x="0.2" y="-0.8" width="0.6" height="0.8" fill="#a86a3a" stroke="#3a2417" stroke-width="1" vector-effect="non-scaling-stroke"/><polygon points="0.15,-0.8 0.85,-0.8 0.5,-1" fill="#6f3f20" stroke="#3a2417" stroke-width="1" vector-effect="non-scaling-stroke"/><rect x="0.42" y="-0.3" width="0.16" height="0.3" fill="#6f3f20" stroke="#3a2417" stroke-width="1" vector-effect="non-scaling-stroke"/><rect x="0.3" y="-0.6" width="0.12" height="0.12" fill="#6f3f20" stroke="#3a2417" stroke-width="1" vector-effect="non-scaling-stroke"/></g><g transform="translate(116,300) scale(20.07,16)"><polygon points="0.1,0 0.35,-0.5 0.6,-0.6 0.9,-0.3 1,0" fill="#a86a3a" stroke="#3a2417" stroke-width="1" vector-effect="non-scaling-stroke"/><circle cx="0.7" cy="-0.15" r="0.08" fill="#6f3f20" stroke="#3a2417" stroke-width="1" vector-effect="non-scaling-stroke"/></g><g transform="translate(144.67,300) scale(20.07,128)"><rect x="0.2" y="-0.8" width="0.6" height="0.8" fill="#a86a3a" stroke="#3a2417" stroke-width="1" vector-effect="non-scaling-stroke"/><polygon points="0.15,-0.8 0.85,-0.8 0.5,-1" fill="#6f3f20" stroke="#3a2417" stroke-width="1" vector-effect="non-scaling-stroke"/><rect x="0.42" y="-0.3" width="0.16" height="0.3" fill="#6f3f20" stroke="#3a2417" stroke-width="1" vector-effect="non-scaling-stroke"/><rect x="0.3" y="-0.6" width="0.12" height="0.12" fill="#6f3f20" stroke="#3a2417" stroke-width="1" vector-effect="non-scaling-stroke"/></g><g transform="translate(173.33,300) scale(20.07,78)"><rect x="0.4" y="-0.85" width="0.2" height="0.85" fill="#a86a3a" stroke="#3a2417" stroke-width="1" vector-effect="non-scaling-stroke"/><polygon points="0.4,-0.85 0.6,-0.85 0.5,-1" fill="#6f3f20" stroke="#3a2417" stroke-width="1" vector-effect="non-scaling-stroke"/></g><g transform="translate(214,300) scale(22.75,128)"><rect x="0.2" y="-0.8" width="0.6" height="0.8" fill="#a86a3a" stroke="#3a2417" stroke-width="1" vector-effect="non-scaling-stroke"/><polygon points="0.15,-0.8 0.85,-0.8 0.5,-1" fill="#6f3f20" stroke="#3a2417" stroke-width="1" vector-effect="non-scaling-stroke"/><rect x="0.42" y="-0.3" width="0.16" height="0.3" fill="#6f3f20" stroke="#3a2417" stroke-width="1" vector-effect="non-scaling-stroke"/><rect x="0.3" y="-0.6" width="0.12" height="0.12" fill="#6f3f20" stroke="#3a2417" stroke-width="1" vector-effect="non-scaling-stroke"/></g><g transform="translate(246.5,300) scale(22.75,78)"><rect x="0.4" y="-0.85" width="0.2" height="0.85" fill="#a86a3a" stroke="#3a2417" stroke-width="1" vector-effect="non-scaling-stroke"/><polygon points="0.4,-0.85 0.6,-0.85 0.5,-1" fill="#6f3f20" stroke="#3a2417" stroke-width="1" vector-effect="non-scaling-stroke"/></g><g transform="translate(279,300) scale(22.75,128)"><rect x="0.2" y="-0.8" width="0.6" height="0.8" fill="#a86a3a" stroke="#3a2417" stroke-width="1" vector-effect="non-scaling-stroke"/><polygon points="0.15,-0.8 0.85,-0.8 0.5,-1" fill="#6f3f20" stroke="#3a2417" stroke-width="1" vector-effect="non-scaling-stroke"/><rect x="0.42" y="-0.3" width="0.16" height="0.3" fill="#6f3f20" stroke="#3a2417" stroke-width="1" vector-effect="non-scaling-stroke"/><rect x="0.3" y="-0.6" width="0.12" height="0.12" fill="#6f3f20" stroke="#3a2417" stroke-width="1" vector-effect="non-scaling-stroke"/></g><g transform="translate(311.5,300) scale(22.75,16)"><polygon points="0.1,0 0.35,-0.5 0.6,-0.6 0.9,-0.3 1,0" fill="#a86a3a" stroke="#3a2417" stroke-width="1" vector-effect="non-scaling-stroke"/><circle cx="0.7" cy="-0.15" r="0.08" fill="#6f3f20" stroke="#3a2417" stroke-width="1" vector-effect="non-scaling-stroke"/></g><g transform="translate(344,300) scale(22.75,128)"><rect x="0.2" y="-0.8" width="0.6" height="0.8" fill="#a86a3a" stroke="#3a2417" stroke-width="1" vector-effect="non-scaling-stroke"/><polygon points="0.15,-0.8 0.85,-0.8 0.5,-1" fill="#6f3f20" stroke="#3a2417" stroke-width="1" vector-effect="non-scaling-stroke"/><rect x="0.42" y="-0.3" width="0.16" height="0.3" fill="#6f3f20" stroke="#3a2417" stroke-width="1" vector-effect="non-scaling-stroke"/><rect x="0.3" y="-0.6" width="0.12" height="0.12" fill="#6f3f20" stroke="#3a2417" stroke-width="1" vector-effect="non-scaling-stroke"/></g><g transform="translate(376.5,300) scale(22.75,78)"><rect x="0.4" y="-0.85" width="0.2" height="0.85" fill="#a86a3a" stroke="#3a2417" stroke-width="1" vector-effect="non-scaling-stroke"/><polygon points="0.4,-0.85 0.6,-0.85 0.5,-1" fill="#6f3f20" stroke="#3a2417" stroke-width="1" vector-effect="non-scaling-stroke"/></g><g transform="translate(421,300) scale(21.8,128)"><rect x="0.2" y="-0.8" width="0.6" height="0.8" fill="#a86a3a" stroke="#3a2417" stroke-width="1" vector-effect="non-scaling-stroke"/><polygon points="0.15,-0.8 0.85,-0.8 0.5,-1" fill="#6f3f20" stroke="#3a2417" stroke-width="1" vector-effect="non-scaling-stroke"/><rect x="0.42" y="-0.3" width="0.16" height="0.3" fill="#6f3f20" stroke="#3a2417" stroke-width="1" vector-effect="non-scaling-stroke"/><rect x="0.3" y="-0.6" width="0.12" height="0.12" fill="#6f3f20" stroke="#3a2417" stroke-width="1" vector-effect="non-scaling-stroke"/></g><g transform="translate(452.14,300) scale(21.8,78)"><rect x="0.4" y="-0.85" width="0.2" height="0.85" fill="#a86a3a" stroke="#3a2417" stroke-width="1" vector-effect="non-scaling-stroke"/><polygon points="0.4,-0.85 0.6,-0.85 0.5,-1" fill="#6f3f20" stroke="#3a2417" stroke-width="1" vector-effect="non-scaling-stroke"/></g><g transform="translate(483.29,300) scale(21.8,128)"><rect x="0.2" y="-0.8" width="0.6" height="0.8" fill="#a86a3a" stroke="#3a2417" stroke-width="1" vector-effect="non-scaling-stroke"/><polygon points="0.15,-0.8 0.85,-0.8 0.5,-1" fill="#6f3f20" stroke="#3a2417" stroke-width="1" vector-effect="non-scaling-stroke"/><rect x="0.42" y="-0.3" width="0.16" height="0.3" fill="#6f3f20" stroke="#3a2417" stroke-width="1" vector-effect="non-scaling-stroke"/><rect x="0.3" y="-0.6" width="0.12" height="0.12" fill="#6f3f20" stroke="#3a2417" stroke-width="1" vector-effect="non-scaling-stroke"/></g><g transform="translate(514.43,300) scale(21.8,16)"><polygon points="0.1,0 0.35,-0.5 0.6,-0.6 0.9,-0.3 1,0" fill="#a86a3a" stroke="#3a2417" stroke-width="1" vector-effect="non-scaling-stroke"/><circle cx="0.7" cy="-0.15" r="0.08" fill="#6f3f20" stroke="#3a2417" stroke-width="1" vector-effect="non-scaling-stroke"/></g><g transform="translate(545.57,300) scale(21.8,128)"><rect x="0.2" y="-0.8" width="0.6" height="0.8" fill="#a86a3a" stroke="#3a2417" stroke-width="1" vector-effect="non-scaling-stroke"/><polygon points="0.15,-0.8 0.85,-0.8 0.5,-1" fill="#6f3f20" stroke="#3a2417" stroke-width="1" vector-effect="non-scaling-stroke"/><rect x="0.42" y="-0.3" width="0.16" height="0.3" fill="#6f3f20" stroke="#3a2417" stroke-width="1" vector-effect="non-scaling-stroke"/><rect x="0.3" y="-0.6" width="0.12" height="0.12" fill="#6f3f20" stroke="#3a2417" stroke-width="1" vector-effect="non-scaling-stroke"/></g><g transform="translate(576.71,300) scale(21.8,78)"><rect x="0.4" y="-0.85" width="0.2" height="0.85" fill="#a86a3a" stroke="#3a2417" stroke-width="1" vector-effect="non-scaling-stroke"/><polygon points="0.4,-0.85 0.6,-0.85 0.5,-1" fill="#6f3f20" stroke="#3a2417" stroke-width="1" vector-effect="non-scaling-stroke"/></g><g transform="translate(607.86,300) scale(21.8,128)"><rect x="0.2" y="-0.8" width="0.6" height="0.8" fill="#a86a3a" stroke="#3a2417" stroke-width="1" vector-effect="non-scaling-stroke"/><polygon points="0.15,-0.8 0.85,-0.8 0.5,-1" fill="#6f3f20" stroke="#3a2417" stroke-width="1" vector-effect="non-scaling-stroke"/><rect x="0.42" y="-0.3" width="0.16" height="0.3" fill="#6f3f20" stroke="#3a2417" stroke-width="1" vector-effect="non-scaling-stroke"/><rect x="0.3" y="-0.6" width="0.12" height="0.12" fill="#6f3f20" stroke="#3a2417" stroke-width="1" vector-effect="non-scaling-stroke"/></g><g transform="translate(651,300) scale(25.43,128)"><rect x="0.2" y="-0.8" width="0.6" height="0.8" fill="#a86a3a" stroke="#3a2417" stroke-width="1" vector-effect="non-scaling-stroke"/><polygon points="0.15,-0.8 0.85,-0.8 0.5,-1" fill="#6f3f20" stroke="#3a2417" stroke-width="1" vector-effect="non-scaling-stroke"/><rect x="0.42" y="-0.3" width="0.16" height="0.3" fill="#6f3f20" stroke="#3a2417" stroke-width="1" vector-effect="non-scaling-stroke"/><rect x="0.3" y="-0.6" width="0.12" height="0.12" fill="#6f3f20" stroke="#3a2417" stroke-width="1" vector-effect="non-scaling-stroke"/></g><g transform="translate(687.33,300) scale(25.43,78)"><rect x="0.4" y="-0.85" width="0.2" height="0.85" fill="#a86a3a" stroke="#3a2417" stroke-width="1" vector-effect="non-scaling-stroke"/><polygon points="0.4,-0.85 0.6,-0.85 0.5,-1" fill="#6f3f20" stroke="#3a2417" stroke-width="1" vector-effect="non-scaling-stroke"/></g><g transform="translate(723.67,300) scale(25.43,128)"><rect x="0.2" y="-0.8" width="0.6" height="0.8" fill="#a86a3a" stroke="#3a2417" stroke-width="1" vector-effect="non-scaling-stroke"/><polygon points="0.15,-0.8 0.85,-0.8 0.5,-1" fill="#6f3f20" stroke="#3a2417" stroke-width="1" vector-effect="non-scaling-stroke"/><rect x="0.42" y="-0.3" width="0.16" height="0.3" fill="#6f3f20" stroke="#3a2417" stroke-width="1" vector-effect="non-scaling-stroke"/><rect x="0.3" y="-0.6" width="0.12" height="0.12" fill="#6f3f20" stroke="#3a2417" stroke-width="1" vector-effect="non-scaling-stroke"/></g><g transform="translate(760,300) scale(25.43,16)"><polygon points="0.1,0 0.35,-0.5 0.6,-0.6 0.9,-0.3 1,0" fill="#a86a3a" stroke="#3a2417" stroke-width="1" vector-effect="non-scaling-stroke"/><circle cx="0.7" cy="-0.15" r="0.08" fill="#6f3f20" stroke="#3a2417" stroke-width="1" vector-effect="non-scaling-stroke"/></g><g transform="translate(796.33,300) scale(25.43,128)"><rect x="0.2" y="-0.8" width="0.6" height="0.8" fill="#a86a3a" stroke="#3a2417" stroke-width="1" vector-effect="non-scaling-stroke"/><polygon points="0.15,-0.8 0.85,-0.8 0.5,-1" fill="#6f3f20" stroke="#3a2417" stroke-width="1" vector-effect="non-scaling-stroke"/><rect x="0.42" y="-0.3" width="0.16" height="0.3" fill="#6f3f20" stroke="#3a2417" stroke-width="1" vector-effect="non-scaling-stroke"/><rect x="0.3" y="-0.6" width="0.12" height="0.12" fill="#6f3f20" stroke="#3a2417" stroke-width="1" vector-effect="non-scaling-stroke"/></g><g transform="translate(832.67,300) scale(25.43,78)"><rect x="0.4" y="-0.85" width="0.2" height="0.85" fill="#a86a3a" stroke="#3a2417" stroke-width="1" vector-effect="non-scaling-stroke"/><polygon points="0.4,-0.85 0.6,-0.85 0.5,-1" fill="#6f3f20" stroke="#3a2417" stroke-width="1" vector-effect="non-scaling-stroke"/></g><g transform="translate(881,300) scale(22.75,128)"><rect x="0.2" y="-0.8" width="0.6" height="0.8" fill="#a86a3a" stroke="#3a2417" stroke-width="1" vector-effect="non-scaling-stroke"/><polygon points="0.15,-0.8 0.85,-0.8 0.5,-1" fill="#6f3f20" stroke="#3a2417" stroke-width="1" vector-effect="non-scaling-stroke"/><rect x="0.42" y="-0.3" width="0.16" height="0.3" fill="#6f3f20" stroke="#3a2417" stroke-width="1" vector-effect="non-scaling-stroke"/><rect x="0.3" y="-0.6" width="0.12" height="0.12" fill="#6f3f20" stroke="#3a2417" stroke-width="1" vector-effect="non-scaling-stroke"/></g><g transform="translate(913.5,300) scale(22.75,78)"><rect x="0.4" y="-0.85" width="0.2" height="0.85" fill="#a86a3a" stroke="#3a2417" stroke-width="1" vector-effect="non-scaling-stroke"/><polygon points="0.4,-0.85 0.6,-0.85 0.5,-1" fill="#6f3f20" stroke="#3a2417" stroke-width="1" vector-effect="non-scaling-stroke"/></g><g transform="translate(946,300) scale(22.75,128)"><rect x="0.2" y="-0.8" width="0.6" height="0.8" fill="#a86a3a" stroke="#3a2417" stroke-width="1" vector-effect="non-scaling-stroke"/><polygon points="0.15,-0.8 0.85,-0.8 0.5,-1" fill="#6f3f20" stroke="#3a2417" stroke-width="1" vector-effect="non-scaling-stroke"/><rect x="0.42" y="-0.3" width="0.16" height="0.3" fill="#6f3f20" stroke="#3a2417" stroke-width="1" vector-effect="non-scaling-stroke"/><rect x="0.3" y="-0.6" width="0.12" height="0.12" fill="#6f3f20" stroke="#3a2417" stroke-width="1" vector-effect="non-scaling-stroke"/></g><g transform="translate(978.5,300) scale(22.75,16)"><polygon points="0.1,0 0.35,-0.5 0.6,-0.6 0.9,-0.3 1,0" fill="#a86a3a" stroke="#3a2417" stroke-width="1" vector-effect="non-scaling-stroke"/><circle cx="0.7" cy="-0.15" r="0.08" fill="#6f3f20" stroke="#3a2417" stroke-width="1" vector-effect="non-scaling-stroke"/></g><g transform="translate(1011,300) scale(22.75,128)"><rect x="0.2" y="-0.8" width="0.6" height="0.8" fill="#a86a3a" stroke="#3a2417" stroke-width="1" vector-effect="non-scaling-stroke"/><polygon points="0.15,-0.8 0.85,-0.8 0.5,-1" fill="#6f3f20" stroke="#3a2417" stroke-width="1" vector-effect="non-scaling-stroke"/><rect x="0.42" y="-0.3" width="0.16" height="0.3" fill="#6f3f20" stroke="#3a2417" stroke-width="1" vector-effect="non-scaling-stroke"/><rect x="0.3" y="-0.6" width="0.12" height="0.12" fill="#6f3f20" stroke="#3a2417" stroke-width="1" vector-effect="non-scaling-stroke"/></g><g transform="translate(1043.5,300) scale(22.75,78)"><rect x="0.4" y="-0.85" width="0.2" height="0.85" fill="#a86a3a" stroke="#3a2417" stroke-width="1" vector-effect="non-scaling-stroke"/><polygon points="0.4,-0.85 0.6,-0.85 0.5,-1" fill="#6f3f20" stroke="#3a2417" stroke-width="1" vector-effect="non-scaling-stroke"/></g><g transform="translate(1088,300) scale(28.12,128)"><rect x="0.2" y="-0.8" width="0.6" height="0.8" fill="#a86a3a" stroke="#3a2417" stroke-width="1" vector-effect="non-scaling-stroke"/><polygon points="0.15,-0.8 0.85,-0.8 0.5,-1" fill="#6f3f20" stroke="#3a2417" stroke-width="1" vector-effect="non-scaling-stroke"/><rect x="0.42" y="-0.3" width="0.16" height="0.3" fill="#6f3f20" stroke="#3a2417" stroke-width="1" vector-effect="non-scaling-stroke"/><rect x="0.3" y="-0.6" width="0.12" height="0.12" fill="#6f3f20" stroke="#3a2417" stroke-width="1" vector-effect="non-scaling-stroke"/></g><g transform="translate(1128.17,300) scale(28.12,78)"><rect x="0.4" y="-0.85" width="0.2" height="0.85" fill="#a86a3a" stroke="#3a2417" stroke-width="1" vector-effect="non-scaling-stroke"/><polygon points="0.4,-0.85 0.6,-0.85 0.5,-1" fill="#6f3f20" stroke="#3a2417" stroke-width="1" vector-effect="non-scaling-stroke"/></g><g transform="translate(1168.33,300) scale(28.12,128)"><rect x="0.2" y="-0.8" width="0.6" height="0.8" fill="#a86a3a" stroke="#3a2417" stroke-width="1" vector-effect="non-scaling-stroke"/><polygon points="0.15,-0.8 0.85,-0.8 0.5,-1" fill="#6f3f20" stroke="#3a2417" stroke-width="1" vector-effect="non-scaling-stroke"/><rect x="0.42" y="-0.3" width="0.16" height="0.3" fill="#6f3f20" stroke="#3a2417" stroke-width="1" vector-effect="non-scaling-stroke"/><rect x="0.3" y="-0.6" width="0.12" height="0.12" fill="#6f3f20" stroke="#3a2417" stroke-width="1" vector-effect="non-scaling-stroke"/></g><g transform="translate(1208.5,300) scale(28.12,16)"><polygon points="0.1,0 0.35,-0.5 0.6,-0.6 0.9,-0.3 1,0" fill="#a86a3a" stroke="#3a2417" stroke-width="1" vector-effect="non-scaling-stroke"/><circle cx="0.7" cy="-0.15" r="0.08" fill="#6f3f20" stroke="#3a2417" stroke-width="1" vector-effect="non-scaling-stroke"/></g><g transform="translate(1248.67,300) scale(28.12,128)"><rect x="0.2" y="-0.8" width="0.6" height="0.8" fill="#a86a3a" stroke="#3a2417" stroke-width="1" vector-effect="non-scaling-stroke"/><polygon points="0.15,-0.8 0.85,-0.8 0.5,-1" fill="#6f3f20" stroke="#3a2417" stroke-width="1" vector-effect="non-scaling-stroke"/><rect x="0.42" y="-0.3" width="0.16" height="0.3" fill="#6f3f20" stroke="#3a2417" stroke-width="1" vector-effect="non-scaling-stroke"/><rect x="0.3" y="-0.6" width="0.12" height="0.12" fill="#6f3f20" stroke="#3a2417" stroke-width="1" vector-effect="non-scaling-stroke"/></g><g transform="translate(1288.83,300) scale(28.12,78)"><rect x="0.4" y="-0.85" width="0.2" height="0.85" fill="#a86a3a" stroke="#3a2417" stroke-width="1" vector-effect="non-scaling-stroke"/><polygon points="0.4,-0.85 0.6,-0.85 0.5,-1" fill="#6f3f20" stroke="#3a2417" stroke-width="1" vector-effect="non-scaling-stroke"/></g><g transform="translate(1341,300) scale(19.5,128)"><rect x="0.2" y="-0.8" width="0.6" height="0.8" fill="#a86a3a" stroke="#3a2417" stroke-width="1" vector-effect="non-scaling-stroke"/><polygon points="0.15,-0.8 0.85,-0.8 0.5,-1" fill="#6f3f20" stroke="#3a2417" stroke-width="1" vector-effect="non-scaling-stroke"/><rect x="0.42" y="-0.3" width="0.16" height="0.3" fill="#6f3f20" stroke="#3a2417" stroke-width="1" vector-effect="non-scaling-stroke"/><rect x="0.3" y="-0.6" width="0.12" height="0.12" fill="#6f3f20" stroke="#3a2417" stroke-width="1" vector-effect="non-scaling-stroke"/></g><g transform="translate(1368.86,300) scale(19.5,78)"><rect x="0.4" y="-0.85" width="0.2" height="0.85" fill="#a86a3a" stroke="#3a2417" stroke-width="1" vector-effect="non-scaling-stroke"/><polygon points="0.4,-0.85 0.6,-0.85 0.5,-1" fill="#6f3f20" stroke="#3a2417" stroke-width="1" vector-effect="non-scaling-stroke"/></g><g transform="translate(1396.71,300) scale(19.5,128)"><rect x="0.2" y="-0.8" width="0.6" height="0.8" fill="#a86a3a" stroke="#3a2417" stroke-width="1" vector-effect="non-scaling-stroke"/><polygon points="0.15,-0.8 0.85,-0.8 0.5,-1" fill="#6f3f20" stroke="#3a2417" stroke-width="1" vector-effect="non-scaling-stroke"/><rect x="0.42" y="-0.3" width="0.16" height="0.3" fill="#6f3f20" stroke="#3a2417" stroke-width="1" vector-effect="non-scaling-stroke"/><rect x="0.3" y="-0.6" width="0.12" height="0.12" fill="#6f3f20" stroke="#3a2417" stroke-width="1" vector-effect="non-scaling-stroke"/></g><g transform="translate(1424.57,300) scale(19.5,16)"><polygon points="0.1,0 0.35,-0.5 0.6,-0.6 0.9,-0.3 1,0" fill="#a86a3a" stroke="#3a2417" stroke-width="1" vector-effect="non-scaling-stroke"/><circle cx="0.7" cy="-0.15" r="0.08" fill="#6f3f20" stroke="#3a2417" stroke-width="1" vector-effect="non-scaling-stroke"/></g><g transform="translate(1452.43,300) scale(19.5,128)"><rect x="0.2" y="-0.8" width="0.6" height="0.8" fill="#a86a3a" stroke="#3a2417" stroke-width="1" vector-effect="non-scaling-stroke"/><polygon points="0.15,-0.8 0.85,-0.8 0.5,-1" fill="#6f3f20" stroke="#3a2417" stroke-width="1" vector-effect="non-scaling-stroke"/><rect x="0.42" y="-0.3" width="0.16" height="0.3" fill="#6f3f20" stroke="#3a2417" stroke-width="1" vector-effect="non-scaling-stroke"/><rect x="0.3" y="-0.6" width="0.12" height="0.12" fill="#6f3f20" stroke="#3a2417" stroke-width="1" vector-effect="non-scaling-stroke"/></g><g transform="translate(1480.29,300) scale(19.5,78)"><rect x="0.4" y="-0.85" width="0.2" height="0.85" fill="#a86a3a" stroke="#3a2417" stroke-width="1" vector-effect="non-scaling-stroke"/><polygon points="0.4,-0.85 0.6,-0.85 0.5,-1" fill="#6f3f20" stroke="#3a2417" stroke-width="1" vector-effect="non-scaling-stroke"/></g><g transform="translate(1508.14,300) scale(19.5,128)"><rect x="0.2" y="-0.8" width="0.6" height="0.8" fill="#a86a3a" stroke="#3a2417" stroke-width="1" vector-effect="non-scaling-stroke"/><polygon points="0.15,-0.8 0.85,-0.8 0.5,-1" fill="#6f3f20" stroke="#3a2417" stroke-width="1" vector-effect="non-scaling-stroke"/><rect x="0.42" y="-0.3" width="0.16" height="0.3" fill="#6f3f20" stroke="#3a2417" stroke-width="1" vector-effect="non-scaling-stroke"/><rect x="0.3" y="-0.6" width="0.12" height="0.12" fill="#6f3f20" stroke="#3a2417" stroke-width="1" vector-effect="non-scaling-stroke"/></g><g transform="translate(1548,300) scale(19.5,128)"><rect x="0.2" y="-0.8" width="0.6" height="0.8" fill="#c07f3f" stroke="#3a2417" stroke-width="1" vector-effect="non-scaling-stroke"/><polygon points="0.15,-0.8 0.85,-0.8 0.5,-1" fill="#7d4a22" stroke="#3a2417" stroke-width="1" vector-effect="non-scaling-stroke"/><rect x="0.42" y="-0.3" width="0.16" height="0.3" fill="#7d4a22" stroke="#3a2417" stroke-width="1" vector-effect="non-scaling-stroke"/><rect x="0.3" y="-0.6" width="0.12" height="0.12" fill="#7d4a22" stroke="#3a2417" stroke-width="1" vector-effect="non-scaling-stroke"/></g><g transform="translate(1575.86,300) scale(19.5,78)"><rect x="0.4" y="-0.85" width="0.2" height="0.85" fill="#c07f3f" stroke="#3a2417" stroke-width="1" vector-effect="non-scaling-stroke"/><polygon points="0.4,-0.85 0.6,-0.85 0.5,-1" fill="#7d4a22" stroke="#3a2417" stroke-width="1" vector-effect="non-scaling-stroke"/></g><g transform="translate(1603.71,300) scale(19.5,128)"><rect x="0.2" y="-0.8" width="0.6" height="0.8" fill="#c07f3f" stroke="#3a2417" stroke-width="1" vector-effect="non-scaling-stroke"/><polygon points="0.15,-0.8 0.85,-0.8 0.5,-1" fill="#7d4a22" stroke="#3a2417" stroke-width="1" vector-effect="non-scaling-stroke"/><rect x="0.42" y="-0.3" width="0.16" height="0.3" fill="#7d4a22" stroke="#3a2417" stroke-width="1" vector-effect="non-scaling-stroke"/><rect x="0.3" y="-0.6" width="0.12" height="0.12" fill="#7d4a22" stroke="#3a2417" stroke-width="1" vector-effect="non-scaling-stroke"/></g><g transform="translate(1631.57,300) scale(19.5,16)"><polygon points="0.1,0 0.35,-0.5 0.6,-0.6 0.9,-0.3 1,0" fill="#c07f3f" stroke="#3a2417" stroke-width="1" vector-effect="non-scaling-stroke"/><circle cx="0.7" cy="-0.15" r="0.08" fill="#7d4a22" stroke="#3a2417" stroke-width="1" vector-effect="non-scaling-stroke"/></g><g transform="translate(1659.43,300) scale(19.5,128)"><rect x="0.2" y="-0.8" width="0.6" height="0.8" fill="#c07f3f" stroke="#3a2417" stroke-width="1" vector-effect="non-scaling-stroke"/><polygon points="0.15,-0.8 0.85,-0.8 0.5,-1" fill="#7d4a22" stroke="#3a2417" stroke-width="1" vector-effect="non-scaling-stroke"/><rect x="0.42" y="-0.3" width="0.16" height="0.3" fill="#7d4a22" stroke="#3a2417" stroke-width="1" vector-effect="non-scaling-stroke"/><rect x="0.3" y="-0.6" width="0.12" height="0.12" fill="#7d4a22" stroke="#3a2417" stroke-width="1" vector-effect="non-scaling-stroke"/></g><g transform="translate(1687.29,300) scale(19.5,78)"><rect x="0.4" y="-0.85" width="0.2" height="0.85" fill="#c07f3f" stroke="#3a2417" stroke-width="1" vector-effect="non-scaling-stroke"/><polygon points="0.4,-0.85 0.6,-0.85 0.5,-1" fill="#7d4a22" stroke="#3a2417" stroke-width="1" vector-effect="non-scaling-stroke"/></g><g transform="translate(1715.14,300) scale(19.5,128)"><rect x="0.2" y="-0.8" width="0.6" height="0.8" fill="#c07f3f" stroke="#3a2417" stroke-width="1" vector-effect="non-scaling-stroke"/><polygon points="0.15,-0.8 0.85,-0.8 0.5,-1" fill="#7d4a22" stroke="#3a2417" stroke-width="1" vector-effect="non-scaling-stroke"/><rect x="0.42" y="-0.3" width="0.16" height="0.3" fill="#7d4a22" stroke="#3a2417" stroke-width="1" vector-effect="non-scaling-stroke"/><rect x="0.3" y="-0.6" width="0.12" height="0.12" fill="#7d4a22" stroke="#3a2417" stroke-width="1" vector-effect="non-scaling-stroke"/></g><g transform="translate(1755,300) scale(17.2,128)"><rect x="0.2" y="-0.8" width="0.6" height="0.8" fill="#d69a54" stroke="#3a2417" stroke-width="1" vector-effect="non-scaling-stroke"/><polygon points="0.15,-0.8 0.85,-0.8 0.5,-1" fill="#8a5228" stroke="#3a2417" stroke-width="1" vector-effect="non-scaling-stroke"/><rect x="0.42" y="-0.3" width="0.16" height="0.3" fill="#8a5228" stroke="#3a2417" stroke-width="1" vector-effect="non-scaling-stroke"/><rect x="0.3" y="-0.6" width="0.12" height="0.12" fill="#8a5228" stroke="#3a2417" stroke-width="1" vector-effect="non-scaling-stroke"/></g><g transform="translate(1779.57,300) scale(17.2,78)"><rect x="0.4" y="-0.85" width="0.2" height="0.85" fill="#d69a54" stroke="#3a2417" stroke-width="1" vector-effect="non-scaling-stroke"/><polygon points="0.4,-0.85 0.6,-0.85 0.5,-1" fill="#8a5228" stroke="#3a2417" stroke-width="1" vector-effect="non-scaling-stroke"/></g><g transform="translate(1804.14,300) scale(17.2,128)"><rect x="0.2" y="-0.8" width="0.6" height="0.8" fill="#d69a54" stroke="#3a2417" stroke-width="1" vector-effect="non-scaling-stroke"/><polygon points="0.15,-0.8 0.85,-0.8 0.5,-1" fill="#8a5228" stroke="#3a2417" stroke-width="1" vector-effect="non-scaling-stroke"/><rect x="0.42" y="-0.3" width="0.16" height="0.3" fill="#8a5228" stroke="#3a2417" stroke-width="1" vector-effect="non-scaling-stroke"/><rect x="0.3" y="-0.6" width="0.12" height="0.12" fill="#8a5228" stroke="#3a2417" stroke-width="1" vector-effect="non-scaling-stroke"/></g><g transform="translate(1828.71,300) scale(17.2,16)"><polygon points="0.1,0 0.35,-0.5 0.6,-0.6 0.9,-0.3 1,0" fill="#d69a54" stroke="#3a2417" stroke-width="1" vector-effect="non-scaling-stroke"/><circle cx="0.7" cy="-0.15" r="0.08" fill="#8a5228" stroke="#3a2417" stroke-width="1" vector-effect="non-scaling-stroke"/></g><g transform="translate(1853.29,300) scale(17.2,128)"><rect x="0.2" y="-0.8" width="0.6" height="0.8" fill="#d69a54" stroke="#3a2417" stroke-width="1" vector-effect="non-scaling-stroke"/><polygon points="0.15,-0.8 0.85,-0.8 0.5,-1" fill="#8a5228" stroke="#3a2417" stroke-width="1" vector-effect="non-scaling-stroke"/><rect x="0.42" y="-0.3" width="0.16" height="0.3" fill="#8a5228" stroke="#3a2417" stroke-width="1" vector-effect="non-scaling-stroke"/><rect x="0.3" y="-0.6" width="0.12" height="0.12" fill="#8a5228" stroke="#3a2417" stroke-width="1" vector-effect="non-scaling-stroke"/></g><g transform="translate(1877.86,300) scale(17.2,78)"><rect x="0.4" y="-0.85" width="0.2" height="0.85" fill="#d69a54" stroke="#3a2417" stroke-width="1" vector-effect="non-scaling-stroke"/><polygon points="0.4,-0.85 0.6,-0.85 0.5,-1" fill="#8a5228" stroke="#3a2417" stroke-width="1" vector-effect="non-scaling-stroke"/></g><g transform="translate(1902.43,300) scale(17.2,128)"><rect x="0.2" y="-0.8" width="0.6" height="0.8" fill="#d69a54" stroke="#3a2417" stroke-width="1" vector-effect="non-scaling-stroke"/><polygon points="0.15,-0.8 0.85,-0.8 0.5,-1" fill="#8a5228" stroke="#3a2417" stroke-width="1" vector-effect="non-scaling-stroke"/><rect x="0.42" y="-0.3" width="0.16" height="0.3" fill="#8a5228" stroke="#3a2417" stroke-width="1" vector-effect="non-scaling-stroke"/><rect x="0.3" y="-0.6" width="0.12" height="0.12" fill="#8a5228" stroke="#3a2417" stroke-width="1" vector-effect="non-scaling-stroke"/></g></svg>