<svg xmlns="http://www.w3.org/2000/svg" width="830" height="415" viewBox="0 0 830 415" role="img"><defs><radialGradient id="nebula" cx="50%" cy="45%" r="65%"><stop offset="0%" stop-color="#2b2a5e" stop-opacity="0.85"/><stop offset="45%" stop-color="#1a1c3f" stop-opacity="0.45"/><stop offset="100%" stop-color="#070b14" stop-opacity="0"/></radialGradient><radialGradient id="spark-glow" cx="50%" cy="50%" r="50%"><stop offset="0%" stop-color="#ffd27d" stop-opacity="0.9"/><stop offset="40%" stop-color="#ffb45e" stop-opacity="0.35"/><stop offset="100%" stop-color="#ffb45e" stop-opacity="0"/></radialGradient><linearGradient id="gilded" x1="0" y1="0" x2="0" y2="1"><stop offset="0%" stop-color="#f7ecd0"/><stop offset="100%" stop-color="#d9b45b"/></linearGradient><linearGradient id="rule-fade" x1="0" y1="0" x2="1" y2="0"><stop offset="0%" stop-color="#d9b45b" stop-opacity="0"/><stop offset="50%" stop-color="#d9b45b" stop-opacity="0.8"/><stop offset="100%" stop-color="#d9b45b" stop-opacity="0"/></linearGradient></defs><rect width="830" height="415" fill="#070b14"/><g><circle cx="768.45" cy="307.68" r="0.97" fill="#dbe6ff" opacity="0.11"/><circle cx="587.54" cy="203.91" r="1.2" fill="#dbe6ff" opacity="0.42"/><circle cx="590.93" cy="140.08" r="1.05" fill="#dbe6ff" opacity="0.24"/><circle cx="553.09" cy="360.42" r="1.43" fill="#dbe6ff" opacity="0.25"/><circle cx="478.41" cy="29.74" r="1.33" fill="#dbe6ff" opacity="0.48"/><circle cx="727.5" cy="400.32" r="0.95" fill="#dbe6ff" opacity="0.33"/><circle cx="32.58" cy="89.07" r="1.3" fill="#dbe6ff" opacity="0.26"/><circle cx="106.31" cy="250.2" r="0.46" fill="#dbe6ff" opacity="0.23"/><circle cx="423.58" cy="12.65" r="0.52" fill="#dbe6ff" opacity="0.17"/><circle cx="45.87" cy="284.06" r="0.79" fill="#dbe6ff" opacity="0.2"/><circle cx="512.09" cy="220.95" r="1.01" fill="#dbe6ff" opacity="0.31"/><circle cx="60.05" cy="34.84" r="1.35" fill="#dbe6ff" opacity="0.35"/><circle cx="734.34" cy="325.19" r="0.64" fill="#dbe6ff" opacity="0.37"/><circle cx="10.03" cy="375.15" r="1.18" fill="#dbe6ff" opacity="0.2"/><circle cx="699.46" cy="342.2" r="0.58" fill="#dbe6ff" opacity="0.47"/><circle cx="326.36" cy="72.32" r="0.59" fill="#dbe6ff" opacity="0.15"/><circle cx="580.63" cy="178.14" r="1.37" fill="#dbe6ff" opacity="0.23"/><circle cx="720.66" cy="379.38" r="1.42" fill="#dbe6ff" opacity="0.19"/><circle cx="202.85" cy="413.26" r="0.47" fill="#dbe6ff" opacity="0.27"/><circle cx="649.9" cy="370.74" r="0.46" fill="#dbe6ff" opacity="0.32"/><circle cx="76.96" cy="83.75" r="1.42" fill="#dbe6ff" opacity="0.35"/><circle cx="707.99" cy="333.46" r="0.64" fill="#dbe6ff" opacity="0.51"/><circle cx="183.39" cy="119.98" r="0.9" fill="#dbe6ff" opacity="0.31"/><circle cx="272.6" cy="37.57" r="0.92" fill="#dbe6ff" opacity="0.39"/><circle cx="268.16" cy="68.76" r="0.73" fill="#dbe6ff" opacity="0.35"/><circle cx="744.8" cy="270.6" r="0.79" fill="#dbe6ff" opacity="0.44"/><circle cx="602.42" cy="290.84" r="0.89" fill="#dbe6ff" opacity="0.41"/><circle cx="453.83" cy="405.79" r="0.46" fill="#dbe6ff" opacity="0.44"/><circle cx="635.83" cy="220.23" r="1.47" fill="#dbe6ff" opacity="0.12"/><circle cx="781.16" cy="351.09" r="1.01" fill="#dbe6ff" opacity="0.32"/><circle cx="225.73" cy="20.91" r="1.44" fill="#dbe6ff" opacity="0.27"/><circle cx="187.02" cy="156.36" r="1" fill="#dbe6ff" opacity="0.42"/><circle cx="34.1" cy="91.24" r="1.14" fill="#dbe6ff" opacity="0.32"/><circle cx="367.21" cy="288.49" r="0.64" fill="#dbe6ff" opacity="0.5"/><circle cx="603.86" cy="22.59" r="0.58" fill="#dbe6ff" opacity="0.36"/><circle cx="116.76" cy="14.55" r="1.39" fill="#dbe6ff" opacity="0.44"/><circle cx="351.3" cy="10.77" r="1.22" fill="#dbe6ff" opacity="0.26"/><circle cx="770.33" cy="383.5" r="0.45" fill="#dbe6ff" opacity="0.54"/><circle cx="456.11" cy="75.13" r="0.85" fill="#dbe6ff" opacity="0.39"/><circle cx="587.62" cy="104.11" r="1.45" fill="#dbe6ff" opacity="0.48"/><circle cx="513.59" cy="388.26" r="1.41" fill="#dbe6ff" opacity="0.3"/><circle cx="817.39" cy="4.63" r="0.75" fill="#dbe6ff" opacity="0.23"/><circle cx="275.23" cy="325.38" r="0.65" fill="#dbe6ff" opacity="0.22"/><circle cx="525.76" cy="216.6" r="0.69" fill="#dbe6ff" opacity="0.36"/><circle cx="165.02" cy="48.81" r="1.39" fill="#dbe6ff" opacity="0.21"/><circle cx="752.2" cy="58.24" r="0.4" fill="#dbe6ff" opacity="0.26"/><circle cx="238.6" cy="411.64" r="1.1" fill="#dbe6ff" opacity="0.39"/><circle cx="569.22" cy="158.49" r="0.74" fill="#dbe6ff" opacity="0.36"/><circle cx="438.22" cy="126.07" r="1.44" fill="#dbe6ff" opacity="0.24"/><circle cx="614.61" cy="170.1" r="0.86" fill="#dbe6ff" opacity="0.51"/><circle cx="349.06" cy="198.38" r="0.79" fill="#dbe6ff" opacity="0.24"/><circle cx="580.14" cy="310.76" r="1.37" fill="#dbe6ff" opacity="0.48"/><circle cx="187.97" cy="190.62" r="1.4" fill="#dbe6ff" opacity="0.54"/><circle cx="766.18" cy="290.34" r="0.88" fill="#dbe6ff" opacity="0.54"/><circle cx="683.57" cy="250.79" r="0.73" fill="#dbe6ff" opacity="0.4"/><circle cx="18.72" cy="294.41" r="1.1" fill="#dbe6ff" opacity="0.11"/><circle cx="104.22" cy="175.5" r="1.49" fill="#dbe6ff" opacity="0.3"/><circle cx="382.87" cy="108.02" r="1.16" fill="#dbe6ff" opacity="0.32"/><circle cx="822.82" cy="228.55" r="1.23" fill="#dbe6ff" opacity="0.54"/><circle cx="90.21" cy="142.83" r="0.45" fill="#dbe6ff" opacity="0.18"/><circle cx="546.06" cy="377.45" r="1.36" fill="#dbe6ff" opacity="0.42"/><circle cx="555.28" cy="282.23" r="1.03" fill="#dbe6ff" opacity="0.12"/><circle cx="1.02" cy="247.41" r="0.62" fill="#dbe6ff" opacity="0.47"/><circle cx="712.28" cy="263.06" r="1.47" fill="#dbe6ff" opacity="0.41"/><circle cx="556.69" cy="247.69" r="0.5" fill="#dbe6ff" opacity="0.28"/><circle cx="615.62" cy="283.93" r="0.73" fill="#dbe6ff" opacity="0.49"/><circle cx="509.7" cy="169.37" r="1.09" fill="#dbe6ff" opacity="0.52"/><circle cx="261.68" cy="218.67" r="1.09" fill="#dbe6ff" opacity="0.39"/><circle cx="796.67" cy="103.15" r="1.31" fill="#dbe6ff" opacity="0.37"/><circle cx="712.98" cy="239.86" r="0.49" fill="#dbe6ff" opacity="0.29"/><circle cx="331.66" cy="173.07" r="0.59" fill="#dbe6ff" opacity="0.52"/><circle cx="525.57" cy="348.28" r="1.25" fill="#dbe6ff" opacity="0.29"/><circle cx="760.28" cy="316.68" r="1.47" fill="#dbe6ff" opacity="0.47"/><circle cx="415.92" cy="212.36" r="1.45" fill="#dbe6ff" opacity="0.19"/><circle cx="794.24" cy="237.66" r="0.49" fill="#dbe6ff" opacity="0.24"/><circle cx="166.26" cy="300.22" r="0.64" fill="#dbe6ff" opacity="0.52"/><circle cx="112.62" cy="388.17" r="0.98" fill="#dbe6ff" opacity="0.53"/><circle cx="426.85" cy="302.98" r="1.3" fill="#dbe6ff" opacity="0.29"/><circle cx="556.08" cy="116.62" r="0.92" fill="#dbe6ff" opacity="0.35"/><circle cx="808.17" cy="310.79" r="1.36" fill="#dbe6ff" opacity="0.44"/><circle cx="358.58" cy="78.69" r="0.83" fill="#dbe6ff" opacity="0.36"/><circle cx="50.32" cy="320.32" r="0.84" fill="#dbe6ff" opacity="0.15"/><circle cx="139.02" cy="185.87" r="1.12" fill="#dbe6ff" opacity="0.28"/><circle cx="588.26" cy="183.75" r="0.66" fill="#dbe6ff" opacity="0.19"/><circle cx="492.6" cy="159.67" r="1.11" fill="#dbe6ff" opacity="0.53"/><circle cx="428.76" cy="129.94" r="1.09" fill="#dbe6ff" opacity="0.37"/><circle cx="187.14" cy="6.22" r="1.44" fill="#dbe6ff" opacity="0.18"/><circle cx="65.99" cy="344.19" r="0.93" fill="#dbe6ff" opacity="0.23"/><circle cx="277.28" cy="165.85" r="0.48" fill="#dbe6ff" opacity="0.47"/><circle cx="39.2" cy="84.71" r="1.36" fill="#dbe6ff" opacity="0.21"/><circle cx="350.23" cy="106.57" r="0.43" fill="#dbe6ff" opacity="0.1"/><circle cx="629.94" cy="265.11" r="0.48" fill="#dbe6ff" opacity="0.44"/><circle cx="595.08" cy="139.26" r="0.42" fill="#dbe6ff" opacity="0.51"/><circle cx="215.7" cy="338.12" r="0.76" fill="#dbe6ff" opacity="0.52"/><circle cx="323.26" cy="124.56" r="0.49" fill="#dbe6ff" opacity="0.49"/><circle cx="294.53" cy="50.38" r="1.49" fill="#dbe6ff" opacity="0.43"/><circle cx="519.42" cy="117.95" r="0.56" fill="#dbe6ff" opacity="0.31"/><circle cx="743.92" cy="408.72" r="1.47" fill="#dbe6ff" opacity="0.36"/><circle cx="223.63" cy="1.15" r="1.01" fill="#dbe6ff" opacity="0.55"/><circle cx="124.21" cy="331.12" r="0.86" fill="#dbe6ff" opacity="0.19"/><circle cx="756.75" cy="391.68" r="1.21" fill="#dbe6ff" opacity="0.28"/><circle cx="711.36" cy="330.84" r="0.98" fill="#dbe6ff" opacity="0.48"/><circle cx="582.83" cy="341.79" r="1.18" fill="#dbe6ff" opacity="0.26"/><circle cx="770.26" cy="132.26" r="1.45" fill="#dbe6ff" opacity="0.42"/><circle cx="467.73" cy="164.72" r="1.42" fill="#dbe6ff" opacity="0.22"/><circle cx="497.09" cy="36.26" r="1.35" fill="#dbe6ff" opacity="0.43"/><circle cx="391.23" cy="292.18" r="0.99" fill="#dbe6ff" opacity="0.34"/><circle cx="78.46" cy="149.6" r="1.24" fill="#dbe6ff" opacity="0.22"/><circle cx="610.94" cy="264.76" r="0.68" fill="#dbe6ff" opacity="0.53"/><circle cx="666.29" cy="370.44" r="1.18" fill="#dbe6ff" opacity="0.17"/></g><g opacity="0"><circle cx="415" cy="150" r="26" fill="url(#spark-glow)"/><circle cx="415" cy="150" r="3.2" fill="#ffd27d"/><text x="415" y="212" text-anchor="middle" font-family="Georgia, 'Times New Roman', serif" font-size="38" fill="url(#gilded)" font-weight="bold" letter-spacing="7">THE EPIC OF LONG-MARCH</text><rect x="285" y="232" width="260" height="1" fill="url(#rule-fade)"/><text x="415" y="258" text-anchor="middle" font-family="Georgia, 'Times New Roman', serif" font-size="16" fill="#8b93a7" letter-spacing="4">· est. 2011 ·</text><animate attributeName="opacity" begin="0s" dur="3s" values="0;1;1;0" keyTimes="0;0.12;0.88;1" fill="freeze"/></g><g opacity="0"><ellipse cx="415" cy="186" rx="330" ry="150" fill="url(#nebula)"/><circle cx="415" cy="186" r="70" fill="none" stroke="#ffd27d" stroke-width="0.6" opacity="0"><animate attributeName="r" begin="3.2s" dur="2.6s" values="14;70" fill="freeze"/><animate attributeName="opacity" begin="3.2s" dur="2.6s" values="0.5;0.05" fill="freeze"/></circle><circle cx="415" cy="186" r="105" fill="none" stroke="#9aa8ff" stroke-width="0.5" opacity="0"><animate attributeName="r" begin="3.5s" dur="2.6s" values="20;105" fill="freeze"/><animate attributeName="opacity" begin="3.5s" dur="2.6s" values="0.4;0.05" fill="freeze"/></circle><circle cx="415" cy="186" r="34" fill="url(#spark-glow)"/><circle cx="415" cy="186" r="5" fill="#ffd27d"/><rect x="30" y="352" width="55" height="1" fill="url(#rule-fade)"/><rect x="745" y="352" width="55" height="1" fill="url(#rule-fade)"/><circle cx="95" cy="352.5" r="1.8" fill="#d9b45b" opacity="0.8"/><circle cx="735" cy="352.5" r="1.8" fill="#d9b45b" opacity="0.8"/><text x="415" y="357" text-anchor="middle" font-family="Georgia, 'Times New Roman', serif" font-size="15.5" fill="url(#gilded)" font-style="italic" letter-spacing="0.5">In the year 2011, the developer first set foot upon the public forge, and the epic began.</text><animate attributeName="opacity" begin="3s" dur="3.5s" values="0;1;1;0" keyTimes="0;0.12;0.88;1" fill="freeze"/></g><g opacity="0"><ellipse cx="415" cy="186" rx="330" ry="150" fill="url(#nebula)"/><circle cx="415" cy="186" r="40" fill="url(#spark-glow)"/><circle cx="415" cy="186" r="4" fill="#ffd27d" opacity="0.6"/><rect x="30" y="352" width="55" height="1" fill="url(#rule-fade)"/><rect x="745" y="352" width="55" height="1" fill="url(#rule-fade)"/><circle cx="95" cy="352.5" r="1.8" fill="#d9b45b" opacity="0.8"/><circle cx="735" cy="352.5" r="1.8" fill="#d9b45b" opacity="0.8"/><text x="415" y="357" text-anchor="middle" font-family="Georgia, 'Times New Roman', serif" font-size="15.5" fill="url(#gilded)" font-style="italic" letter-spacing="0.5">And lo, ember-forge rose from nothing, and a hundred stars gathered to witness it.</text><animate attributeName="opacity" begin="6.5s" dur="3.5s" values="0;1;1;0" keyTimes="0;0.12;0.88;1" fill="freeze"/></g><g opacity="0"><ellipse cx="415" cy="186" rx="330" ry="150" fill="url(#nebula)"/><circle cx="415" cy="186" r="40" fill="url(#spark-glow)"/><circle cx="415" cy="186" r="4" fill="#ffd27d" opacity="0.6"/><rect x="30" y="352" width="55" height="1" fill="url(#rule-fade)"/><rect x="745" y="352" width="55" height="1" fill="url(#rule-fade)"/><circle cx="95" cy="352.5" r="1.8" fill="#d9b45b" opacity="0.8"/><circle cx="735" cy="352.5" r="1.8" fill="#d9b45b" opacity="0.8"/><text x="415" y="357" text-anchor="middle" font-family="Georgia, 'Times New Roman', serif" font-size="15.5" fill="url(#gilded)" font-style="italic" letter-spacing="0.5">Then came the Dark Age: one hundred and ninety-seven days, and not a single commit.</text><animate attributeName="opacity" begin="10s" dur="3.5s" values="0;1;1;0" keyTimes="0;0.12;0.88;1" fill="freeze"/></g><g opacity="0"><ellipse cx="415" cy="186" rx="330" ry="150" fill="url(#nebula)"/><circle cx="415" cy="186" r="40" fill="url(#spark-glow)"/><circle cx="415" cy="186" r="4" fill="#ffd27d" opacity="0.6"/><rect x="30" y="352" width="55" height="1" fill="url(#rule-fade)"/><rect x="745" y="352" width="55" height="1" fill="url(#rule-fade)"/><circle cx="95" cy="352.5" r="1.8" fill="#d9b45b" opacity="0.8"/><circle cx="735" cy="352.5" r="1.8" fill="#d9b45b" opacity="0.8"/><text x="415" y="357" text-anchor="middle" font-family="Georgia, 'Times New Roman', serif" font-size="15.5" fill="url(#gilded)" font-style="italic" letter-spacing="0.5">In the year 2015, the developer forsook Ruby, and there was much refactoring.</text><animate attributeName="opacity" begin="13.5s" dur="3.5s" values="0;1;1;0" keyTimes="0;0.12;0.88;1" fill="freeze"/></g><g opacity="0"><ellipse cx="415" cy="186" rx="330" ry="150" fill="url(#nebula)"/><circle cx="415" cy="186" r="40" fill="url(#spark-glow)"/><circle cx="415" cy="186" r="4" fill="#ffd27d" opacity="0.6"/><rect x="30" y="352" width="55" height="1" fill="url(#rule-fade)"/><rect x="745" y="352" width="55" height="1" fill="url(#rule-fade)"/><circle cx="95" cy="352.5" r="1.8" fill="#d9b45b" opacity="0.8"/><circle cx="735" cy="352.5" r="1.8" fill="#d9b45b" opacity="0.8"/><text x="415" y="357" text-anchor="middle" font-family="Georgia, 'Times New Roman', serif" font-size="15.5" fill="url(#gilded)" font-style="italic" letter-spacing="0.5">And lo, iron-keep rose from nothing, and nine hundred stars gathered to witness it.</text><animate attributeName="opacity" begin="17s" dur="3.5s" values="0;1;1;0" keyTimes="0;0.12;0.88;1" fill="freeze"/></g><g opacity="0"><ellipse cx="415" cy="186" rx="330" ry="150" fill="url(#nebula)"/><circle cx="415" cy="186" r="40" fill="url(#spark-glow)"/><circle cx="415" cy="186" r="4" fill="#ffd27d" opacity="0.6"/><rect x="30" y="352" width="55" height="1" fill="url(#rule-fade)"/><rect x="745" y="352" width="55" height="1" fill="url(#rule-fade)"/><circle cx="95" cy="352.5" r="1.8" fill="#d9b45b" opacity="0.8"/><circle cx="735" cy="352.5" r="1.8" fill="#d9b45b" opacity="0.8"/><text x="415" y="357" text-anchor="middle" font-family="Georgia, 'Times New Roman', serif" font-size="15.5" fill="url(#gilded)" font-style="italic" letter-spacing="0.5">Then came the Dark Age: three hundred and seventeen days, and not a single commit.</text><animate attributeName="opacity" begin="20.5s" dur="3.5s" values="0;1;1;0" keyTimes="0;0.12;0.88;1" fill="freeze"/></g><g opacity="0"><ellipse cx="415" cy="186" rx="330" ry="150" fill="url(#nebula)"/><circle cx="415" cy="186" r="40" fill="url(#spark-glow)"/><circle cx="415" cy="186" r="4" fill="#ffd27d" opacity="0.6"/><rect x="30" y="352" width="55" height="1" fill="url(#rule-fade)"/><rect x="745" y="352" width="55" height="1" fill="url(#rule-fade)"/><circle cx="95" cy="352.5" r="1.8" fill="#d9b45b" opacity="0.8"/><circle cx="735" cy="352.5" r="1.8" fill="#d9b45b" opacity="0.8"/><text x="415" y="357" text-anchor="middle" font-family="Georgia, 'Times New Roman', serif" font-size="15.5" fill="url(#gilded)" font-style="italic" letter-spacing="0.5">And lo, starfall rose from nothing, and nine thousand stars gathered to witness it.</text><animate attributeName="opacity" begin="24s" dur="3.5s" values="0;1;1;0" keyTimes="0;0.12;0.88;1" fill="freeze"/></g><g opacity="0"><ellipse cx="415" cy="186" rx="330" ry="150" fill="url(#nebula)"/><circle cx="415" cy="186" r="40" fill="url(#spark-glow)"/><circle cx="415" cy="186" r="4" fill="#ffd27d" opacity="0.6"/><rect x="30" y="352" width="55" height="1" fill="url(#rule-fade)"/><rect x="745" y="352" width="55" height="1" fill="url(#rule-fade)"/><circle cx="95" cy="352.5" r="1.8" fill="#d9b45b" opacity="0.8"/><circle cx="735" cy="352.5" r="1.8" fill="#d9b45b" opacity="0.8"/><text x="415" y="357" text-anchor="middle" font-family="Georgia, 'Times New Roman', serif" font-size="15.5" fill="url(#gilded)" font-style="italic" letter-spacing="0.5">Then came the Dark Age: three hundred and seventeen days, and not a single commit.</text><animate attributeName="opacity" begin="27.5s" dur="3.5s" values="0;1;1;0" keyTimes="0;0.12;0.88;1" fill="freeze"/></g><g opacity="0"><text x="415" y="200" text-anchor="middle" font-family="Georgia, 'Times New Roman', serif" font-size="26" fill="url(#gilded)" font-weight="bold" letter-spacing="4">PRESENT DAY</text><rect x="315" y="220" width="200" height="1" fill="url(#rule-fade)"/><text x="415" y="246" text-anchor="middle" font-family="Georgia, 'Times New Roman', serif" font-size="15" fill="#8b93a7" letter-spacing="2">2026-07-04</text><animate attributeName="opacity" begin="31s" dur="3s" values="0;1;1;0" keyTimes="0;0.12;0.88;1" fill="freeze"/></g><g opacity="0"><ellipse cx="415" cy="186" rx="300" ry="135" fill="url(#nebula)" opacity="0.7"/><circle cx="415" cy="186" r="88" fill="none" stroke="#9aa8ff" stroke-width="0.5" opacity="0.14" stroke-dasharray="2 7"><animateTransform attributeName="transform" type="rotate" begin="34s" dur="60s" from="0 415 186" to="360 415 186" repeatCount="indefinite"/></circle><circle cx="415" cy="186" r="30" fill="url(#spark-glow)"/><circle cx="415" cy="186" r="6" fill="#ffd27d"><animate attributeName="r" begin="34s" dur="7s" values="6;9;6" repeatCount="indefinite"/></circle><g><circle cx="503" cy="186" r="2.2" fill="#9ad2ff"/><animateTransform attributeName="transform" type="rotate" begin="34s" dur="14s" from="0 415 186" to="360 415 186" repeatCount="indefinite"/></g><circle cx="161.15" cy="269.17" r="1.4" fill="#dbe6ff" opacity="0.2"><animate attributeName="opacity" begin="34s" dur="6.36s" values="0.2;0.8;0.2" repeatCount="indefinite"/></circle><circle cx="75.93" cy="377.51" r="1.4" fill="#dbe6ff" opacity="0.2"><animate attributeName="opacity" begin="34s" dur="7.12s" values="0.2;0.8;0.2" repeatCount="indefinite"/></circle><circle cx="98.1" cy="338.61" r="1.4" fill="#dbe6ff" opacity="0.2"><animate attributeName="opacity" begin="34s" dur="4.21s" values="0.2;0.8;0.2" repeatCount="indefinite"/></circle><circle cx="219.54" cy="222.02" r="1.4" fill="#dbe6ff" opacity="0.2"><animate attributeName="opacity" begin="34s" dur="5.63s" values="0.2;0.8;0.2" repeatCount="indefinite"/></circle><circle cx="225.88" cy="197.17" r="1.4" fill="#dbe6ff" opacity="0.2"><animate attributeName="opacity" begin="34s" dur="7.18s" values="0.2;0.8;0.2" repeatCount="indefinite"/></circle><circle cx="432.65" cy="213.81" r="1.4" fill="#dbe6ff" opacity="0.2"><animate attributeName="opacity" begin="34s" dur="7.68s" values="0.2;0.8;0.2" repeatCount="indefinite"/></circle><circle cx="825.61" cy="177.38" r="1.4" fill="#dbe6ff" opacity="0.2"><animate attributeName="opacity" begin="34s" dur="5.48s" values="0.2;0.8;0.2" repeatCount="indefinite"/></circle><circle cx="611.4" cy="242.38" r="1.4" fill="#dbe6ff" opacity="0.2"><animate attributeName="opacity" begin="34s" dur="7.38s" values="0.2;0.8;0.2" repeatCount="indefinite"/></circle><text x="415" y="345" text-anchor="middle" font-family="Georgia, 'Times New Roman', serif" font-size="20" fill="url(#gilded)" letter-spacing="1.5">The Epic of long-march</text><text x="415" y="391" text-anchor="middle" font-family="Georgia, 'Times New Roman', serif" font-size="13" fill="#8b93a7">✦ forge yours at git-epic.dev</text><animate attributeName="opacity" begin="34s" dur="1.2s" values="0;1" fill="freeze"/></g></svg>