<svg xmlns="http://www.w3.org/2000/svg" width="184" height="360" viewBox="0 0 184 360" role="img"><title>The Epic of unwritten-legend</title><desc>The chronicle is yet unwritten, and the epic has just begun.</desc><defs><linearGradient id="mural-sky" x1="0" y1="0" x2="0" y2="1"><stop offset="0%" stop-color="#f6b26b"/><stop offset="100%" stop-color="#fbe3bd"/></linearGradient></defs><rect x="0" y="0" width="184" height="150" fill="url(#mural-sky)"/><rect x="0" y="150" width="184" height="60" fill="#d98b4a"/><g transform="translate(24,0)"><rect x="-24" y="210" width="184" height="90" fill="#e6bd7f"/></g><polyline points="0,300 184,300" fill="none" stroke="#caa268" stroke-width="4"/><g transform="translate(30,300) scale(43.4,46)"><polygon points="0,0 1,0 0.5,-1" fill="#d69a54" stroke="#3a2417" stroke-width="1" vector-effect="non-scaling-stroke"/><polygon points="0.5,0 1,0 0.5,-1" fill="#8a5228" stroke="#3a2417" stroke-width="1" vector-effect="non-scaling-stroke"/></g><g transform="translate(92,300) scale(43.4,34)"><rect x="0.4" y="-0.85" width="0.2" height="0.85" fill="#d69a54" stroke="#3a2417" stroke-width="1" vector-effect="non-scaling-stroke"/><polygon points="0.4,-0.85 0.6,-0.85 0.5,-1" fill="#8a5228" stroke="#3a2417" stroke-width="1" vector-effect="non-scaling-stroke"/></g><g transform="translate(30,246) scale(86.8,34)"><rect x="0.46" y="-1" width="0.08" height="1" fill="#8f4a24" stroke="#3a2417" stroke-width="1" vector-effect="non-scaling-stroke"/><rect x="0.3" y="-1" width="0.4" height="0.55" fill="#8f4a24" stroke="#3a2417" stroke-width="1" vector-effect="non-scaling-stroke"/></g><rect x="24" y="328.52" width="4" height="2.48" fill="#f0d5a8"/><rect x="28" y="328.52" width="4" height="2.48" fill="#f0d5a8"/><rect x="32" y="328.52" width="4" height="2.48" fill="#f0d5a8"/><rect x="36" y="328.52" width="4" height="2.48" fill="#f0d5a8"/><rect x="40" y="328.52" width="4" height="2.48" fill="#f0d5a8"/><rect x="44" y="328.52" width="4" height="2.48" fill="#f0d5a8"/><rect x="48" y="328.52" width="4" height="2.48" fill="#f0d5a8"/><rect x="52" y="328.52" width="4" height="2.48" fill="#f0d5a8"/><rect x="56" y="328.52" width="4" height="2.48" fill="#f0d5a8"/><rect x="60" y="328.52" width="4" height="2.48" fill="#f0d5a8"/><rect x="64" y="328.52" width="4" height="2.48" fill="#f0d5a8"/><rect x="68" y="328.52" width="4" height="2.48" fill="#f0d5a8"/><rect x="72" y="328.52" width="4" height="2.48" fill="#f0d5a8"/><rect x="76" y="328.52" width="4" height="2.48" fill="#f0d5a8"/><rect x="80" y="328.52" width="4" height="2.48" fill="#f0d5a8"/><rect x="84" y="328.52" width="4" height="2.48" fill="#f0d5a8"/><rect x="88" y="328.52" width="4" height="2.48" fill="#f0d5a8"/><rect x="92" y="328.52" width="4" height="2.48" fill="#f0d5a8"/><rect x="96" y="328.52" width="4" height="2.48" fill="#f0d5a8"/><rect x="100" y="328.52" width="4" height="2.48" fill="#f0d5a8"/><rect x="104" y="328.52" width="4" height="2.48" fill="#f0d5a8"/><rect x="108" y="328.52" width="4" height="2.48" fill="#f0d5a8"/><rect x="112" y="328.52" width="4" height="2.48" fill="#f0d5a8"/><rect x="116" y="328.52" width="4" height="2.48" fill="#f0d5a8"/><rect x="120" y="328.52" width="4" height="2.48" fill="#f0d5a8"/><rect x="124" y="328.52" width="4" height="2.48" fill="#f0d5a8"/><rect x="128" y="328.52" width="4" height="2.48" fill="#f0d5a8"/><rect x="132" y="328.52" width="4" height="2.48" fill="#f0d5a8"/><rect x="136" y="328.52" width="4" height="2.48" fill="#f0d5a8"/><rect x="140" y="328.52" width="4" height="2.48" fill="#f0d5a8"/><rect x="144" y="328.52" width="4" height="2.48" fill="#f0d5a8"/><rect x="148" y="328.52" width="4" height="2.48" fill="#f0d5a8"/><rect x="152" y="328.52" width="4" height="2.48" fill="#f0d5a8"/><rect x="156" y="328.52" width="4" height="2.48" fill="#f0d5a8"/><rect x="43" y="340" width="8" height="8" fill="#f0d5a8"/><rect x="54" y="340" width="8" height="8" fill="#e3b877"/><rect x="65" y="340" width="8" height="8" fill="#d18f4b"/><rect x="76" y="340" width="8" height="8" fill="#b3672f"/><rect x="87" y="340" width="8" height="8" fill="#8a4a22"/><text x="40" y="348" font-family="system-ui, -apple-system, 'Segoe UI', Roboto, sans-serif" font-size="9" fill="#3a2417" text-anchor="end">Less activity</text><text x="98" y="348" font-family="system-ui, -apple-system, 'Segoe UI', Roboto, sans-serif" font-size="9" fill="#3a2417" text-anchor="start">More activity</text><text x="24" y="28" font-family="system-ui, -apple-system, 'Segoe UI', Roboto, sans-serif" font-size="13" fill="#3a2417" text-anchor="start" letter-spacing="0.5">unwritten-legend · since 2019</text><text x="92" y="52" font-family="system-ui, -apple-system, 'Segoe UI', Roboto, sans-serif" font-size="14" fill="#3a2417" text-anchor="middle" letter-spacing="1.5" font-weight="bold">PRESENT DAY</text><text x="92" y="290" font-family="system-ui, -apple-system, 'Segoe UI', Roboto, sans-serif" font-size="11" fill="#3a2417" text-anchor="middle" letter-spacing="1">PRESENT DAY</text><rect x="16" y="84" width="152" height="34" rx="6" fill="#fbe3bd" stroke="#3a2417" stroke-width="1"/><text x="92" y="104.86" font-family="system-ui, -apple-system, 'Segoe UI', Roboto, sans-serif" font-size="11.02" fill="#3a2417" text-anchor="middle" letter-spacing="0.5">The Journey Begins</text></svg>