<svg xmlns="http://www.w3.org/2000/svg" width="368" height="360" viewBox="0 0 368 360" role="img"><title>The Epic of many-tongues</title><desc>In the year 2019, the developer first set foot upon the public forge, and the epic began.</desc><defs><linearGradient id="mural-sky" x1="0" y1="0" x2="0" y2="1"><stop offset="0%" stop-color="#f6b26b"/><stop offset="100%" stop-color="#fbe3bd"/></linearGradient></defs><rect x="0" y="0" width="368" height="150" fill="url(#mural-sky)"/><rect x="0" y="150" width="368" height="60" fill="#d98b4a"/><g transform="translate(24,0)"><rect x="-24" y="210" width="196" height="90" fill="#b9793d"/></g><g transform="translate(184,0)"><rect x="0" y="210" width="184" height="90" fill="#e6bd7f"/></g><polyline points="0,300 368,300" fill="none" stroke="#caa268" stroke-width="4"/><g transform="translate(30,300) scale(17.27,82)"><rect x="0.2" y="-0.8" width="0.6" height="0.8" fill="#a86a3a" stroke="#3a2417" stroke-width="1" vector-effect="non-scaling-stroke"/><polygon points="0.15,-0.8 0.85,-0.8 0.5,-1" fill="#6f3f20" stroke="#3a2417" stroke-width="1" vector-effect="non-scaling-stroke"/><rect x="0.42" y="-0.3" width="0.16" height="0.3" fill="#6f3f20" stroke="#3a2417" stroke-width="1" vector-effect="non-scaling-stroke"/><rect x="0.3" y="-0.6" width="0.12" height="0.12" fill="#6f3f20" stroke="#3a2417" stroke-width="1" vector-effect="non-scaling-stroke"/></g><g transform="translate(54.67,300) scale(17.27,54)"><rect x="0.4" y="-0.85" width="0.2" height="0.85" fill="#a86a3a" stroke="#3a2417" stroke-width="1" vector-effect="non-scaling-stroke"/><polygon points="0.4,-0.85 0.6,-0.85 0.5,-1" fill="#6f3f20" stroke="#3a2417" stroke-width="1" vector-effect="non-scaling-stroke"/></g><g transform="translate(79.33,300) scale(17.27,82)"><rect x="0.2" y="-0.8" width="0.6" height="0.8" fill="#a86a3a" stroke="#3a2417" stroke-width="1" vector-effect="non-scaling-stroke"/><polygon points="0.15,-0.8 0.85,-0.8 0.5,-1" fill="#6f3f20" stroke="#3a2417" stroke-width="1" vector-effect="non-scaling-stroke"/><rect x="0.42" y="-0.3" width="0.16" height="0.3" fill="#6f3f20" stroke="#3a2417" stroke-width="1" vector-effect="non-scaling-stroke"/><rect x="0.3" y="-0.6" width="0.12" height="0.12" fill="#6f3f20" stroke="#3a2417" stroke-width="1" vector-effect="non-scaling-stroke"/></g><g transform="translate(104,300) scale(17.27,16)"><polygon points="0.1,0 0.35,-0.5 0.6,-0.6 0.9,-0.3 1,0" fill="#a86a3a" stroke="#3a2417" stroke-width="1" vector-effect="non-scaling-stroke"/><circle cx="0.7" cy="-0.15" r="0.08" fill="#6f3f20" stroke="#3a2417" stroke-width="1" vector-effect="non-scaling-stroke"/></g><g transform="translate(128.67,300) scale(17.27,82)"><rect x="0.2" y="-0.8" width="0.6" height="0.8" fill="#a86a3a" stroke="#3a2417" stroke-width="1" vector-effect="non-scaling-stroke"/><polygon points="0.15,-0.8 0.85,-0.8 0.5,-1" fill="#6f3f20" stroke="#3a2417" stroke-width="1" vector-effect="non-scaling-stroke"/><rect x="0.42" y="-0.3" width="0.16" height="0.3" fill="#6f3f20" stroke="#3a2417" stroke-width="1" vector-effect="non-scaling-stroke"/><rect x="0.3" y="-0.6" width="0.12" height="0.12" fill="#6f3f20" stroke="#3a2417" stroke-width="1" vector-effect="non-scaling-stroke"/></g><g transform="translate(153.33,300) scale(17.27,54)"><rect x="0.4" y="-0.85" width="0.2" height="0.85" fill="#a86a3a" stroke="#3a2417" stroke-width="1" vector-effect="non-scaling-stroke"/><polygon points="0.4,-0.85 0.6,-0.85 0.5,-1" fill="#6f3f20" stroke="#3a2417" stroke-width="1" vector-effect="non-scaling-stroke"/></g><g transform="translate(190,300) scale(17.27,82)"><rect x="0.2" y="-0.8" width="0.6" height="0.8" fill="#d69a54" stroke="#3a2417" stroke-width="1" vector-effect="non-scaling-stroke"/><polygon points="0.15,-0.8 0.85,-0.8 0.5,-1" fill="#8a5228" stroke="#3a2417" stroke-width="1" vector-effect="non-scaling-stroke"/><rect x="0.42" y="-0.3" width="0.16" height="0.3" fill="#8a5228" stroke="#3a2417" stroke-width="1" vector-effect="non-scaling-stroke"/><rect x="0.3" y="-0.6" width="0.12" height="0.12" fill="#8a5228" stroke="#3a2417" stroke-width="1" vector-effect="non-scaling-stroke"/></g><g transform="translate(214.67,300) scale(17.27,54)"><rect x="0.4" y="-0.85" width="0.2" height="0.85" fill="#d69a54" stroke="#3a2417" stroke-width="1" vector-effect="non-scaling-stroke"/><polygon points="0.4,-0.85 0.6,-0.85 0.5,-1" fill="#8a5228" stroke="#3a2417" stroke-width="1" vector-effect="non-scaling-stroke"/></g><g transform="translate(239.33,300) scale(17.27,82)"><rect x="0.2" y="-0.8" width="0.6" height="0.8" fill="#d69a54" stroke="#3a2417" stroke-width="1" vector-effect="non-scaling-stroke"/><polygon points="0.15,-0.8 0.85,-0.8 0.5,-1" fill="#8a5228" stroke="#3a2417" stroke-width="1" vector-effect="non-scaling-stroke"/><rect x="0.42" y="-0.3" width="0.16" height="0.3" fill="#8a5228" stroke="#3a2417" stroke-width="1" vector-effect="non-scaling-stroke"/><rect x="0.3" y="-0.6" width="0.12" height="0.12" fill="#8a5228" stroke="#3a2417" stroke-width="1" vector-effect="non-scaling-stroke"/></g><g transform="translate(264,300) scale(17.27,16)"><polygon points="0.1,0 0.35,-0.5 0.6,-0.6 0.9,-0.3 1,0" fill="#d69a54" stroke="#3a2417" stroke-width="1" vector-effect="non-scaling-stroke"/><circle cx="0.7" cy="-0.15" r="0.08" fill="#8a5228" stroke="#3a2417" stroke-width="1" vector-effect="non-scaling-stroke"/></g><g transform="translate(288.67,300) scale(17.27,82)"><rect x="0.2" y="-0.8" width="0.6" height="0.8" fill="#d69a54" stroke="#3a2417" stroke-width="1" vector-effect="non-scaling-stroke"/><polygon points="0.15,-0.8 0.85,-0.8 0.5,-1" fill="#8a5228" stroke="#3a2417" stroke-width="1" vector-effect="non-scaling-stroke"/><rect x="0.42" y="-0.3" width="0.16" height="0.3" fill="#8a5228" stroke="#3a2417" stroke-width="1" vector-effect="non-scaling-stroke"/><rect x="0.3" y="-0.6" width="0.12" height="0.12" fill="#8a5228" stroke="#3a2417" stroke-width="1" vector-effect="non-scaling-stroke"/></g><g transform="translate(313.33,300) scale(17.27,54)"><rect x="0.4" y="-0.85" width="0.2" height="0.85" fill="#d69a54" stroke="#3a2417" stroke-width="1" vector-effect="non-scaling-stroke"/><polygon points="0.4,-0.85 0.6,-0.85 0.5,-1" fill="#8a5228" stroke="#3a2417" stroke-width="1" vector-effect="non-scaling-stroke"/></g><g transform="translate(30,210) scale(2.59,81)"><rect x="0.46" y="-1" width="0.08" height="1" fill="#f2c14e" stroke="#3a2417" stroke-width="1" vector-effect="non-scaling-stroke"/><rect x="0.3" y="-1" width="0.4" height="0.55" fill="#8f4a24" stroke="#3a2417" stroke-width="1" vector-effect="non-scaling-stroke"/></g><g transform="translate(32.59,210) scale(2.59,81)"><rect x="0.46" y="-1" width="0.08" height="1" fill="#f2c14e" stroke="#3a2417" stroke-width="1" vector-effect="non-scaling-stroke"/><rect x="0.3" y="-1" width="0.4" height="0.55" fill="#8f4a24" stroke="#3a2417" stroke-width="1" vector-effect="non-scaling-stroke"/></g><g transform="translate(35.18,210) scale(2.59,81)"><rect x="0.46" y="-1" width="0.08" height="1" fill="#f2c14e" stroke="#3a2417" stroke-width="1" vector-effect="non-scaling-stroke"/><rect x="0.3" y="-1" width="0.4" height="0.55" fill="#8f4a24" stroke="#3a2417" stroke-width="1" vector-effect="non-scaling-stroke"/></g><g transform="translate(37.77,210) scale(2.59,81)"><rect x="0.46" y="-1" width="0.08" height="1" fill="#f2c14e" stroke="#3a2417" stroke-width="1" vector-effect="non-scaling-stroke"/><rect x="0.3" y="-1" width="0.4" height="0.55" fill="#8f4a24" stroke="#3a2417" stroke-width="1" vector-effect="non-scaling-stroke"/></g><g transform="translate(40.36,210) scale(2.59,81)"><rect x="0.46" y="-1" width="0.08" height="1" fill="#f2c14e" stroke="#3a2417" stroke-width="1" vector-effect="non-scaling-stroke"/><rect x="0.3" y="-1" width="0.4" height="0.55" fill="#8f4a24" stroke="#3a2417" stroke-width="1" vector-effect="non-scaling-stroke"/></g><g transform="translate(42.95,210) scale(2.59,81)"><rect x="0.46" y="-1" width="0.08" height="1" fill="#f2c14e" stroke="#3a2417" stroke-width="1" vector-effect="non-scaling-stroke"/><rect x="0.3" y="-1" width="0.4" height="0.55" fill="#8f4a24" stroke="#3a2417" stroke-width="1" vector-effect="non-scaling-stroke"/></g><g transform="translate(45.54,210) scale(2.59,81)"><rect x="0.46" y="-1" width="0.08" height="1" fill="#f2c14e" stroke="#3a2417" stroke-width="1" vector-effect="non-scaling-stroke"/><rect x="0.3" y="-1" width="0.4" height="0.55" fill="#8f4a24" stroke="#3a2417" stroke-width="1" vector-effect="non-scaling-stroke"/></g><g transform="translate(48.13,210) scale(2.59,81)"><rect x="0.46" y="-1" width="0.08" height="1" fill="#f2c14e" stroke="#3a2417" stroke-width="1" vector-effect="non-scaling-stroke"/><rect x="0.3" y="-1" width="0.4" height="0.55" fill="#8f4a24" stroke="#3a2417" stroke-width="1" vector-effect="non-scaling-stroke"/></g><text x="40.36" y="124" font-family="system-ui, -apple-system, 'Segoe UI', Roboto, sans-serif" font-size="9" fill="#3a2417" text-anchor="middle" letter-spacing="0.5">9 languages</text><g transform="translate(59.6,300) scale(20.72,62.64)"><polygon points="0.15,0 0.15,-0.7 0.5,-0.9 0.85,-0.7 0.85,0" fill="#f2c14e" stroke="#3a2417" stroke-width="1" vector-effect="non-scaling-stroke"/><polygon points="0.3,-0.9 0.38,-1 0.46,-0.9 0.54,-1 0.62,-0.9 0.7,-1 0.78,-0.9" fill="#8f4a24" stroke="#3a2417" stroke-width="1" vector-effect="non-scaling-stroke"/></g><text x="69.96" y="232.36" font-family="system-ui, -apple-system, 'Segoe UI', Roboto, sans-serif" font-size="9" fill="#3a2417" text-anchor="middle" letter-spacing="0.5">31 ★</text><g transform="translate(89.2,300) scale(20.72,62.64)"><rect x="0.1" y="-0.5" width="0.12" height="0.5" fill="#c8763c" stroke="#3a2417" stroke-width="1" vector-effect="non-scaling-stroke"/><rect x="0.78" y="-0.5" width="0.12" height="0.5" fill="#c8763c" stroke="#3a2417" stroke-width="1" vector-effect="non-scaling-stroke"/><rect x="0" y="-0.5" width="1" height="0.16" fill="#8f4a24" stroke="#3a2417" stroke-width="1" vector-effect="non-scaling-stroke"/></g><text x="99.56" y="232.36" font-family="system-ui, -apple-system, 'Segoe UI', Roboto, sans-serif" font-size="9" fill="#3a2417" text-anchor="middle" letter-spacing="0.5">15 PRs</text><g transform="translate(118.8,300) scale(3.45,54)"><polygon points="0.3,0 0.7,0 0.62,-0.6 0.38,-0.6" fill="#c8763c" stroke="#3a2417" stroke-width="1" vector-effect="non-scaling-stroke"/><circle cx="0.5" cy="-0.78" r="0.16" fill="#8f4a24" stroke="#3a2417" stroke-width="1" vector-effect="non-scaling-stroke"/></g><g transform="translate(122.25,300) scale(3.45,54)"><polygon points="0.3,0 0.7,0 0.62,-0.6 0.38,-0.6" fill="#c8763c" stroke="#3a2417" stroke-width="1" vector-effect="non-scaling-stroke"/><circle cx="0.5" cy="-0.78" r="0.16" fill="#8f4a24" stroke="#3a2417" stroke-width="1" vector-effect="non-scaling-stroke"/></g><g transform="translate(125.71,300) scale(3.45,54)"><polygon points="0.3,0 0.7,0 0.62,-0.6 0.38,-0.6" fill="#c8763c" stroke="#3a2417" stroke-width="1" vector-effect="non-scaling-stroke"/><circle cx="0.5" cy="-0.78" r="0.16" fill="#8f4a24" stroke="#3a2417" stroke-width="1" vector-effect="non-scaling-stroke"/></g><g transform="translate(129.16,300) scale(3.45,54)"><polygon points="0.3,0 0.7,0 0.62,-0.6 0.38,-0.6" fill="#c8763c" stroke="#3a2417" stroke-width="1" vector-effect="non-scaling-stroke"/><circle cx="0.5" cy="-0.78" r="0.16" fill="#8f4a24" stroke="#3a2417" stroke-width="1" vector-effect="non-scaling-stroke"/></g><g transform="translate(132.61,300) scale(3.45,54)"><polygon points="0.3,0 0.7,0 0.62,-0.6 0.38,-0.6" fill="#c8763c" stroke="#3a2417" stroke-width="1" vector-effect="non-scaling-stroke"/><circle cx="0.5" cy="-0.78" r="0.16" fill="#8f4a24" stroke="#3a2417" stroke-width="1" vector-effect="non-scaling-stroke"/></g><g transform="translate(136.07,300) scale(3.45,54)"><polygon points="0.3,0 0.7,0 0.62,-0.6 0.38,-0.6" fill="#c8763c" stroke="#3a2417" stroke-width="1" vector-effect="non-scaling-stroke"/><circle cx="0.5" cy="-0.78" r="0.16" fill="#8f4a24" stroke="#3a2417" stroke-width="1" vector-effect="non-scaling-stroke"/></g><text x="129.16" y="241" font-family="system-ui, -apple-system, 'Segoe UI', Roboto, sans-serif" font-size="9" fill="#3a2417" text-anchor="middle" letter-spacing="0.5">20 followers</text><g transform="translate(148.4,300) scale(20.72,62.64)"><polygon points="0,0 0.55,0 1,-1 0.5,-1" fill="#c8763c" stroke="#3a2417" stroke-width="1" vector-effect="non-scaling-stroke"/></g><text x="158.76" y="232.36" font-family="system-ui, -apple-system, 'Segoe UI', Roboto, sans-serif" font-size="9" fill="#3a2417" text-anchor="middle" letter-spacing="0.5">8 forks</text><rect x="24" y="328.52" width="4" height="2.48" fill="#f0d5a8"/><rect x="28" y="328.52" width="4" height="2.48" fill="#f0d5a8"/><rect x="32" y="328.52" width="4" height="2.48" fill="#f0d5a8"/><rect x="36" y="328.52" width="4" height="2.48" fill="#f0d5a8"/><rect x="40" y="328.52" width="4" height="2.48" fill="#f0d5a8"/><rect x="44" y="328.52" width="4" height="2.48" fill="#f0d5a8"/><rect x="48" y="328.52" width="4" height="2.48" fill="#f0d5a8"/><rect x="52" y="328.52" width="4" height="2.48" fill="#f0d5a8"/><rect x="56" y="328.52" width="4" height="2.48" fill="#f0d5a8"/><rect x="60" y="328.52" width="4" height="2.48" fill="#f0d5a8"/><rect x="64" y="328.52" width="4" height="2.48" fill="#f0d5a8"/><rect x="68" y="328.52" width="4" height="2.48" fill="#f0d5a8"/><rect x="72" y="328.52" width="4" height="2.48" fill="#f0d5a8"/><rect x="76" y="328.52" width="4" height="2.48" fill="#f0d5a8"/><rect x="80" y="328.52" width="4" height="2.48" fill="#f0d5a8"/><rect x="84" y="328.52" width="4" height="2.48" fill="#f0d5a8"/><rect x="88" y="328.52" width="4" height="2.48" fill="#f0d5a8"/><rect x="92" y="328.52" width="4" height="2.48" fill="#f0d5a8"/><rect x="96" y="328.52" width="4" height="2.48" fill="#f0d5a8"/><rect x="100" y="328.52" width="4" height="2.48" fill="#f0d5a8"/><rect x="104" y="328.52" width="4" height="2.48" fill="#f0d5a8"/><rect x="108" y="328.52" width="4" height="2.48" fill="#f0d5a8"/><rect x="112" y="328.52" width="4" height="2.48" fill="#f0d5a8"/><rect x="116" y="328.52" width="4" height="2.48" fill="#f0d5a8"/><rect x="120" y="328.52" width="4" height="2.48" fill="#f0d5a8"/><rect x="124" y="328.52" width="4" height="2.48" fill="#f0d5a8"/><rect x="128" y="328.52" width="4" height="2.48" fill="#f0d5a8"/><rect x="132" y="328.52" width="4" height="2.48" fill="#f0d5a8"/><rect x="136" y="328.52" width="4" height="2.48" fill="#f0d5a8"/><rect x="140" y="328.52" width="4" height="2.48" fill="#f0d5a8"/><rect x="144" y="328.52" width="4" height="2.48" fill="#f0d5a8"/><rect x="148" y="328.52" width="4" height="2.48" fill="#f0d5a8"/><rect x="152" y="328.52" width="4" height="2.48" fill="#f0d5a8"/><rect x="156" y="328.52" width="4" height="2.48" fill="#f0d5a8"/><rect x="160" y="328.52" width="4" height="2.48" fill="#f0d5a8"/><rect x="164" y="328.52" width="4" height="2.48" fill="#f0d5a8"/><rect x="168" y="328.52" width="4" height="2.48" fill="#f0d5a8"/><rect x="172" y="328.52" width="4" height="2.48" fill="#f0d5a8"/><rect x="176" y="328.52" width="4" height="2.48" fill="#f0d5a8"/><rect x="180" y="328.52" width="4" height="2.48" fill="#f0d5a8"/><rect x="184" y="328.52" width="4" height="2.48" fill="#f0d5a8"/><rect x="188" y="328.52" width="4" height="2.48" fill="#f0d5a8"/><rect x="192" y="328.52" width="4" height="2.48" fill="#f0d5a8"/><rect x="196" y="328.52" width="4" height="2.48" fill="#f0d5a8"/><rect x="200" y="328.52" width="4" height="2.48" fill="#f0d5a8"/><rect x="204" y="328.52" width="4" height="2.48" fill="#f0d5a8"/><rect x="208" y="328.52" width="4" height="2.48" fill="#f0d5a8"/><rect x="212" y="328.52" width="4" height="2.48" fill="#f0d5a8"/><rect x="216" y="328.52" width="4" height="2.48" fill="#f0d5a8"/><rect x="220" y="328.52" width="4" height="2.48" fill="#f0d5a8"/><rect x="224" y="328.52" width="4" height="2.48" fill="#f0d5a8"/><rect x="228" y="328.52" width="4" height="2.48" fill="#f0d5a8"/><rect x="232" y="328.52" width="4" height="2.48" fill="#f0d5a8"/><rect x="236" y="328.52" width="4" height="2.48" fill="#f0d5a8"/><rect x="240" y="328.52" width="4" height="2.48" fill="#f0d5a8"/><rect x="244" y="328.52" width="4" height="2.48" fill="#f0d5a8"/><rect x="248" y="328.52" width="4" height="2.48" fill="#f0d5a8"/><rect x="252" y="328.52" width="4" height="2.48" fill="#f0d5a8"/><rect x="256" y="328.52" width="4" height="2.48" fill="#f0d5a8"/><rect x="260" y="328.52" width="4" height="2.48" fill="#f0d5a8"/><rect x="264" y="328.52" width="4" height="2.48" fill="#f0d5a8"/><rect x="268" y="328.52" width="4" height="2.48" fill="#f0d5a8"/><rect x="272" y="328.52" width="4" height="2.48" fill="#f0d5a8"/><rect x="276" y="328.52" width="4" height="2.48" fill="#f0d5a8"/><rect x="280" y="328.52" width="4" height="2.48" fill="#f0d5a8"/><rect x="284" y="328.52" width="4" height="2.48" fill="#f0d5a8"/><rect x="288" y="328.52" width="4" height="2.48" fill="#f0d5a8"/><rect x="292" y="328.52" width="4" height="2.48" fill="#f0d5a8"/><rect x="296" y="328.52" width="4" height="2.48" fill="#f0d5a8"/><rect x="300" y="328.52" width="4" height="2.48" fill="#f0d5a8"/><rect x="304" y="328.52" width="4" height="2.48" fill="#f0d5a8"/><rect x="308" y="328.52" width="4" height="2.48" fill="#f0d5a8"/><rect x="312" y="328.52" width="4" height="2.48" fill="#f0d5a8"/><rect x="316" y="328.52" width="4" height="2.48" fill="#f0d5a8"/><rect x="320" y="328.52" width="4" height="2.48" fill="#f0d5a8"/><rect x="324" y="328.52" width="4" height="2.48" fill="#f0d5a8"/><rect x="328" y="328.52" width="4" height="2.48" fill="#f0d5a8"/><rect x="332" y="328.52" width="4" height="2.48" fill="#f0d5a8"/><rect x="336" y="328.52" width="4" height="2.48" fill="#f0d5a8"/><rect x="340" y="328.52" width="4" height="2.48" fill="#f0d5a8"/><rect x="227" y="340" width="8" height="8" fill="#f0d5a8"/><rect x="238" y="340" width="8" height="8" fill="#e3b877"/><rect x="249" y="340" width="8" height="8" fill="#d18f4b"/><rect x="260" y="340" width="8" height="8" fill="#b3672f"/><rect x="271" y="340" width="8" height="8" fill="#8a4a22"/><text x="224" y="348" font-family="system-ui, -apple-system, 'Segoe UI', Roboto, sans-serif" font-size="9" fill="#3a2417" text-anchor="end">Less activity</text><text x="282" y="348" font-family="system-ui, -apple-system, 'Segoe UI', Roboto, sans-serif" font-size="9" fill="#3a2417" text-anchor="start">More activity</text><text x="24" y="28" font-family="system-ui, -apple-system, 'Segoe UI', Roboto, sans-serif" font-size="13" fill="#3a2417" text-anchor="start" letter-spacing="0.5">many-tongues · TypeScript artisan</text><text x="104" y="52" font-family="system-ui, -apple-system, 'Segoe UI', Roboto, sans-serif" font-size="14" fill="#3a2417" text-anchor="middle" letter-spacing="1.5" font-weight="bold">THE FOUNDING</text><text x="264" y="52" font-family="system-ui, -apple-system, 'Segoe UI', Roboto, sans-serif" font-size="14" fill="#3a2417" text-anchor="middle" letter-spacing="1.5" font-weight="bold">PRESENT DAY</text><text x="264" y="290" font-family="system-ui, -apple-system, 'Segoe UI', Roboto, sans-serif" font-size="11" fill="#3a2417" text-anchor="middle" letter-spacing="1">PRESENT DAY</text><rect x="16" y="84" width="336" height="34" rx="6" fill="#fbe3bd" stroke="#3a2417" stroke-width="1"/><text x="184" y="103.6" font-family="system-ui, -apple-system, 'Segoe UI', Roboto, sans-serif" font-size="7.42" fill="#3a2417" text-anchor="middle" letter-spacing="0.5">Polyglot Explorer · Prolific Builder · Star Magnet · Relentless</text></svg>