<svg xmlns="http://www.w3.org/2000/svg" width="1957" height="360" viewBox="0 0 1957 360" role="img"><defs><linearGradient id="mural-sky" x1="0" y1="0" x2="0" y2="1"><stop offset="0%" stop-color="#f6b26b"/><stop offset="100%" stop-color="#fbe3bd"/></linearGradient></defs><rect x="0" y="0" width="1957" height="150" fill="url(#mural-sky)"/><rect x="0" y="150" width="1957" height="60" fill="#d98b4a"/><g transform="translate(24,0)"><rect x="-24" y="210" width="220" height="90" fill="#b9793d"/></g><g transform="translate(208,0)"><rect x="0" y="210" width="219" height="90" fill="#b9793d"/></g><g transform="translate(415,0)"><rect x="0" y="210" width="242" height="90" fill="#b9793d"/></g><g transform="translate(645,0)"><rect x="0" y="210" width="242" height="90" fill="#b9793d"/></g><g transform="translate(875,0)"><rect x="0" y="210" width="219" height="90" fill="#b9793d"/></g><g transform="translate(1082,0)"><rect x="0" y="210" width="265" height="90" fill="#b9793d"/></g><g transform="translate(1335,0)"><rect x="0" y="210" width="219" height="90" fill="#b9793d"/></g><g transform="translate(1542,0)"><rect x="0" y="210" width="219" height="90" fill="#cf9b57"/></g><g transform="translate(1749,0)"><rect x="0" y="210" width="208" height="90" fill="#e6bd7f"/></g><polyline points="0,300 1957,300" fill="none" stroke="#caa268" stroke-width="4"/></svg>