<svg xmlns="http://www.w3.org/2000/svg" width="830" height="415" viewBox="0 0 830 415" role="img"><rect width="830" height="415" fill="#070b14"/><g><circle cx="644.6" cy="260.59" r="0.66" fill="#dbe6ff" opacity="0.33"/><circle cx="366.04" cy="165.85" r="0.8" fill="#dbe6ff" opacity="0.36"/><circle cx="591.86" cy="175.11" r="1.2" fill="#dbe6ff" opacity="0.1"/><circle cx="368.22" cy="302.13" r="0.49" fill="#dbe6ff" opacity="0.24"/><circle cx="379.93" cy="293.62" r="0.49" fill="#dbe6ff" opacity="0.1"/><circle cx="87.24" cy="88.4" r="0.56" fill="#dbe6ff" opacity="0.54"/><circle cx="442.87" cy="166.89" r="1" fill="#dbe6ff" opacity="0.31"/><circle cx="418.13" cy="35.97" r="1.38" fill="#dbe6ff" opacity="0.19"/><circle cx="202.39" cy="29.7" r="1.28" fill="#dbe6ff" opacity="0.42"/><circle cx="284.33" cy="5.97" r="1.18" fill="#dbe6ff" opacity="0.28"/><circle cx="307.27" cy="379.59" r="0.57" fill="#dbe6ff" opacity="0.55"/><circle cx="217.99" cy="292.57" r="0.93" fill="#dbe6ff" opacity="0.15"/><circle cx="648.99" cy="196.9" r="0.46" fill="#dbe6ff" opacity="0.11"/><circle cx="696.3" cy="152.14" r="0.69" fill="#dbe6ff" opacity="0.26"/><circle cx="615.52" cy="29.15" r="0.5" fill="#dbe6ff" opacity="0.49"/><circle cx="232.72" cy="202.16" r="0.66" fill="#dbe6ff" opacity="0.41"/><circle cx="166.94" cy="30.97" r="0.93" fill="#dbe6ff" opacity="0.16"/><circle cx="280.84" cy="24.24" r="1.33" fill="#dbe6ff" opacity="0.12"/><circle cx="422.92" cy="365.13" r="1.15" fill="#dbe6ff" opacity="0.29"/><circle cx="623.7" cy="50.84" r="1.43" fill="#dbe6ff" opacity="0.49"/><circle cx="86.83" cy="134.92" r="1.1" fill="#dbe6ff" opacity="0.53"/><circle cx="807.49" cy="153.61" r="0.65" fill="#dbe6ff" opacity="0.14"/><circle cx="782.38" cy="65.25" r="1.18" fill="#dbe6ff" opacity="0.25"/><circle cx="658.42" cy="78.95" r="1.32" fill="#dbe6ff" opacity="0.15"/><circle cx="666.5" cy="40.61" r="1.46" fill="#dbe6ff" opacity="0.51"/><circle cx="360.51" cy="11.83" r="1.04" fill="#dbe6ff" opacity="0.17"/><circle cx="103.53" cy="144.94" r="1.48" fill="#dbe6ff" opacity="0.34"/><circle cx="111.17" cy="43.61" r="0.85" fill="#dbe6ff" opacity="0.47"/><circle cx="38.62" cy="180.68" r="0.42" fill="#dbe6ff" opacity="0.35"/><circle cx="33.72" cy="222.53" r="0.92" fill="#dbe6ff" opacity="0.25"/><circle cx="547.57" cy="185.19" r="0.57" fill="#dbe6ff" opacity="0.47"/><circle cx="180.04" cy="334.54" r="1.12" fill="#dbe6ff" opacity="0.4"/><circle cx="663.54" cy="339.93" r="0.85" fill="#dbe6ff" opacity="0.4"/><circle cx="543.63" cy="307.51" r="0.81" fill="#dbe6ff" opacity="0.37"/><circle cx="710.61" cy="56.18" r="0.4" fill="#dbe6ff" opacity="0.27"/><circle cx="383.12" cy="153.32" r="1.42" fill="#dbe6ff" opacity="0.14"/><circle cx="209.1" cy="290.17" r="0.95" fill="#dbe6ff" opacity="0.49"/><circle cx="652.45" cy="384.62" r="0.57" fill="#dbe6ff" opacity="0.31"/><circle cx="63.78" cy="190.72" r="0.52" fill="#dbe6ff" opacity="0.22"/><circle cx="568.93" cy="86.99" r="1.4" fill="#dbe6ff" opacity="0.35"/><circle cx="536.69" cy="355.49" r="0.58" fill="#dbe6ff" opacity="0.47"/><circle cx="93.14" cy="406.99" r="1.22" fill="#dbe6ff" opacity="0.5"/><circle cx="169.64" cy="187.36" r="0.57" fill="#dbe6ff" opacity="0.12"/><circle cx="103.49" cy="15.03" r="1.01" fill="#dbe6ff" opacity="0.54"/><circle cx="757.96" cy="276.06" r="0.72" fill="#dbe6ff" opacity="0.48"/><circle cx="701.18" cy="344.36" r="0.52" fill="#dbe6ff" opacity="0.44"/><circle cx="788.16" cy="271.78" r="1.46" fill="#dbe6ff" opacity="0.46"/><circle cx="149.96" cy="69.79" r="0.96" fill="#dbe6ff" opacity="0.37"/><circle cx="166.49" cy="228.24" r="0.89" fill="#dbe6ff" opacity="0.23"/><circle cx="173.68" cy="391.69" r="0.88" fill="#dbe6ff" opacity="0.11"/><circle cx="652.25" cy="74.24" r="1.18" fill="#dbe6ff" opacity="0.24"/><circle cx="550.08" cy="235.43" r="0.99" fill="#dbe6ff" opacity="0.29"/><circle cx="698.61" cy="168.03" r="0.46" fill="#dbe6ff" opacity="0.38"/><circle cx="668.24" cy="158.89" r="0.42" fill="#dbe6ff" opacity="0.13"/><circle cx="700.48" cy="16.85" r="1.38" fill="#dbe6ff" opacity="0.22"/><circle cx="11.01" cy="326.24" r="0.66" fill="#dbe6ff" opacity="0.51"/><circle cx="22.86" cy="121.36" r="1.16" fill="#dbe6ff" opacity="0.28"/><circle cx="673.22" cy="401.56" r="1.32" fill="#dbe6ff" opacity="0.27"/><circle cx="614.95" cy="170.68" r="0.58" fill="#dbe6ff" opacity="0.52"/><circle cx="482.55" cy="249.27" r="1.05" fill="#dbe6ff" opacity="0.22"/><circle cx="767.28" cy="1.52" r="1.13" fill="#dbe6ff" opacity="0.24"/><circle cx="128.44" cy="52.49" r="1.2" fill="#dbe6ff" opacity="0.44"/><circle cx="699.79" cy="272.72" r="0.43" fill="#dbe6ff" opacity="0.11"/><circle cx="94.36" cy="16" r="0.82" fill="#dbe6ff" opacity="0.35"/><circle cx="370.59" cy="224.6" r="1.3" fill="#dbe6ff" opacity="0.29"/><circle cx="768.56" cy="79.29" r="0.6" fill="#dbe6ff" opacity="0.26"/><circle cx="492.09" cy="28.68" r="0.77" fill="#dbe6ff" opacity="0.45"/><circle cx="541.13" cy="358.74" r="0.68" fill="#dbe6ff" opacity="0.11"/><circle cx="452.1" cy="51.2" r="1.22" fill="#dbe6ff" opacity="0.37"/><circle cx="115.24" cy="91.98" r="0.4" fill="#dbe6ff" opacity="0.17"/><circle cx="746.25" cy="258.29" r="1.2" fill="#dbe6ff" opacity="0.34"/><circle cx="216.92" cy="214.54" r="0.69" fill="#dbe6ff" opacity="0.13"/><circle cx="785.63" cy="56.63" r="0.55" fill="#dbe6ff" opacity="0.4"/><circle cx="198.9" cy="23.98" r="1.32" fill="#dbe6ff" opacity="0.14"/><circle cx="267.3" cy="43.92" r="0.8" fill="#dbe6ff" opacity="0.32"/><circle cx="70.97" cy="44.84" r="1.19" fill="#dbe6ff" opacity="0.53"/><circle cx="380.67" cy="187.92" r="1.06" fill="#dbe6ff" opacity="0.22"/><circle cx="409.47" cy="273.97" r="0.54" fill="#dbe6ff" opacity="0.29"/><circle cx="443.25" cy="394.1" r="0.66" fill="#dbe6ff" opacity="0.15"/><circle cx="409.49" cy="53.72" r="0.41" fill="#dbe6ff" opacity="0.33"/><circle cx="504.94" cy="161.84" r="0.92" fill="#dbe6ff" opacity="0.29"/><circle cx="322.69" cy="27.96" r="0.47" fill="#dbe6ff" opacity="0.19"/><circle cx="518.13" cy="97.32" r="1.08" fill="#dbe6ff" opacity="0.27"/><circle cx="200.75" cy="47.89" r="1.27" fill="#dbe6ff" opacity="0.24"/><circle cx="707.92" cy="254.28" r="0.96" fill="#dbe6ff" opacity="0.28"/><circle cx="826.22" cy="48.92" r="0.88" fill="#dbe6ff" opacity="0.53"/><circle cx="89.05" cy="288.67" r="1.27" fill="#dbe6ff" opacity="0.19"/><circle cx="723.43" cy="285.47" r="0.6" fill="#dbe6ff" opacity="0.39"/><circle cx="407.52" cy="165.46" r="0.74" fill="#dbe6ff" opacity="0.35"/><circle cx="603.25" cy="334.96" r="0.95" fill="#dbe6ff" opacity="0.29"/><circle cx="575.03" cy="396.38" r="1.45" fill="#dbe6ff" opacity="0.48"/><circle cx="334.98" cy="262.3" r="0.93" fill="#dbe6ff" opacity="0.25"/><circle cx="692.85" cy="373.64" r="0.63" fill="#dbe6ff" opacity="0.19"/><circle cx="519.13" cy="271.5" r="1.27" fill="#dbe6ff" opacity="0.12"/><circle cx="331.5" cy="363.16" r="1.46" fill="#dbe6ff" opacity="0.4"/><circle cx="254.78" cy="288.86" r="1.39" fill="#dbe6ff" opacity="0.32"/><circle cx="424.19" cy="315.82" r="0.81" fill="#dbe6ff" opacity="0.23"/><circle cx="810.67" cy="380.74" r="1.08" fill="#dbe6ff" opacity="0.54"/><circle cx="209.36" cy="306.72" r="1.26" fill="#dbe6ff" opacity="0.48"/><circle cx="135.14" cy="337.66" r="0.6" fill="#dbe6ff" opacity="0.47"/><circle cx="687.7" cy="406.44" r="1.18" fill="#dbe6ff" opacity="0.31"/><circle cx="258.81" cy="269.6" r="0.84" fill="#dbe6ff" opacity="0.51"/><circle cx="1.81" cy="112.42" r="0.41" fill="#dbe6ff" opacity="0.21"/><circle cx="195.82" cy="105.68" r="0.47" fill="#dbe6ff" opacity="0.54"/><circle cx="705.74" cy="91.64" r="1.16" fill="#dbe6ff" opacity="0.46"/><circle cx="263.55" cy="82.88" r="1.29" fill="#dbe6ff" opacity="0.54"/><circle cx="434.5" cy="131.33" r="1.44" fill="#dbe6ff" opacity="0.28"/><circle cx="766.25" cy="222.45" r="1.31" fill="#dbe6ff" opacity="0.34"/><circle cx="682.52" cy="62.81" r="0.93" fill="#dbe6ff" opacity="0.45"/><circle cx="689.4" cy="322.48" r="1.02" fill="#dbe6ff" opacity="0.25"/></g><g opacity="0"><text x="415" y="200" text-anchor="middle" font-family="ui-sans-serif, system-ui, -apple-system, 'Segoe UI', sans-serif" font-size="36" fill="#e8ecf5" font-weight="bold" letter-spacing="5">THE EPIC OF POLYGLOT</text><text x="415" y="240" text-anchor="middle" font-family="ui-sans-serif, system-ui, -apple-system, 'Segoe UI', sans-serif" font-size="17" fill="#8b93a7" letter-spacing="3">· est. 2019 ·</text><animate attributeName="opacity" begin="0s" dur="3s" values="0;1;1;0" keyTimes="0;0.12;0.88;1" fill="freeze"/></g><g opacity="0"><circle cx="415" cy="186" r="46" fill="#ffd27d" opacity="0.08"/><circle cx="415" cy="186" r="27" fill="#ffd27d" opacity="0.2"/><circle cx="415" cy="186" r="13" fill="#ffd27d" opacity="0.55"/><circle cx="415" cy="186" r="5" fill="#ffd27d"/><text x="415" y="372" text-anchor="middle" font-family="ui-sans-serif, system-ui, -apple-system, 'Segoe UI', sans-serif" font-size="17" fill="#e8ecf5">In the year 2019, the developer first set foot upon the public forge, and the epic began.</text><animate attributeName="opacity" begin="3s" dur="3.5s" values="0;1;1;0" keyTimes="0;0.12;0.88;1" fill="freeze"/></g><g opacity="0"><circle cx="415" cy="186" r="46" fill="#ffd27d" opacity="0.05"/><circle cx="415" cy="186" r="27" fill="#ffd27d" opacity="0.1"/><circle cx="415" cy="186" r="13" fill="#ffd27d" opacity="0.18"/><text x="415" y="372" text-anchor="middle" font-family="ui-sans-serif, system-ui, -apple-system, 'Segoe UI', sans-serif" font-size="17" fill="#e8ecf5">In the year 2021, the developer forsook TypeScript, and there was much refactoring.</text><animate attributeName="opacity" begin="6.5s" dur="3.5s" values="0;1;1;0" keyTimes="0;0.12;0.88;1" fill="freeze"/></g><g opacity="0"><text x="415" y="200" text-anchor="middle" font-family="ui-sans-serif, system-ui, -apple-system, 'Segoe UI', sans-serif" font-size="26" fill="#e8ecf5" font-weight="bold" letter-spacing="4">PRESENT DAY</text><text x="415" y="234" text-anchor="middle" font-family="ui-sans-serif, system-ui, -apple-system, 'Segoe UI', sans-serif" font-size="15" fill="#8b93a7" letter-spacing="2">2026-07-04</text><animate attributeName="opacity" begin="10s" dur="3s" values="0;1;1;0" keyTimes="0;0.12;0.88;1" fill="freeze"/></g><g opacity="0"><circle cx="415" cy="186" r="30" fill="#ffd27d" opacity="0.16"/><circle cx="415" cy="186" r="6" fill="#ffd27d"><animate attributeName="r" begin="13s" dur="7s" values="6;9;6" repeatCount="indefinite"/></circle><circle cx="373.21" cy="215.82" r="1.4" fill="#dbe6ff" opacity="0.2"><animate attributeName="opacity" begin="13s" dur="7.15s" values="0.2;0.8;0.2" repeatCount="indefinite"/></circle><circle cx="255.21" cy="277.79" r="1.4" fill="#dbe6ff" opacity="0.2"><animate attributeName="opacity" begin="13s" dur="7.9s" values="0.2;0.8;0.2" repeatCount="indefinite"/></circle><circle cx="654.95" cy="95.89" r="1.4" fill="#dbe6ff" opacity="0.2"><animate attributeName="opacity" begin="13s" dur="7.11s" values="0.2;0.8;0.2" repeatCount="indefinite"/></circle><circle cx="391.9" cy="80.74" r="1.4" fill="#dbe6ff" opacity="0.2"><animate attributeName="opacity" begin="13s" dur="4.78s" values="0.2;0.8;0.2" repeatCount="indefinite"/></circle><circle cx="379.88" cy="365.42" r="1.4" fill="#dbe6ff" opacity="0.2"><animate attributeName="opacity" begin="13s" dur="4.3s" values="0.2;0.8;0.2" repeatCount="indefinite"/></circle><circle cx="194.95" cy="207.65" r="1.4" fill="#dbe6ff" opacity="0.2"><animate attributeName="opacity" begin="13s" dur="4.4s" values="0.2;0.8;0.2" repeatCount="indefinite"/></circle><circle cx="191.75" cy="98.49" r="1.4" fill="#dbe6ff" opacity="0.2"><animate attributeName="opacity" begin="13s" dur="5.73s" values="0.2;0.8;0.2" repeatCount="indefinite"/></circle><circle cx="603.79" cy="8.15" r="1.4" fill="#dbe6ff" opacity="0.2"><animate attributeName="opacity" begin="13s" dur="6.7s" values="0.2;0.8;0.2" repeatCount="indefinite"/></circle><text x="415" y="342" text-anchor="middle" font-family="ui-sans-serif, system-ui, -apple-system, 'Segoe UI', sans-serif" font-size="20" fill="#e8ecf5" letter-spacing="1">The Epic of polyglot</text><text x="415" y="390" text-anchor="middle" font-family="ui-sans-serif, system-ui, -apple-system, 'Segoe UI', sans-serif" font-size="13" fill="#8b93a7">✦ forge yours at git-epic.dev</text><animate attributeName="opacity" begin="13s" dur="1.2s" values="0;1" fill="freeze"/></g></svg>