<svg xmlns="http://www.w3.org/2000/svg" width="830" height="415" viewBox="0 0 830 415" role="img"><rect width="830" height="415" fill="#070b14"/><g><circle cx="56.57" cy="146.98" r="0.99" fill="#dbe6ff" opacity="0.42"/><circle cx="823.91" cy="288.43" r="0.52" fill="#dbe6ff" opacity="0.37"/><circle cx="338.61" cy="121.81" r="0.52" fill="#dbe6ff" opacity="0.43"/><circle cx="31.91" cy="363.89" r="1.13" fill="#dbe6ff" opacity="0.43"/><circle cx="511.64" cy="41.63" r="0.68" fill="#dbe6ff" opacity="0.17"/><circle cx="321.62" cy="65.92" r="0.48" fill="#dbe6ff" opacity="0.47"/><circle cx="19.4" cy="274.67" r="1.17" fill="#dbe6ff" opacity="0.41"/><circle cx="420.35" cy="346.17" r="0.47" fill="#dbe6ff" opacity="0.15"/><circle cx="770.54" cy="371.58" r="1.05" fill="#dbe6ff" opacity="0.21"/><circle cx="616.49" cy="14.93" r="0.6" fill="#dbe6ff" opacity="0.14"/><circle cx="755.13" cy="182.82" r="0.84" fill="#dbe6ff" opacity="0.28"/><circle cx="782.89" cy="396.17" r="1.28" fill="#dbe6ff" opacity="0.33"/><circle cx="554.75" cy="14.65" r="0.49" fill="#dbe6ff" opacity="0.34"/><circle cx="151.77" cy="154.73" r="0.71" fill="#dbe6ff" opacity="0.24"/><circle cx="354.08" cy="210.46" r="0.84" fill="#dbe6ff" opacity="0.3"/><circle cx="509.19" cy="172.57" r="1.47" fill="#dbe6ff" opacity="0.17"/><circle cx="797.39" cy="143.64" r="1.39" fill="#dbe6ff" opacity="0.5"/><circle cx="306.58" cy="347.86" r="0.52" fill="#dbe6ff" opacity="0.21"/><circle cx="597.45" cy="287.11" r="0.74" fill="#dbe6ff" opacity="0.11"/><circle cx="731.33" cy="346.06" r="0.59" fill="#dbe6ff" opacity="0.51"/><circle cx="642.7" cy="85.57" r="1.35" fill="#dbe6ff" opacity="0.34"/><circle cx="638.45" cy="5.3" r="1.14" fill="#dbe6ff" opacity="0.43"/><circle cx="201.07" cy="389.2" r="0.99" fill="#dbe6ff" opacity="0.1"/><circle cx="646.74" cy="104.65" r="1.27" fill="#dbe6ff" opacity="0.49"/><circle cx="7.23" cy="177.12" r="1.12" fill="#dbe6ff" opacity="0.5"/><circle cx="588.44" cy="198.67" r="1.03" fill="#dbe6ff" opacity="0.51"/><circle cx="383.69" cy="276.95" r="0.5" fill="#dbe6ff" opacity="0.42"/><circle cx="345.27" cy="136.02" r="1" fill="#dbe6ff" opacity="0.5"/><circle cx="234.1" cy="346.11" r="0.74" fill="#dbe6ff" opacity="0.5"/><circle cx="387.52" cy="176.92" r="1.33" fill="#dbe6ff" opacity="0.53"/><circle cx="179.77" cy="66.08" r="1.36" fill="#dbe6ff" opacity="0.13"/><circle cx="75.05" cy="22.71" r="1.07" fill="#dbe6ff" opacity="0.3"/><circle cx="475.84" cy="414.76" r="0.68" fill="#dbe6ff" opacity="0.47"/><circle cx="680.93" cy="190.48" r="0.58" fill="#dbe6ff" opacity="0.17"/><circle cx="631.95" cy="127.75" r="1.02" fill="#dbe6ff" opacity="0.43"/><circle cx="216.02" cy="376.98" r="1.25" fill="#dbe6ff" opacity="0.22"/><circle cx="149.44" cy="153.44" r="0.44" fill="#dbe6ff" opacity="0.37"/><circle cx="313.39" cy="337.79" r="1.32" fill="#dbe6ff" opacity="0.27"/><circle cx="759.2" cy="299.71" r="0.85" fill="#dbe6ff" opacity="0.5"/><circle cx="201.16" cy="162.84" r="1.1" fill="#dbe6ff" opacity="0.37"/><circle cx="454.32" cy="345.61" r="0.45" fill="#dbe6ff" opacity="0.54"/><circle cx="476.9" cy="58.3" r="1.18" fill="#dbe6ff" opacity="0.36"/><circle cx="344.59" cy="379.15" r="0.69" fill="#dbe6ff" opacity="0.23"/><circle cx="653.1" cy="68.95" r="0.84" fill="#dbe6ff" opacity="0.33"/><circle cx="241.93" cy="178.84" r="0.68" fill="#dbe6ff" opacity="0.39"/><circle cx="103.97" cy="31.42" r="1.17" fill="#dbe6ff" opacity="0.13"/><circle cx="507.17" cy="386.94" r="1.3" fill="#dbe6ff" opacity="0.26"/><circle cx="57.66" cy="69.53" r="0.81" fill="#dbe6ff" opacity="0.1"/><circle cx="569.95" cy="3.53" r="1.2" fill="#dbe6ff" opacity="0.23"/><circle cx="594.13" cy="148.29" r="1.07" fill="#dbe6ff" opacity="0.45"/><circle cx="626.86" cy="139.54" r="0.85" fill="#dbe6ff" opacity="0.54"/><circle cx="583.02" cy="393.1" r="0.73" fill="#dbe6ff" opacity="0.26"/><circle cx="726.84" cy="173.57" r="0.63" fill="#dbe6ff" opacity="0.22"/><circle cx="462.71" cy="36.24" r="1.29" fill="#dbe6ff" opacity="0.28"/><circle cx="310.32" cy="148.64" r="0.59" fill="#dbe6ff" opacity="0.33"/><circle cx="391.7" cy="125.22" r="0.85" fill="#dbe6ff" opacity="0.54"/><circle cx="527.46" cy="406.66" r="1.1" fill="#dbe6ff" opacity="0.3"/><circle cx="823.79" cy="331.58" r="1.01" fill="#dbe6ff" opacity="0.29"/><circle cx="371.27" cy="341.29" r="0.47" fill="#dbe6ff" opacity="0.52"/><circle cx="183.54" cy="348.16" r="1.15" fill="#dbe6ff" opacity="0.24"/><circle cx="526.6" cy="258.2" r="0.62" fill="#dbe6ff" opacity="0.19"/><circle cx="713.43" cy="397.92" r="0.94" fill="#dbe6ff" opacity="0.41"/><circle cx="37.52" cy="264.76" r="0.46" fill="#dbe6ff" opacity="0.19"/><circle cx="219.42" cy="8.92" r="0.48" fill="#dbe6ff" opacity="0.34"/><circle cx="445.33" cy="49.59" r="1.16" fill="#dbe6ff" opacity="0.46"/><circle cx="376.4" cy="413.02" r="1.45" fill="#dbe6ff" opacity="0.36"/><circle cx="377.41" cy="309.86" r="1.07" fill="#dbe6ff" opacity="0.28"/><circle cx="590.88" cy="325.08" r="1.37" fill="#dbe6ff" opacity="0.21"/><circle cx="228.98" cy="66.37" r="0.56" fill="#dbe6ff" opacity="0.36"/><circle cx="237.85" cy="406.32" r="1.33" fill="#dbe6ff" opacity="0.15"/><circle cx="189.51" cy="398.27" r="1.05" fill="#dbe6ff" opacity="0.24"/><circle cx="744.75" cy="148.98" r="0.84" fill="#dbe6ff" opacity="0.35"/><circle cx="242.2" cy="389" r="0.83" fill="#dbe6ff" opacity="0.43"/><circle cx="486.22" cy="13.86" r="1.46" fill="#dbe6ff" opacity="0.44"/><circle cx="519.31" cy="109.57" r="0.47" fill="#dbe6ff" opacity="0.5"/><circle cx="411.91" cy="116.29" r="1.4" fill="#dbe6ff" opacity="0.35"/><circle cx="466.34" cy="65.73" r="1.11" fill="#dbe6ff" opacity="0.36"/><circle cx="176.62" cy="309.42" r="0.96" fill="#dbe6ff" opacity="0.15"/><circle cx="158.36" cy="160.88" r="1.32" fill="#dbe6ff" opacity="0.39"/><circle cx="449.47" cy="92.55" r="1.27" fill="#dbe6ff" opacity="0.16"/><circle cx="402.71" cy="28.31" r="1.01" fill="#dbe6ff" opacity="0.49"/><circle cx="2.69" cy="29.84" r="1.28" fill="#dbe6ff" opacity="0.32"/><circle cx="197.38" cy="80.2" r="0.88" fill="#dbe6ff" opacity="0.22"/><circle cx="317.48" cy="267.32" r="0.58" fill="#dbe6ff" opacity="0.34"/><circle cx="388.16" cy="356.97" r="1.39" fill="#dbe6ff" opacity="0.18"/><circle cx="185.83" cy="270.92" r="1.01" fill="#dbe6ff" opacity="0.21"/><circle cx="613.71" cy="375.98" r="0.63" fill="#dbe6ff" opacity="0.11"/><circle cx="355.52" cy="391.93" r="1.2" fill="#dbe6ff" opacity="0.11"/><circle cx="741.97" cy="273.63" r="0.86" fill="#dbe6ff" opacity="0.33"/><circle cx="785.29" cy="32.46" r="1.03" fill="#dbe6ff" opacity="0.15"/><circle cx="455.44" cy="267.31" r="1.42" fill="#dbe6ff" opacity="0.21"/><circle cx="165.48" cy="194.34" r="0.9" fill="#dbe6ff" opacity="0.45"/><circle cx="134.03" cy="16.55" r="1.5" fill="#dbe6ff" opacity="0.29"/><circle cx="638.85" cy="319.38" r="0.61" fill="#dbe6ff" opacity="0.35"/><circle cx="170.48" cy="237.92" r="1.5" fill="#dbe6ff" opacity="0.28"/><circle cx="163.62" cy="248.42" r="0.85" fill="#dbe6ff" opacity="0.18"/><circle cx="146.56" cy="211.06" r="0.84" fill="#dbe6ff" opacity="0.21"/><circle cx="289.65" cy="255.78" r="0.48" fill="#dbe6ff" opacity="0.26"/><circle cx="728.62" cy="233" r="0.52" fill="#dbe6ff" opacity="0.38"/><circle cx="341.35" cy="264.31" r="1.03" fill="#dbe6ff" opacity="0.35"/><circle cx="636.21" cy="60.38" r="1.07" fill="#dbe6ff" opacity="0.28"/><circle cx="43.76" cy="100.36" r="0.94" fill="#dbe6ff" opacity="0.33"/><circle cx="622.27" cy="283.12" r="0.98" fill="#dbe6ff" opacity="0.38"/><circle cx="760.75" cy="166.15" r="0.64" fill="#dbe6ff" opacity="0.12"/><circle cx="326.62" cy="319.25" r="1.21" fill="#dbe6ff" opacity="0.32"/><circle cx="79.04" cy="43.83" r="1.34" fill="#dbe6ff" opacity="0.39"/><circle cx="82.02" cy="267.89" r="0.59" fill="#dbe6ff" opacity="0.16"/><circle cx="483.72" cy="279.42" r="0.85" fill="#dbe6ff" opacity="0.22"/><circle cx="23.42" cy="11.23" r="1.13" fill="#dbe6ff" opacity="0.13"/><circle cx="815.73" cy="70.66" r="0.75" fill="#dbe6ff" opacity="0.54"/></g><g opacity="0"><text x="415" y="200" text-anchor="middle" font-family="ui-sans-serif, system-ui, -apple-system, 'Segoe UI', sans-serif" font-size="36" fill="#e8ecf5" font-weight="bold" letter-spacing="5">THE EPIC OF GAP-YEAR-DEV</text><text x="415" y="240" text-anchor="middle" font-family="ui-sans-serif, system-ui, -apple-system, 'Segoe UI', sans-serif" font-size="17" fill="#8b93a7" letter-spacing="3">· est. 2018 ·</text><animate attributeName="opacity" begin="0s" dur="3s" values="0;1;1;0" keyTimes="0;0.12;0.88;1" fill="freeze"/></g><g opacity="0"><circle cx="415" cy="186" r="46" fill="#ffd27d" opacity="0.08"/><circle cx="415" cy="186" r="27" fill="#ffd27d" opacity="0.2"/><circle cx="415" cy="186" r="13" fill="#ffd27d" opacity="0.55"/><circle cx="415" cy="186" r="5" fill="#ffd27d"/><text x="415" y="372" text-anchor="middle" font-family="ui-sans-serif, system-ui, -apple-system, 'Segoe UI', sans-serif" font-size="17" fill="#e8ecf5">In the year 2019, the developer first set foot upon the public forge, and the epic began.</text><animate attributeName="opacity" begin="3s" dur="3.5s" values="0;1;1;0" keyTimes="0;0.12;0.88;1" fill="freeze"/></g><g opacity="0"><circle cx="415" cy="186" r="46" fill="#ffd27d" opacity="0.05"/><circle cx="415" cy="186" r="27" fill="#ffd27d" opacity="0.1"/><circle cx="415" cy="186" r="13" fill="#ffd27d" opacity="0.18"/><text x="415" y="372" text-anchor="middle" font-family="ui-sans-serif, system-ui, -apple-system, 'Segoe UI', sans-serif" font-size="17" fill="#e8ecf5">Then came the Dark Age: one hundred and eighty days, and not a single commit.</text><animate attributeName="opacity" begin="6.5s" dur="3.5s" values="0;1;1;0" keyTimes="0;0.12;0.88;1" fill="freeze"/></g><g opacity="0"><text x="415" y="200" text-anchor="middle" font-family="ui-sans-serif, system-ui, -apple-system, 'Segoe UI', sans-serif" font-size="26" fill="#e8ecf5" font-weight="bold" letter-spacing="4">PRESENT DAY</text><text x="415" y="234" text-anchor="middle" font-family="ui-sans-serif, system-ui, -apple-system, 'Segoe UI', sans-serif" font-size="15" fill="#8b93a7" letter-spacing="2">2019-10-01</text><animate attributeName="opacity" begin="10s" dur="3s" values="0;1;1;0" keyTimes="0;0.12;0.88;1" fill="freeze"/></g><g opacity="0"><circle cx="415" cy="186" r="30" fill="#ffd27d" opacity="0.16"/><circle cx="415" cy="186" r="6" fill="#ffd27d"><animate attributeName="r" begin="13s" dur="7s" values="6;9;6" repeatCount="indefinite"/></circle><circle cx="485.97" cy="141.77" r="1.4" fill="#dbe6ff" opacity="0.2"><animate attributeName="opacity" begin="13s" dur="6.85s" values="0.2;0.8;0.2" repeatCount="indefinite"/></circle><circle cx="177.67" cy="269.97" r="1.4" fill="#dbe6ff" opacity="0.2"><animate attributeName="opacity" begin="13s" dur="7.89s" values="0.2;0.8;0.2" repeatCount="indefinite"/></circle><circle cx="131.91" cy="115.89" r="1.4" fill="#dbe6ff" opacity="0.2"><animate attributeName="opacity" begin="13s" dur="7.63s" values="0.2;0.8;0.2" repeatCount="indefinite"/></circle><circle cx="284.97" cy="338.68" r="1.4" fill="#dbe6ff" opacity="0.2"><animate attributeName="opacity" begin="13s" dur="4.62s" values="0.2;0.8;0.2" repeatCount="indefinite"/></circle><circle cx="632.68" cy="289.06" r="1.4" fill="#dbe6ff" opacity="0.2"><animate attributeName="opacity" begin="13s" dur="5.19s" values="0.2;0.8;0.2" repeatCount="indefinite"/></circle><circle cx="49.92" cy="412.46" r="1.4" fill="#dbe6ff" opacity="0.2"><animate attributeName="opacity" begin="13s" dur="6.88s" values="0.2;0.8;0.2" repeatCount="indefinite"/></circle><circle cx="536.34" cy="347.15" r="1.4" fill="#dbe6ff" opacity="0.2"><animate attributeName="opacity" begin="13s" dur="7.61s" values="0.2;0.8;0.2" repeatCount="indefinite"/></circle><circle cx="775.61" cy="395.73" r="1.4" fill="#dbe6ff" opacity="0.2"><animate attributeName="opacity" begin="13s" dur="5.83s" values="0.2;0.8;0.2" repeatCount="indefinite"/></circle><text x="415" y="342" text-anchor="middle" font-family="ui-sans-serif, system-ui, -apple-system, 'Segoe UI', sans-serif" font-size="20" fill="#e8ecf5" letter-spacing="1">The Epic of gap-year-dev</text><text x="415" y="390" text-anchor="middle" font-family="ui-sans-serif, system-ui, -apple-system, 'Segoe UI', sans-serif" font-size="13" fill="#8b93a7">✦ forge yours at git-epic.dev</text><animate attributeName="opacity" begin="13s" dur="1.2s" values="0;1" fill="freeze"/></g></svg>