<svg xmlns="http://www.w3.org/2000/svg" width="830" height="415" viewBox="0 0 830 415" role="img"><rect width="830" height="415" fill="#070b14"/><g><circle cx="737.95" cy="27.86" r="0.88" fill="#dbe6ff" opacity="0.17"/><circle cx="554.57" cy="260.06" r="0.89" fill="#dbe6ff" opacity="0.54"/><circle cx="786.8" cy="278.07" r="1.42" fill="#dbe6ff" opacity="0.22"/><circle cx="225.82" cy="19.71" r="1.49" fill="#dbe6ff" opacity="0.54"/><circle cx="671.03" cy="116.27" r="0.6" fill="#dbe6ff" opacity="0.48"/><circle cx="263.62" cy="297.39" r="1.25" fill="#dbe6ff" opacity="0.44"/><circle cx="689.29" cy="93.7" r="1.11" fill="#dbe6ff" opacity="0.43"/><circle cx="586.81" cy="16.19" r="1.36" fill="#dbe6ff" opacity="0.1"/><circle cx="27.81" cy="19.21" r="0.6" fill="#dbe6ff" opacity="0.29"/><circle cx="811.57" cy="119.21" r="1.14" fill="#dbe6ff" opacity="0.26"/><circle cx="336.4" cy="196.09" r="1.22" fill="#dbe6ff" opacity="0.1"/><circle cx="407.35" cy="240.11" r="1.15" fill="#dbe6ff" opacity="0.11"/><circle cx="802.82" cy="78.2" r="0.85" fill="#dbe6ff" opacity="0.26"/><circle cx="687.25" cy="60.7" r="1.23" fill="#dbe6ff" opacity="0.25"/><circle cx="495.43" cy="9.37" r="0.59" fill="#dbe6ff" opacity="0.33"/><circle cx="656.9" cy="80.67" r="0.79" fill="#dbe6ff" opacity="0.51"/><circle cx="119.17" cy="96.81" r="1.26" fill="#dbe6ff" opacity="0.16"/><circle cx="520.29" cy="238.71" r="0.5" fill="#dbe6ff" opacity="0.34"/><circle cx="282.44" cy="259.72" r="1.31" fill="#dbe6ff" opacity="0.13"/><circle cx="640.69" cy="145.49" r="1.44" fill="#dbe6ff" opacity="0.51"/><circle cx="96.65" cy="140.46" r="0.56" fill="#dbe6ff" opacity="0.43"/><circle cx="394.38" cy="383.68" r="0.63" fill="#dbe6ff" opacity="0.28"/><circle cx="582.51" cy="399.36" r="0.53" fill="#dbe6ff" opacity="0.32"/><circle cx="818.43" cy="139.99" r="0.89" fill="#dbe6ff" opacity="0.38"/><circle cx="161.17" cy="389.83" r="0.9" fill="#dbe6ff" opacity="0.49"/><circle cx="75.5" cy="281.68" r="1.26" fill="#dbe6ff" opacity="0.4"/><circle cx="463.82" cy="199.37" r="0.48" fill="#dbe6ff" opacity="0.32"/><circle cx="172.49" cy="244.86" r="0.68" fill="#dbe6ff" opacity="0.47"/><circle cx="28.66" cy="306.12" r="0.62" fill="#dbe6ff" opacity="0.4"/><circle cx="748.52" cy="353.82" r="0.46" fill="#dbe6ff" opacity="0.55"/><circle cx="673.63" cy="68.64" r="0.7" fill="#dbe6ff" opacity="0.28"/><circle cx="315.42" cy="7.05" r="1" fill="#dbe6ff" opacity="0.49"/><circle cx="70.34" cy="348.98" r="0.9" fill="#dbe6ff" opacity="0.23"/><circle cx="701.86" cy="294.65" r="0.83" fill="#dbe6ff" opacity="0.32"/><circle cx="545.73" cy="183.8" r="0.98" fill="#dbe6ff" opacity="0.36"/><circle cx="725.12" cy="26.8" r="0.48" fill="#dbe6ff" opacity="0.37"/><circle cx="230.48" cy="142.24" r="0.84" fill="#dbe6ff" opacity="0.21"/><circle cx="320.72" cy="210.47" r="0.85" fill="#dbe6ff" opacity="0.27"/><circle cx="500.56" cy="298.98" r="1.4" fill="#dbe6ff" opacity="0.15"/><circle cx="538.89" cy="179.67" r="1.33" fill="#dbe6ff" opacity="0.46"/><circle cx="392.27" cy="251.69" r="0.95" fill="#dbe6ff" opacity="0.28"/><circle cx="34.49" cy="186.07" r="1.14" fill="#dbe6ff" opacity="0.46"/><circle cx="14.93" cy="198.69" r="1.01" fill="#dbe6ff" opacity="0.43"/><circle cx="88.69" cy="283.35" r="0.93" fill="#dbe6ff" opacity="0.29"/><circle cx="411.28" cy="303" r="1.11" fill="#dbe6ff" opacity="0.34"/><circle cx="33.41" cy="289.96" r="1.23" fill="#dbe6ff" opacity="0.21"/><circle cx="180.38" cy="94.8" r="0.41" fill="#dbe6ff" opacity="0.48"/><circle cx="306.63" cy="103.42" r="1.18" fill="#dbe6ff" opacity="0.37"/><circle cx="608.94" cy="166.82" r="1.05" fill="#dbe6ff" opacity="0.36"/><circle cx="649.25" cy="158.8" r="0.7" fill="#dbe6ff" opacity="0.39"/><circle cx="402.48" cy="326.13" r="1.17" fill="#dbe6ff" opacity="0.29"/><circle cx="170.36" cy="405.18" r="1.09" fill="#dbe6ff" opacity="0.54"/><circle cx="324.15" cy="310.41" r="1.05" fill="#dbe6ff" opacity="0.13"/><circle cx="788.91" cy="182.28" r="0.97" fill="#dbe6ff" opacity="0.54"/><circle cx="814.02" cy="135.24" r="0.77" fill="#dbe6ff" opacity="0.13"/><circle cx="238.92" cy="242.89" r="0.69" fill="#dbe6ff" opacity="0.42"/><circle cx="446.61" cy="98.72" r="1.22" fill="#dbe6ff" opacity="0.15"/><circle cx="168.21" cy="218.85" r="0.68" fill="#dbe6ff" opacity="0.32"/><circle cx="550.73" cy="234.18" r="1.39" fill="#dbe6ff" opacity="0.31"/><circle cx="634.72" cy="224.54" r="1.47" fill="#dbe6ff" opacity="0.38"/><circle cx="249.68" cy="278.12" r="1.1" fill="#dbe6ff" opacity="0.23"/><circle cx="175.31" cy="326.74" r="0.82" fill="#dbe6ff" opacity="0.45"/><circle cx="180.38" cy="159.24" r="1.15" fill="#dbe6ff" opacity="0.11"/><circle cx="794.03" cy="353.2" r="1.08" fill="#dbe6ff" opacity="0.35"/><circle cx="794.49" cy="95.95" r="1.18" fill="#dbe6ff" opacity="0.44"/><circle cx="71.24" cy="336.53" r="1.03" fill="#dbe6ff" opacity="0.38"/><circle cx="56.17" cy="204.99" r="1.14" fill="#dbe6ff" opacity="0.47"/><circle cx="192.46" cy="194.62" r="0.65" fill="#dbe6ff" opacity="0.18"/><circle cx="260.54" cy="391.8" r="1.43" fill="#dbe6ff" opacity="0.16"/><circle cx="111.06" cy="298.13" r="0.83" fill="#dbe6ff" opacity="0.42"/><circle cx="712.85" cy="10.88" r="0.63" fill="#dbe6ff" opacity="0.2"/><circle cx="722.76" cy="66.54" r="0.96" fill="#dbe6ff" opacity="0.24"/><circle cx="310.11" cy="362.63" r="0.94" fill="#dbe6ff" opacity="0.46"/><circle cx="749.84" cy="0.13" r="0.67" fill="#dbe6ff" opacity="0.38"/><circle cx="366.2" cy="260.75" r="1.4" fill="#dbe6ff" opacity="0.2"/><circle cx="446.3" cy="1.71" r="1.11" fill="#dbe6ff" opacity="0.16"/><circle cx="100.5" cy="336.71" r="0.59" fill="#dbe6ff" opacity="0.47"/><circle cx="15.89" cy="70.22" r="0.64" fill="#dbe6ff" opacity="0.49"/><circle cx="809" cy="203.26" r="0.59" fill="#dbe6ff" opacity="0.18"/><circle cx="435.37" cy="244.72" r="0.53" fill="#dbe6ff" opacity="0.2"/><circle cx="487.67" cy="179.5" r="0.49" fill="#dbe6ff" opacity="0.35"/><circle cx="130.33" cy="35.11" r="0.92" fill="#dbe6ff" opacity="0.34"/><circle cx="161.31" cy="281.85" r="0.48" fill="#dbe6ff" opacity="0.13"/><circle cx="370.84" cy="287.07" r="1.14" fill="#dbe6ff" opacity="0.29"/><circle cx="332.66" cy="360.84" r="1.09" fill="#dbe6ff" opacity="0.31"/><circle cx="720.69" cy="32.34" r="1.05" fill="#dbe6ff" opacity="0.19"/><circle cx="682.23" cy="30.71" r="1.24" fill="#dbe6ff" opacity="0.53"/><circle cx="817.18" cy="118.01" r="0.89" fill="#dbe6ff" opacity="0.5"/><circle cx="302.92" cy="206.27" r="0.94" fill="#dbe6ff" opacity="0.22"/><circle cx="445.56" cy="59.3" r="1.35" fill="#dbe6ff" opacity="0.37"/><circle cx="551.84" cy="190.76" r="1.06" fill="#dbe6ff" opacity="0.37"/><circle cx="325.24" cy="205.09" r="0.51" fill="#dbe6ff" opacity="0.14"/><circle cx="584.4" cy="394.22" r="1.09" fill="#dbe6ff" opacity="0.18"/><circle cx="273" cy="295.61" r="1.27" fill="#dbe6ff" opacity="0.37"/><circle cx="687.54" cy="163.54" r="1.43" fill="#dbe6ff" opacity="0.45"/><circle cx="531.17" cy="233.05" r="0.45" fill="#dbe6ff" opacity="0.5"/><circle cx="346.64" cy="236.44" r="0.69" fill="#dbe6ff" opacity="0.23"/><circle cx="358.16" cy="148.07" r="1.09" fill="#dbe6ff" opacity="0.12"/><circle cx="46.36" cy="236.25" r="0.76" fill="#dbe6ff" opacity="0.19"/><circle cx="637.34" cy="88.02" r="1.48" fill="#dbe6ff" opacity="0.16"/><circle cx="625.87" cy="232.24" r="0.97" fill="#dbe6ff" opacity="0.2"/><circle cx="183.33" cy="322.09" r="0.69" fill="#dbe6ff" opacity="0.3"/><circle cx="637.39" cy="247.35" r="0.64" fill="#dbe6ff" opacity="0.5"/><circle cx="98.73" cy="383.43" r="1.17" fill="#dbe6ff" opacity="0.45"/><circle cx="743.14" cy="235.48" r="1.5" fill="#dbe6ff" opacity="0.33"/><circle cx="121.74" cy="155.78" r="1.37" fill="#dbe6ff" opacity="0.34"/><circle cx="463.64" cy="332.58" r="1.09" fill="#dbe6ff" opacity="0.51"/><circle cx="365.52" cy="218.9" r="1.07" fill="#dbe6ff" opacity="0.49"/><circle cx="206.07" cy="98.84" r="1.05" fill="#dbe6ff" opacity="0.47"/><circle cx="344.64" cy="67.6" r="0.42" fill="#dbe6ff" opacity="0.29"/></g><g opacity="0"><text x="415" y="200" text-anchor="middle" font-family="ui-sans-serif, system-ui, -apple-system, 'Segoe UI', sans-serif" font-size="36" fill="#e8ecf5" font-weight="bold" letter-spacing="5">THE EPIC OF GONE-QUIET</text><text x="415" y="240" text-anchor="middle" font-family="ui-sans-serif, system-ui, -apple-system, 'Segoe UI', sans-serif" font-size="17" fill="#8b93a7" letter-spacing="3">· est. 2018 ·</text><animate attributeName="opacity" begin="0s" dur="3s" values="0;1;1;0" keyTimes="0;0.12;0.88;1" fill="freeze"/></g><g opacity="0"><circle cx="415" cy="186" r="46" fill="#ffd27d" opacity="0.08"/><circle cx="415" cy="186" r="27" fill="#ffd27d" opacity="0.2"/><circle cx="415" cy="186" r="13" fill="#ffd27d" opacity="0.55"/><circle cx="415" cy="186" r="5" fill="#ffd27d"/><text x="415" y="372" text-anchor="middle" font-family="ui-sans-serif, system-ui, -apple-system, 'Segoe UI', sans-serif" font-size="17" fill="#e8ecf5">In the year 2025, the developer first set foot upon the public forge, and the epic began.</text><animate attributeName="opacity" begin="3s" dur="3.5s" values="0;1;1;0" keyTimes="0;0.12;0.88;1" fill="freeze"/></g><g opacity="0"><circle cx="415" cy="186" r="46" fill="#ffd27d" opacity="0.05"/><circle cx="415" cy="186" r="27" fill="#ffd27d" opacity="0.1"/><circle cx="415" cy="186" r="13" fill="#ffd27d" opacity="0.18"/><text x="415" y="372" text-anchor="middle" font-family="ui-sans-serif, system-ui, -apple-system, 'Segoe UI', sans-serif" font-size="17" fill="#e8ecf5">Then fell the Dark Age: two hundred days without a commit, and the silence endures.</text><animate attributeName="opacity" begin="6.5s" dur="3.5s" values="0;1;1;0" keyTimes="0;0.12;0.88;1" fill="freeze"/></g><g opacity="0"><text x="415" y="200" text-anchor="middle" font-family="ui-sans-serif, system-ui, -apple-system, 'Segoe UI', sans-serif" font-size="26" fill="#e8ecf5" font-weight="bold" letter-spacing="4">PRESENT DAY</text><text x="415" y="234" text-anchor="middle" font-family="ui-sans-serif, system-ui, -apple-system, 'Segoe UI', sans-serif" font-size="15" fill="#8b93a7" letter-spacing="2">2026-07-04</text><animate attributeName="opacity" begin="10s" dur="3s" values="0;1;1;0" keyTimes="0;0.12;0.88;1" fill="freeze"/></g><g opacity="0"><circle cx="415" cy="186" r="30" fill="#ffd27d" opacity="0.16"/><circle cx="415" cy="186" r="6" fill="#ffd27d"><animate attributeName="r" begin="13s" dur="7s" values="6;9;6" repeatCount="indefinite"/></circle><circle cx="32.74" cy="41.91" r="1.4" fill="#dbe6ff" opacity="0.2"><animate attributeName="opacity" begin="13s" dur="5.24s" values="0.2;0.8;0.2" repeatCount="indefinite"/></circle><circle cx="371.01" cy="332.9" r="1.4" fill="#dbe6ff" opacity="0.2"><animate attributeName="opacity" begin="13s" dur="4.74s" values="0.2;0.8;0.2" repeatCount="indefinite"/></circle><circle cx="150.14" cy="403.01" r="1.4" fill="#dbe6ff" opacity="0.2"><animate attributeName="opacity" begin="13s" dur="4.8s" values="0.2;0.8;0.2" repeatCount="indefinite"/></circle><circle cx="303.93" cy="196.77" r="1.4" fill="#dbe6ff" opacity="0.2"><animate attributeName="opacity" begin="13s" dur="5.63s" values="0.2;0.8;0.2" repeatCount="indefinite"/></circle><circle cx="8.27" cy="183.59" r="1.4" fill="#dbe6ff" opacity="0.2"><animate attributeName="opacity" begin="13s" dur="4.69s" values="0.2;0.8;0.2" repeatCount="indefinite"/></circle><circle cx="488.89" cy="412.58" r="1.4" fill="#dbe6ff" opacity="0.2"><animate attributeName="opacity" begin="13s" dur="4.39s" values="0.2;0.8;0.2" repeatCount="indefinite"/></circle><circle cx="565.29" cy="366.31" r="1.4" fill="#dbe6ff" opacity="0.2"><animate attributeName="opacity" begin="13s" dur="4.24s" values="0.2;0.8;0.2" repeatCount="indefinite"/></circle><circle cx="138.37" cy="15.76" r="1.4" fill="#dbe6ff" opacity="0.2"><animate attributeName="opacity" begin="13s" dur="4.29s" values="0.2;0.8;0.2" repeatCount="indefinite"/></circle><text x="415" y="342" text-anchor="middle" font-family="ui-sans-serif, system-ui, -apple-system, 'Segoe UI', sans-serif" font-size="20" fill="#e8ecf5" letter-spacing="1">The Epic of gone-quiet</text><text x="415" y="390" text-anchor="middle" font-family="ui-sans-serif, system-ui, -apple-system, 'Segoe UI', sans-serif" font-size="13" fill="#8b93a7">✦ forge yours at git-epic.dev</text><animate attributeName="opacity" begin="13s" dur="1.2s" values="0;1" fill="freeze"/></g></svg>