<svg xmlns="http://www.w3.org/2000/svg" width="830" height="415" viewBox="0 0 830 415" role="img">
  <rect width="830" height="415" fill="#0a0f1c"/>

  <g stroke="#16233c" stroke-width="0.6">
    <line x1="0" y1="104" x2="830" y2="104"/>
    <line x1="0" y1="208" x2="830" y2="208"/>
    <line x1="0" y1="312" x2="830" y2="312"/>
    <line x1="166" y1="0" x2="166" y2="415"/>
    <line x1="332" y1="0" x2="332" y2="415"/>
    <line x1="498" y1="0" x2="498" y2="415"/>
    <line x1="664" y1="0" x2="664" y2="415"/>
  </g>
  <rect x="14" y="14" width="802" height="387" fill="none" stroke="#2c3e5e" stroke-width="1"/>

  <g stroke="#8fa3c8" fill="#8fa3c8">
    <circle cx="762" cy="352" r="24" fill="none" stroke-width="0.8"/>
    <line x1="762" y1="322" x2="762" y2="336" stroke-width="0.8"/>
    <line x1="762" y1="368" x2="762" y2="378" stroke-width="0.6" opacity="0.6"/>
    <line x1="736" y1="352" x2="746" y2="352" stroke-width="0.6" opacity="0.6"/>
    <line x1="778" y1="352" x2="788" y2="352" stroke-width="0.6" opacity="0.6"/>
    <text x="762" y="318" text-anchor="middle" font-family="'Courier New', monospace" font-size="10" stroke="none">N</text>
  </g>

  <g opacity="0">
    <line x1="290" y1="176" x2="404" y2="176" stroke="#2c3e5e" stroke-width="0.8"/>
    <line x1="426" y1="176" x2="540" y2="176" stroke="#2c3e5e" stroke-width="0.8"/>
    <circle cx="415" cy="176" r="2.4" fill="#e4ecff"/>
    <text x="415" y="222" text-anchor="middle" font-family="'Courier New', monospace" font-size="30" fill="#cfe0ff" letter-spacing="9">THE EPIC OF OCTOCAT</text>
    <text x="415" y="252" text-anchor="middle" font-family="'Courier New', monospace" font-size="13" fill="#5f7397" letter-spacing="5">· est. 2011 ·</text>
    <animate attributeName="opacity" begin="0s" dur="3s" values="0;1;1;0" keyTimes="0;0.12;0.88;1" fill="freeze"/>
  </g>

  <g opacity="0">
    <path d="M 258 232 L 330 150 L 415 186 L 493 120 L 574 168" fill="none" stroke="#8fa3c8" stroke-width="0.9" stroke-dasharray="4 5">
      <animate attributeName="stroke-dashoffset" begin="3.2s" dur="2.8s" values="340;0" fill="freeze"/>
    </path>
    <circle cx="258" cy="232" r="2" fill="#e4ecff"/>
    <circle cx="330" cy="150" r="2.8" fill="#e4ecff"/>
    <circle cx="415" cy="186" r="2.2" fill="#e4ecff"/>
    <circle cx="493" cy="120" r="3.4" fill="#e4ecff"/>
    <circle cx="574" cy="168" r="2" fill="#e4ecff"/>
    <circle cx="493" cy="120" r="7" fill="none" stroke="#8fa3c8" stroke-width="0.6" opacity="0.7"/>
    <line x1="493" y1="127" x2="493" y2="286" stroke="#2c3e5e" stroke-width="0.7"/>
    <line x1="118" y1="296" x2="712" y2="296" stroke="#2c3e5e" stroke-width="0.7"/>
    <text x="415" y="322" text-anchor="middle" font-family="'Courier New', monospace" font-size="11.5" fill="#a9bcd9">In the year 2011, the developer first set foot upon the public forge, and the epic began.</text>
    <animate attributeName="opacity" begin="3s" dur="3.5s" values="0;1;1;0" keyTimes="0;0.12;0.88;1" fill="freeze"/>
  </g>

  <g opacity="0">
    <path d="M 258 232 L 330 150 L 415 186 L 493 120 L 574 168" fill="none" stroke="#8fa3c8" stroke-width="0.8" stroke-dasharray="4 5" opacity="0.8">
      <animate attributeName="stroke-dashoffset" begin="6.5s" dur="30s" values="0;-180" repeatCount="indefinite"/>
    </path>
    <circle cx="258" cy="232" r="2" fill="#e4ecff"/>
    <circle cx="330" cy="150" r="2.8" fill="#e4ecff"/>
    <circle cx="415" cy="186" r="2.2" fill="#e4ecff"/>
    <circle cx="493" cy="120" r="3.4" fill="#e4ecff">
      <animate attributeName="opacity" begin="6.5s" dur="5s" values="1;0.35;1" repeatCount="indefinite"/>
    </circle>
    <circle cx="574" cy="168" r="2" fill="#e4ecff"/>
    <circle cx="493" cy="120" r="7" fill="none" stroke="#8fa3c8" stroke-width="0.6" opacity="0.7"/>
    <text x="415" y="345" text-anchor="middle" font-family="'Courier New', monospace" font-size="17" fill="#cfe0ff" letter-spacing="3">The Epic of octocat</text>
    <text x="415" y="384" text-anchor="middle" font-family="'Courier New', monospace" font-size="11" fill="#5f7397" letter-spacing="1">✦ forge yours at git-epic.dev</text>
    <animate attributeName="opacity" begin="6.5s" dur="1.2s" values="0;1" fill="freeze"/>
  </g>
</svg>
