<svg xmlns="http://www.w3.org/2000/svg" width="830" height="415" viewBox="0 0 830 415" role="img">
  <defs>
    <linearGradient id="gold-leaf" x1="0" y1="0" x2="0" y2="1">
      <stop offset="0%" stop-color="#e8cf7a"/>
      <stop offset="50%" stop-color="#c9a227"/>
      <stop offset="100%" stop-color="#8a6d1c"/>
    </linearGradient>
    <radialGradient id="candle-glow" cx="50%" cy="50%" r="50%">
      <stop offset="0%" stop-color="#e8cf7a" stop-opacity="0.22"/>
      <stop offset="100%" stop-color="#e8cf7a" stop-opacity="0"/>
    </radialGradient>
  </defs>

  <rect width="830" height="415" fill="#171008"/>
  <ellipse cx="415" cy="200" rx="390" ry="190" fill="url(#candle-glow)">
    <animate attributeName="opacity" begin="0s" dur="9s" values="0.7;1;0.7" repeatCount="indefinite"/>
  </ellipse>

  <rect x="18" y="18" width="794" height="379" fill="none" stroke="url(#gold-leaf)" stroke-width="2"/>
  <rect x="26" y="26" width="778" height="363" fill="none" stroke="#6f5619" stroke-width="0.8"/>
  <path d="M 18 58 L 44 58 L 44 18" fill="none" stroke="url(#gold-leaf)" stroke-width="1.2"/>
  <path d="M 812 58 L 786 58 L 786 18" fill="none" stroke="url(#gold-leaf)" stroke-width="1.2"/>
  <path d="M 18 357 L 44 357 L 44 397" fill="none" stroke="url(#gold-leaf)" stroke-width="1.2"/>
  <path d="M 812 357 L 786 357 L 786 397" fill="none" stroke="url(#gold-leaf)" stroke-width="1.2"/>
  <circle cx="44" cy="58" r="2.6" fill="#1f3a7a"/>
  <circle cx="786" cy="58" r="2.6" fill="#1f3a7a"/>
  <circle cx="44" cy="357" r="2.6" fill="#7a1f1f"/>
  <circle cx="786" cy="357" r="2.6" fill="#7a1f1f"/>

  <g opacity="0">
    <path d="M 330 122 C 360 106 470 106 500 122" fill="none" stroke="url(#gold-leaf)" stroke-width="1.4"/>
    <circle cx="415" cy="106" r="4.4" fill="#7a1f1f" stroke="url(#gold-leaf)" stroke-width="1"/>
    <text x="415" y="212" text-anchor="middle" font-family="Georgia, 'Times New Roman', serif" font-size="36" fill="url(#gold-leaf)" font-weight="bold" letter-spacing="5">THE EPIC OF OCTOCAT</text>
    <path d="M 330 240 C 360 256 470 256 500 240" fill="none" stroke="url(#gold-leaf)" stroke-width="1.4"/>
    <text x="415" y="286" text-anchor="middle" font-family="Georgia, 'Times New Roman', serif" font-size="16" fill="#a08b55" letter-spacing="3">· anno MMXI ·</text>
    <animate attributeName="opacity" begin="0s" dur="3s" values="0;1;1;0" keyTimes="0;0.12;0.88;1" fill="freeze"/>
  </g>

  <g opacity="0">
    <rect x="92" y="96" width="104" height="128" fill="#2a130e" stroke="url(#gold-leaf)" stroke-width="2"/>
    <rect x="99" y="103" width="90" height="114" fill="none" stroke="#6f5619" stroke-width="0.8"/>
    <text x="144" y="188" text-anchor="middle" font-family="Georgia, 'Times New Roman', serif" font-size="76" fill="url(#gold-leaf)" font-weight="bold">O</text>
    <path d="M 196 160 C 280 130 340 190 420 150 C 500 112 580 180 660 140" fill="none" stroke="url(#gold-leaf)" stroke-width="1.1" stroke-dasharray="560" stroke-dashoffset="560" opacity="0.65">
      <animate attributeName="stroke-dashoffset" begin="3.3s" dur="2.4s" values="560;0" fill="freeze"/>
    </path>
    <circle cx="420" cy="150" r="3" fill="#7a1f1f"/>
    <circle cx="660" cy="140" r="3" fill="#1f3a7a"/>
    <path d="M 96 316 L 176 316" stroke="#6f5619" stroke-width="0.8"/>
    <path d="M 654 316 L 734 316" stroke="#6f5619" stroke-width="0.8"/>
    <text x="415" y="322" text-anchor="middle" font-family="Georgia, 'Times New Roman', serif" font-size="15" font-style="italic" fill="#d9c78f">In the year 2011, the developer first set foot upon the public forge, and the epic began.</text>
    <text x="415" y="352" text-anchor="middle" font-family="Georgia, 'Times New Roman', serif" font-size="13" fill="#7a1f1f">❦</text>
    <animate attributeName="opacity" begin="3s" dur="3.5s" values="0;1;1;0" keyTimes="0;0.12;0.88;1" fill="freeze"/>
  </g>

  <g opacity="0">
    <circle cx="415" cy="168" r="30" fill="url(#candle-glow)"/>
    <circle cx="415" cy="168" r="5" fill="url(#gold-leaf)">
      <animate attributeName="r" begin="6.5s" dur="8s" values="5;7;5" repeatCount="indefinite"/>
    </circle>
    <path d="M 355 168 C 375 154 395 154 409 164" fill="none" stroke="url(#gold-leaf)" stroke-width="0.9" opacity="0.6"/>
    <path d="M 475 168 C 455 154 435 154 421 164" fill="none" stroke="url(#gold-leaf)" stroke-width="0.9" opacity="0.6"/>
    <circle cx="355" cy="168" r="2" fill="#1f3a7a"/>
    <circle cx="475" cy="168" r="2" fill="#7a1f1f"/>
    <g opacity="0.6">
      <circle cx="300" cy="120" r="1.3" fill="#e8cf7a"/>
      <circle cx="530" cy="216" r="1.3" fill="#e8cf7a"/>
      <animate attributeName="opacity" begin="6.5s" dur="6s" values="0.25;0.75;0.25" repeatCount="indefinite"/>
    </g>
    <text x="415" y="268" text-anchor="middle" font-family="Georgia, 'Times New Roman', serif" font-size="20" fill="url(#gold-leaf)" letter-spacing="1.5">The Epic of octocat</text>
    <text x="305" y="268" text-anchor="middle" font-family="Georgia, 'Times New Roman', serif" font-size="11" fill="#7a1f1f">❦</text>
    <text x="525" y="268" text-anchor="middle" font-family="Georgia, 'Times New Roman', serif" font-size="11" fill="#7a1f1f">❦</text>
    <text x="415" y="340" text-anchor="middle" font-family="Georgia, 'Times New Roman', serif" font-size="13" fill="#a08b55">✦ forge yours at git-epic.dev</text>
    <animate attributeName="opacity" begin="6.5s" dur="1.2s" values="0;1" fill="freeze"/>
  </g>
</svg>
