<svg xmlns="http://www.w3.org/2000/svg" width="830" height="415" viewBox="0 0 830 415" role="img"><defs><radialGradient id="nebula" cx="50%" cy="45%" r="65%"><stop offset="0%" stop-color="#2b2a5e" stop-opacity="0.85"/><stop offset="45%" stop-color="#1a1c3f" stop-opacity="0.45"/><stop offset="100%" stop-color="#070b14" stop-opacity="0"/></radialGradient><radialGradient id="spark-glow" cx="50%" cy="50%" r="50%"><stop offset="0%" stop-color="#ffd27d" stop-opacity="0.9"/><stop offset="40%" stop-color="#ffb45e" stop-opacity="0.35"/><stop offset="100%" stop-color="#ffb45e" stop-opacity="0"/></radialGradient><linearGradient id="gilded" x1="0" y1="0" x2="0" y2="1"><stop offset="0%" stop-color="#f7ecd0"/><stop offset="100%" stop-color="#d9b45b"/></linearGradient><linearGradient id="rule-fade" x1="0" y1="0" x2="1" y2="0"><stop offset="0%" stop-color="#d9b45b" stop-opacity="0"/><stop offset="50%" stop-color="#d9b45b" stop-opacity="0.8"/><stop offset="100%" stop-color="#d9b45b" stop-opacity="0"/></linearGradient></defs><rect width="830" height="415" fill="#070b14"/><g><circle cx="517.63" cy="104.75" r="0.69" fill="#dbe6ff" opacity="0.3"/><circle cx="145.94" cy="0.44" r="0.91" fill="#dbe6ff" opacity="0.48"/><circle cx="335.28" cy="372.74" r="1.36" fill="#dbe6ff" opacity="0.11"/><circle cx="106.09" cy="12.25" r="1.07" fill="#dbe6ff" opacity="0.11"/><circle cx="566.78" cy="163.83" r="0.57" fill="#dbe6ff" opacity="0.39"/><circle cx="223.1" cy="121.87" r="0.58" fill="#dbe6ff" opacity="0.51"/><circle cx="32.21" cy="46.12" r="1.27" fill="#dbe6ff" opacity="0.39"/><circle cx="230.52" cy="227.01" r="1.16" fill="#dbe6ff" opacity="0.37"/><circle cx="781.37" cy="407.81" r="0.66" fill="#dbe6ff" opacity="0.22"/><circle cx="576.8" cy="145.64" r="0.79" fill="#dbe6ff" opacity="0.37"/><circle cx="424.68" cy="140.69" r="0.42" fill="#dbe6ff" opacity="0.37"/><circle cx="702.23" cy="155.04" r="1.35" fill="#dbe6ff" opacity="0.27"/><circle cx="186.85" cy="260.85" r="0.63" fill="#dbe6ff" opacity="0.19"/><circle cx="553.11" cy="260.75" r="0.67" fill="#dbe6ff" opacity="0.39"/><circle cx="585.43" cy="250.94" r="0.54" fill="#dbe6ff" opacity="0.14"/><circle cx="366.1" cy="304.1" r="0.4" fill="#dbe6ff" opacity="0.46"/><circle cx="742.19" cy="133.77" r="0.99" fill="#dbe6ff" opacity="0.54"/><circle cx="294.24" cy="199.2" r="1.42" fill="#dbe6ff" opacity="0.1"/><circle cx="347.67" cy="167.74" r="1.49" fill="#dbe6ff" opacity="0.5"/><circle cx="679.38" cy="339.57" r="0.91" fill="#dbe6ff" opacity="0.13"/><circle cx="25.93" cy="323.64" r="0.49" fill="#dbe6ff" opacity="0.39"/><circle cx="774.72" cy="115.64" r="0.65" fill="#dbe6ff" opacity="0.36"/><circle cx="168.69" cy="253.5" r="1.03" fill="#dbe6ff" opacity="0.37"/><circle cx="72.64" cy="372.47" r="0.77" fill="#dbe6ff" opacity="0.32"/><circle cx="237.38" cy="318.63" r="0.98" fill="#dbe6ff" opacity="0.46"/><circle cx="207.64" cy="192.37" r="1.36" fill="#dbe6ff" opacity="0.46"/><circle cx="366.76" cy="191.49" r="0.58" fill="#dbe6ff" opacity="0.36"/><circle cx="600.25" cy="91.01" r="0.57" fill="#dbe6ff" opacity="0.22"/><circle cx="51.76" cy="103.71" r="1.07" fill="#dbe6ff" opacity="0.37"/><circle cx="672.04" cy="220.29" r="0.94" fill="#dbe6ff" opacity="0.4"/><circle cx="223.74" cy="334.25" r="0.42" fill="#dbe6ff" opacity="0.28"/><circle cx="689.68" cy="398.88" r="0.55" fill="#dbe6ff" opacity="0.17"/><circle cx="78.18" cy="155.63" r="1.4" fill="#dbe6ff" opacity="0.43"/><circle cx="172.94" cy="220.31" r="0.49" fill="#dbe6ff" opacity="0.2"/><circle cx="750.22" cy="101.57" r="1.33" fill="#dbe6ff" opacity="0.38"/><circle cx="152.78" cy="131.75" r="1.03" fill="#dbe6ff" opacity="0.28"/><circle cx="63.5" cy="413.3" r="1.04" fill="#dbe6ff" opacity="0.1"/><circle cx="627.9" cy="59.45" r="1.23" fill="#dbe6ff" opacity="0.2"/><circle cx="94.97" cy="76.33" r="0.98" fill="#dbe6ff" opacity="0.13"/><circle cx="444.51" cy="330.99" r="1.28" fill="#dbe6ff" opacity="0.39"/><circle cx="246.81" cy="156.65" r="1.42" fill="#dbe6ff" opacity="0.47"/><circle cx="401.19" cy="127.46" r="0.75" fill="#dbe6ff" opacity="0.47"/><circle cx="639.04" cy="94.5" r="0.41" fill="#dbe6ff" opacity="0.45"/><circle cx="467.73" cy="213.33" r="0.5" fill="#dbe6ff" opacity="0.2"/><circle cx="244.46" cy="106.95" r="0.74" fill="#dbe6ff" opacity="0.4"/><circle cx="805.82" cy="297.52" r="0.92" fill="#dbe6ff" opacity="0.51"/><circle cx="666.03" cy="136.14" r="1.13" fill="#dbe6ff" opacity="0.11"/><circle cx="409.3" cy="310.45" r="1.25" fill="#dbe6ff" opacity="0.3"/><circle cx="642.71" cy="274.39" r="0.88" fill="#dbe6ff" opacity="0.36"/><circle cx="238.87" cy="167.39" r="1.29" fill="#dbe6ff" opacity="0.48"/><circle cx="668.24" cy="135.56" r="0.58" fill="#dbe6ff" opacity="0.16"/><circle cx="512.75" cy="294.42" r="0.43" fill="#dbe6ff" opacity="0.46"/><circle cx="740.37" cy="6.22" r="0.91" fill="#dbe6ff" opacity="0.31"/><circle cx="302.99" cy="239.88" r="0.59" fill="#dbe6ff" opacity="0.35"/><circle cx="786.25" cy="146.88" r="1.41" fill="#dbe6ff" opacity="0.16"/><circle cx="513.45" cy="134.81" r="1.41" fill="#dbe6ff" opacity="0.29"/><circle cx="389.45" cy="161.2" r="0.76" fill="#dbe6ff" opacity="0.29"/><circle cx="629.26" cy="270.85" r="0.5" fill="#dbe6ff" opacity="0.36"/><circle cx="26.97" cy="113.64" r="0.63" fill="#dbe6ff" opacity="0.43"/><circle cx="173.82" cy="355.1" r="1.31" fill="#dbe6ff" opacity="0.2"/><circle cx="238.79" cy="119.54" r="1.39" fill="#dbe6ff" opacity="0.45"/><circle cx="332.42" cy="52.8" r="1.48" fill="#dbe6ff" opacity="0.34"/><circle cx="312.52" cy="264.88" r="0.54" fill="#dbe6ff" opacity="0.21"/><circle cx="447.93" cy="180.24" r="1.42" fill="#dbe6ff" opacity="0.37"/><circle cx="770.14" cy="375.88" r="0.45" fill="#dbe6ff" opacity="0.21"/><circle cx="416.33" cy="196.46" r="0.66" fill="#dbe6ff" opacity="0.37"/><circle cx="698.67" cy="121.02" r="0.47" fill="#dbe6ff" opacity="0.36"/><circle cx="480.24" cy="252.57" r="0.95" fill="#dbe6ff" opacity="0.2"/><circle cx="718.8" cy="333.83" r="1.11" fill="#dbe6ff" opacity="0.37"/><circle cx="666.82" cy="396.29" r="0.55" fill="#dbe6ff" opacity="0.18"/><circle cx="431.5" cy="356.57" r="0.41" fill="#dbe6ff" opacity="0.1"/><circle cx="191.75" cy="248.29" r="1.49" fill="#dbe6ff" opacity="0.22"/><circle cx="278.02" cy="85.31" r="1.35" fill="#dbe6ff" opacity="0.48"/><circle cx="36.73" cy="305.31" r="1.29" fill="#dbe6ff" opacity="0.53"/><circle cx="477.91" cy="155.84" r="1.44" fill="#dbe6ff" opacity="0.3"/><circle cx="767.57" cy="45.16" r="1.08" fill="#dbe6ff" opacity="0.2"/><circle cx="446.1" cy="50.1" r="0.6" fill="#dbe6ff" opacity="0.12"/><circle cx="777.51" cy="35.06" r="1.2" fill="#dbe6ff" opacity="0.5"/><circle cx="538.81" cy="177.44" r="1" fill="#dbe6ff" opacity="0.48"/><circle cx="45.83" cy="276.65" r="0.68" fill="#dbe6ff" opacity="0.42"/><circle cx="662.22" cy="389.27" r="1.35" fill="#dbe6ff" opacity="0.4"/><circle cx="449.87" cy="23.03" r="1.4" fill="#dbe6ff" opacity="0.48"/><circle cx="13.07" cy="20.36" r="0.93" fill="#dbe6ff" opacity="0.11"/><circle cx="201.43" cy="36" r="0.97" fill="#dbe6ff" opacity="0.26"/><circle cx="427.51" cy="93.42" r="0.72" fill="#dbe6ff" opacity="0.14"/><circle cx="703.43" cy="350.77" r="0.48" fill="#dbe6ff" opacity="0.29"/><circle cx="324.75" cy="12.65" r="1.17" fill="#dbe6ff" opacity="0.19"/><circle cx="48.05" cy="285.59" r="1.03" fill="#dbe6ff" opacity="0.22"/><circle cx="806.46" cy="48.22" r="0.63" fill="#dbe6ff" opacity="0.36"/><circle cx="2.16" cy="323.87" r="0.42" fill="#dbe6ff" opacity="0.17"/><circle cx="217.43" cy="303.83" r="1.03" fill="#dbe6ff" opacity="0.1"/><circle cx="148.39" cy="164.55" r="0.88" fill="#dbe6ff" opacity="0.52"/><circle cx="459.87" cy="8.39" r="0.76" fill="#dbe6ff" opacity="0.37"/><circle cx="756.35" cy="291.5" r="0.63" fill="#dbe6ff" opacity="0.18"/><circle cx="133.11" cy="5.89" r="0.57" fill="#dbe6ff" opacity="0.1"/><circle cx="787.64" cy="185.18" r="1.39" fill="#dbe6ff" opacity="0.15"/><circle cx="426.37" cy="384.64" r="0.95" fill="#dbe6ff" opacity="0.22"/><circle cx="179.8" cy="64.46" r="0.52" fill="#dbe6ff" opacity="0.47"/><circle cx="492.39" cy="229.5" r="1.13" fill="#dbe6ff" opacity="0.36"/><circle cx="740.38" cy="65.63" r="0.4" fill="#dbe6ff" opacity="0.37"/><circle cx="265.28" cy="211.32" r="1.44" fill="#dbe6ff" opacity="0.53"/><circle cx="23.89" cy="25.43" r="1.45" fill="#dbe6ff" opacity="0.26"/><circle cx="556.4" cy="132.85" r="1.2" fill="#dbe6ff" opacity="0.28"/><circle cx="330.09" cy="388.78" r="0.82" fill="#dbe6ff" opacity="0.46"/><circle cx="681.84" cy="54.35" r="1.33" fill="#dbe6ff" opacity="0.26"/><circle cx="175.73" cy="320.01" r="1.17" fill="#dbe6ff" opacity="0.45"/><circle cx="656.49" cy="110.97" r="1.27" fill="#dbe6ff" opacity="0.41"/><circle cx="810.06" cy="146.44" r="0.83" fill="#dbe6ff" opacity="0.11"/><circle cx="547.9" cy="107.99" r="1.11" fill="#dbe6ff" opacity="0.45"/><circle cx="119.79" cy="11.41" r="1.17" fill="#dbe6ff" opacity="0.31"/></g><g opacity="0"><circle cx="415" cy="150" r="26" fill="url(#spark-glow)"/><circle cx="415" cy="150" r="3.2" fill="#ffd27d"/><text x="415" y="212" text-anchor="middle" font-family="Georgia, 'Times New Roman', serif" font-size="38" fill="url(#gilded)" font-weight="bold" letter-spacing="7">THE EPIC OF SHIPWRIGHT</text><rect x="285" y="232" width="260" height="1" fill="url(#rule-fade)"/><text x="415" y="258" text-anchor="middle" font-family="Georgia, 'Times New Roman', serif" font-size="16" fill="#8b93a7" letter-spacing="4">· est. 2020 ·</text><animate attributeName="opacity" begin="0s" dur="3s" values="0;1;1;0" keyTimes="0;0.12;0.88;1" fill="freeze"/></g><g opacity="0"><ellipse cx="415" cy="186" rx="330" ry="150" fill="url(#nebula)"/><circle cx="415" cy="186" r="70" fill="none" stroke="#ffd27d" stroke-width="0.6" opacity="0"><animate attributeName="r" begin="3.2s" dur="2.6s" values="14;70" fill="freeze"/><animate attributeName="opacity" begin="3.2s" dur="2.6s" values="0.5;0.05" fill="freeze"/></circle><circle cx="415" cy="186" r="105" fill="none" stroke="#9aa8ff" stroke-width="0.5" opacity="0"><animate attributeName="r" begin="3.5s" dur="2.6s" values="20;105" fill="freeze"/><animate attributeName="opacity" begin="3.5s" dur="2.6s" values="0.4;0.05" fill="freeze"/></circle><circle cx="415" cy="186" r="34" fill="url(#spark-glow)"/><circle cx="415" cy="186" r="5" fill="#ffd27d"/><rect x="30" y="352" width="55" height="1" fill="url(#rule-fade)"/><rect x="745" y="352" width="55" height="1" fill="url(#rule-fade)"/><circle cx="95" cy="352.5" r="1.8" fill="#d9b45b" opacity="0.8"/><circle cx="735" cy="352.5" r="1.8" fill="#d9b45b" opacity="0.8"/><text x="415" y="357" text-anchor="middle" font-family="Georgia, 'Times New Roman', serif" font-size="15.5" fill="url(#gilded)" font-style="italic" letter-spacing="0.5">In the year 2020, the developer first set foot upon the public forge, and the epic began.</text><animate attributeName="opacity" begin="3s" dur="3.5s" values="0;1;1;0" keyTimes="0;0.12;0.88;1" fill="freeze"/></g><g opacity="0"><ellipse cx="415" cy="186" rx="330" ry="150" fill="url(#nebula)"/><g><circle cx="415" cy="209" r="30" fill="url(#spark-glow)"/><circle cx="415" cy="209" r="4.5" fill="#ffd27d"/><animateTransform attributeName="transform" type="translate" begin="6.7s" dur="2.4s" from="0 0" to="0 -46" fill="freeze"/></g><circle cx="533" cy="163" r="1.7" fill="#ffd27d" opacity="0.25"><animate attributeName="cx" begin="7.1s" dur="1.6s" values="533;431" fill="freeze"/><animate attributeName="cy" begin="7.1s" dur="1.6s" values="163;163" fill="freeze"/><animate attributeName="opacity" begin="7.1s" dur="1.6s" values="0.25;0.9" fill="freeze"/></circle><circle cx="474" cy="265.19" r="1.7" fill="#ffd27d" opacity="0.25"><animate attributeName="cx" begin="7.2s" dur="1.6s" values="474;423" fill="freeze"/><animate attributeName="cy" begin="7.2s" dur="1.6s" values="265.19;176.86" fill="freeze"/><animate attributeName="opacity" begin="7.2s" dur="1.6s" values="0.25;0.9" fill="freeze"/></circle><circle cx="356" cy="265.19" r="1.7" fill="#ffd27d" opacity="0.25"><animate attributeName="cx" begin="7.3s" dur="1.6s" values="356;407" fill="freeze"/><animate attributeName="cy" begin="7.3s" dur="1.6s" values="265.19;176.86" fill="freeze"/><animate attributeName="opacity" begin="7.3s" dur="1.6s" values="0.25;0.9" fill="freeze"/></circle><circle cx="297" cy="163" r="1.7" fill="#ffd27d" opacity="0.25"><animate attributeName="cx" begin="7.4s" dur="1.6s" values="297;399" fill="freeze"/><animate attributeName="cy" begin="7.4s" dur="1.6s" values="163;163" fill="freeze"/><animate attributeName="opacity" begin="7.4s" dur="1.6s" values="0.25;0.9" fill="freeze"/></circle><circle cx="356" cy="60.81" r="1.7" fill="#ffd27d" opacity="0.25"><animate attributeName="cx" begin="7.5s" dur="1.6s" values="356;407" fill="freeze"/><animate attributeName="cy" begin="7.5s" dur="1.6s" values="60.81;149.14" fill="freeze"/><animate attributeName="opacity" begin="7.5s" dur="1.6s" values="0.25;0.9" fill="freeze"/></circle><circle cx="474" cy="60.81" r="1.7" fill="#ffd27d" opacity="0.25"><animate attributeName="cx" begin="7.6s" dur="1.6s" values="474;423" fill="freeze"/><animate attributeName="cy" begin="7.6s" dur="1.6s" values="60.81;149.14" fill="freeze"/><animate attributeName="opacity" begin="7.6s" dur="1.6s" values="0.25;0.9" fill="freeze"/></circle><rect x="30" y="352" width="55" height="1" fill="url(#rule-fade)"/><rect x="745" y="352" width="55" height="1" fill="url(#rule-fade)"/><circle cx="95" cy="352.5" r="1.8" fill="#d9b45b" opacity="0.8"/><circle cx="735" cy="352.5" r="1.8" fill="#d9b45b" opacity="0.8"/><text x="415" y="357" text-anchor="middle" font-family="Georgia, 'Times New Roman', serif" font-size="15.5" fill="url(#gilded)" font-style="italic" letter-spacing="0.5">And lo, lodestar rose from nothing, and three hundred stars gathered to witness it.</text><animate attributeName="opacity" begin="6.5s" dur="3.5s" values="0;1;1;0" keyTimes="0;0.12;0.88;1" fill="freeze"/></g><g opacity="0"><ellipse cx="415" cy="186" rx="330" ry="150" fill="url(#nebula)"/><circle cx="415" cy="186" r="26" fill="url(#spark-glow)"/><circle cx="415" cy="186" r="3.5" fill="#ffd27d"/><circle cx="415" cy="186" r="1.8" fill="#ffd27d" opacity="0"><animate attributeName="cx" begin="10.3s" dur="2s" values="415;511" fill="freeze"/><animate attributeName="cy" begin="10.3s" dur="2s" values="186;186" fill="freeze"/><animate attributeName="opacity" begin="10.3s" dur="2s" values="0.9;0.55" fill="freeze"/></circle><circle cx="415" cy="186" r="1.8" fill="#ffd27d" opacity="0"><animate attributeName="cx" begin="10.3s" dur="2s" values="415;463" fill="freeze"/><animate attributeName="cy" begin="10.3s" dur="2s" values="186;269.14" fill="freeze"/><animate attributeName="opacity" begin="10.3s" dur="2s" values="0.9;0.55" fill="freeze"/></circle><circle cx="415" cy="186" r="1.8" fill="#ffd27d" opacity="0"><animate attributeName="cx" begin="10.3s" dur="2s" values="415;367" fill="freeze"/><animate attributeName="cy" begin="10.3s" dur="2s" values="186;269.14" fill="freeze"/><animate attributeName="opacity" begin="10.3s" dur="2s" values="0.9;0.55" fill="freeze"/></circle><circle cx="415" cy="186" r="1.8" fill="#ffd27d" opacity="0"><animate attributeName="cx" begin="10.3s" dur="2s" values="415;319" fill="freeze"/><animate attributeName="cy" begin="10.3s" dur="2s" values="186;186" fill="freeze"/><animate attributeName="opacity" begin="10.3s" dur="2s" values="0.9;0.55" fill="freeze"/></circle><circle cx="415" cy="186" r="1.8" fill="#ffd27d" opacity="0"><animate attributeName="cx" begin="10.3s" dur="2s" values="415;367" fill="freeze"/><animate attributeName="cy" begin="10.3s" dur="2s" values="186;102.86" fill="freeze"/><animate attributeName="opacity" begin="10.3s" dur="2s" values="0.9;0.55" fill="freeze"/></circle><circle cx="415" cy="186" r="1.8" fill="#ffd27d" opacity="0"><animate attributeName="cx" begin="10.3s" dur="2s" values="415;463" fill="freeze"/><animate attributeName="cy" begin="10.3s" dur="2s" values="186;102.86" fill="freeze"/><animate attributeName="opacity" begin="10.3s" dur="2s" values="0.9;0.55" fill="freeze"/></circle><rect x="30" y="352" width="55" height="1" fill="url(#rule-fade)"/><rect x="745" y="352" width="55" height="1" fill="url(#rule-fade)"/><circle cx="95" cy="352.5" r="1.8" fill="#d9b45b" opacity="0.8"/><circle cx="735" cy="352.5" r="1.8" fill="#d9b45b" opacity="0.8"/><text x="415" y="357" text-anchor="middle" font-family="Georgia, 'Times New Roman', serif" font-size="15.5" fill="url(#gilded)" font-style="italic" letter-spacing="0.5">And renown gathered upon the developer: a hundred stars in all.</text><animate attributeName="opacity" begin="10s" dur="3.5s" values="0;1;1;0" keyTimes="0;0.12;0.88;1" fill="freeze"/></g><g opacity="0"><text x="415" y="200" text-anchor="middle" font-family="Georgia, 'Times New Roman', serif" font-size="26" fill="url(#gilded)" font-weight="bold" letter-spacing="4">PRESENT DAY</text><rect x="315" y="220" width="200" height="1" fill="url(#rule-fade)"/><text x="415" y="246" text-anchor="middle" font-family="Georgia, 'Times New Roman', serif" font-size="15" fill="#8b93a7" letter-spacing="2">2026-07-04</text><animate attributeName="opacity" begin="13.5s" dur="3s" values="0;1;1;0" keyTimes="0;0.12;0.88;1" fill="freeze"/></g><g opacity="0"><ellipse cx="415" cy="186" rx="300" ry="135" fill="url(#nebula)" opacity="0.7"/><circle cx="415" cy="186" r="88" fill="none" stroke="#9aa8ff" stroke-width="0.5" opacity="0.14" stroke-dasharray="2 7"><animateTransform attributeName="transform" type="rotate" begin="16.5s" dur="60s" from="0 415 186" to="360 415 186" repeatCount="indefinite"/></circle><circle cx="415" cy="186" r="30" fill="url(#spark-glow)"/><circle cx="415" cy="186" r="6" fill="#ffd27d"><animate attributeName="r" begin="16.5s" dur="7s" values="6;9;6" repeatCount="indefinite"/></circle><g><circle cx="503" cy="186" r="2.2" fill="#9ad2ff"/><animateTransform attributeName="transform" type="rotate" begin="16.5s" dur="14s" from="0 415 186" to="360 415 186" repeatCount="indefinite"/></g><circle cx="648.39" cy="150.25" r="1.4" fill="#dbe6ff" opacity="0.2"><animate attributeName="opacity" begin="16.5s" dur="7s" values="0.2;0.8;0.2" repeatCount="indefinite"/></circle><circle cx="214.1" cy="36.02" r="1.4" fill="#dbe6ff" opacity="0.2"><animate attributeName="opacity" begin="16.5s" dur="7.95s" values="0.2;0.8;0.2" repeatCount="indefinite"/></circle><circle cx="306.53" cy="187.33" r="1.4" fill="#dbe6ff" opacity="0.2"><animate attributeName="opacity" begin="16.5s" dur="4.68s" values="0.2;0.8;0.2" repeatCount="indefinite"/></circle><circle cx="332.18" cy="361.66" r="1.4" fill="#dbe6ff" opacity="0.2"><animate attributeName="opacity" begin="16.5s" dur="5.03s" values="0.2;0.8;0.2" repeatCount="indefinite"/></circle><circle cx="237.52" cy="27.37" r="1.4" fill="#dbe6ff" opacity="0.2"><animate attributeName="opacity" begin="16.5s" dur="5.19s" values="0.2;0.8;0.2" repeatCount="indefinite"/></circle><circle cx="258.57" cy="139.81" r="1.4" fill="#dbe6ff" opacity="0.2"><animate attributeName="opacity" begin="16.5s" dur="6.79s" values="0.2;0.8;0.2" repeatCount="indefinite"/></circle><circle cx="590.43" cy="56.24" r="1.4" fill="#dbe6ff" opacity="0.2"><animate attributeName="opacity" begin="16.5s" dur="7.14s" values="0.2;0.8;0.2" repeatCount="indefinite"/></circle><circle cx="819.24" cy="326.28" r="1.4" fill="#dbe6ff" opacity="0.2"><animate attributeName="opacity" begin="16.5s" dur="7.76s" values="0.2;0.8;0.2" repeatCount="indefinite"/></circle><text x="415" y="345" text-anchor="middle" font-family="Georgia, 'Times New Roman', serif" font-size="20" fill="url(#gilded)" letter-spacing="1.5">The Epic of shipwright</text><text x="415" y="391" text-anchor="middle" font-family="Georgia, 'Times New Roman', serif" font-size="13" fill="#8b93a7">✦ forge yours at git-epic.dev</text><animate attributeName="opacity" begin="16.5s" dur="1.2s" values="0;1" fill="freeze"/></g></svg>