<svg xmlns="http://www.w3.org/2000/svg" width="830" height="415" viewBox="0 0 830 415" role="img"><defs><radialGradient id="nebula" cx="50%" cy="45%" r="65%"><stop offset="0%" stop-color="#2b2a5e" stop-opacity="0.85"/><stop offset="45%" stop-color="#1a1c3f" stop-opacity="0.45"/><stop offset="100%" stop-color="#070b14" stop-opacity="0"/></radialGradient><radialGradient id="spark-glow" cx="50%" cy="50%" r="50%"><stop offset="0%" stop-color="#ffd27d" stop-opacity="0.9"/><stop offset="40%" stop-color="#ffb45e" stop-opacity="0.35"/><stop offset="100%" stop-color="#ffb45e" stop-opacity="0"/></radialGradient><linearGradient id="gilded" x1="0" y1="0" x2="0" y2="1"><stop offset="0%" stop-color="#f7ecd0"/><stop offset="100%" stop-color="#d9b45b"/></linearGradient><linearGradient id="rule-fade" x1="0" y1="0" x2="1" y2="0"><stop offset="0%" stop-color="#d9b45b" stop-opacity="0"/><stop offset="50%" stop-color="#d9b45b" stop-opacity="0.8"/><stop offset="100%" stop-color="#d9b45b" stop-opacity="0"/></linearGradient></defs><rect width="830" height="415" fill="#070b14"/><g><circle cx="92.12" cy="189.94" r="1.17" fill="#dbe6ff" opacity="0.34"/><circle cx="580.66" cy="164.64" r="0.54" fill="#dbe6ff" opacity="0.4"/><circle cx="436.37" cy="204.1" r="0.75" fill="#dbe6ff" opacity="0.51"/><circle cx="829.34" cy="56.97" r="1.03" fill="#dbe6ff" opacity="0.13"/><circle cx="210.99" cy="414.7" r="0.52" fill="#dbe6ff" opacity="0.42"/><circle cx="500.63" cy="152.71" r="0.96" fill="#dbe6ff" opacity="0.47"/><circle cx="799.96" cy="301.5" r="1" fill="#dbe6ff" opacity="0.37"/><circle cx="640.47" cy="150.13" r="1.31" fill="#dbe6ff" opacity="0.48"/><circle cx="6.54" cy="320.62" r="0.89" fill="#dbe6ff" opacity="0.46"/><circle cx="452.11" cy="376.15" r="1.24" fill="#dbe6ff" opacity="0.22"/><circle cx="471.88" cy="129.97" r="1.17" fill="#dbe6ff" opacity="0.33"/><circle cx="49.67" cy="333.45" r="0.5" fill="#dbe6ff" opacity="0.22"/><circle cx="808.73" cy="18.64" r="1.16" fill="#dbe6ff" opacity="0.2"/><circle cx="523.3" cy="166.59" r="0.58" fill="#dbe6ff" opacity="0.37"/><circle cx="762.3" cy="339.72" r="0.41" fill="#dbe6ff" opacity="0.32"/><circle cx="323.91" cy="279.31" r="1.4" fill="#dbe6ff" opacity="0.17"/><circle cx="79.47" cy="145.3" r="0.98" fill="#dbe6ff" opacity="0.49"/><circle cx="94.19" cy="325.11" r="1.1" fill="#dbe6ff" opacity="0.19"/><circle cx="238.73" cy="182.95" r="1.02" fill="#dbe6ff" opacity="0.21"/><circle cx="330.24" cy="49.49" r="1.38" fill="#dbe6ff" opacity="0.33"/><circle cx="165.25" cy="117.8" r="0.61" fill="#dbe6ff" opacity="0.3"/><circle cx="505.91" cy="125.73" r="0.64" fill="#dbe6ff" opacity="0.16"/><circle cx="397.9" cy="190.6" r="0.92" fill="#dbe6ff" opacity="0.23"/><circle cx="596.76" cy="348.22" r="1.03" fill="#dbe6ff" opacity="0.15"/><circle cx="321.22" cy="360.64" r="1.19" fill="#dbe6ff" opacity="0.11"/><circle cx="236.54" cy="236.94" r="0.97" fill="#dbe6ff" opacity="0.53"/><circle cx="545.93" cy="59.36" r="0.42" fill="#dbe6ff" opacity="0.29"/><circle cx="391.62" cy="363.96" r="0.69" fill="#dbe6ff" opacity="0.15"/><circle cx="199.23" cy="66.61" r="1.26" fill="#dbe6ff" opacity="0.39"/><circle cx="405.49" cy="405.02" r="0.51" fill="#dbe6ff" opacity="0.15"/><circle cx="306.97" cy="369.05" r="1.28" fill="#dbe6ff" opacity="0.22"/><circle cx="797.77" cy="260.67" r="1.45" fill="#dbe6ff" opacity="0.26"/><circle cx="791.82" cy="328.72" r="0.51" fill="#dbe6ff" opacity="0.11"/><circle cx="437.88" cy="389.84" r="1.21" fill="#dbe6ff" opacity="0.15"/><circle cx="816.04" cy="356.24" r="1.16" fill="#dbe6ff" opacity="0.51"/><circle cx="271.52" cy="105.44" r="1.39" fill="#dbe6ff" opacity="0.46"/><circle cx="190.14" cy="338.44" r="0.5" fill="#dbe6ff" opacity="0.16"/><circle cx="0.88" cy="368.37" r="0.97" fill="#dbe6ff" opacity="0.15"/><circle cx="226.09" cy="270.79" r="0.64" fill="#dbe6ff" opacity="0.17"/><circle cx="342.76" cy="82.97" r="0.7" fill="#dbe6ff" opacity="0.23"/><circle cx="504.55" cy="406.54" r="0.84" fill="#dbe6ff" opacity="0.32"/><circle cx="61.06" cy="52.18" r="1.13" fill="#dbe6ff" opacity="0.24"/><circle cx="527.28" cy="216.43" r="0.74" fill="#dbe6ff" opacity="0.46"/><circle cx="401.8" cy="322.52" r="1.35" fill="#dbe6ff" opacity="0.1"/><circle cx="373.17" cy="195.62" r="0.86" fill="#dbe6ff" opacity="0.15"/><circle cx="522.45" cy="122.14" r="1.46" fill="#dbe6ff" opacity="0.33"/><circle cx="818.01" cy="134.95" r="0.41" fill="#dbe6ff" opacity="0.29"/><circle cx="255.7" cy="54.09" r="1.42" fill="#dbe6ff" opacity="0.13"/><circle cx="365.57" cy="399.15" r="1.41" fill="#dbe6ff" opacity="0.48"/><circle cx="571.22" cy="113.36" r="1.36" fill="#dbe6ff" opacity="0.28"/><circle cx="191.67" cy="263.02" r="0.87" fill="#dbe6ff" opacity="0.29"/><circle cx="800.2" cy="22.25" r="0.96" fill="#dbe6ff" opacity="0.53"/><circle cx="783.13" cy="28.92" r="0.73" fill="#dbe6ff" opacity="0.34"/><circle cx="505.37" cy="261.7" r="1.05" fill="#dbe6ff" opacity="0.24"/><circle cx="60.89" cy="326.74" r="0.64" fill="#dbe6ff" opacity="0.37"/><circle cx="112.42" cy="256.58" r="1.4" fill="#dbe6ff" opacity="0.36"/><circle cx="730.8" cy="389.68" r="1.1" fill="#dbe6ff" opacity="0.19"/><circle cx="150.3" cy="6.13" r="1.09" fill="#dbe6ff" opacity="0.31"/><circle cx="605.36" cy="380.64" r="0.9" fill="#dbe6ff" opacity="0.46"/><circle cx="72.58" cy="124.26" r="0.66" fill="#dbe6ff" opacity="0.13"/><circle cx="136.36" cy="367.85" r="0.85" fill="#dbe6ff" opacity="0.2"/><circle cx="724.35" cy="249.57" r="1.16" fill="#dbe6ff" opacity="0.13"/><circle cx="115.61" cy="92.24" r="0.53" fill="#dbe6ff" opacity="0.11"/><circle cx="614.69" cy="199.01" r="1.26" fill="#dbe6ff" opacity="0.11"/><circle cx="362.39" cy="38.48" r="0.7" fill="#dbe6ff" opacity="0.46"/><circle cx="266.5" cy="315.02" r="0.88" fill="#dbe6ff" opacity="0.27"/><circle cx="709.69" cy="337.28" r="1.11" fill="#dbe6ff" opacity="0.15"/><circle cx="777.69" cy="148.25" r="1.16" fill="#dbe6ff" opacity="0.3"/><circle cx="601.1" cy="199.23" r="1.19" fill="#dbe6ff" opacity="0.14"/><circle cx="276.9" cy="21.37" r="1.42" fill="#dbe6ff" opacity="0.38"/><circle cx="92.34" cy="319.83" r="1.1" fill="#dbe6ff" opacity="0.18"/><circle cx="650.01" cy="166.86" r="0.42" fill="#dbe6ff" opacity="0.11"/><circle cx="371.16" cy="257.86" r="1.2" fill="#dbe6ff" opacity="0.35"/><circle cx="757.08" cy="357.67" r="1.05" fill="#dbe6ff" opacity="0.31"/><circle cx="122.62" cy="133.11" r="1.12" fill="#dbe6ff" opacity="0.15"/><circle cx="192.07" cy="229.66" r="1.19" fill="#dbe6ff" opacity="0.43"/><circle cx="220.33" cy="193.25" r="0.57" fill="#dbe6ff" opacity="0.5"/><circle cx="556.37" cy="52.05" r="1.04" fill="#dbe6ff" opacity="0.52"/><circle cx="674.28" cy="14.36" r="1.07" fill="#dbe6ff" opacity="0.17"/><circle cx="387.91" cy="157.3" r="0.67" fill="#dbe6ff" opacity="0.46"/><circle cx="614.9" cy="374.88" r="0.86" fill="#dbe6ff" opacity="0.48"/><circle cx="827.63" cy="143.99" r="0.63" fill="#dbe6ff" opacity="0.3"/><circle cx="778.29" cy="89.31" r="0.95" fill="#dbe6ff" opacity="0.27"/><circle cx="231.6" cy="242.29" r="1.13" fill="#dbe6ff" opacity="0.25"/><circle cx="481.31" cy="404.33" r="1" fill="#dbe6ff" opacity="0.44"/><circle cx="569.71" cy="385.49" r="0.86" fill="#dbe6ff" opacity="0.16"/><circle cx="564.7" cy="304.97" r="0.53" fill="#dbe6ff" opacity="0.3"/><circle cx="606.94" cy="303.39" r="0.6" fill="#dbe6ff" opacity="0.3"/><circle cx="19.63" cy="204.88" r="0.59" fill="#dbe6ff" opacity="0.34"/><circle cx="707.46" cy="317.65" r="0.78" fill="#dbe6ff" opacity="0.16"/><circle cx="401.13" cy="51.2" r="0.64" fill="#dbe6ff" opacity="0.35"/><circle cx="503.17" cy="325.01" r="0.62" fill="#dbe6ff" opacity="0.4"/><circle cx="84.9" cy="65.99" r="1.33" fill="#dbe6ff" opacity="0.54"/><circle cx="664.82" cy="244.1" r="1.43" fill="#dbe6ff" opacity="0.52"/><circle cx="533.98" cy="5.18" r="0.76" fill="#dbe6ff" opacity="0.3"/><circle cx="723.39" cy="164.29" r="0.75" fill="#dbe6ff" opacity="0.52"/><circle cx="702.9" cy="145.02" r="1.48" fill="#dbe6ff" opacity="0.46"/><circle cx="729.81" cy="173.28" r="1.06" fill="#dbe6ff" opacity="0.16"/><circle cx="736.64" cy="140.33" r="0.42" fill="#dbe6ff" opacity="0.11"/><circle cx="242.18" cy="125.98" r="0.72" fill="#dbe6ff" opacity="0.45"/><circle cx="781.37" cy="173.94" r="0.53" fill="#dbe6ff" opacity="0.18"/><circle cx="757.72" cy="273.15" r="0.87" fill="#dbe6ff" opacity="0.49"/><circle cx="588.82" cy="49.21" r="0.49" fill="#dbe6ff" opacity="0.17"/><circle cx="121.04" cy="132.47" r="0.76" fill="#dbe6ff" opacity="0.14"/><circle cx="431.41" cy="245.33" r="0.72" fill="#dbe6ff" opacity="0.18"/><circle cx="333.29" cy="17.3" r="1.37" fill="#dbe6ff" opacity="0.47"/><circle cx="419.53" cy="212.5" r="1.22" fill="#dbe6ff" opacity="0.46"/><circle cx="163.32" cy="154.48" r="1.49" fill="#dbe6ff" opacity="0.22"/><circle cx="216.82" cy="332.49" r="0.4" fill="#dbe6ff" opacity="0.25"/><circle cx="621.12" cy="329.45" r="0.75" fill="#dbe6ff" opacity="0.12"/></g><g opacity="0"><circle cx="415" cy="150" r="26" fill="url(#spark-glow)"/><circle cx="415" cy="150" r="3.2" fill="#ffd27d"/><text x="415" y="212" text-anchor="middle" font-family="Georgia, 'Times New Roman', serif" font-size="38" fill="url(#gilded)" font-weight="bold" letter-spacing="7">THE EPIC OF DOUBLING-DOWN</text><rect x="285" y="232" width="260" height="1" fill="url(#rule-fade)"/><text x="415" y="258" text-anchor="middle" font-family="Georgia, 'Times New Roman', serif" font-size="16" fill="#8b93a7" letter-spacing="4">· est. 2021 ·</text><animate attributeName="opacity" begin="0s" dur="3s" values="0;1;1;0" keyTimes="0;0.12;0.88;1" fill="freeze"/></g><g opacity="0"><ellipse cx="415" cy="186" rx="330" ry="150" fill="url(#nebula)"/><circle cx="415" cy="186" r="70" fill="none" stroke="#ffd27d" stroke-width="0.6" opacity="0"><animate attributeName="r" begin="3.2s" dur="2.6s" values="14;70" fill="freeze"/><animate attributeName="opacity" begin="3.2s" dur="2.6s" values="0.5;0.05" fill="freeze"/></circle><circle cx="415" cy="186" r="105" fill="none" stroke="#9aa8ff" stroke-width="0.5" opacity="0"><animate attributeName="r" begin="3.5s" dur="2.6s" values="20;105" fill="freeze"/><animate attributeName="opacity" begin="3.5s" dur="2.6s" values="0.4;0.05" fill="freeze"/></circle><circle cx="415" cy="186" r="34" fill="url(#spark-glow)"/><circle cx="415" cy="186" r="5" fill="#ffd27d"/><rect x="30" y="352" width="55" height="1" fill="url(#rule-fade)"/><rect x="745" y="352" width="55" height="1" fill="url(#rule-fade)"/><circle cx="95" cy="352.5" r="1.8" fill="#d9b45b" opacity="0.8"/><circle cx="735" cy="352.5" r="1.8" fill="#d9b45b" opacity="0.8"/><text x="415" y="357" text-anchor="middle" font-family="Georgia, 'Times New Roman', serif" font-size="15.5" fill="url(#gilded)" font-style="italic" letter-spacing="0.5">In the year 2023, the developer first set foot upon the public forge, and the epic began.</text><animate attributeName="opacity" begin="3s" dur="3.5s" values="0;1;1;0" keyTimes="0;0.12;0.88;1" fill="freeze"/></g><g opacity="0"><ellipse cx="415" cy="186" rx="330" ry="150" fill="url(#nebula)"/><circle cx="415" cy="186" r="24" fill="url(#spark-glow)"/><circle cx="415" cy="186" r="3" fill="#ffd27d"/><circle cx="415" cy="170" r="2" fill="#ffd27d" opacity="0"><animate attributeName="cx" begin="6.7s" dur="1.1s" values="415;415" fill="freeze"/><animate attributeName="cy" begin="6.7s" dur="1.1s" values="170;120" fill="freeze"/><animate attributeName="opacity" begin="6.7s" dur="1.1s" values="0;0.85" fill="freeze"/></circle><circle cx="426.31" cy="174.69" r="2" fill="#ffd27d" opacity="0"><animate attributeName="cx" begin="6.92s" dur="1.1s" values="426.31;461.67" fill="freeze"/><animate attributeName="cy" begin="6.92s" dur="1.1s" values="174.69;139.33" fill="freeze"/><animate attributeName="opacity" begin="6.92s" dur="1.1s" values="0;0.85" fill="freeze"/></circle><circle cx="431" cy="186" r="2" fill="#ffd27d" opacity="0"><animate attributeName="cx" begin="7.14s" dur="1.1s" values="431;481" fill="freeze"/><animate attributeName="cy" begin="7.14s" dur="1.1s" values="186;186" fill="freeze"/><animate attributeName="opacity" begin="7.14s" dur="1.1s" values="0;0.85" fill="freeze"/></circle><circle cx="426.31" cy="197.31" r="2" fill="#ffd27d" opacity="0"><animate attributeName="cx" begin="7.36s" dur="1.1s" values="426.31;461.67" fill="freeze"/><animate attributeName="cy" begin="7.36s" dur="1.1s" values="197.31;232.67" fill="freeze"/><animate attributeName="opacity" begin="7.36s" dur="1.1s" values="0;0.85" fill="freeze"/></circle><circle cx="415" cy="202" r="2" fill="#ffd27d" opacity="0"><animate attributeName="cx" begin="7.58s" dur="1.1s" values="415;415" fill="freeze"/><animate attributeName="cy" begin="7.58s" dur="1.1s" values="202;252" fill="freeze"/><animate attributeName="opacity" begin="7.58s" dur="1.1s" values="0;0.85" fill="freeze"/></circle><circle cx="403.69" cy="197.31" r="2" fill="#ffd27d" opacity="0"><animate attributeName="cx" begin="7.8s" dur="1.1s" values="403.69;368.33" fill="freeze"/><animate attributeName="cy" begin="7.8s" dur="1.1s" values="197.31;232.67" fill="freeze"/><animate attributeName="opacity" begin="7.8s" dur="1.1s" values="0;0.85" fill="freeze"/></circle><circle cx="399" cy="186" r="2" fill="#ffd27d" opacity="0"><animate attributeName="cx" begin="8.02s" dur="1.1s" values="399;349" fill="freeze"/><animate attributeName="cy" begin="8.02s" dur="1.1s" values="186;186" fill="freeze"/><animate attributeName="opacity" begin="8.02s" dur="1.1s" values="0;0.85" fill="freeze"/></circle><circle cx="403.69" cy="174.69" r="2" fill="#ffd27d" opacity="0"><animate attributeName="cx" begin="8.24s" dur="1.1s" values="403.69;368.33" fill="freeze"/><animate attributeName="cy" begin="8.24s" dur="1.1s" values="174.69;139.33" fill="freeze"/><animate attributeName="opacity" begin="8.24s" dur="1.1s" values="0;0.85" fill="freeze"/></circle><rect x="30" y="352" width="55" height="1" fill="url(#rule-fade)"/><rect x="745" y="352" width="55" height="1" fill="url(#rule-fade)"/><circle cx="95" cy="352.5" r="1.8" fill="#d9b45b" opacity="0.8"/><circle cx="735" cy="352.5" r="1.8" fill="#d9b45b" opacity="0.8"/><text x="415" y="357" text-anchor="middle" font-family="Georgia, 'Times New Roman', serif" font-size="15.5" fill="url(#gilded)" font-style="italic" letter-spacing="0.5">Then came the year of abundance: the labors of 2024 doubled those of the year before.</text><animate attributeName="opacity" begin="6.5s" dur="3.5s" values="0;1;1;0" keyTimes="0;0.12;0.88;1" fill="freeze"/></g><g opacity="0"><text x="415" y="200" text-anchor="middle" font-family="Georgia, 'Times New Roman', serif" font-size="26" fill="url(#gilded)" font-weight="bold" letter-spacing="4">PRESENT DAY</text><rect x="315" y="220" width="200" height="1" fill="url(#rule-fade)"/><text x="415" y="246" text-anchor="middle" font-family="Georgia, 'Times New Roman', serif" font-size="15" fill="#8b93a7" letter-spacing="2">2025-01-15</text><animate attributeName="opacity" begin="10s" dur="3s" values="0;1;1;0" keyTimes="0;0.12;0.88;1" fill="freeze"/></g><g opacity="0"><ellipse cx="415" cy="186" rx="300" ry="135" fill="url(#nebula)" opacity="0.7"/><circle cx="415" cy="186" r="88" fill="none" stroke="#9aa8ff" stroke-width="0.5" opacity="0.14" stroke-dasharray="2 7"><animateTransform attributeName="transform" type="rotate" begin="13s" dur="60s" from="0 415 186" to="360 415 186" repeatCount="indefinite"/></circle><circle cx="415" cy="186" r="30" fill="url(#spark-glow)"/><circle cx="415" cy="186" r="6" fill="#ffd27d"><animate attributeName="r" begin="13s" dur="7s" values="6;9;6" repeatCount="indefinite"/></circle><g><circle cx="503" cy="186" r="2.2" fill="#9ad2ff"/><animateTransform attributeName="transform" type="rotate" begin="13s" dur="14s" from="0 415 186" to="360 415 186" repeatCount="indefinite"/></g><circle cx="778.29" cy="356.59" r="1.4" fill="#dbe6ff" opacity="0.2"><animate attributeName="opacity" begin="13s" dur="5.12s" values="0.2;0.8;0.2" repeatCount="indefinite"/></circle><circle cx="797.12" cy="119.15" r="1.4" fill="#dbe6ff" opacity="0.2"><animate attributeName="opacity" begin="13s" dur="6.24s" values="0.2;0.8;0.2" repeatCount="indefinite"/></circle><circle cx="397.44" cy="135.05" r="1.4" fill="#dbe6ff" opacity="0.2"><animate attributeName="opacity" begin="13s" dur="7.21s" values="0.2;0.8;0.2" repeatCount="indefinite"/></circle><circle cx="753.83" cy="203.98" r="1.4" fill="#dbe6ff" opacity="0.2"><animate attributeName="opacity" begin="13s" dur="5.69s" values="0.2;0.8;0.2" repeatCount="indefinite"/></circle><circle cx="646.21" cy="200.72" r="1.4" fill="#dbe6ff" opacity="0.2"><animate attributeName="opacity" begin="13s" dur="7.36s" values="0.2;0.8;0.2" repeatCount="indefinite"/></circle><circle cx="825.98" cy="135.24" r="1.4" fill="#dbe6ff" opacity="0.2"><animate attributeName="opacity" begin="13s" dur="6.99s" values="0.2;0.8;0.2" repeatCount="indefinite"/></circle><circle cx="333.37" cy="16.11" r="1.4" fill="#dbe6ff" opacity="0.2"><animate attributeName="opacity" begin="13s" dur="7.64s" values="0.2;0.8;0.2" repeatCount="indefinite"/></circle><circle cx="302.54" cy="280.66" r="1.4" fill="#dbe6ff" opacity="0.2"><animate attributeName="opacity" begin="13s" dur="7.05s" values="0.2;0.8;0.2" repeatCount="indefinite"/></circle><text x="415" y="345" text-anchor="middle" font-family="Georgia, 'Times New Roman', serif" font-size="20" fill="url(#gilded)" letter-spacing="1.5">The Epic of doubling-down</text><text x="415" y="391" text-anchor="middle" font-family="Georgia, 'Times New Roman', serif" font-size="13" fill="#8b93a7">✦ forge yours at git-epic.dev</text><animate attributeName="opacity" begin="13s" dur="1.2s" values="0;1" fill="freeze"/></g></svg>