<svg xmlns="http://www.w3.org/2000/svg" width="830" height="415" viewBox="0 0 830 415" role="img"><defs><radialGradient id="nebula" cx="50%" cy="45%" r="65%"><stop offset="0%" stop-color="#2b2a5e" stop-opacity="0.85"/><stop offset="45%" stop-color="#1a1c3f" stop-opacity="0.45"/><stop offset="100%" stop-color="#070b14" stop-opacity="0"/></radialGradient><radialGradient id="spark-glow" cx="50%" cy="50%" r="50%"><stop offset="0%" stop-color="#ffd27d" stop-opacity="0.9"/><stop offset="40%" stop-color="#ffb45e" stop-opacity="0.35"/><stop offset="100%" stop-color="#ffb45e" stop-opacity="0"/></radialGradient><linearGradient id="gilded" x1="0" y1="0" x2="0" y2="1"><stop offset="0%" stop-color="#f7ecd0"/><stop offset="100%" stop-color="#d9b45b"/></linearGradient><linearGradient id="rule-fade" x1="0" y1="0" x2="1" y2="0"><stop offset="0%" stop-color="#d9b45b" stop-opacity="0"/><stop offset="50%" stop-color="#d9b45b" stop-opacity="0.8"/><stop offset="100%" stop-color="#d9b45b" stop-opacity="0"/></linearGradient></defs><rect width="830" height="415" fill="#070b14"/><g><circle cx="2.88" cy="274.87" r="1.06" fill="#dbe6ff" opacity="0.13"/><circle cx="704.36" cy="410.49" r="0.82" fill="#dbe6ff" opacity="0.41"/><circle cx="461.51" cy="37.42" r="1.27" fill="#dbe6ff" opacity="0.22"/><circle cx="467.38" cy="386.21" r="1.3" fill="#dbe6ff" opacity="0.38"/><circle cx="776.84" cy="276.96" r="0.65" fill="#dbe6ff" opacity="0.36"/><circle cx="211.78" cy="243.01" r="0.79" fill="#dbe6ff" opacity="0.13"/><circle cx="52.43" cy="32.83" r="1.18" fill="#dbe6ff" opacity="0.55"/><circle cx="531" cy="6" r="0.72" fill="#dbe6ff" opacity="0.5"/><circle cx="780.58" cy="151.92" r="1.16" fill="#dbe6ff" opacity="0.23"/><circle cx="536.31" cy="266.84" r="1" fill="#dbe6ff" opacity="0.48"/><circle cx="704.66" cy="363.21" r="0.83" fill="#dbe6ff" opacity="0.53"/><circle cx="431.94" cy="272.63" r="1.22" fill="#dbe6ff" opacity="0.3"/><circle cx="669.48" cy="109.13" r="0.79" fill="#dbe6ff" opacity="0.52"/><circle cx="435.26" cy="369.75" r="0.93" fill="#dbe6ff" opacity="0.15"/><circle cx="1.23" cy="400.17" r="1.21" fill="#dbe6ff" opacity="0.14"/><circle cx="330.08" cy="12.45" r="1.18" fill="#dbe6ff" opacity="0.29"/><circle cx="427.74" cy="289.9" r="0.95" fill="#dbe6ff" opacity="0.53"/><circle cx="638.37" cy="302.77" r="0.71" fill="#dbe6ff" opacity="0.24"/><circle cx="236.51" cy="170.85" r="0.5" fill="#dbe6ff" opacity="0.46"/><circle cx="779.88" cy="20.53" r="1.31" fill="#dbe6ff" opacity="0.41"/><circle cx="66.62" cy="174.42" r="1.12" fill="#dbe6ff" opacity="0.35"/><circle cx="174.95" cy="273.81" r="0.83" fill="#dbe6ff" opacity="0.54"/><circle cx="550.24" cy="336.35" r="0.55" fill="#dbe6ff" opacity="0.21"/><circle cx="190.93" cy="37.43" r="0.59" fill="#dbe6ff" opacity="0.46"/><circle cx="293.65" cy="388.41" r="0.46" fill="#dbe6ff" opacity="0.44"/><circle cx="721.98" cy="2.52" r="0.94" fill="#dbe6ff" opacity="0.27"/><circle cx="769.83" cy="20.91" r="0.69" fill="#dbe6ff" opacity="0.42"/><circle cx="82.42" cy="275.21" r="0.87" fill="#dbe6ff" opacity="0.5"/><circle cx="825.05" cy="105.13" r="1.3" fill="#dbe6ff" opacity="0.31"/><circle cx="606.02" cy="27.84" r="0.85" fill="#dbe6ff" opacity="0.51"/><circle cx="670.5" cy="176.48" r="0.5" fill="#dbe6ff" opacity="0.3"/><circle cx="272.75" cy="88.5" r="1.49" fill="#dbe6ff" opacity="0.13"/><circle cx="710.89" cy="390.29" r="0.79" fill="#dbe6ff" opacity="0.1"/><circle cx="441.78" cy="199.63" r="0.52" fill="#dbe6ff" opacity="0.19"/><circle cx="340.05" cy="107.32" r="0.76" fill="#dbe6ff" opacity="0.42"/><circle cx="524.34" cy="162.11" r="1.33" fill="#dbe6ff" opacity="0.21"/><circle cx="601.05" cy="312.75" r="0.91" fill="#dbe6ff" opacity="0.12"/><circle cx="257.42" cy="170.62" r="1.28" fill="#dbe6ff" opacity="0.21"/><circle cx="813.11" cy="226.63" r="1.45" fill="#dbe6ff" opacity="0.27"/><circle cx="668.76" cy="369.49" r="0.98" fill="#dbe6ff" opacity="0.46"/><circle cx="335.59" cy="294.15" r="1.23" fill="#dbe6ff" opacity="0.46"/><circle cx="13.13" cy="313.64" r="1.21" fill="#dbe6ff" opacity="0.55"/><circle cx="226.97" cy="361.9" r="1.35" fill="#dbe6ff" opacity="0.14"/><circle cx="230.16" cy="380.74" r="1.39" fill="#dbe6ff" opacity="0.51"/><circle cx="71.11" cy="183.14" r="1.38" fill="#dbe6ff" opacity="0.22"/><circle cx="690.14" cy="103.96" r="0.96" fill="#dbe6ff" opacity="0.11"/><circle cx="234.47" cy="275.08" r="0.49" fill="#dbe6ff" opacity="0.37"/><circle cx="368.28" cy="342.03" r="1.26" fill="#dbe6ff" opacity="0.55"/><circle cx="789.29" cy="267.9" r="0.76" fill="#dbe6ff" opacity="0.4"/><circle cx="227.65" cy="237.66" r="0.45" fill="#dbe6ff" opacity="0.44"/><circle cx="338.14" cy="62.65" r="0.59" fill="#dbe6ff" opacity="0.47"/><circle cx="104.92" cy="352.78" r="1.09" fill="#dbe6ff" opacity="0.17"/><circle cx="349.01" cy="375.43" r="1.14" fill="#dbe6ff" opacity="0.37"/><circle cx="535.03" cy="413.14" r="1.09" fill="#dbe6ff" opacity="0.36"/><circle cx="300.27" cy="393.24" r="1.06" fill="#dbe6ff" opacity="0.52"/><circle cx="226.77" cy="79.84" r="0.89" fill="#dbe6ff" opacity="0.24"/><circle cx="562.37" cy="405.15" r="0.73" fill="#dbe6ff" opacity="0.33"/><circle cx="660.04" cy="219.33" r="0.49" fill="#dbe6ff" opacity="0.46"/><circle cx="59.44" cy="234.31" r="1.05" fill="#dbe6ff" opacity="0.29"/><circle cx="141.81" cy="82.15" r="0.71" fill="#dbe6ff" opacity="0.25"/><circle cx="316.61" cy="93.64" r="1.3" fill="#dbe6ff" opacity="0.47"/><circle cx="258.41" cy="30.5" r="0.57" fill="#dbe6ff" opacity="0.47"/><circle cx="325.25" cy="124.48" r="1.43" fill="#dbe6ff" opacity="0.11"/><circle cx="454.67" cy="219.17" r="0.7" fill="#dbe6ff" opacity="0.52"/><circle cx="615.61" cy="367.74" r="0.51" fill="#dbe6ff" opacity="0.36"/><circle cx="270.53" cy="102.95" r="0.48" fill="#dbe6ff" opacity="0.28"/><circle cx="44.23" cy="156.97" r="0.52" fill="#dbe6ff" opacity="0.45"/><circle cx="425.34" cy="6.74" r="0.69" fill="#dbe6ff" opacity="0.33"/><circle cx="391.76" cy="228.65" r="0.96" fill="#dbe6ff" opacity="0.43"/><circle cx="535.35" cy="319.67" r="0.72" fill="#dbe6ff" opacity="0.36"/><circle cx="807.31" cy="137.27" r="1.09" fill="#dbe6ff" opacity="0.43"/><circle cx="411.32" cy="58.7" r="0.56" fill="#dbe6ff" opacity="0.53"/><circle cx="774.03" cy="344.96" r="0.87" fill="#dbe6ff" opacity="0.11"/><circle cx="365.46" cy="199.26" r="0.85" fill="#dbe6ff" opacity="0.35"/><circle cx="684.17" cy="167.41" r="0.87" fill="#dbe6ff" opacity="0.53"/><circle cx="133.76" cy="92.03" r="1.12" fill="#dbe6ff" opacity="0.47"/><circle cx="792.67" cy="28.81" r="0.9" fill="#dbe6ff" opacity="0.4"/><circle cx="813.21" cy="60.22" r="0.67" fill="#dbe6ff" opacity="0.43"/><circle cx="167.01" cy="195.3" r="1.31" fill="#dbe6ff" opacity="0.33"/><circle cx="757.15" cy="5.27" r="1.42" fill="#dbe6ff" opacity="0.41"/><circle cx="769.87" cy="8.37" r="1.42" fill="#dbe6ff" opacity="0.27"/><circle cx="653.91" cy="408.72" r="1.26" fill="#dbe6ff" opacity="0.29"/><circle cx="59.18" cy="219.05" r="0.59" fill="#dbe6ff" opacity="0.51"/><circle cx="120.97" cy="216.4" r="0.95" fill="#dbe6ff" opacity="0.3"/><circle cx="634.14" cy="345.23" r="1.31" fill="#dbe6ff" opacity="0.44"/><circle cx="134.84" cy="7.45" r="1.19" fill="#dbe6ff" opacity="0.17"/><circle cx="420.57" cy="54.27" r="1.46" fill="#dbe6ff" opacity="0.22"/><circle cx="290.93" cy="250.38" r="1.49" fill="#dbe6ff" opacity="0.4"/><circle cx="445.46" cy="221.89" r="0.89" fill="#dbe6ff" opacity="0.21"/><circle cx="101.84" cy="337.44" r="0.77" fill="#dbe6ff" opacity="0.2"/><circle cx="86.09" cy="182.49" r="1.37" fill="#dbe6ff" opacity="0.33"/><circle cx="445.04" cy="227.13" r="1.11" fill="#dbe6ff" opacity="0.33"/><circle cx="475.77" cy="336.67" r="0.89" fill="#dbe6ff" opacity="0.28"/><circle cx="287.65" cy="81.6" r="0.58" fill="#dbe6ff" opacity="0.33"/><circle cx="696.33" cy="54.76" r="0.6" fill="#dbe6ff" opacity="0.46"/><circle cx="245.14" cy="30.78" r="1.2" fill="#dbe6ff" opacity="0.36"/><circle cx="274.61" cy="173.72" r="1.1" fill="#dbe6ff" opacity="0.31"/><circle cx="566.18" cy="285.44" r="1.43" fill="#dbe6ff" opacity="0.14"/><circle cx="793.33" cy="414.91" r="1.1" fill="#dbe6ff" opacity="0.5"/><circle cx="389.81" cy="149.97" r="0.55" fill="#dbe6ff" opacity="0.36"/><circle cx="380.54" cy="30.09" r="1.24" fill="#dbe6ff" opacity="0.27"/><circle cx="731.74" cy="338.39" r="1.34" fill="#dbe6ff" opacity="0.4"/><circle cx="371.24" cy="26.15" r="1.13" fill="#dbe6ff" opacity="0.46"/><circle cx="153.37" cy="257.21" r="1.14" fill="#dbe6ff" opacity="0.18"/><circle cx="238.79" cy="178.95" r="0.49" fill="#dbe6ff" opacity="0.3"/><circle cx="352.36" cy="78.55" r="1.11" fill="#dbe6ff" opacity="0.25"/><circle cx="3.86" cy="330.91" r="0.47" fill="#dbe6ff" opacity="0.41"/><circle cx="8.05" cy="265.4" r="0.61" fill="#dbe6ff" opacity="0.23"/><circle cx="22.99" cy="18.11" r="0.66" fill="#dbe6ff" opacity="0.12"/><circle cx="139.59" cy="161.9" r="0.54" fill="#dbe6ff" opacity="0.16"/></g><g opacity="0"><circle cx="415" cy="150" r="26" fill="url(#spark-glow)"/><circle cx="415" cy="150" r="3.2" fill="#ffd27d"/><text x="415" y="212" text-anchor="middle" font-family="Georgia, 'Times New Roman', serif" font-size="38" fill="url(#gilded)" font-weight="bold" letter-spacing="7">THE EPIC OF RENOWN-GATHERER</text><rect x="285" y="232" width="260" height="1" fill="url(#rule-fade)"/><text x="415" y="258" text-anchor="middle" font-family="Georgia, 'Times New Roman', serif" font-size="16" fill="#8b93a7" letter-spacing="4">· est. 2019 ·</text><animate attributeName="opacity" begin="0s" dur="3s" values="0;1;1;0" keyTimes="0;0.12;0.88;1" fill="freeze"/></g><g opacity="0"><ellipse cx="415" cy="186" rx="330" ry="150" fill="url(#nebula)"/><circle cx="415" cy="186" r="70" fill="none" stroke="#ffd27d" stroke-width="0.6" opacity="0"><animate attributeName="r" begin="3.2s" dur="2.6s" values="14;70" fill="freeze"/><animate attributeName="opacity" begin="3.2s" dur="2.6s" values="0.5;0.05" fill="freeze"/></circle><circle cx="415" cy="186" r="105" fill="none" stroke="#9aa8ff" stroke-width="0.5" opacity="0"><animate attributeName="r" begin="3.5s" dur="2.6s" values="20;105" fill="freeze"/><animate attributeName="opacity" begin="3.5s" dur="2.6s" values="0.4;0.05" fill="freeze"/></circle><circle cx="415" cy="186" r="34" fill="url(#spark-glow)"/><circle cx="415" cy="186" r="5" fill="#ffd27d"/><rect x="30" y="352" width="55" height="1" fill="url(#rule-fade)"/><rect x="745" y="352" width="55" height="1" fill="url(#rule-fade)"/><circle cx="95" cy="352.5" r="1.8" fill="#d9b45b" opacity="0.8"/><circle cx="735" cy="352.5" r="1.8" fill="#d9b45b" opacity="0.8"/><text x="415" y="357" text-anchor="middle" font-family="Georgia, 'Times New Roman', serif" font-size="15.5" fill="url(#gilded)" font-style="italic" letter-spacing="0.5">In the year 2019, the developer first set foot upon the public forge, and the epic began.</text><animate attributeName="opacity" begin="3s" dur="3.5s" values="0;1;1;0" keyTimes="0;0.12;0.88;1" fill="freeze"/></g><g opacity="0"><ellipse cx="415" cy="186" rx="330" ry="150" fill="url(#nebula)"/><circle cx="415" cy="186" r="26" fill="url(#spark-glow)"/><circle cx="415" cy="186" r="3.5" fill="#ffd27d"/><circle cx="415" cy="186" r="1.8" fill="#ffd27d" opacity="0"><animate attributeName="cx" begin="6.8s" dur="2s" values="415;511" fill="freeze"/><animate attributeName="cy" begin="6.8s" dur="2s" values="186;186" fill="freeze"/><animate attributeName="opacity" begin="6.8s" dur="2s" values="0.9;0.55" fill="freeze"/></circle><circle cx="415" cy="186" r="1.8" fill="#ffd27d" opacity="0"><animate attributeName="cx" begin="6.8s" dur="2s" values="415;463" fill="freeze"/><animate attributeName="cy" begin="6.8s" dur="2s" values="186;269.14" fill="freeze"/><animate attributeName="opacity" begin="6.8s" dur="2s" values="0.9;0.55" fill="freeze"/></circle><circle cx="415" cy="186" r="1.8" fill="#ffd27d" opacity="0"><animate attributeName="cx" begin="6.8s" dur="2s" values="415;367" fill="freeze"/><animate attributeName="cy" begin="6.8s" dur="2s" values="186;269.14" fill="freeze"/><animate attributeName="opacity" begin="6.8s" dur="2s" values="0.9;0.55" fill="freeze"/></circle><circle cx="415" cy="186" r="1.8" fill="#ffd27d" opacity="0"><animate attributeName="cx" begin="6.8s" dur="2s" values="415;319" fill="freeze"/><animate attributeName="cy" begin="6.8s" dur="2s" values="186;186" fill="freeze"/><animate attributeName="opacity" begin="6.8s" dur="2s" values="0.9;0.55" fill="freeze"/></circle><circle cx="415" cy="186" r="1.8" fill="#ffd27d" opacity="0"><animate attributeName="cx" begin="6.8s" dur="2s" values="415;367" fill="freeze"/><animate attributeName="cy" begin="6.8s" dur="2s" values="186;102.86" fill="freeze"/><animate attributeName="opacity" begin="6.8s" dur="2s" values="0.9;0.55" fill="freeze"/></circle><circle cx="415" cy="186" r="1.8" fill="#ffd27d" opacity="0"><animate attributeName="cx" begin="6.8s" dur="2s" values="415;463" fill="freeze"/><animate attributeName="cy" begin="6.8s" dur="2s" values="186;102.86" fill="freeze"/><animate attributeName="opacity" begin="6.8s" dur="2s" values="0.9;0.55" fill="freeze"/></circle><rect x="30" y="352" width="55" height="1" fill="url(#rule-fade)"/><rect x="745" y="352" width="55" height="1" fill="url(#rule-fade)"/><circle cx="95" cy="352.5" r="1.8" fill="#d9b45b" opacity="0.8"/><circle cx="735" cy="352.5" r="1.8" fill="#d9b45b" opacity="0.8"/><text x="415" y="357" text-anchor="middle" font-family="Georgia, 'Times New Roman', serif" font-size="15.5" fill="url(#gilded)" font-style="italic" letter-spacing="0.5">And renown gathered upon the developer: a hundred stars in all.</text><animate attributeName="opacity" begin="6.5s" dur="3.5s" values="0;1;1;0" keyTimes="0;0.12;0.88;1" fill="freeze"/></g><g opacity="0"><ellipse cx="415" cy="186" rx="330" ry="150" fill="url(#nebula)"/><circle cx="415" cy="186" r="26" fill="url(#spark-glow)"/><circle cx="415" cy="186" r="3.5" fill="#ffd27d"/><circle cx="415" cy="186" r="1.8" fill="#ffd27d" opacity="0"><animate attributeName="cx" begin="10.3s" dur="2s" values="415;511" fill="freeze"/><animate attributeName="cy" begin="10.3s" dur="2s" values="186;186" fill="freeze"/><animate attributeName="opacity" begin="10.3s" dur="2s" values="0.9;0.55" fill="freeze"/></circle><circle cx="415" cy="186" r="1.8" fill="#ffd27d" opacity="0"><animate attributeName="cx" begin="10.3s" dur="2s" values="415;492.67" fill="freeze"/><animate attributeName="cy" begin="10.3s" dur="2s" values="186;242.43" fill="freeze"/><animate attributeName="opacity" begin="10.3s" dur="2s" values="0.9;0.55" fill="freeze"/></circle><circle cx="415" cy="186" r="1.8" fill="#ffd27d" opacity="0"><animate attributeName="cx" begin="10.3s" dur="2s" values="415;444.67" fill="freeze"/><animate attributeName="cy" begin="10.3s" dur="2s" values="186;277.3" fill="freeze"/><animate attributeName="opacity" begin="10.3s" dur="2s" values="0.9;0.55" fill="freeze"/></circle><circle cx="415" cy="186" r="1.8" fill="#ffd27d" opacity="0"><animate attributeName="cx" begin="10.3s" dur="2s" values="415;385.33" fill="freeze"/><animate attributeName="cy" begin="10.3s" dur="2s" values="186;277.3" fill="freeze"/><animate attributeName="opacity" begin="10.3s" dur="2s" values="0.9;0.55" fill="freeze"/></circle><circle cx="415" cy="186" r="1.8" fill="#ffd27d" opacity="0"><animate attributeName="cx" begin="10.3s" dur="2s" values="415;337.33" fill="freeze"/><animate attributeName="cy" begin="10.3s" dur="2s" values="186;242.43" fill="freeze"/><animate attributeName="opacity" begin="10.3s" dur="2s" values="0.9;0.55" fill="freeze"/></circle><circle cx="415" cy="186" r="1.8" fill="#ffd27d" opacity="0"><animate attributeName="cx" begin="10.3s" dur="2s" values="415;319" fill="freeze"/><animate attributeName="cy" begin="10.3s" dur="2s" values="186;186" fill="freeze"/><animate attributeName="opacity" begin="10.3s" dur="2s" values="0.9;0.55" fill="freeze"/></circle><circle cx="415" cy="186" r="1.8" fill="#ffd27d" opacity="0"><animate attributeName="cx" begin="10.3s" dur="2s" values="415;337.33" fill="freeze"/><animate attributeName="cy" begin="10.3s" dur="2s" values="186;129.57" fill="freeze"/><animate attributeName="opacity" begin="10.3s" dur="2s" values="0.9;0.55" fill="freeze"/></circle><circle cx="415" cy="186" r="1.8" fill="#ffd27d" opacity="0"><animate attributeName="cx" begin="10.3s" dur="2s" values="415;385.33" fill="freeze"/><animate attributeName="cy" begin="10.3s" dur="2s" values="186;94.7" fill="freeze"/><animate attributeName="opacity" begin="10.3s" dur="2s" values="0.9;0.55" fill="freeze"/></circle><circle cx="415" cy="186" r="1.8" fill="#ffd27d" opacity="0"><animate attributeName="cx" begin="10.3s" dur="2s" values="415;444.67" fill="freeze"/><animate attributeName="cy" begin="10.3s" dur="2s" values="186;94.7" fill="freeze"/><animate attributeName="opacity" begin="10.3s" dur="2s" values="0.9;0.55" fill="freeze"/></circle><circle cx="415" cy="186" r="1.8" fill="#ffd27d" opacity="0"><animate attributeName="cx" begin="10.3s" dur="2s" values="415;492.67" fill="freeze"/><animate attributeName="cy" begin="10.3s" dur="2s" values="186;129.57" fill="freeze"/><animate attributeName="opacity" begin="10.3s" dur="2s" values="0.9;0.55" fill="freeze"/></circle><rect x="30" y="352" width="55" height="1" fill="url(#rule-fade)"/><rect x="745" y="352" width="55" height="1" fill="url(#rule-fade)"/><circle cx="95" cy="352.5" r="1.8" fill="#d9b45b" opacity="0.8"/><circle cx="735" cy="352.5" r="1.8" fill="#d9b45b" opacity="0.8"/><text x="415" y="357" text-anchor="middle" font-family="Georgia, 'Times New Roman', serif" font-size="15.5" fill="url(#gilded)" font-style="italic" letter-spacing="0.5">And renown gathered upon the developer: a thousand stars in all.</text><animate attributeName="opacity" begin="10s" dur="3.5s" values="0;1;1;0" keyTimes="0;0.12;0.88;1" fill="freeze"/></g><g opacity="0"><text x="415" y="200" text-anchor="middle" font-family="Georgia, 'Times New Roman', serif" font-size="26" fill="url(#gilded)" font-weight="bold" letter-spacing="4">PRESENT DAY</text><rect x="315" y="220" width="200" height="1" fill="url(#rule-fade)"/><text x="415" y="246" text-anchor="middle" font-family="Georgia, 'Times New Roman', serif" font-size="15" fill="#8b93a7" letter-spacing="2">2026-07-04</text><animate attributeName="opacity" begin="13.5s" dur="3s" values="0;1;1;0" keyTimes="0;0.12;0.88;1" fill="freeze"/></g><g opacity="0"><ellipse cx="415" cy="186" rx="300" ry="135" fill="url(#nebula)" opacity="0.7"/><circle cx="415" cy="186" r="88" fill="none" stroke="#9aa8ff" stroke-width="0.5" opacity="0.14" stroke-dasharray="2 7"><animateTransform attributeName="transform" type="rotate" begin="16.5s" dur="60s" from="0 415 186" to="360 415 186" repeatCount="indefinite"/></circle><circle cx="415" cy="186" r="30" fill="url(#spark-glow)"/><circle cx="415" cy="186" r="6" fill="#ffd27d"><animate attributeName="r" begin="16.5s" dur="7s" values="6;9;6" repeatCount="indefinite"/></circle><g><circle cx="503" cy="186" r="2.2" fill="#9ad2ff"/><animateTransform attributeName="transform" type="rotate" begin="16.5s" dur="14s" from="0 415 186" to="360 415 186" repeatCount="indefinite"/></g><circle cx="408.87" cy="157.04" r="1.4" fill="#dbe6ff" opacity="0.2"><animate attributeName="opacity" begin="16.5s" dur="5.6s" values="0.2;0.8;0.2" repeatCount="indefinite"/></circle><circle cx="794.13" cy="189.2" r="1.4" fill="#dbe6ff" opacity="0.2"><animate attributeName="opacity" begin="16.5s" dur="7.68s" values="0.2;0.8;0.2" repeatCount="indefinite"/></circle><circle cx="564.15" cy="193.2" r="1.4" fill="#dbe6ff" opacity="0.2"><animate attributeName="opacity" begin="16.5s" dur="7.01s" values="0.2;0.8;0.2" repeatCount="indefinite"/></circle><circle cx="296.23" cy="175.02" r="1.4" fill="#dbe6ff" opacity="0.2"><animate attributeName="opacity" begin="16.5s" dur="4.39s" values="0.2;0.8;0.2" repeatCount="indefinite"/></circle><circle cx="223.83" cy="403.97" r="1.4" fill="#dbe6ff" opacity="0.2"><animate attributeName="opacity" begin="16.5s" dur="5.98s" values="0.2;0.8;0.2" repeatCount="indefinite"/></circle><circle cx="429.75" cy="82.01" r="1.4" fill="#dbe6ff" opacity="0.2"><animate attributeName="opacity" begin="16.5s" dur="6.7s" values="0.2;0.8;0.2" repeatCount="indefinite"/></circle><circle cx="154.59" cy="250.41" r="1.4" fill="#dbe6ff" opacity="0.2"><animate attributeName="opacity" begin="16.5s" dur="6.56s" values="0.2;0.8;0.2" repeatCount="indefinite"/></circle><circle cx="180.24" cy="233.25" r="1.4" fill="#dbe6ff" opacity="0.2"><animate attributeName="opacity" begin="16.5s" dur="4.17s" values="0.2;0.8;0.2" repeatCount="indefinite"/></circle><text x="415" y="345" text-anchor="middle" font-family="Georgia, 'Times New Roman', serif" font-size="20" fill="url(#gilded)" letter-spacing="1.5">The Epic of renown-gatherer</text><text x="415" y="391" text-anchor="middle" font-family="Georgia, 'Times New Roman', serif" font-size="13" fill="#8b93a7">✦ forge yours at git-epic.dev</text><animate attributeName="opacity" begin="16.5s" dur="1.2s" values="0;1" fill="freeze"/></g></svg>