<svg xmlns="http://www.w3.org/2000/svg" width="830" height="415" viewBox="0 0 830 415" role="img"><defs><radialGradient id="nebula" cx="50%" cy="45%" r="65%"><stop offset="0%" stop-color="#2b2a5e" stop-opacity="0.85"/><stop offset="45%" stop-color="#1a1c3f" stop-opacity="0.45"/><stop offset="100%" stop-color="#070b14" stop-opacity="0"/></radialGradient><radialGradient id="spark-glow" cx="50%" cy="50%" r="50%"><stop offset="0%" stop-color="#ffd27d" stop-opacity="0.9"/><stop offset="40%" stop-color="#ffb45e" stop-opacity="0.35"/><stop offset="100%" stop-color="#ffb45e" stop-opacity="0"/></radialGradient><linearGradient id="gilded" x1="0" y1="0" x2="0" y2="1"><stop offset="0%" stop-color="#f7ecd0"/><stop offset="100%" stop-color="#d9b45b"/></linearGradient><linearGradient id="rule-fade" x1="0" y1="0" x2="1" y2="0"><stop offset="0%" stop-color="#d9b45b" stop-opacity="0"/><stop offset="50%" stop-color="#d9b45b" stop-opacity="0.8"/><stop offset="100%" stop-color="#d9b45b" stop-opacity="0"/></linearGradient></defs><rect width="830" height="415" fill="#070b14"/><g><circle cx="402" cy="146.51" r="0.88" fill="#dbe6ff" opacity="0.32"/><circle cx="490" cy="393.76" r="0.63" fill="#dbe6ff" opacity="0.33"/><circle cx="468.49" cy="319.12" r="0.66" fill="#dbe6ff" opacity="0.41"/><circle cx="346.8" cy="118.02" r="1.17" fill="#dbe6ff" opacity="0.32"/><circle cx="782.35" cy="93.6" r="0.44" fill="#dbe6ff" opacity="0.31"/><circle cx="409.26" cy="238.56" r="0.7" fill="#dbe6ff" opacity="0.29"/><circle cx="395.49" cy="1.42" r="0.49" fill="#dbe6ff" opacity="0.19"/><circle cx="734.26" cy="252.08" r="1.24" fill="#dbe6ff" opacity="0.26"/><circle cx="348.1" cy="138.07" r="1.01" fill="#dbe6ff" opacity="0.46"/><circle cx="143.8" cy="120.31" r="1.2" fill="#dbe6ff" opacity="0.22"/><circle cx="31.14" cy="377.85" r="1.4" fill="#dbe6ff" opacity="0.13"/><circle cx="618.7" cy="186.06" r="0.86" fill="#dbe6ff" opacity="0.15"/><circle cx="796.5" cy="337.73" r="0.81" fill="#dbe6ff" opacity="0.25"/><circle cx="357.6" cy="125.7" r="0.98" fill="#dbe6ff" opacity="0.21"/><circle cx="19.06" cy="107.93" r="0.66" fill="#dbe6ff" opacity="0.53"/><circle cx="122.5" cy="188.27" r="1.03" fill="#dbe6ff" opacity="0.38"/><circle cx="812.71" cy="414.07" r="0.64" fill="#dbe6ff" opacity="0.14"/><circle cx="460.01" cy="141.58" r="0.51" fill="#dbe6ff" opacity="0.25"/><circle cx="698.52" cy="189.26" r="0.89" fill="#dbe6ff" opacity="0.24"/><circle cx="296.11" cy="355.54" r="0.9" fill="#dbe6ff" opacity="0.28"/><circle cx="297.68" cy="344.12" r="0.93" fill="#dbe6ff" opacity="0.33"/><circle cx="432.05" cy="249.93" r="1" fill="#dbe6ff" opacity="0.31"/><circle cx="131.59" cy="282.95" r="1.47" fill="#dbe6ff" opacity="0.37"/><circle cx="528.3" cy="249.02" r="0.9" fill="#dbe6ff" opacity="0.52"/><circle cx="493.04" cy="107.95" r="0.41" fill="#dbe6ff" opacity="0.22"/><circle cx="119.31" cy="359.77" r="1.43" fill="#dbe6ff" opacity="0.51"/><circle cx="50.84" cy="160.55" r="0.66" fill="#dbe6ff" opacity="0.25"/><circle cx="371.04" cy="125.39" r="0.49" fill="#dbe6ff" opacity="0.23"/><circle cx="97.15" cy="228.86" r="0.65" fill="#dbe6ff" opacity="0.47"/><circle cx="50.72" cy="132.15" r="1.24" fill="#dbe6ff" opacity="0.21"/><circle cx="398.05" cy="75.09" r="0.45" fill="#dbe6ff" opacity="0.35"/><circle cx="408.95" cy="310.11" r="1.43" fill="#dbe6ff" opacity="0.36"/><circle cx="365.92" cy="358.09" r="0.44" fill="#dbe6ff" opacity="0.43"/><circle cx="327.53" cy="377.23" r="1.15" fill="#dbe6ff" opacity="0.48"/><circle cx="196.43" cy="349.26" r="0.83" fill="#dbe6ff" opacity="0.35"/><circle cx="497.05" cy="158.31" r="1.36" fill="#dbe6ff" opacity="0.41"/><circle cx="173.08" cy="273.9" r="1.2" fill="#dbe6ff" opacity="0.33"/><circle cx="494.68" cy="346" r="0.84" fill="#dbe6ff" opacity="0.16"/><circle cx="312.91" cy="164.66" r="0.43" fill="#dbe6ff" opacity="0.52"/><circle cx="524.3" cy="403.44" r="0.61" fill="#dbe6ff" opacity="0.32"/><circle cx="733.09" cy="145.93" r="0.56" fill="#dbe6ff" opacity="0.21"/><circle cx="63.97" cy="240.31" r="1.08" fill="#dbe6ff" opacity="0.18"/><circle cx="239.39" cy="190.81" r="0.97" fill="#dbe6ff" opacity="0.24"/><circle cx="409.71" cy="91.19" r="0.47" fill="#dbe6ff" opacity="0.49"/><circle cx="751.23" cy="256.59" r="1.24" fill="#dbe6ff" opacity="0.18"/><circle cx="405.85" cy="9.64" r="1.19" fill="#dbe6ff" opacity="0.15"/><circle cx="230.8" cy="270.34" r="1.4" fill="#dbe6ff" opacity="0.3"/><circle cx="272.43" cy="405.92" r="0.54" fill="#dbe6ff" opacity="0.42"/><circle cx="451.39" cy="148.44" r="1.09" fill="#dbe6ff" opacity="0.32"/><circle cx="132.38" cy="381.08" r="0.61" fill="#dbe6ff" opacity="0.21"/><circle cx="136.29" cy="180.03" r="1.24" fill="#dbe6ff" opacity="0.43"/><circle cx="735.99" cy="234.95" r="1.09" fill="#dbe6ff" opacity="0.32"/><circle cx="617.76" cy="151.76" r="0.55" fill="#dbe6ff" opacity="0.37"/><circle cx="606.52" cy="61.45" r="0.91" fill="#dbe6ff" opacity="0.43"/><circle cx="764.34" cy="211.46" r="0.94" fill="#dbe6ff" opacity="0.2"/><circle cx="70.37" cy="45.57" r="0.96" fill="#dbe6ff" opacity="0.4"/><circle cx="811.28" cy="244.08" r="0.77" fill="#dbe6ff" opacity="0.25"/><circle cx="479.99" cy="107.34" r="0.4" fill="#dbe6ff" opacity="0.32"/><circle cx="181.24" cy="143.75" r="0.67" fill="#dbe6ff" opacity="0.49"/><circle cx="587.21" cy="67.74" r="0.79" fill="#dbe6ff" opacity="0.32"/><circle cx="225.17" cy="377.64" r="0.57" fill="#dbe6ff" opacity="0.43"/><circle cx="250.79" cy="320.75" r="1" fill="#dbe6ff" opacity="0.18"/><circle cx="823.46" cy="67.79" r="1.2" fill="#dbe6ff" opacity="0.36"/><circle cx="597.52" cy="24.74" r="0.67" fill="#dbe6ff" opacity="0.43"/><circle cx="503.46" cy="406.89" r="0.84" fill="#dbe6ff" opacity="0.45"/><circle cx="500.85" cy="180.16" r="0.97" fill="#dbe6ff" opacity="0.19"/><circle cx="810.05" cy="316.22" r="0.44" fill="#dbe6ff" opacity="0.4"/><circle cx="718.21" cy="410.56" r="0.41" fill="#dbe6ff" opacity="0.38"/><circle cx="417.03" cy="176.79" r="0.93" fill="#dbe6ff" opacity="0.42"/><circle cx="468.04" cy="33.22" r="0.77" fill="#dbe6ff" opacity="0.5"/><circle cx="257.38" cy="52.91" r="0.55" fill="#dbe6ff" opacity="0.41"/><circle cx="354.56" cy="349.85" r="1.21" fill="#dbe6ff" opacity="0.48"/><circle cx="228.51" cy="390.94" r="1.38" fill="#dbe6ff" opacity="0.25"/><circle cx="737.98" cy="355.84" r="1.18" fill="#dbe6ff" opacity="0.3"/><circle cx="381.53" cy="107.82" r="0.51" fill="#dbe6ff" opacity="0.26"/><circle cx="671.63" cy="361.04" r="0.89" fill="#dbe6ff" opacity="0.21"/><circle cx="126.38" cy="256.73" r="0.8" fill="#dbe6ff" opacity="0.39"/><circle cx="135.94" cy="202.54" r="0.43" fill="#dbe6ff" opacity="0.26"/><circle cx="99.06" cy="176.25" r="1.24" fill="#dbe6ff" opacity="0.3"/><circle cx="774.51" cy="356.33" r="0.78" fill="#dbe6ff" opacity="0.12"/><circle cx="560.73" cy="250.69" r="1.39" fill="#dbe6ff" opacity="0.3"/><circle cx="262.83" cy="402.73" r="0.69" fill="#dbe6ff" opacity="0.4"/><circle cx="655.34" cy="29.58" r="0.49" fill="#dbe6ff" opacity="0.55"/><circle cx="526.59" cy="209.95" r="0.57" fill="#dbe6ff" opacity="0.39"/><circle cx="355.47" cy="66.98" r="0.88" fill="#dbe6ff" opacity="0.48"/><circle cx="298.92" cy="371.6" r="0.9" fill="#dbe6ff" opacity="0.45"/><circle cx="428.97" cy="150.32" r="0.63" fill="#dbe6ff" opacity="0.13"/><circle cx="220.48" cy="224.94" r="0.45" fill="#dbe6ff" opacity="0.26"/><circle cx="141.86" cy="163.67" r="0.71" fill="#dbe6ff" opacity="0.45"/><circle cx="530.76" cy="205.16" r="0.83" fill="#dbe6ff" opacity="0.43"/><circle cx="415.63" cy="370.31" r="0.75" fill="#dbe6ff" opacity="0.32"/><circle cx="287.59" cy="368.89" r="0.6" fill="#dbe6ff" opacity="0.44"/><circle cx="540.72" cy="263.46" r="1.11" fill="#dbe6ff" opacity="0.33"/><circle cx="221.05" cy="76.39" r="1.03" fill="#dbe6ff" opacity="0.55"/><circle cx="41.12" cy="43.93" r="0.92" fill="#dbe6ff" opacity="0.16"/><circle cx="143.87" cy="386.74" r="1.03" fill="#dbe6ff" opacity="0.2"/><circle cx="102.5" cy="151.74" r="1.04" fill="#dbe6ff" opacity="0.32"/><circle cx="739.84" cy="335.95" r="0.45" fill="#dbe6ff" opacity="0.13"/><circle cx="247.85" cy="326.76" r="1.45" fill="#dbe6ff" opacity="0.2"/><circle cx="253.66" cy="249.56" r="1.11" fill="#dbe6ff" opacity="0.47"/><circle cx="800.13" cy="219.76" r="0.81" fill="#dbe6ff" opacity="0.3"/><circle cx="169.76" cy="391.99" r="1.17" fill="#dbe6ff" opacity="0.3"/><circle cx="324.32" cy="182.57" r="1.04" fill="#dbe6ff" opacity="0.46"/><circle cx="422.34" cy="278.41" r="0.58" fill="#dbe6ff" opacity="0.18"/><circle cx="26.14" cy="60.06" r="0.9" fill="#dbe6ff" opacity="0.51"/><circle cx="255.07" cy="390.24" r="1.19" fill="#dbe6ff" opacity="0.45"/><circle cx="402.22" cy="153.67" r="1.01" fill="#dbe6ff" opacity="0.23"/><circle cx="618.94" cy="95.31" r="0.84" fill="#dbe6ff" opacity="0.37"/><circle cx="500.85" cy="99.29" r="0.65" fill="#dbe6ff" opacity="0.36"/><circle cx="72.18" cy="8.09" r="0.76" fill="#dbe6ff" opacity="0.19"/></g><g opacity="0"><circle cx="415" cy="150" r="26" fill="url(#spark-glow)"/><circle cx="415" cy="150" r="3.2" fill="#ffd27d"/><text x="415" y="212" text-anchor="middle" font-family="Georgia, 'Times New Roman', serif" font-size="38" fill="url(#gilded)" font-weight="bold" letter-spacing="7">THE EPIC OF MOHASARC</text><rect x="285" y="232" width="260" height="1" fill="url(#rule-fade)"/><text x="415" y="258" text-anchor="middle" font-family="Georgia, 'Times New Roman', serif" font-size="16" fill="#8b93a7" letter-spacing="4">· est. 2019 ·</text><animate attributeName="opacity" begin="0s" dur="3s" values="0;1;1;0" keyTimes="0;0.12;0.88;1" fill="freeze"/></g><g opacity="0"><ellipse cx="415" cy="186" rx="330" ry="150" fill="url(#nebula)"/><circle cx="415" cy="186" r="70" fill="none" stroke="#ffd27d" stroke-width="0.6" opacity="0"><animate attributeName="r" begin="3.2s" dur="2.6s" values="14;70" fill="freeze"/><animate attributeName="opacity" begin="3.2s" dur="2.6s" values="0.5;0.05" fill="freeze"/></circle><circle cx="415" cy="186" r="105" fill="none" stroke="#9aa8ff" stroke-width="0.5" opacity="0"><animate attributeName="r" begin="3.5s" dur="2.6s" values="20;105" fill="freeze"/><animate attributeName="opacity" begin="3.5s" dur="2.6s" values="0.4;0.05" fill="freeze"/></circle><circle cx="415" cy="186" r="34" fill="url(#spark-glow)"/><circle cx="415" cy="186" r="5" fill="#ffd27d"/><rect x="30" y="352" width="55" height="1" fill="url(#rule-fade)"/><rect x="745" y="352" width="55" height="1" fill="url(#rule-fade)"/><circle cx="95" cy="352.5" r="1.8" fill="#d9b45b" opacity="0.8"/><circle cx="735" cy="352.5" r="1.8" fill="#d9b45b" opacity="0.8"/><text x="415" y="357" text-anchor="middle" font-family="Georgia, 'Times New Roman', serif" font-size="15.5" fill="url(#gilded)" font-style="italic" letter-spacing="0.5">In the year 2019, the developer first set foot upon the public forge, and the epic began.</text><animate attributeName="opacity" begin="3s" dur="3.5s" values="0;1;1;0" keyTimes="0;0.12;0.88;1" fill="freeze"/></g><g opacity="0"><ellipse cx="415" cy="186" rx="330" ry="150" fill="url(#nebula)"/><circle cx="415" cy="186" r="22" fill="url(#spark-glow)"/><circle cx="357" cy="186" r="4.5" fill="#9aa8ff" opacity="0.9"><animate attributeName="opacity" begin="6.8s" dur="2.2s" values="0.9;0.15" fill="freeze"/></circle><g><circle cx="473" cy="203" r="4.5" fill="#9ad2ff" opacity="0.15"><animate attributeName="opacity" begin="6.8s" dur="2.2s" values="0.15;0.9" fill="freeze"/></circle><animateTransform attributeName="transform" type="translate" begin="6.8s" dur="2.2s" from="0 0" to="0 -34" fill="freeze"/></g><rect x="30" y="352" width="55" height="1" fill="url(#rule-fade)"/><rect x="745" y="352" width="55" height="1" fill="url(#rule-fade)"/><circle cx="95" cy="352.5" r="1.8" fill="#d9b45b" opacity="0.8"/><circle cx="735" cy="352.5" r="1.8" fill="#d9b45b" opacity="0.8"/><text x="415" y="357" text-anchor="middle" font-family="Georgia, 'Times New Roman', serif" font-size="15.5" fill="url(#gilded)" font-style="italic" letter-spacing="0.5">In the year 2020, the developer forsook C++, and there was much refactoring.</text><animate attributeName="opacity" begin="6.5s" dur="3.5s" values="0;1;1;0" keyTimes="0;0.12;0.88;1" fill="freeze"/></g><g opacity="0"><ellipse cx="415" cy="186" rx="330" ry="150" fill="url(#nebula)"/><circle cx="415" cy="186" r="22" fill="url(#spark-glow)"/><circle cx="357" cy="186" r="4.5" fill="#9aa8ff" opacity="0.9"><animate attributeName="opacity" begin="10.3s" dur="2.2s" values="0.9;0.15" fill="freeze"/></circle><g><circle cx="473" cy="203" r="4.5" fill="#9ad2ff" opacity="0.15"><animate attributeName="opacity" begin="10.3s" dur="2.2s" values="0.15;0.9" fill="freeze"/></circle><animateTransform attributeName="transform" type="translate" begin="10.3s" dur="2.2s" from="0 0" to="0 -34" fill="freeze"/></g><rect x="30" y="352" width="55" height="1" fill="url(#rule-fade)"/><rect x="745" y="352" width="55" height="1" fill="url(#rule-fade)"/><circle cx="95" cy="352.5" r="1.8" fill="#d9b45b" opacity="0.8"/><circle cx="735" cy="352.5" r="1.8" fill="#d9b45b" opacity="0.8"/><text x="415" y="357" text-anchor="middle" font-family="Georgia, 'Times New Roman', serif" font-size="15.5" fill="url(#gilded)" font-style="italic" letter-spacing="0.5">In the year 2023, the developer forsook JavaScript, and there was much refactoring.</text><animate attributeName="opacity" begin="10s" dur="3.5s" values="0;1;1;0" keyTimes="0;0.12;0.88;1" fill="freeze"/></g><g opacity="0"><ellipse cx="415" cy="186" rx="330" ry="150" fill="url(#nebula)"/><circle cx="415" cy="186" r="22" fill="url(#spark-glow)"/><circle cx="357" cy="186" r="4.5" fill="#9aa8ff" opacity="0.9"><animate attributeName="opacity" begin="13.8s" dur="2.2s" values="0.9;0.15" fill="freeze"/></circle><g><circle cx="473" cy="203" r="4.5" fill="#9ad2ff" opacity="0.15"><animate attributeName="opacity" begin="13.8s" dur="2.2s" values="0.15;0.9" fill="freeze"/></circle><animateTransform attributeName="transform" type="translate" begin="13.8s" dur="2.2s" from="0 0" to="0 -34" fill="freeze"/></g><rect x="30" y="352" width="55" height="1" fill="url(#rule-fade)"/><rect x="745" y="352" width="55" height="1" fill="url(#rule-fade)"/><circle cx="95" cy="352.5" r="1.8" fill="#d9b45b" opacity="0.8"/><circle cx="735" cy="352.5" r="1.8" fill="#d9b45b" opacity="0.8"/><text x="415" y="357" text-anchor="middle" font-family="Georgia, 'Times New Roman', serif" font-size="15.5" fill="url(#gilded)" font-style="italic" letter-spacing="0.5">In the year 2024, the developer forsook TypeScript, and there was much refactoring.</text><animate attributeName="opacity" begin="13.5s" dur="3.5s" values="0;1;1;0" keyTimes="0;0.12;0.88;1" fill="freeze"/></g><g opacity="0"><ellipse cx="415" cy="186" rx="330" ry="150" fill="url(#nebula)"/><circle cx="415" cy="186" r="22" fill="url(#spark-glow)"/><circle cx="357" cy="186" r="4.5" fill="#9aa8ff" opacity="0.9"><animate attributeName="opacity" begin="17.3s" dur="2.2s" values="0.9;0.15" fill="freeze"/></circle><g><circle cx="473" cy="203" r="4.5" fill="#9ad2ff" opacity="0.15"><animate attributeName="opacity" begin="17.3s" dur="2.2s" values="0.15;0.9" fill="freeze"/></circle><animateTransform attributeName="transform" type="translate" begin="17.3s" dur="2.2s" from="0 0" to="0 -34" fill="freeze"/></g><rect x="30" y="352" width="55" height="1" fill="url(#rule-fade)"/><rect x="745" y="352" width="55" height="1" fill="url(#rule-fade)"/><circle cx="95" cy="352.5" r="1.8" fill="#d9b45b" opacity="0.8"/><circle cx="735" cy="352.5" r="1.8" fill="#d9b45b" opacity="0.8"/><text x="415" y="357" text-anchor="middle" font-family="Georgia, 'Times New Roman', serif" font-size="15.5" fill="url(#gilded)" font-style="italic" letter-spacing="0.5">In the year 2026, the developer forsook Python, and there was much refactoring.</text><animate attributeName="opacity" begin="17s" dur="3.5s" values="0;1;1;0" keyTimes="0;0.12;0.88;1" fill="freeze"/></g><g opacity="0"><ellipse cx="415" cy="186" rx="330" ry="150" fill="url(#nebula)"/><g><circle cx="182.14" cy="219.87" r="2" fill="#ffb45e" opacity="0.6"/><circle cx="169.27" cy="221.74" r="1.6" fill="#ffb45e" opacity="0.45"/><circle cx="156.41" cy="223.61" r="1.2" fill="#ffb45e" opacity="0.3"/><circle cx="143.54" cy="225.48" r="0.8" fill="#ffb45e" opacity="0.15"/><circle cx="195" cy="218" r="16" fill="url(#spark-glow)"/><circle cx="195" cy="218" r="3.5" fill="#ffd27d"/><animateTransform attributeName="transform" type="translate" begin="20.7s" dur="2.5s" from="0 0" to="440 -64" fill="freeze"/></g><rect x="30" y="352" width="55" height="1" fill="url(#rule-fade)"/><rect x="745" y="352" width="55" height="1" fill="url(#rule-fade)"/><circle cx="95" cy="352.5" r="1.8" fill="#d9b45b" opacity="0.8"/><circle cx="735" cy="352.5" r="1.8" fill="#d9b45b" opacity="0.8"/><text x="415" y="357" text-anchor="middle" font-family="Georgia, 'Times New Roman', serif" font-size="15.5" fill="url(#gilded)" font-style="italic" letter-spacing="0.5">Then began the relentless campaign: thirty-six days of unbroken toil.</text><animate attributeName="opacity" begin="20.5s" dur="3.5s" values="0;1;1;0" keyTimes="0;0.12;0.88;1" fill="freeze"/></g><g opacity="0"><text x="415" y="200" text-anchor="middle" font-family="Georgia, 'Times New Roman', serif" font-size="26" fill="url(#gilded)" font-weight="bold" letter-spacing="4">PRESENT DAY</text><rect x="315" y="220" width="200" height="1" fill="url(#rule-fade)"/><text x="415" y="246" text-anchor="middle" font-family="Georgia, 'Times New Roman', serif" font-size="15" fill="#8b93a7" letter-spacing="2">2026-07-05</text><animate attributeName="opacity" begin="24s" dur="3s" values="0;1;1;0" keyTimes="0;0.12;0.88;1" fill="freeze"/></g><g opacity="0"><ellipse cx="415" cy="186" rx="300" ry="135" fill="url(#nebula)" opacity="0.7"/><circle cx="415" cy="186" r="88" fill="none" stroke="#9aa8ff" stroke-width="0.5" opacity="0.14" stroke-dasharray="2 7"><animateTransform attributeName="transform" type="rotate" begin="27s" dur="60s" from="0 415 186" to="360 415 186" repeatCount="indefinite"/></circle><circle cx="415" cy="186" r="30" fill="url(#spark-glow)"/><circle cx="415" cy="186" r="6" fill="#ffd27d"><animate attributeName="r" begin="27s" dur="7s" values="6;9;6" repeatCount="indefinite"/></circle><g><circle cx="503" cy="186" r="2.2" fill="#9ad2ff"/><animateTransform attributeName="transform" type="rotate" begin="27s" dur="14s" from="0 415 186" to="360 415 186" repeatCount="indefinite"/></g><g><circle cx="490" cy="186" r="2.2" fill="#9aa8ff"/><animateTransform attributeName="transform" type="rotate" begin="27s" dur="18s" from="72 415 186" to="432 415 186" repeatCount="indefinite"/></g><g><circle cx="477" cy="186" r="2.2" fill="#9ad2ff"/><animateTransform attributeName="transform" type="rotate" begin="27s" dur="22s" from="144 415 186" to="504 415 186" repeatCount="indefinite"/></g><g><circle cx="464" cy="186" r="2.2" fill="#9aa8ff"/><animateTransform attributeName="transform" type="rotate" begin="27s" dur="26s" from="216 415 186" to="576 415 186" repeatCount="indefinite"/></g><g><circle cx="451" cy="186" r="2.2" fill="#9ad2ff"/><animateTransform attributeName="transform" type="rotate" begin="27s" dur="30s" from="288 415 186" to="648 415 186" repeatCount="indefinite"/></g><circle cx="633.74" cy="173.11" r="1.4" fill="#dbe6ff" opacity="0.2"><animate attributeName="opacity" begin="27s" dur="4.38s" values="0.2;0.8;0.2" repeatCount="indefinite"/></circle><circle cx="406.54" cy="315.79" r="1.4" fill="#dbe6ff" opacity="0.2"><animate attributeName="opacity" begin="27s" dur="4.18s" values="0.2;0.8;0.2" repeatCount="indefinite"/></circle><circle cx="47.08" cy="371.04" r="1.4" fill="#dbe6ff" opacity="0.2"><animate attributeName="opacity" begin="27s" dur="5.65s" values="0.2;0.8;0.2" repeatCount="indefinite"/></circle><circle cx="325.04" cy="128.98" r="1.4" fill="#dbe6ff" opacity="0.2"><animate attributeName="opacity" begin="27s" dur="4.73s" values="0.2;0.8;0.2" repeatCount="indefinite"/></circle><circle cx="661.85" cy="24.35" r="1.4" fill="#dbe6ff" opacity="0.2"><animate attributeName="opacity" begin="27s" dur="6.74s" values="0.2;0.8;0.2" repeatCount="indefinite"/></circle><circle cx="713.06" cy="206.68" r="1.4" fill="#dbe6ff" opacity="0.2"><animate attributeName="opacity" begin="27s" dur="5.03s" values="0.2;0.8;0.2" repeatCount="indefinite"/></circle><circle cx="570.45" cy="302.55" r="1.4" fill="#dbe6ff" opacity="0.2"><animate attributeName="opacity" begin="27s" dur="5.14s" values="0.2;0.8;0.2" repeatCount="indefinite"/></circle><circle cx="556.64" cy="33.65" r="1.4" fill="#dbe6ff" opacity="0.2"><animate attributeName="opacity" begin="27s" dur="7.65s" values="0.2;0.8;0.2" repeatCount="indefinite"/></circle><circle cx="422.87" cy="189.74" r="1.4" fill="#dbe6ff" opacity="0.2"><animate attributeName="opacity" begin="27s" dur="5.58s" values="0.2;0.8;0.2" repeatCount="indefinite"/></circle><circle cx="481.02" cy="172.21" r="1.4" fill="#dbe6ff" opacity="0.2"><animate attributeName="opacity" begin="27s" dur="5.08s" values="0.2;0.8;0.2" repeatCount="indefinite"/></circle><text x="415" y="345" text-anchor="middle" font-family="Georgia, 'Times New Roman', serif" font-size="20" fill="url(#gilded)" letter-spacing="1.5">The Epic of mohasarc</text><text x="415" y="391" text-anchor="middle" font-family="Georgia, 'Times New Roman', serif" font-size="13" fill="#8b93a7">✦ forge yours at git-epic.dev</text><animate attributeName="opacity" begin="27s" dur="1.2s" values="0;1" fill="freeze"/></g></svg>