<svg xmlns="http://www.w3.org/2000/svg" width="830" height="415" viewBox="0 0 830 415" role="img"><defs><radialGradient id="nebula" cx="50%" cy="45%" r="65%"><stop offset="0%" stop-color="#2b2a5e" stop-opacity="0.85"/><stop offset="45%" stop-color="#1a1c3f" stop-opacity="0.45"/><stop offset="100%" stop-color="#070b14" stop-opacity="0"/></radialGradient><radialGradient id="spark-glow" cx="50%" cy="50%" r="50%"><stop offset="0%" stop-color="#ffd27d" stop-opacity="0.9"/><stop offset="40%" stop-color="#ffb45e" stop-opacity="0.35"/><stop offset="100%" stop-color="#ffb45e" stop-opacity="0"/></radialGradient><linearGradient id="gilded" x1="0" y1="0" x2="0" y2="1"><stop offset="0%" stop-color="#f7ecd0"/><stop offset="100%" stop-color="#d9b45b"/></linearGradient><linearGradient id="rule-fade" x1="0" y1="0" x2="1" y2="0"><stop offset="0%" stop-color="#d9b45b" stop-opacity="0"/><stop offset="50%" stop-color="#d9b45b" stop-opacity="0.8"/><stop offset="100%" stop-color="#d9b45b" stop-opacity="0"/></linearGradient></defs><rect width="830" height="415" fill="#070b14"/><g><circle cx="475.25" cy="173.38" r="0.62" fill="#dbe6ff" opacity="0.29"/><circle cx="353" cy="358.85" r="0.99" fill="#dbe6ff" opacity="0.11"/><circle cx="322.76" cy="376.79" r="1.06" fill="#dbe6ff" opacity="0.19"/><circle cx="368.34" cy="138.84" r="1.14" fill="#dbe6ff" opacity="0.31"/><circle cx="671.1" cy="20.71" r="1.36" fill="#dbe6ff" opacity="0.1"/><circle cx="432.04" cy="185.46" r="0.51" fill="#dbe6ff" opacity="0.4"/><circle cx="314.83" cy="136.01" r="1.45" fill="#dbe6ff" opacity="0.52"/><circle cx="531.82" cy="358.88" r="0.59" fill="#dbe6ff" opacity="0.5"/><circle cx="434.77" cy="78.09" r="0.54" fill="#dbe6ff" opacity="0.4"/><circle cx="734.11" cy="213.28" r="0.96" fill="#dbe6ff" opacity="0.4"/><circle cx="707.8" cy="5.44" r="1.33" fill="#dbe6ff" opacity="0.3"/><circle cx="13.87" cy="246.04" r="0.62" fill="#dbe6ff" opacity="0.54"/><circle cx="422.77" cy="232.06" r="0.91" fill="#dbe6ff" opacity="0.49"/><circle cx="640.96" cy="264.93" r="1.16" fill="#dbe6ff" opacity="0.43"/><circle cx="316.38" cy="179.06" r="0.99" fill="#dbe6ff" opacity="0.41"/><circle cx="56.58" cy="15.38" r="1.12" fill="#dbe6ff" opacity="0.5"/><circle cx="186.48" cy="179.69" r="0.54" fill="#dbe6ff" opacity="0.34"/><circle cx="31.51" cy="108.36" r="1.18" fill="#dbe6ff" opacity="0.49"/><circle cx="457.2" cy="298.04" r="1.1" fill="#dbe6ff" opacity="0.41"/><circle cx="621.75" cy="181.72" r="1.46" fill="#dbe6ff" opacity="0.43"/><circle cx="244.51" cy="108.88" r="0.93" fill="#dbe6ff" opacity="0.39"/><circle cx="370.9" cy="128" r="0.55" fill="#dbe6ff" opacity="0.51"/><circle cx="371.21" cy="339.63" r="0.93" fill="#dbe6ff" opacity="0.22"/><circle cx="107.06" cy="158.09" r="1.05" fill="#dbe6ff" opacity="0.43"/><circle cx="369.76" cy="261.11" r="0.47" fill="#dbe6ff" opacity="0.54"/><circle cx="89.03" cy="194.63" r="0.82" fill="#dbe6ff" opacity="0.32"/><circle cx="78.6" cy="250" r="0.92" fill="#dbe6ff" opacity="0.42"/><circle cx="531.82" cy="401.1" r="0.43" fill="#dbe6ff" opacity="0.27"/><circle cx="547.57" cy="252.01" r="0.76" fill="#dbe6ff" opacity="0.39"/><circle cx="396.18" cy="101.32" r="1.41" fill="#dbe6ff" opacity="0.43"/><circle cx="520.72" cy="385.56" r="0.43" fill="#dbe6ff" opacity="0.28"/><circle cx="768.99" cy="248.43" r="1.3" fill="#dbe6ff" opacity="0.3"/><circle cx="642" cy="234.37" r="1.27" fill="#dbe6ff" opacity="0.11"/><circle cx="693.23" cy="100.09" r="1.05" fill="#dbe6ff" opacity="0.27"/><circle cx="671.7" cy="68.85" r="0.71" fill="#dbe6ff" opacity="0.23"/><circle cx="30.88" cy="212" r="0.77" fill="#dbe6ff" opacity="0.34"/><circle cx="457.46" cy="21.5" r="1" fill="#dbe6ff" opacity="0.54"/><circle cx="12.18" cy="321.37" r="1.28" fill="#dbe6ff" opacity="0.49"/><circle cx="774.79" cy="386.15" r="1.24" fill="#dbe6ff" opacity="0.34"/><circle cx="326.1" cy="279.59" r="1.09" fill="#dbe6ff" opacity="0.15"/><circle cx="350.04" cy="236.64" r="0.95" fill="#dbe6ff" opacity="0.2"/><circle cx="681.38" cy="307.65" r="0.95" fill="#dbe6ff" opacity="0.53"/><circle cx="350.82" cy="308.18" r="1.39" fill="#dbe6ff" opacity="0.49"/><circle cx="557.25" cy="58.21" r="1.07" fill="#dbe6ff" opacity="0.4"/><circle cx="377.09" cy="125.05" r="1.41" fill="#dbe6ff" opacity="0.43"/><circle cx="532.13" cy="17.63" r="1.37" fill="#dbe6ff" opacity="0.44"/><circle cx="807.9" cy="373.37" r="0.95" fill="#dbe6ff" opacity="0.55"/><circle cx="77.7" cy="158.7" r="1.47" fill="#dbe6ff" opacity="0.19"/><circle cx="820.26" cy="24.69" r="0.88" fill="#dbe6ff" opacity="0.49"/><circle cx="695.78" cy="408.91" r="1.39" fill="#dbe6ff" opacity="0.11"/><circle cx="475.86" cy="413.9" r="0.48" fill="#dbe6ff" opacity="0.13"/><circle cx="427.14" cy="199.55" r="0.63" fill="#dbe6ff" opacity="0.46"/><circle cx="489.19" cy="319.33" r="0.83" fill="#dbe6ff" opacity="0.4"/><circle cx="641.31" cy="263.09" r="0.54" fill="#dbe6ff" opacity="0.44"/><circle cx="629.72" cy="80.6" r="0.9" fill="#dbe6ff" opacity="0.27"/><circle cx="298.15" cy="88.7" r="0.78" fill="#dbe6ff" opacity="0.55"/><circle cx="55.83" cy="293.28" r="1.42" fill="#dbe6ff" opacity="0.25"/><circle cx="617.32" cy="35.13" r="1.09" fill="#dbe6ff" opacity="0.51"/><circle cx="749.77" cy="265.37" r="0.7" fill="#dbe6ff" opacity="0.49"/><circle cx="541.44" cy="71.77" r="1.47" fill="#dbe6ff" opacity="0.26"/><circle cx="332.63" cy="264.18" r="1.09" fill="#dbe6ff" opacity="0.19"/><circle cx="675.76" cy="265.37" r="1.02" fill="#dbe6ff" opacity="0.52"/><circle cx="624.46" cy="251.07" r="0.89" fill="#dbe6ff" opacity="0.48"/><circle cx="227.46" cy="404.3" r="0.97" fill="#dbe6ff" opacity="0.38"/><circle cx="627.74" cy="343.22" r="1.39" fill="#dbe6ff" opacity="0.35"/><circle cx="554.78" cy="180.5" r="1.41" fill="#dbe6ff" opacity="0.49"/><circle cx="361.27" cy="108.13" r="1.42" fill="#dbe6ff" opacity="0.29"/><circle cx="299.23" cy="275.47" r="0.54" fill="#dbe6ff" opacity="0.49"/><circle cx="244.91" cy="54.86" r="1.38" fill="#dbe6ff" opacity="0.51"/><circle cx="187.17" cy="323.7" r="1.01" fill="#dbe6ff" opacity="0.5"/><circle cx="32.36" cy="175.44" r="0.96" fill="#dbe6ff" opacity="0.17"/><circle cx="763.81" cy="28.79" r="1.27" fill="#dbe6ff" opacity="0.41"/><circle cx="368.22" cy="116.18" r="1.44" fill="#dbe6ff" opacity="0.33"/><circle cx="603.29" cy="226.38" r="1.13" fill="#dbe6ff" opacity="0.32"/><circle cx="117.9" cy="284.08" r="0.89" fill="#dbe6ff" opacity="0.35"/><circle cx="440.21" cy="312.18" r="0.41" fill="#dbe6ff" opacity="0.45"/><circle cx="56.08" cy="275.51" r="0.8" fill="#dbe6ff" opacity="0.49"/><circle cx="313.55" cy="347.73" r="1.05" fill="#dbe6ff" opacity="0.45"/><circle cx="250.38" cy="330.91" r="0.77" fill="#dbe6ff" opacity="0.46"/><circle cx="738.25" cy="388.47" r="1.3" fill="#dbe6ff" opacity="0.26"/><circle cx="416.72" cy="71.59" r="1.37" fill="#dbe6ff" opacity="0.4"/><circle cx="811.29" cy="137.74" r="1.05" fill="#dbe6ff" opacity="0.22"/><circle cx="355.24" cy="311.69" r="1.03" fill="#dbe6ff" opacity="0.24"/><circle cx="345.08" cy="90.54" r="0.7" fill="#dbe6ff" opacity="0.54"/><circle cx="544.98" cy="236.52" r="0.93" fill="#dbe6ff" opacity="0.45"/><circle cx="786.49" cy="151.09" r="0.78" fill="#dbe6ff" opacity="0.17"/><circle cx="405.58" cy="211.79" r="0.78" fill="#dbe6ff" opacity="0.14"/><circle cx="217.93" cy="189.71" r="1.26" fill="#dbe6ff" opacity="0.41"/><circle cx="326.07" cy="225.72" r="0.86" fill="#dbe6ff" opacity="0.14"/><circle cx="611.2" cy="122.48" r="0.85" fill="#dbe6ff" opacity="0.14"/><circle cx="233.54" cy="100.54" r="1.01" fill="#dbe6ff" opacity="0.16"/><circle cx="342" cy="135.45" r="0.73" fill="#dbe6ff" opacity="0.46"/><circle cx="797.25" cy="224.22" r="0.97" fill="#dbe6ff" opacity="0.49"/><circle cx="483.98" cy="283.16" r="0.5" fill="#dbe6ff" opacity="0.31"/><circle cx="203.63" cy="19.07" r="1.33" fill="#dbe6ff" opacity="0.35"/><circle cx="782.6" cy="341.81" r="1.45" fill="#dbe6ff" opacity="0.54"/><circle cx="22.91" cy="213.98" r="1.08" fill="#dbe6ff" opacity="0.25"/><circle cx="502.76" cy="380.3" r="0.59" fill="#dbe6ff" opacity="0.12"/><circle cx="601.87" cy="17.01" r="1.41" fill="#dbe6ff" opacity="0.52"/><circle cx="631.33" cy="140.95" r="0.88" fill="#dbe6ff" opacity="0.48"/><circle cx="664.6" cy="259.72" r="0.94" fill="#dbe6ff" opacity="0.22"/><circle cx="107.82" cy="204.53" r="1.22" fill="#dbe6ff" opacity="0.44"/><circle cx="750.61" cy="231.36" r="1.38" fill="#dbe6ff" opacity="0.34"/><circle cx="611.92" cy="360.38" r="1.34" fill="#dbe6ff" opacity="0.22"/><circle cx="366.26" cy="228.49" r="1.4" fill="#dbe6ff" opacity="0.18"/><circle cx="761.35" cy="413.57" r="0.67" fill="#dbe6ff" opacity="0.4"/><circle cx="400.33" cy="79.43" r="1.37" fill="#dbe6ff" opacity="0.41"/><circle cx="216.99" cy="183.26" r="0.64" fill="#dbe6ff" opacity="0.15"/><circle cx="772.22" cy="199.31" r="1.05" fill="#dbe6ff" opacity="0.4"/><circle cx="251.15" cy="386.9" r="1.11" fill="#dbe6ff" opacity="0.31"/></g><g opacity="0"><circle cx="415" cy="150" r="26" fill="url(#spark-glow)"/><circle cx="415" cy="150" r="3.2" fill="#ffd27d"/><text x="415" y="212" text-anchor="middle" font-family="Georgia, 'Times New Roman', serif" font-size="38" fill="url(#gilded)" font-weight="bold" letter-spacing="7">THE EPIC OF SILENT-SCRIBE</text><rect x="285" y="232" width="260" height="1" fill="url(#rule-fade)"/><text x="415" y="258" text-anchor="middle" font-family="Georgia, 'Times New Roman', serif" font-size="16" fill="#8b93a7" letter-spacing="4">· est. 2018 ·</text><animate attributeName="opacity" begin="0s" dur="3s" values="0;1;1;0" keyTimes="0;0.12;0.88;1" fill="freeze"/></g><g opacity="0"><ellipse cx="415" cy="186" rx="330" ry="150" fill="url(#nebula)"/><circle cx="415" cy="186" r="70" fill="none" stroke="#ffd27d" stroke-width="0.6" opacity="0"><animate attributeName="r" begin="3.2s" dur="2.6s" values="14;70" fill="freeze"/><animate attributeName="opacity" begin="3.2s" dur="2.6s" values="0.5;0.05" fill="freeze"/></circle><circle cx="415" cy="186" r="105" fill="none" stroke="#9aa8ff" stroke-width="0.5" opacity="0"><animate attributeName="r" begin="3.5s" dur="2.6s" values="20;105" fill="freeze"/><animate attributeName="opacity" begin="3.5s" dur="2.6s" values="0.4;0.05" fill="freeze"/></circle><circle cx="415" cy="186" r="34" fill="url(#spark-glow)"/><circle cx="415" cy="186" r="5" fill="#ffd27d"/><rect x="30" y="352" width="55" height="1" fill="url(#rule-fade)"/><rect x="745" y="352" width="55" height="1" fill="url(#rule-fade)"/><circle cx="95" cy="352.5" r="1.8" fill="#d9b45b" opacity="0.8"/><circle cx="735" cy="352.5" r="1.8" fill="#d9b45b" opacity="0.8"/><text x="415" y="357" text-anchor="middle" font-family="Georgia, 'Times New Roman', serif" font-size="15.5" fill="url(#gilded)" font-style="italic" letter-spacing="0.5">In the year 2019, the developer first set foot upon the public forge, and the epic began.</text><animate attributeName="opacity" begin="3s" dur="3.5s" values="0;1;1;0" keyTimes="0;0.12;0.88;1" fill="freeze"/></g><g opacity="0"><ellipse cx="415" cy="186" rx="330" ry="150" fill="url(#nebula)"/><rect width="830" height="415" fill="#070b14" opacity="0.55"/><circle cx="415" cy="186" r="92" fill="none" stroke="#9aa8ff" stroke-width="0.5" opacity="0"><animate attributeName="r" begin="6.8s" dur="2.6s" values="18;92" fill="freeze"/><animate attributeName="opacity" begin="6.8s" dur="2.6s" values="0.3;0.05" fill="freeze"/></circle><circle cx="415" cy="186" r="2.5" fill="#9aa8ff" opacity="0.8"><animate attributeName="opacity" begin="6.8s" dur="2.4s" values="0.8;0.35" fill="freeze"/></circle><rect x="30" y="352" width="55" height="1" fill="url(#rule-fade)"/><rect x="745" y="352" width="55" height="1" fill="url(#rule-fade)"/><circle cx="95" cy="352.5" r="1.8" fill="#d9b45b" opacity="0.8"/><circle cx="735" cy="352.5" r="1.8" fill="#d9b45b" opacity="0.8"/><text x="415" y="357" text-anchor="middle" font-family="Georgia, 'Times New Roman', serif" font-size="15.5" fill="url(#gilded)" font-style="italic" letter-spacing="0.5">Then came the Dark Age: three hundred and fourteen days, and not a single commit.</text><animate attributeName="opacity" begin="6.5s" dur="3.5s" values="0;1;1;0" keyTimes="0;0.12;0.88;1" fill="freeze"/></g><g opacity="0"><text x="415" y="200" text-anchor="middle" font-family="Georgia, 'Times New Roman', serif" font-size="26" fill="url(#gilded)" font-weight="bold" letter-spacing="4">PRESENT DAY</text><rect x="315" y="220" width="200" height="1" fill="url(#rule-fade)"/><text x="415" y="246" text-anchor="middle" font-family="Georgia, 'Times New Roman', serif" font-size="15" fill="#8b93a7" letter-spacing="2">2026-07-04</text><animate attributeName="opacity" begin="10s" dur="3s" values="0;1;1;0" keyTimes="0;0.12;0.88;1" fill="freeze"/></g><g opacity="0"><ellipse cx="415" cy="186" rx="300" ry="135" fill="url(#nebula)" opacity="0.7"/><circle cx="415" cy="186" r="88" fill="none" stroke="#9aa8ff" stroke-width="0.5" opacity="0.14" stroke-dasharray="2 7"><animateTransform attributeName="transform" type="rotate" begin="13s" dur="60s" from="0 415 186" to="360 415 186" repeatCount="indefinite"/></circle><circle cx="415" cy="186" r="30" fill="url(#spark-glow)"/><circle cx="415" cy="186" r="6" fill="#ffd27d"><animate attributeName="r" begin="13s" dur="7s" values="6;9;6" repeatCount="indefinite"/></circle><g><circle cx="503" cy="186" r="2.2" fill="#9ad2ff"/><animateTransform attributeName="transform" type="rotate" begin="13s" dur="14s" from="0 415 186" to="360 415 186" repeatCount="indefinite"/></g><circle cx="264.96" cy="321.03" r="1.4" fill="#dbe6ff" opacity="0.2"><animate attributeName="opacity" begin="13s" dur="5.59s" values="0.2;0.8;0.2" repeatCount="indefinite"/></circle><circle cx="770.19" cy="360.96" r="1.4" fill="#dbe6ff" opacity="0.2"><animate attributeName="opacity" begin="13s" dur="5.71s" values="0.2;0.8;0.2" repeatCount="indefinite"/></circle><circle cx="160.17" cy="129.2" r="1.4" fill="#dbe6ff" opacity="0.2"><animate attributeName="opacity" begin="13s" dur="4.39s" values="0.2;0.8;0.2" repeatCount="indefinite"/></circle><circle cx="744.56" cy="204.28" r="1.4" fill="#dbe6ff" opacity="0.2"><animate attributeName="opacity" begin="13s" dur="4.93s" values="0.2;0.8;0.2" repeatCount="indefinite"/></circle><circle cx="825.23" cy="248.43" r="1.4" fill="#dbe6ff" opacity="0.2"><animate attributeName="opacity" begin="13s" dur="4.47s" values="0.2;0.8;0.2" repeatCount="indefinite"/></circle><circle cx="267.73" cy="309.54" r="1.4" fill="#dbe6ff" opacity="0.2"><animate attributeName="opacity" begin="13s" dur="4.96s" values="0.2;0.8;0.2" repeatCount="indefinite"/></circle><circle cx="285.15" cy="256.74" r="1.4" fill="#dbe6ff" opacity="0.2"><animate attributeName="opacity" begin="13s" dur="7.19s" values="0.2;0.8;0.2" repeatCount="indefinite"/></circle><circle cx="201.87" cy="136.68" r="1.4" fill="#dbe6ff" opacity="0.2"><animate attributeName="opacity" begin="13s" dur="4.18s" values="0.2;0.8;0.2" repeatCount="indefinite"/></circle><text x="415" y="345" text-anchor="middle" font-family="Georgia, 'Times New Roman', serif" font-size="20" fill="url(#gilded)" letter-spacing="1.5">The Epic of silent-scribe</text><text x="415" y="391" text-anchor="middle" font-family="Georgia, 'Times New Roman', serif" font-size="13" fill="#8b93a7">✦ forge yours at git-epic.dev</text><animate attributeName="opacity" begin="13s" dur="1.2s" values="0;1" fill="freeze"/></g></svg>