<svg xmlns="http://www.w3.org/2000/svg" width="830" height="415" viewBox="0 0 830 415" role="img"><defs><radialGradient id="nebula" cx="50%" cy="45%" r="65%"><stop offset="0%" stop-color="#2b2a5e" stop-opacity="0.85"/><stop offset="45%" stop-color="#1a1c3f" stop-opacity="0.45"/><stop offset="100%" stop-color="#070b14" stop-opacity="0"/></radialGradient><radialGradient id="spark-glow" cx="50%" cy="50%" r="50%"><stop offset="0%" stop-color="#ffd27d" stop-opacity="0.9"/><stop offset="40%" stop-color="#ffb45e" stop-opacity="0.35"/><stop offset="100%" stop-color="#ffb45e" stop-opacity="0"/></radialGradient><linearGradient id="gilded" x1="0" y1="0" x2="0" y2="1"><stop offset="0%" stop-color="#f7ecd0"/><stop offset="100%" stop-color="#d9b45b"/></linearGradient><linearGradient id="rule-fade" x1="0" y1="0" x2="1" y2="0"><stop offset="0%" stop-color="#d9b45b" stop-opacity="0"/><stop offset="50%" stop-color="#d9b45b" stop-opacity="0.8"/><stop offset="100%" stop-color="#d9b45b" stop-opacity="0"/></linearGradient></defs><rect width="830" height="415" fill="#070b14"/><g><circle cx="486.66" cy="33.98" r="0.79" fill="#dbe6ff" opacity="0.29"/><circle cx="316.3" cy="143.08" r="0.83" fill="#dbe6ff" opacity="0.26"/><circle cx="384.41" cy="219.45" r="0.6" fill="#dbe6ff" opacity="0.15"/><circle cx="367.07" cy="306.12" r="0.42" fill="#dbe6ff" opacity="0.42"/><circle cx="126.61" cy="36.67" r="1.48" fill="#dbe6ff" opacity="0.27"/><circle cx="187.29" cy="8.28" r="0.54" fill="#dbe6ff" opacity="0.49"/><circle cx="149.55" cy="412.58" r="1.49" fill="#dbe6ff" opacity="0.32"/><circle cx="607.87" cy="226.58" r="1.49" fill="#dbe6ff" opacity="0.35"/><circle cx="645.91" cy="182.16" r="0.54" fill="#dbe6ff" opacity="0.44"/><circle cx="186.42" cy="165.88" r="0.78" fill="#dbe6ff" opacity="0.47"/><circle cx="738.33" cy="227.54" r="0.73" fill="#dbe6ff" opacity="0.25"/><circle cx="546.53" cy="79.94" r="1.37" fill="#dbe6ff" opacity="0.24"/><circle cx="687.33" cy="376.91" r="1.31" fill="#dbe6ff" opacity="0.44"/><circle cx="166.88" cy="234.19" r="0.78" fill="#dbe6ff" opacity="0.36"/><circle cx="392.43" cy="195.86" r="0.46" fill="#dbe6ff" opacity="0.31"/><circle cx="325.76" cy="38.67" r="0.93" fill="#dbe6ff" opacity="0.46"/><circle cx="556.71" cy="120.96" r="1.14" fill="#dbe6ff" opacity="0.49"/><circle cx="803.88" cy="275.42" r="1.26" fill="#dbe6ff" opacity="0.19"/><circle cx="618.66" cy="273.27" r="0.54" fill="#dbe6ff" opacity="0.39"/><circle cx="624" cy="35.01" r="1.17" fill="#dbe6ff" opacity="0.54"/><circle cx="348.9" cy="57.26" r="1.5" fill="#dbe6ff" opacity="0.47"/><circle cx="499.31" cy="203.25" r="0.61" fill="#dbe6ff" opacity="0.21"/><circle cx="274.84" cy="6.73" r="1.31" fill="#dbe6ff" opacity="0.2"/><circle cx="578.27" cy="228.63" r="0.58" fill="#dbe6ff" opacity="0.27"/><circle cx="256.07" cy="86.33" r="0.99" fill="#dbe6ff" opacity="0.29"/><circle cx="357.38" cy="54.45" r="0.64" fill="#dbe6ff" opacity="0.5"/><circle cx="413.89" cy="334.84" r="0.86" fill="#dbe6ff" opacity="0.55"/><circle cx="183.7" cy="79.21" r="0.96" fill="#dbe6ff" opacity="0.46"/><circle cx="799.72" cy="74.06" r="1.1" fill="#dbe6ff" opacity="0.17"/><circle cx="42.31" cy="205.19" r="1.07" fill="#dbe6ff" opacity="0.13"/><circle cx="84.15" cy="311.42" r="0.42" fill="#dbe6ff" opacity="0.47"/><circle cx="643.42" cy="57.87" r="0.41" fill="#dbe6ff" opacity="0.14"/><circle cx="809.65" cy="322.11" r="1.24" fill="#dbe6ff" opacity="0.26"/><circle cx="161.41" cy="296.81" r="1.12" fill="#dbe6ff" opacity="0.4"/><circle cx="550.69" cy="271.88" r="0.41" fill="#dbe6ff" opacity="0.52"/><circle cx="19.97" cy="305.21" r="0.87" fill="#dbe6ff" opacity="0.39"/><circle cx="679.09" cy="240.53" r="1.28" fill="#dbe6ff" opacity="0.43"/><circle cx="303.37" cy="326.33" r="1.26" fill="#dbe6ff" opacity="0.32"/><circle cx="373.61" cy="267.22" r="1.22" fill="#dbe6ff" opacity="0.3"/><circle cx="700.75" cy="71.92" r="0.61" fill="#dbe6ff" opacity="0.35"/><circle cx="763.09" cy="264.54" r="0.57" fill="#dbe6ff" opacity="0.36"/><circle cx="707.19" cy="51.73" r="0.9" fill="#dbe6ff" opacity="0.15"/><circle cx="209.01" cy="398.01" r="0.83" fill="#dbe6ff" opacity="0.43"/><circle cx="332.71" cy="336.77" r="1.34" fill="#dbe6ff" opacity="0.23"/><circle cx="739.46" cy="114.06" r="0.78" fill="#dbe6ff" opacity="0.26"/><circle cx="537.89" cy="56.3" r="1.24" fill="#dbe6ff" opacity="0.44"/><circle cx="2.99" cy="224.01" r="0.53" fill="#dbe6ff" opacity="0.49"/><circle cx="683.38" cy="194.32" r="0.99" fill="#dbe6ff" opacity="0.28"/><circle cx="685.07" cy="17.28" r="1.23" fill="#dbe6ff" opacity="0.31"/><circle cx="234.43" cy="54.18" r="0.56" fill="#dbe6ff" opacity="0.2"/><circle cx="616.95" cy="340.48" r="0.95" fill="#dbe6ff" opacity="0.49"/><circle cx="757.87" cy="395.96" r="1.03" fill="#dbe6ff" opacity="0.35"/><circle cx="749.8" cy="361.54" r="0.65" fill="#dbe6ff" opacity="0.21"/><circle cx="761.45" cy="64.82" r="1.23" fill="#dbe6ff" opacity="0.22"/><circle cx="241.54" cy="21.24" r="0.87" fill="#dbe6ff" opacity="0.24"/><circle cx="741.03" cy="273.49" r="0.56" fill="#dbe6ff" opacity="0.15"/><circle cx="1.67" cy="310.51" r="1.07" fill="#dbe6ff" opacity="0.13"/><circle cx="543.17" cy="228.26" r="0.93" fill="#dbe6ff" opacity="0.53"/><circle cx="327.91" cy="271.86" r="0.4" fill="#dbe6ff" opacity="0.12"/><circle cx="421.99" cy="399" r="1.01" fill="#dbe6ff" opacity="0.17"/><circle cx="482.15" cy="361.91" r="1.44" fill="#dbe6ff" opacity="0.22"/><circle cx="802.67" cy="327.89" r="0.62" fill="#dbe6ff" opacity="0.33"/><circle cx="325.41" cy="165.16" r="1.33" fill="#dbe6ff" opacity="0.43"/><circle cx="115.85" cy="84.61" r="1.07" fill="#dbe6ff" opacity="0.22"/><circle cx="439" cy="318.8" r="1.28" fill="#dbe6ff" opacity="0.18"/><circle cx="81.05" cy="289.86" r="1.33" fill="#dbe6ff" opacity="0.18"/><circle cx="97.3" cy="207.52" r="1.16" fill="#dbe6ff" opacity="0.34"/><circle cx="382.83" cy="357.33" r="1.13" fill="#dbe6ff" opacity="0.51"/><circle cx="634.52" cy="171.17" r="1.2" fill="#dbe6ff" opacity="0.13"/><circle cx="251.67" cy="191.08" r="0.98" fill="#dbe6ff" opacity="0.16"/><circle cx="20.43" cy="249.78" r="1.46" fill="#dbe6ff" opacity="0.49"/><circle cx="82.86" cy="65.16" r="1.31" fill="#dbe6ff" opacity="0.37"/><circle cx="709.46" cy="192.46" r="1.36" fill="#dbe6ff" opacity="0.54"/><circle cx="452.57" cy="5.76" r="1.06" fill="#dbe6ff" opacity="0.22"/><circle cx="758.4" cy="127.54" r="0.73" fill="#dbe6ff" opacity="0.43"/><circle cx="576.28" cy="241.86" r="1.42" fill="#dbe6ff" opacity="0.44"/><circle cx="291.85" cy="78.03" r="0.92" fill="#dbe6ff" opacity="0.25"/><circle cx="492.31" cy="406.08" r="1.5" fill="#dbe6ff" opacity="0.34"/><circle cx="62.69" cy="88.81" r="1.29" fill="#dbe6ff" opacity="0.15"/><circle cx="15.41" cy="382.89" r="0.7" fill="#dbe6ff" opacity="0.5"/><circle cx="186.04" cy="332.01" r="0.46" fill="#dbe6ff" opacity="0.55"/><circle cx="698.24" cy="102.07" r="0.95" fill="#dbe6ff" opacity="0.27"/><circle cx="382.37" cy="335.12" r="0.78" fill="#dbe6ff" opacity="0.34"/><circle cx="511.65" cy="155.96" r="1.47" fill="#dbe6ff" opacity="0.32"/><circle cx="495.11" cy="306.1" r="0.44" fill="#dbe6ff" opacity="0.16"/><circle cx="561.73" cy="95.36" r="1.13" fill="#dbe6ff" opacity="0.41"/><circle cx="675.54" cy="102.96" r="0.55" fill="#dbe6ff" opacity="0.12"/><circle cx="609.61" cy="284.75" r="0.83" fill="#dbe6ff" opacity="0.54"/><circle cx="344.57" cy="392.5" r="0.58" fill="#dbe6ff" opacity="0.45"/><circle cx="85.17" cy="318.01" r="1.13" fill="#dbe6ff" opacity="0.44"/><circle cx="745.18" cy="252.11" r="0.91" fill="#dbe6ff" opacity="0.5"/><circle cx="607.25" cy="80.95" r="0.75" fill="#dbe6ff" opacity="0.27"/><circle cx="145.68" cy="192.17" r="1.05" fill="#dbe6ff" opacity="0.23"/><circle cx="608.83" cy="123.96" r="0.52" fill="#dbe6ff" opacity="0.25"/><circle cx="547.25" cy="180.47" r="1.37" fill="#dbe6ff" opacity="0.41"/><circle cx="470.7" cy="306.68" r="0.55" fill="#dbe6ff" opacity="0.4"/><circle cx="821.47" cy="192.18" r="1.18" fill="#dbe6ff" opacity="0.43"/><circle cx="46.18" cy="353.79" r="0.76" fill="#dbe6ff" opacity="0.12"/><circle cx="483.36" cy="23.35" r="1.43" fill="#dbe6ff" opacity="0.14"/><circle cx="183.88" cy="205.59" r="0.76" fill="#dbe6ff" opacity="0.53"/><circle cx="711.35" cy="303.98" r="0.56" fill="#dbe6ff" opacity="0.4"/><circle cx="117.56" cy="212.09" r="1.1" fill="#dbe6ff" opacity="0.25"/><circle cx="257.36" cy="193.79" r="1.08" fill="#dbe6ff" opacity="0.36"/><circle cx="631.93" cy="129.23" r="0.57" fill="#dbe6ff" opacity="0.38"/><circle cx="733.85" cy="253.19" r="1.37" fill="#dbe6ff" opacity="0.39"/><circle cx="709.17" cy="311.79" r="0.66" fill="#dbe6ff" opacity="0.29"/><circle cx="811.49" cy="382.14" r="1.06" fill="#dbe6ff" opacity="0.23"/><circle cx="233.35" cy="142.28" r="1.22" fill="#dbe6ff" opacity="0.3"/><circle cx="520.18" cy="177.82" r="1.27" fill="#dbe6ff" opacity="0.12"/><circle cx="60.82" cy="187.73" r="0.48" fill="#dbe6ff" opacity="0.22"/></g><g opacity="0"><circle cx="415" cy="150" r="26" fill="url(#spark-glow)"/><circle cx="415" cy="150" r="3.2" fill="#ffd27d"/><text x="415" y="212" text-anchor="middle" font-family="Georgia, 'Times New Roman', serif" font-size="38" fill="url(#gilded)" font-weight="bold" letter-spacing="7">THE EPIC OF TONGUE-TURNER</text><rect x="285" y="232" width="260" height="1" fill="url(#rule-fade)"/><text x="415" y="258" text-anchor="middle" font-family="Georgia, 'Times New Roman', serif" font-size="16" fill="#8b93a7" letter-spacing="4">· est. 2018 ·</text><animate attributeName="opacity" begin="0s" dur="3s" values="0;1;1;0" keyTimes="0;0.12;0.88;1" fill="freeze"/></g><g opacity="0"><ellipse cx="415" cy="186" rx="330" ry="150" fill="url(#nebula)"/><circle cx="415" cy="186" r="70" fill="none" stroke="#ffd27d" stroke-width="0.6" opacity="0"><animate attributeName="r" begin="3.2s" dur="2.6s" values="14;70" fill="freeze"/><animate attributeName="opacity" begin="3.2s" dur="2.6s" values="0.5;0.05" fill="freeze"/></circle><circle cx="415" cy="186" r="105" fill="none" stroke="#9aa8ff" stroke-width="0.5" opacity="0"><animate attributeName="r" begin="3.5s" dur="2.6s" values="20;105" fill="freeze"/><animate attributeName="opacity" begin="3.5s" dur="2.6s" values="0.4;0.05" fill="freeze"/></circle><circle cx="415" cy="186" r="34" fill="url(#spark-glow)"/><circle cx="415" cy="186" r="5" fill="#ffd27d"/><rect x="30" y="352" width="55" height="1" fill="url(#rule-fade)"/><rect x="745" y="352" width="55" height="1" fill="url(#rule-fade)"/><circle cx="95" cy="352.5" r="1.8" fill="#d9b45b" opacity="0.8"/><circle cx="735" cy="352.5" r="1.8" fill="#d9b45b" opacity="0.8"/><text x="415" y="357" text-anchor="middle" font-family="Georgia, 'Times New Roman', serif" font-size="15.5" fill="url(#gilded)" font-style="italic" letter-spacing="0.5">In the year 2019, the developer first set foot upon the public forge, and the epic began.</text><animate attributeName="opacity" begin="3s" dur="3.5s" values="0;1;1;0" keyTimes="0;0.12;0.88;1" fill="freeze"/></g><g opacity="0"><ellipse cx="415" cy="186" rx="330" ry="150" fill="url(#nebula)"/><circle cx="415" cy="186" r="22" fill="url(#spark-glow)"/><circle cx="357" cy="186" r="4.5" fill="#9aa8ff" opacity="0.9"><animate attributeName="opacity" begin="6.8s" dur="2.2s" values="0.9;0.15" fill="freeze"/></circle><g><circle cx="473" cy="203" r="4.5" fill="#9ad2ff" opacity="0.15"><animate attributeName="opacity" begin="6.8s" dur="2.2s" values="0.15;0.9" fill="freeze"/></circle><animateTransform attributeName="transform" type="translate" begin="6.8s" dur="2.2s" from="0 0" to="0 -34" fill="freeze"/></g><rect x="30" y="352" width="55" height="1" fill="url(#rule-fade)"/><rect x="745" y="352" width="55" height="1" fill="url(#rule-fade)"/><circle cx="95" cy="352.5" r="1.8" fill="#d9b45b" opacity="0.8"/><circle cx="735" cy="352.5" r="1.8" fill="#d9b45b" opacity="0.8"/><text x="415" y="357" text-anchor="middle" font-family="Georgia, 'Times New Roman', serif" font-size="15.5" fill="url(#gilded)" font-style="italic" letter-spacing="0.5">In the year 2021, the developer forsook JavaScript, and there was much refactoring.</text><animate attributeName="opacity" begin="6.5s" dur="3.5s" values="0;1;1;0" keyTimes="0;0.12;0.88;1" fill="freeze"/></g><g opacity="0"><text x="415" y="200" text-anchor="middle" font-family="Georgia, 'Times New Roman', serif" font-size="26" fill="url(#gilded)" font-weight="bold" letter-spacing="4">PRESENT DAY</text><rect x="315" y="220" width="200" height="1" fill="url(#rule-fade)"/><text x="415" y="246" text-anchor="middle" font-family="Georgia, 'Times New Roman', serif" font-size="15" fill="#8b93a7" letter-spacing="2">2026-07-04</text><animate attributeName="opacity" begin="10s" dur="3s" values="0;1;1;0" keyTimes="0;0.12;0.88;1" fill="freeze"/></g><g opacity="0"><ellipse cx="415" cy="186" rx="300" ry="135" fill="url(#nebula)" opacity="0.7"/><circle cx="415" cy="186" r="88" fill="none" stroke="#9aa8ff" stroke-width="0.5" opacity="0.14" stroke-dasharray="2 7"><animateTransform attributeName="transform" type="rotate" begin="13s" dur="60s" from="0 415 186" to="360 415 186" repeatCount="indefinite"/></circle><circle cx="415" cy="186" r="30" fill="url(#spark-glow)"/><circle cx="415" cy="186" r="6" fill="#ffd27d"><animate attributeName="r" begin="13s" dur="7s" values="6;9;6" repeatCount="indefinite"/></circle><g><circle cx="503" cy="186" r="2.2" fill="#9ad2ff"/><animateTransform attributeName="transform" type="rotate" begin="13s" dur="14s" from="0 415 186" to="360 415 186" repeatCount="indefinite"/></g><circle cx="481.23" cy="220.32" r="1.4" fill="#dbe6ff" opacity="0.2"><animate attributeName="opacity" begin="13s" dur="4.66s" values="0.2;0.8;0.2" repeatCount="indefinite"/></circle><circle cx="750.11" cy="347.06" r="1.4" fill="#dbe6ff" opacity="0.2"><animate attributeName="opacity" begin="13s" dur="7.26s" values="0.2;0.8;0.2" repeatCount="indefinite"/></circle><circle cx="670.85" cy="342.07" r="1.4" fill="#dbe6ff" opacity="0.2"><animate attributeName="opacity" begin="13s" dur="5.27s" values="0.2;0.8;0.2" repeatCount="indefinite"/></circle><circle cx="2" cy="134.45" r="1.4" fill="#dbe6ff" opacity="0.2"><animate attributeName="opacity" begin="13s" dur="4.53s" values="0.2;0.8;0.2" repeatCount="indefinite"/></circle><circle cx="17.33" cy="84.28" r="1.4" fill="#dbe6ff" opacity="0.2"><animate attributeName="opacity" begin="13s" dur="6.55s" values="0.2;0.8;0.2" repeatCount="indefinite"/></circle><circle cx="596.15" cy="57.2" r="1.4" fill="#dbe6ff" opacity="0.2"><animate attributeName="opacity" begin="13s" dur="7.55s" values="0.2;0.8;0.2" repeatCount="indefinite"/></circle><circle cx="168.96" cy="185" r="1.4" fill="#dbe6ff" opacity="0.2"><animate attributeName="opacity" begin="13s" dur="6.36s" values="0.2;0.8;0.2" repeatCount="indefinite"/></circle><circle cx="361.79" cy="22.93" r="1.4" fill="#dbe6ff" opacity="0.2"><animate attributeName="opacity" begin="13s" dur="6.97s" values="0.2;0.8;0.2" repeatCount="indefinite"/></circle><text x="415" y="345" text-anchor="middle" font-family="Georgia, 'Times New Roman', serif" font-size="20" fill="url(#gilded)" letter-spacing="1.5">The Epic of tongue-turner</text><text x="415" y="391" text-anchor="middle" font-family="Georgia, 'Times New Roman', serif" font-size="13" fill="#8b93a7">✦ forge yours at git-epic.dev</text><animate attributeName="opacity" begin="13s" dur="1.2s" values="0;1" fill="freeze"/></g></svg>