<svg xmlns="http://www.w3.org/2000/svg" width="830" height="415" viewBox="0 0 830 415" role="img"><defs><radialGradient id="nebula" cx="50%" cy="45%" r="65%"><stop offset="0%" stop-color="#2b2a5e" stop-opacity="0.85"/><stop offset="45%" stop-color="#1a1c3f" stop-opacity="0.45"/><stop offset="100%" stop-color="#070b14" stop-opacity="0"/></radialGradient><radialGradient id="spark-glow" cx="50%" cy="50%" r="50%"><stop offset="0%" stop-color="#ffd27d" stop-opacity="0.9"/><stop offset="40%" stop-color="#ffb45e" stop-opacity="0.35"/><stop offset="100%" stop-color="#ffb45e" stop-opacity="0"/></radialGradient><linearGradient id="gilded" x1="0" y1="0" x2="0" y2="1"><stop offset="0%" stop-color="#f7ecd0"/><stop offset="100%" stop-color="#d9b45b"/></linearGradient><linearGradient id="rule-fade" x1="0" y1="0" x2="1" y2="0"><stop offset="0%" stop-color="#d9b45b" stop-opacity="0"/><stop offset="50%" stop-color="#d9b45b" stop-opacity="0.8"/><stop offset="100%" stop-color="#d9b45b" stop-opacity="0"/></linearGradient></defs><rect width="830" height="415" fill="#070b14"/><ellipse cx="415" cy="196" rx="300" ry="130" fill="url(#nebula)" opacity="0.7"/><g><circle cx="318.4" cy="406.98" r="0.49" fill="#dbe6ff" opacity="0.24"/><circle cx="801.02" cy="310.59" r="0.73" fill="#dbe6ff" opacity="0.53"/><circle cx="76.33" cy="317.86" r="1.36" fill="#dbe6ff" opacity="0.24"/><circle cx="605.97" cy="248.84" r="1.05" fill="#dbe6ff" opacity="0.55"/><circle cx="749.08" cy="60.07" r="1.01" fill="#dbe6ff" opacity="0.33"/><circle cx="266.23" cy="140.78" r="1.11" fill="#dbe6ff" opacity="0.52"/><circle cx="715.79" cy="38.38" r="1.22" fill="#dbe6ff" opacity="0.26"/><circle cx="114.18" cy="210.15" r="0.58" fill="#dbe6ff" opacity="0.32"/><circle cx="137.08" cy="134.25" r="1.35" fill="#dbe6ff" opacity="0.1"/><circle cx="734.92" cy="172.05" r="0.69" fill="#dbe6ff" opacity="0.43"/><circle cx="399" cy="365.28" r="0.48" fill="#dbe6ff" opacity="0.43"/><circle cx="317.17" cy="297.04" r="0.92" fill="#dbe6ff" opacity="0.35"/><circle cx="655.51" cy="265.42" r="0.83" fill="#dbe6ff" opacity="0.52"/><circle cx="432.98" cy="19.21" r="0.55" fill="#dbe6ff" opacity="0.23"/><circle cx="203.6" cy="275.52" r="1.12" fill="#dbe6ff" opacity="0.51"/><circle cx="96.71" cy="170.45" r="0.97" fill="#dbe6ff" opacity="0.51"/><circle cx="429.47" cy="382.93" r="1.39" fill="#dbe6ff" opacity="0.1"/><circle cx="110.04" cy="310.45" r="0.9" fill="#dbe6ff" opacity="0.2"/><circle cx="551.87" cy="232.75" r="1.19" fill="#dbe6ff" opacity="0.21"/><circle cx="37.51" cy="356.15" r="0.97" fill="#dbe6ff" opacity="0.15"/><circle cx="24.27" cy="151.72" r="1.03" fill="#dbe6ff" opacity="0.53"/><circle cx="134.71" cy="315.23" r="1.29" fill="#dbe6ff" opacity="0.31"/><circle cx="720.52" cy="1.32" r="0.74" fill="#dbe6ff" opacity="0.11"/><circle cx="505.28" cy="242.18" r="1.49" fill="#dbe6ff" opacity="0.42"/><circle cx="271" cy="126.89" r="1.45" fill="#dbe6ff" opacity="0.34"/><circle cx="524.73" cy="53.13" r="1.36" fill="#dbe6ff" opacity="0.37"/><circle cx="501.27" cy="180.87" r="0.82" fill="#dbe6ff" opacity="0.17"/><circle cx="759.49" cy="399.89" r="1.15" fill="#dbe6ff" opacity="0.35"/><circle cx="348.8" cy="233.93" r="0.58" fill="#dbe6ff" opacity="0.47"/><circle cx="256.06" cy="195.43" r="0.96" fill="#dbe6ff" opacity="0.35"/><circle cx="614.64" cy="404.85" r="0.46" fill="#dbe6ff" opacity="0.53"/><circle cx="177.91" cy="355.4" r="0.95" fill="#dbe6ff" opacity="0.2"/><circle cx="33.49" cy="32.44" r="0.9" fill="#dbe6ff" opacity="0.31"/><circle cx="42.13" cy="28.82" r="0.6" fill="#dbe6ff" opacity="0.48"/><circle cx="746.3" cy="213.25" r="0.83" fill="#dbe6ff" opacity="0.29"/><circle cx="788.98" cy="172.6" r="1.3" fill="#dbe6ff" opacity="0.48"/><circle cx="452.6" cy="172.67" r="1.11" fill="#dbe6ff" opacity="0.28"/><circle cx="550.25" cy="84.99" r="0.6" fill="#dbe6ff" opacity="0.47"/><circle cx="500.44" cy="111.22" r="1.09" fill="#dbe6ff" opacity="0.5"/><circle cx="569.01" cy="222.85" r="1.45" fill="#dbe6ff" opacity="0.51"/><circle cx="652.54" cy="250.89" r="1.05" fill="#dbe6ff" opacity="0.21"/><circle cx="83.4" cy="132.58" r="0.87" fill="#dbe6ff" opacity="0.27"/><circle cx="526.91" cy="140.24" r="0.75" fill="#dbe6ff" opacity="0.47"/><circle cx="414.27" cy="141.11" r="0.86" fill="#dbe6ff" opacity="0.49"/><circle cx="486.04" cy="259.9" r="1.35" fill="#dbe6ff" opacity="0.21"/><circle cx="154.99" cy="175.05" r="0.64" fill="#dbe6ff" opacity="0.21"/><circle cx="24.7" cy="172.75" r="0.71" fill="#dbe6ff" opacity="0.37"/><circle cx="183.62" cy="361.68" r="1.35" fill="#dbe6ff" opacity="0.52"/><circle cx="667.18" cy="37.35" r="1.11" fill="#dbe6ff" opacity="0.26"/><circle cx="370.06" cy="131.13" r="1.34" fill="#dbe6ff" opacity="0.4"/><circle cx="769.46" cy="72.97" r="0.89" fill="#dbe6ff" opacity="0.14"/><circle cx="435.87" cy="312.58" r="0.45" fill="#dbe6ff" opacity="0.14"/><circle cx="570.02" cy="283.31" r="1.35" fill="#dbe6ff" opacity="0.25"/><circle cx="83.83" cy="268.29" r="0.46" fill="#dbe6ff" opacity="0.4"/><circle cx="629.76" cy="268.8" r="1.28" fill="#dbe6ff" opacity="0.15"/><circle cx="71.05" cy="208.44" r="0.82" fill="#dbe6ff" opacity="0.15"/><circle cx="473.14" cy="271.46" r="1.25" fill="#dbe6ff" opacity="0.34"/><circle cx="310.03" cy="203.01" r="0.69" fill="#dbe6ff" opacity="0.46"/><circle cx="475.6" cy="75.11" r="0.83" fill="#dbe6ff" opacity="0.18"/><circle cx="428.82" cy="136.21" r="0.62" fill="#dbe6ff" opacity="0.24"/><circle cx="769.78" cy="238.28" r="1.09" fill="#dbe6ff" opacity="0.45"/><circle cx="261.39" cy="78.55" r="0.45" fill="#dbe6ff" opacity="0.36"/><circle cx="230.77" cy="321.19" r="0.94" fill="#dbe6ff" opacity="0.43"/><circle cx="675.25" cy="352.79" r="1.2" fill="#dbe6ff" opacity="0.35"/><circle cx="373.02" cy="220.82" r="1.11" fill="#dbe6ff" opacity="0.5"/><circle cx="44.35" cy="314.46" r="0.68" fill="#dbe6ff" opacity="0.17"/><circle cx="662.94" cy="140.37" r="1.28" fill="#dbe6ff" opacity="0.43"/><circle cx="19.94" cy="279.82" r="0.94" fill="#dbe6ff" opacity="0.13"/><circle cx="234.6" cy="332.99" r="1.05" fill="#dbe6ff" opacity="0.37"/><circle cx="67.95" cy="161.16" r="1.4" fill="#dbe6ff" opacity="0.42"/><circle cx="332.5" cy="197.12" r="0.74" fill="#dbe6ff" opacity="0.55"/><circle cx="665.48" cy="95.9" r="1.25" fill="#dbe6ff" opacity="0.45"/><circle cx="508.97" cy="383.63" r="1.26" fill="#dbe6ff" opacity="0.53"/><circle cx="195.08" cy="65.41" r="0.56" fill="#dbe6ff" opacity="0.14"/><circle cx="725.09" cy="197.89" r="1.21" fill="#dbe6ff" opacity="0.29"/><circle cx="106.11" cy="170.42" r="0.74" fill="#dbe6ff" opacity="0.17"/><circle cx="634.54" cy="267.45" r="0.79" fill="#dbe6ff" opacity="0.47"/><circle cx="240.14" cy="71.21" r="0.45" fill="#dbe6ff" opacity="0.33"/><circle cx="86.68" cy="241.52" r="1.39" fill="#dbe6ff" opacity="0.3"/><circle cx="347.82" cy="8.6" r="1.05" fill="#dbe6ff" opacity="0.35"/><circle cx="682.04" cy="247.89" r="1.32" fill="#dbe6ff" opacity="0.19"/><circle cx="132.3" cy="203.73" r="1.46" fill="#dbe6ff" opacity="0.3"/><circle cx="500.04" cy="78.08" r="1.12" fill="#dbe6ff" opacity="0.32"/><circle cx="459.28" cy="215.45" r="0.63" fill="#dbe6ff" opacity="0.3"/><circle cx="794.24" cy="377.21" r="0.4" fill="#dbe6ff" opacity="0.53"/><circle cx="624.43" cy="141.48" r="0.62" fill="#dbe6ff" opacity="0.43"/><circle cx="367.99" cy="317.34" r="0.71" fill="#dbe6ff" opacity="0.3"/><circle cx="368.93" cy="403.3" r="1.32" fill="#dbe6ff" opacity="0.46"/><circle cx="208.33" cy="0.25" r="0.71" fill="#dbe6ff" opacity="0.51"/><circle cx="167.47" cy="301.17" r="0.86" fill="#dbe6ff" opacity="0.45"/><circle cx="44.51" cy="18.58" r="0.83" fill="#dbe6ff" opacity="0.44"/><circle cx="487.99" cy="92.99" r="0.66" fill="#dbe6ff" opacity="0.21"/><circle cx="792.39" cy="294.58" r="1.26" fill="#dbe6ff" opacity="0.35"/><circle cx="445.18" cy="222.02" r="0.41" fill="#dbe6ff" opacity="0.24"/><circle cx="584.94" cy="128.4" r="1.26" fill="#dbe6ff" opacity="0.44"/><circle cx="86.73" cy="79.35" r="1.17" fill="#dbe6ff" opacity="0.37"/><circle cx="685.93" cy="205.42" r="1.05" fill="#dbe6ff" opacity="0.11"/><circle cx="825.93" cy="400.92" r="1.34" fill="#dbe6ff" opacity="0.38"/><circle cx="66.29" cy="159.72" r="0.44" fill="#dbe6ff" opacity="0.2"/><circle cx="347.79" cy="331.86" r="0.67" fill="#dbe6ff" opacity="0.13"/><circle cx="682.95" cy="293.85" r="0.8" fill="#dbe6ff" opacity="0.24"/><circle cx="390.74" cy="273.34" r="1.36" fill="#dbe6ff" opacity="0.41"/><circle cx="689.13" cy="122" r="1.12" fill="#dbe6ff" opacity="0.33"/><circle cx="565.81" cy="134.47" r="1.35" fill="#dbe6ff" opacity="0.18"/><circle cx="767.55" cy="333.07" r="1.25" fill="#dbe6ff" opacity="0.52"/><circle cx="523.39" cy="318.79" r="1.2" fill="#dbe6ff" opacity="0.35"/><circle cx="640.67" cy="194.36" r="1.49" fill="#dbe6ff" opacity="0.2"/><circle cx="260.16" cy="163.79" r="1.13" fill="#dbe6ff" opacity="0.37"/><circle cx="630.62" cy="382.11" r="1.22" fill="#dbe6ff" opacity="0.31"/><circle cx="822.88" cy="201.7" r="1.11" fill="#dbe6ff" opacity="0.52"/></g><circle cx="611.64" cy="304.54" r="1.4" fill="#dbe6ff" opacity="0.2"><animate attributeName="opacity" begin="0s" dur="6.62s" values="0.2;0.8;0.2" repeatCount="indefinite"/></circle><circle cx="652.59" cy="372.09" r="1.4" fill="#dbe6ff" opacity="0.2"><animate attributeName="opacity" begin="0s" dur="5.02s" values="0.2;0.8;0.2" repeatCount="indefinite"/></circle><circle cx="504.88" cy="351.84" r="1.4" fill="#dbe6ff" opacity="0.2"><animate attributeName="opacity" begin="0s" dur="7.87s" values="0.2;0.8;0.2" repeatCount="indefinite"/></circle><circle cx="523.79" cy="376.88" r="1.4" fill="#dbe6ff" opacity="0.2"><animate attributeName="opacity" begin="0s" dur="5.95s" values="0.2;0.8;0.2" repeatCount="indefinite"/></circle><circle cx="485.81" cy="284.36" r="1.4" fill="#dbe6ff" opacity="0.2"><animate attributeName="opacity" begin="0s" dur="4.64s" values="0.2;0.8;0.2" repeatCount="indefinite"/></circle><circle cx="519.58" cy="397.75" r="1.4" fill="#dbe6ff" opacity="0.2"><animate attributeName="opacity" begin="0s" dur="6.66s" values="0.2;0.8;0.2" repeatCount="indefinite"/></circle><circle cx="571.75" cy="303.92" r="1.4" fill="#dbe6ff" opacity="0.2"><animate attributeName="opacity" begin="0s" dur="7.89s" values="0.2;0.8;0.2" repeatCount="indefinite"/></circle><circle cx="150.24" cy="387.95" r="1.4" fill="#dbe6ff" opacity="0.2"><animate attributeName="opacity" begin="0s" dur="5.87s" values="0.2;0.8;0.2" repeatCount="indefinite"/></circle><circle cx="330.6" cy="281.17" r="1.4" fill="#dbe6ff" opacity="0.2"><animate attributeName="opacity" begin="0s" dur="7.53s" values="0.2;0.8;0.2" repeatCount="indefinite"/></circle><circle cx="201.04" cy="324.09" r="1.4" fill="#dbe6ff" opacity="0.2"><animate attributeName="opacity" begin="0s" dur="6.1s" values="0.2;0.8;0.2" repeatCount="indefinite"/></circle><circle cx="493.7" cy="403.92" r="1.4" fill="#dbe6ff" opacity="0.2"><animate attributeName="opacity" begin="0s" dur="4.04s" values="0.2;0.8;0.2" repeatCount="indefinite"/></circle><circle cx="645.07" cy="134.45" r="1.4" fill="#dbe6ff" opacity="0.2"><animate attributeName="opacity" begin="0s" dur="4.76s" values="0.2;0.8;0.2" repeatCount="indefinite"/></circle><circle cx="104.19" cy="197.29" r="1.4" fill="#dbe6ff" opacity="0.2"><animate attributeName="opacity" begin="0s" dur="6.75s" values="0.2;0.8;0.2" repeatCount="indefinite"/></circle><circle cx="333.56" cy="204.65" r="1.4" fill="#dbe6ff" opacity="0.2"><animate attributeName="opacity" begin="0s" dur="5.82s" values="0.2;0.8;0.2" repeatCount="indefinite"/></circle><circle cx="515.5" cy="113.81" r="1.4" fill="#dbe6ff" opacity="0.2"><animate attributeName="opacity" begin="0s" dur="4.84s" values="0.2;0.8;0.2" repeatCount="indefinite"/></circle><circle cx="736.04" cy="183.73" r="1.4" fill="#dbe6ff" opacity="0.2"><animate attributeName="opacity" begin="0s" dur="4.27s" values="0.2;0.8;0.2" repeatCount="indefinite"/></circle><circle cx="126.2" cy="315.4" r="1.4" fill="#dbe6ff" opacity="0.2"><animate attributeName="opacity" begin="0s" dur="5.5s" values="0.2;0.8;0.2" repeatCount="indefinite"/></circle><circle cx="600.18" cy="29.02" r="1.4" fill="#dbe6ff" opacity="0.2"><animate attributeName="opacity" begin="0s" dur="4.63s" values="0.2;0.8;0.2" repeatCount="indefinite"/></circle><circle cx="314.57" cy="59.15" r="1.4" fill="#dbe6ff" opacity="0.2"><animate attributeName="opacity" begin="0s" dur="7.41s" values="0.2;0.8;0.2" repeatCount="indefinite"/></circle><circle cx="137.9" cy="213.61" r="1.4" fill="#dbe6ff" opacity="0.2"><animate attributeName="opacity" begin="0s" dur="7.04s" values="0.2;0.8;0.2" repeatCount="indefinite"/></circle><circle cx="376.4" cy="261.09" r="1.4" fill="#dbe6ff" opacity="0.2"><animate attributeName="opacity" begin="0s" dur="6.28s" values="0.2;0.8;0.2" repeatCount="indefinite"/></circle><circle cx="645.43" cy="170.36" r="1.4" fill="#dbe6ff" opacity="0.2"><animate attributeName="opacity" begin="0s" dur="6.94s" values="0.2;0.8;0.2" repeatCount="indefinite"/></circle><circle cx="632.05" cy="132.88" r="1.4" fill="#dbe6ff" opacity="0.2"><animate attributeName="opacity" begin="0s" dur="5.03s" values="0.2;0.8;0.2" repeatCount="indefinite"/></circle><circle cx="221.54" cy="294.77" r="1.4" fill="#dbe6ff" opacity="0.2"><animate attributeName="opacity" begin="0s" dur="5.77s" values="0.2;0.8;0.2" repeatCount="indefinite"/></circle><circle cx="637.81" cy="409.78" r="1.4" fill="#dbe6ff" opacity="0.2"><animate attributeName="opacity" begin="0s" dur="6.07s" values="0.2;0.8;0.2" repeatCount="indefinite"/></circle><circle cx="539.85" cy="350.12" r="1.4" fill="#dbe6ff" opacity="0.2"><animate attributeName="opacity" begin="0s" dur="7.43s" values="0.2;0.8;0.2" repeatCount="indefinite"/></circle><circle cx="739.75" cy="59.46" r="1.4" fill="#dbe6ff" opacity="0.2"><animate attributeName="opacity" begin="0s" dur="6.87s" values="0.2;0.8;0.2" repeatCount="indefinite"/></circle><circle cx="264.9" cy="392.22" r="1.4" fill="#dbe6ff" opacity="0.2"><animate attributeName="opacity" begin="0s" dur="6.02s" values="0.2;0.8;0.2" repeatCount="indefinite"/></circle><circle cx="625.32" cy="159.83" r="1.4" fill="#dbe6ff" opacity="0.2"><animate attributeName="opacity" begin="0s" dur="7.67s" values="0.2;0.8;0.2" repeatCount="indefinite"/></circle><circle cx="626.23" cy="241.16" r="1.4" fill="#dbe6ff" opacity="0.2"><animate attributeName="opacity" begin="0s" dur="7.03s" values="0.2;0.8;0.2" repeatCount="indefinite"/></circle><circle cx="283.94" cy="191.88" r="1.4" fill="#dbe6ff" opacity="0.2"><animate attributeName="opacity" begin="0s" dur="4.95s" values="0.2;0.8;0.2" repeatCount="indefinite"/></circle><circle cx="193.34" cy="336.75" r="1.4" fill="#dbe6ff" opacity="0.2"><animate attributeName="opacity" begin="0s" dur="6.87s" values="0.2;0.8;0.2" repeatCount="indefinite"/></circle><circle cx="735.92" cy="69.44" r="1.4" fill="#dbe6ff" opacity="0.2"><animate attributeName="opacity" begin="0s" dur="4.46s" values="0.2;0.8;0.2" repeatCount="indefinite"/></circle><circle cx="429.81" cy="131.54" r="1.4" fill="#dbe6ff" opacity="0.2"><animate attributeName="opacity" begin="0s" dur="7.37s" values="0.2;0.8;0.2" repeatCount="indefinite"/></circle><circle cx="442.84" cy="49.13" r="1.4" fill="#dbe6ff" opacity="0.2"><animate attributeName="opacity" begin="0s" dur="6.22s" values="0.2;0.8;0.2" repeatCount="indefinite"/></circle><circle cx="197.73" cy="219.94" r="1.4" fill="#dbe6ff" opacity="0.2"><animate attributeName="opacity" begin="0s" dur="5.38s" values="0.2;0.8;0.2" repeatCount="indefinite"/></circle><circle cx="526.73" cy="275.91" r="1.4" fill="#dbe6ff" opacity="0.2"><animate attributeName="opacity" begin="0s" dur="4.12s" values="0.2;0.8;0.2" repeatCount="indefinite"/></circle><circle cx="190.99" cy="273.61" r="1.4" fill="#dbe6ff" opacity="0.2"><animate attributeName="opacity" begin="0s" dur="7.21s" values="0.2;0.8;0.2" repeatCount="indefinite"/></circle><circle cx="599.6" cy="27.42" r="1.4" fill="#dbe6ff" opacity="0.2"><animate attributeName="opacity" begin="0s" dur="7.69s" values="0.2;0.8;0.2" repeatCount="indefinite"/></circle><circle cx="453.1" cy="142.82" r="1.4" fill="#dbe6ff" opacity="0.2"><animate attributeName="opacity" begin="0s" dur="6.6s" values="0.2;0.8;0.2" repeatCount="indefinite"/></circle><circle cx="588.32" cy="84.78" r="1.4" fill="#dbe6ff" opacity="0.2"><animate attributeName="opacity" begin="0s" dur="5.91s" values="0.2;0.8;0.2" repeatCount="indefinite"/></circle><circle cx="53.8" cy="157.49" r="1.4" fill="#dbe6ff" opacity="0.2"><animate attributeName="opacity" begin="0s" dur="6.97s" values="0.2;0.8;0.2" repeatCount="indefinite"/></circle><circle cx="627.87" cy="290.58" r="1.4" fill="#dbe6ff" opacity="0.2"><animate attributeName="opacity" begin="0s" dur="7.31s" values="0.2;0.8;0.2" repeatCount="indefinite"/></circle><circle cx="779.07" cy="209.51" r="1.4" fill="#dbe6ff" opacity="0.2"><animate attributeName="opacity" begin="0s" dur="6.6s" values="0.2;0.8;0.2" repeatCount="indefinite"/></circle><text x="415" y="196" text-anchor="middle" font-family="Georgia, 'Times New Roman', serif" font-size="30" fill="url(#gilded)" font-weight="bold" letter-spacing="3">No such legend</text><rect x="285" y="218" width="260" height="1" fill="url(#rule-fade)"/><rect x="30" y="245" width="55" height="1" fill="url(#rule-fade)"/><rect x="745" y="245" width="55" height="1" fill="url(#rule-fade)"/><circle cx="95" cy="245.5" r="1.8" fill="#d9b45b" opacity="0.8"/><circle cx="735" cy="245.5" r="1.8" fill="#d9b45b" opacity="0.8"/><text x="415" y="250" text-anchor="middle" font-family="Georgia, 'Times New Roman', serif" font-size="15.5" fill="url(#gilded)" font-style="italic" letter-spacing="0.5">The archives bear no epic of a&amp;b&lt;c&gt;.</text><text x="415" y="391" text-anchor="middle" font-family="Georgia, 'Times New Roman', serif" font-size="13" fill="#8b93a7">✦ forge yours at git-epic.dev</text></svg>