<svg xmlns="http://www.w3.org/2000/svg" width="830" height="415" viewBox="0 0 830 415" role="img"><defs><radialGradient id="nebula" cx="50%" cy="45%" r="65%"><stop offset="0%" stop-color="#2b2a5e" stop-opacity="0.85"/><stop offset="45%" stop-color="#1a1c3f" stop-opacity="0.45"/><stop offset="100%" stop-color="#070b14" stop-opacity="0"/></radialGradient><radialGradient id="spark-glow" cx="50%" cy="50%" r="50%"><stop offset="0%" stop-color="#ffd27d" stop-opacity="0.9"/><stop offset="40%" stop-color="#ffb45e" stop-opacity="0.35"/><stop offset="100%" stop-color="#ffb45e" stop-opacity="0"/></radialGradient><linearGradient id="gilded" x1="0" y1="0" x2="0" y2="1"><stop offset="0%" stop-color="#f7ecd0"/><stop offset="100%" stop-color="#d9b45b"/></linearGradient><linearGradient id="rule-fade" x1="0" y1="0" x2="1" y2="0"><stop offset="0%" stop-color="#d9b45b" stop-opacity="0"/><stop offset="50%" stop-color="#d9b45b" stop-opacity="0.8"/><stop offset="100%" stop-color="#d9b45b" stop-opacity="0"/></linearGradient></defs><rect width="830" height="415" fill="#070b14"/><ellipse cx="415" cy="196" rx="300" ry="130" fill="url(#nebula)" opacity="0.7"/><g><circle cx="207.17" cy="343.08" r="1.37" fill="#dbe6ff" opacity="0.43"/><circle cx="774.8" cy="177.07" r="1.47" fill="#dbe6ff" opacity="0.47"/><circle cx="285.04" cy="33.18" r="0.74" fill="#dbe6ff" opacity="0.42"/><circle cx="521.87" cy="28.67" r="0.52" fill="#dbe6ff" opacity="0.51"/><circle cx="718.44" cy="20.74" r="0.51" fill="#dbe6ff" opacity="0.11"/><circle cx="613" cy="41.91" r="0.81" fill="#dbe6ff" opacity="0.33"/><circle cx="66.84" cy="391.94" r="0.94" fill="#dbe6ff" opacity="0.42"/><circle cx="144.28" cy="315.87" r="1.08" fill="#dbe6ff" opacity="0.35"/><circle cx="690.29" cy="119.83" r="1.25" fill="#dbe6ff" opacity="0.15"/><circle cx="636.2" cy="250.22" r="1.45" fill="#dbe6ff" opacity="0.19"/><circle cx="240.85" cy="175.8" r="1.11" fill="#dbe6ff" opacity="0.48"/><circle cx="391.75" cy="65.36" r="1.39" fill="#dbe6ff" opacity="0.21"/><circle cx="77.78" cy="341.65" r="0.41" fill="#dbe6ff" opacity="0.16"/><circle cx="584.63" cy="289.61" r="0.66" fill="#dbe6ff" opacity="0.2"/><circle cx="765.52" cy="7.56" r="0.61" fill="#dbe6ff" opacity="0.44"/><circle cx="20.09" cy="34.55" r="1.15" fill="#dbe6ff" opacity="0.1"/><circle cx="446.73" cy="378.32" r="1.27" fill="#dbe6ff" opacity="0.32"/><circle cx="3.24" cy="355.26" r="1.48" fill="#dbe6ff" opacity="0.27"/><circle cx="735.81" cy="29.73" r="0.84" fill="#dbe6ff" opacity="0.43"/><circle cx="68.02" cy="131.25" r="1.22" fill="#dbe6ff" opacity="0.13"/><circle cx="781.88" cy="242.42" r="0.46" fill="#dbe6ff" opacity="0.11"/><circle cx="89.82" cy="102.62" r="0.43" fill="#dbe6ff" opacity="0.46"/><circle cx="742.89" cy="164.06" r="1.13" fill="#dbe6ff" opacity="0.17"/><circle cx="152.21" cy="304.09" r="0.61" fill="#dbe6ff" opacity="0.25"/><circle cx="648.84" cy="395.15" r="1.2" fill="#dbe6ff" opacity="0.19"/><circle cx="204.88" cy="40.06" r="0.64" fill="#dbe6ff" opacity="0.4"/><circle cx="237.71" cy="12.43" r="1.36" fill="#dbe6ff" opacity="0.15"/><circle cx="446.4" cy="240.38" r="1.17" fill="#dbe6ff" opacity="0.16"/><circle cx="493.25" cy="331.21" r="1.2" fill="#dbe6ff" opacity="0.42"/><circle cx="298.08" cy="212.67" r="0.56" fill="#dbe6ff" opacity="0.4"/><circle cx="168.97" cy="49.2" r="1.46" fill="#dbe6ff" opacity="0.32"/><circle cx="738.43" cy="254.51" r="0.71" fill="#dbe6ff" opacity="0.34"/><circle cx="256.97" cy="175.87" r="0.83" fill="#dbe6ff" opacity="0.49"/><circle cx="188.67" cy="67.24" r="1.24" fill="#dbe6ff" opacity="0.1"/><circle cx="485.77" cy="48.69" r="0.88" fill="#dbe6ff" opacity="0.2"/><circle cx="352.36" cy="275.19" r="0.56" fill="#dbe6ff" opacity="0.25"/><circle cx="308.2" cy="310.84" r="0.98" fill="#dbe6ff" opacity="0.26"/><circle cx="331.51" cy="52.29" r="1.37" fill="#dbe6ff" opacity="0.4"/><circle cx="575.82" cy="105.79" r="1.21" fill="#dbe6ff" opacity="0.44"/><circle cx="213.58" cy="203.47" r="1.02" fill="#dbe6ff" opacity="0.52"/><circle cx="790.51" cy="213.16" r="1.37" fill="#dbe6ff" opacity="0.41"/><circle cx="456.79" cy="165.61" r="0.99" fill="#dbe6ff" opacity="0.2"/><circle cx="448.5" cy="30.24" r="1.08" fill="#dbe6ff" opacity="0.2"/><circle cx="2.39" cy="241.44" r="0.66" fill="#dbe6ff" opacity="0.18"/><circle cx="782.21" cy="48.72" r="1.39" fill="#dbe6ff" opacity="0.39"/><circle cx="523.86" cy="3.71" r="1.5" fill="#dbe6ff" opacity="0.1"/><circle cx="502.45" cy="50.74" r="0.58" fill="#dbe6ff" opacity="0.28"/><circle cx="585.67" cy="385.32" r="0.77" fill="#dbe6ff" opacity="0.23"/><circle cx="617.1" cy="369.58" r="0.87" fill="#dbe6ff" opacity="0.23"/><circle cx="80.54" cy="91.69" r="1" fill="#dbe6ff" opacity="0.43"/><circle cx="157.52" cy="87.7" r="1.45" fill="#dbe6ff" opacity="0.5"/><circle cx="741.94" cy="169.87" r="1.4" fill="#dbe6ff" opacity="0.18"/><circle cx="608.65" cy="409.02" r="0.82" fill="#dbe6ff" opacity="0.45"/><circle cx="525.7" cy="181.68" r="1.27" fill="#dbe6ff" opacity="0.27"/><circle cx="285.42" cy="240.2" r="1.02" fill="#dbe6ff" opacity="0.16"/><circle cx="533.29" cy="371.64" r="0.81" fill="#dbe6ff" opacity="0.14"/><circle cx="278.6" cy="307.71" r="0.45" fill="#dbe6ff" opacity="0.28"/><circle cx="401.18" cy="265.15" r="0.91" fill="#dbe6ff" opacity="0.17"/><circle cx="517.05" cy="120.35" r="0.47" fill="#dbe6ff" opacity="0.54"/><circle cx="582.03" cy="284.04" r="0.96" fill="#dbe6ff" opacity="0.54"/><circle cx="748.85" cy="383.34" r="1.33" fill="#dbe6ff" opacity="0.44"/><circle cx="484.95" cy="150.44" r="0.54" fill="#dbe6ff" opacity="0.35"/><circle cx="804.31" cy="286.34" r="0.64" fill="#dbe6ff" opacity="0.18"/><circle cx="29.72" cy="173.97" r="1.01" fill="#dbe6ff" opacity="0.39"/><circle cx="636.7" cy="37.95" r="1.14" fill="#dbe6ff" opacity="0.26"/><circle cx="279.51" cy="28.97" r="1.3" fill="#dbe6ff" opacity="0.15"/><circle cx="15.3" cy="330.16" r="1.37" fill="#dbe6ff" opacity="0.12"/><circle cx="78.77" cy="195.41" r="1.29" fill="#dbe6ff" opacity="0.43"/><circle cx="397.91" cy="5.79" r="0.89" fill="#dbe6ff" opacity="0.43"/><circle cx="785.58" cy="74.11" r="1.39" fill="#dbe6ff" opacity="0.48"/><circle cx="41.84" cy="342.71" r="0.76" fill="#dbe6ff" opacity="0.52"/><circle cx="485.21" cy="27.19" r="0.88" fill="#dbe6ff" opacity="0.12"/><circle cx="407.19" cy="61.42" r="0.79" fill="#dbe6ff" opacity="0.12"/><circle cx="47.89" cy="17.41" r="1.28" fill="#dbe6ff" opacity="0.39"/><circle cx="167.62" cy="330.86" r="0.6" fill="#dbe6ff" opacity="0.49"/><circle cx="26.05" cy="368.7" r="0.9" fill="#dbe6ff" opacity="0.55"/><circle cx="586.65" cy="168.48" r="0.66" fill="#dbe6ff" opacity="0.45"/><circle cx="26.33" cy="201.47" r="0.99" fill="#dbe6ff" opacity="0.15"/><circle cx="813.11" cy="61.73" r="0.76" fill="#dbe6ff" opacity="0.14"/><circle cx="391.71" cy="375.36" r="1.06" fill="#dbe6ff" opacity="0.2"/><circle cx="58.47" cy="274.46" r="1.02" fill="#dbe6ff" opacity="0.45"/><circle cx="450.71" cy="202.47" r="0.51" fill="#dbe6ff" opacity="0.4"/><circle cx="782.41" cy="103.34" r="0.58" fill="#dbe6ff" opacity="0.46"/><circle cx="634.13" cy="393.64" r="0.74" fill="#dbe6ff" opacity="0.39"/><circle cx="296.44" cy="125.52" r="0.59" fill="#dbe6ff" opacity="0.15"/><circle cx="681.66" cy="189.2" r="0.96" fill="#dbe6ff" opacity="0.28"/><circle cx="237.68" cy="75.62" r="1.06" fill="#dbe6ff" opacity="0.54"/><circle cx="549.17" cy="102.17" r="0.87" fill="#dbe6ff" opacity="0.35"/><circle cx="362.2" cy="177.46" r="0.88" fill="#dbe6ff" opacity="0.51"/><circle cx="652.93" cy="71.91" r="1.46" fill="#dbe6ff" opacity="0.14"/><circle cx="558.89" cy="322.38" r="1.36" fill="#dbe6ff" opacity="0.36"/><circle cx="395.19" cy="95.96" r="0.82" fill="#dbe6ff" opacity="0.36"/><circle cx="750.68" cy="128.16" r="0.83" fill="#dbe6ff" opacity="0.47"/><circle cx="650.32" cy="351.87" r="0.75" fill="#dbe6ff" opacity="0.44"/><circle cx="426.4" cy="296.72" r="0.73" fill="#dbe6ff" opacity="0.16"/><circle cx="743.02" cy="112.13" r="1.22" fill="#dbe6ff" opacity="0.48"/><circle cx="543.78" cy="166.52" r="1.45" fill="#dbe6ff" opacity="0.15"/><circle cx="276.96" cy="71.45" r="1.13" fill="#dbe6ff" opacity="0.3"/><circle cx="752.07" cy="115.89" r="1.15" fill="#dbe6ff" opacity="0.46"/><circle cx="58.26" cy="270.47" r="0.45" fill="#dbe6ff" opacity="0.25"/><circle cx="70.31" cy="47.52" r="1.36" fill="#dbe6ff" opacity="0.45"/><circle cx="144.07" cy="233.16" r="1.3" fill="#dbe6ff" opacity="0.42"/><circle cx="653.31" cy="186.7" r="1.41" fill="#dbe6ff" opacity="0.1"/><circle cx="595.14" cy="381.01" r="1.01" fill="#dbe6ff" opacity="0.11"/><circle cx="610.11" cy="115.41" r="0.69" fill="#dbe6ff" opacity="0.34"/><circle cx="274.66" cy="247.05" r="1.18" fill="#dbe6ff" opacity="0.29"/><circle cx="151.64" cy="232.6" r="0.53" fill="#dbe6ff" opacity="0.38"/><circle cx="649.66" cy="125.84" r="1.02" fill="#dbe6ff" opacity="0.32"/><circle cx="40.08" cy="186.48" r="0.77" fill="#dbe6ff" opacity="0.22"/><circle cx="292.04" cy="186.43" r="1" fill="#dbe6ff" opacity="0.46"/></g><circle cx="678.75" cy="139.59" r="1.4" fill="#dbe6ff" opacity="0.2"><animate attributeName="opacity" begin="0s" dur="6.46s" values="0.2;0.8;0.2" repeatCount="indefinite"/></circle><circle cx="180.91" cy="112.7" r="1.4" fill="#dbe6ff" opacity="0.2"><animate attributeName="opacity" begin="0s" dur="7.48s" values="0.2;0.8;0.2" repeatCount="indefinite"/></circle><circle cx="180.46" cy="384.32" r="1.4" fill="#dbe6ff" opacity="0.2"><animate attributeName="opacity" begin="0s" dur="6.8s" values="0.2;0.8;0.2" repeatCount="indefinite"/></circle><circle cx="448.87" cy="105.88" r="1.4" fill="#dbe6ff" opacity="0.2"><animate attributeName="opacity" begin="0s" dur="5.07s" values="0.2;0.8;0.2" repeatCount="indefinite"/></circle><circle cx="37.72" cy="381.51" r="1.4" fill="#dbe6ff" opacity="0.2"><animate attributeName="opacity" begin="0s" dur="4.01s" values="0.2;0.8;0.2" repeatCount="indefinite"/></circle><circle cx="337.6" cy="356.07" r="1.4" fill="#dbe6ff" opacity="0.2"><animate attributeName="opacity" begin="0s" dur="5s" values="0.2;0.8;0.2" repeatCount="indefinite"/></circle><circle cx="206.29" cy="290.07" r="1.4" fill="#dbe6ff" opacity="0.2"><animate attributeName="opacity" begin="0s" dur="4.21s" values="0.2;0.8;0.2" repeatCount="indefinite"/></circle><circle cx="62.21" cy="198.74" r="1.4" fill="#dbe6ff" opacity="0.2"><animate attributeName="opacity" begin="0s" dur="5.7s" values="0.2;0.8;0.2" repeatCount="indefinite"/></circle><circle cx="89.12" cy="295.48" r="1.4" fill="#dbe6ff" opacity="0.2"><animate attributeName="opacity" begin="0s" dur="7.97s" values="0.2;0.8;0.2" repeatCount="indefinite"/></circle><circle cx="397.5" cy="161.23" r="1.4" fill="#dbe6ff" opacity="0.2"><animate attributeName="opacity" begin="0s" dur="4.73s" values="0.2;0.8;0.2" repeatCount="indefinite"/></circle><circle cx="293.62" cy="83.86" r="1.4" fill="#dbe6ff" opacity="0.2"><animate attributeName="opacity" begin="0s" dur="7.65s" values="0.2;0.8;0.2" repeatCount="indefinite"/></circle><circle cx="564.11" cy="247.56" r="1.4" fill="#dbe6ff" opacity="0.2"><animate attributeName="opacity" begin="0s" dur="7.48s" values="0.2;0.8;0.2" repeatCount="indefinite"/></circle><circle cx="153.85" cy="252.79" r="1.4" fill="#dbe6ff" opacity="0.2"><animate attributeName="opacity" begin="0s" dur="5.65s" values="0.2;0.8;0.2" repeatCount="indefinite"/></circle><circle cx="179.96" cy="255.78" r="1.4" fill="#dbe6ff" opacity="0.2"><animate attributeName="opacity" begin="0s" dur="4.96s" values="0.2;0.8;0.2" repeatCount="indefinite"/></circle><circle cx="631.26" cy="305.74" r="1.4" fill="#dbe6ff" opacity="0.2"><animate attributeName="opacity" begin="0s" dur="4.58s" values="0.2;0.8;0.2" repeatCount="indefinite"/></circle><circle cx="435.97" cy="91" r="1.4" fill="#dbe6ff" opacity="0.2"><animate attributeName="opacity" begin="0s" dur="4.84s" values="0.2;0.8;0.2" repeatCount="indefinite"/></circle><circle cx="704.93" cy="325.01" r="1.4" fill="#dbe6ff" opacity="0.2"><animate attributeName="opacity" begin="0s" dur="5.99s" values="0.2;0.8;0.2" repeatCount="indefinite"/></circle><circle cx="534.47" cy="156.01" r="1.4" fill="#dbe6ff" opacity="0.2"><animate attributeName="opacity" begin="0s" dur="7.89s" values="0.2;0.8;0.2" repeatCount="indefinite"/></circle><circle cx="421.98" cy="368.17" r="1.4" fill="#dbe6ff" opacity="0.2"><animate attributeName="opacity" begin="0s" dur="7.78s" values="0.2;0.8;0.2" repeatCount="indefinite"/></circle><circle cx="741.56" cy="396.05" r="1.4" fill="#dbe6ff" opacity="0.2"><animate attributeName="opacity" begin="0s" dur="7.98s" values="0.2;0.8;0.2" repeatCount="indefinite"/></circle><circle cx="281.38" cy="330.59" r="1.4" fill="#dbe6ff" opacity="0.2"><animate attributeName="opacity" begin="0s" dur="6.45s" values="0.2;0.8;0.2" repeatCount="indefinite"/></circle><circle cx="296.31" cy="129.05" r="1.4" fill="#dbe6ff" opacity="0.2"><animate attributeName="opacity" begin="0s" dur="6.3s" values="0.2;0.8;0.2" repeatCount="indefinite"/></circle><circle cx="428.96" cy="103.2" r="1.4" fill="#dbe6ff" opacity="0.2"><animate attributeName="opacity" begin="0s" dur="4.13s" values="0.2;0.8;0.2" repeatCount="indefinite"/></circle><circle cx="251.85" cy="230.24" r="1.4" fill="#dbe6ff" opacity="0.2"><animate attributeName="opacity" begin="0s" dur="7.12s" values="0.2;0.8;0.2" repeatCount="indefinite"/></circle><circle cx="191" cy="206.11" r="1.4" fill="#dbe6ff" opacity="0.2"><animate attributeName="opacity" begin="0s" dur="4.35s" values="0.2;0.8;0.2" repeatCount="indefinite"/></circle><circle cx="103.26" cy="30.43" r="1.4" fill="#dbe6ff" opacity="0.2"><animate attributeName="opacity" begin="0s" dur="4.81s" values="0.2;0.8;0.2" repeatCount="indefinite"/></circle><circle cx="373.24" cy="25.74" r="1.4" fill="#dbe6ff" opacity="0.2"><animate attributeName="opacity" begin="0s" dur="7.58s" values="0.2;0.8;0.2" repeatCount="indefinite"/></circle><circle cx="156.65" cy="227.66" r="1.4" fill="#dbe6ff" opacity="0.2"><animate attributeName="opacity" begin="0s" dur="7.07s" values="0.2;0.8;0.2" repeatCount="indefinite"/></circle><circle cx="393.21" cy="314.27" r="1.4" fill="#dbe6ff" opacity="0.2"><animate attributeName="opacity" begin="0s" dur="4.25s" values="0.2;0.8;0.2" repeatCount="indefinite"/></circle><circle cx="777.6" cy="251.5" r="1.4" fill="#dbe6ff" opacity="0.2"><animate attributeName="opacity" begin="0s" dur="7.2s" values="0.2;0.8;0.2" repeatCount="indefinite"/></circle><circle cx="662.64" cy="52.1" r="1.4" fill="#dbe6ff" opacity="0.2"><animate attributeName="opacity" begin="0s" dur="6.78s" values="0.2;0.8;0.2" repeatCount="indefinite"/></circle><circle cx="96.84" cy="85.9" r="1.4" fill="#dbe6ff" opacity="0.2"><animate attributeName="opacity" begin="0s" dur="5.4s" values="0.2;0.8;0.2" repeatCount="indefinite"/></circle><circle cx="208.61" cy="238.06" r="1.4" fill="#dbe6ff" opacity="0.2"><animate attributeName="opacity" begin="0s" dur="6.76s" values="0.2;0.8;0.2" repeatCount="indefinite"/></circle><circle cx="413.67" cy="337.73" r="1.4" fill="#dbe6ff" opacity="0.2"><animate attributeName="opacity" begin="0s" dur="7.02s" values="0.2;0.8;0.2" repeatCount="indefinite"/></circle><circle cx="227.96" cy="198.72" r="1.4" fill="#dbe6ff" opacity="0.2"><animate attributeName="opacity" begin="0s" dur="7.37s" values="0.2;0.8;0.2" repeatCount="indefinite"/></circle><circle cx="74.83" cy="107.17" r="1.4" fill="#dbe6ff" opacity="0.2"><animate attributeName="opacity" begin="0s" dur="6.34s" values="0.2;0.8;0.2" repeatCount="indefinite"/></circle><circle cx="383.84" cy="70.34" r="1.4" fill="#dbe6ff" opacity="0.2"><animate attributeName="opacity" begin="0s" dur="4.33s" values="0.2;0.8;0.2" repeatCount="indefinite"/></circle><circle cx="726.69" cy="326.09" r="1.4" fill="#dbe6ff" opacity="0.2"><animate attributeName="opacity" begin="0s" dur="6.77s" values="0.2;0.8;0.2" repeatCount="indefinite"/></circle><circle cx="694.24" cy="175.12" r="1.4" fill="#dbe6ff" opacity="0.2"><animate attributeName="opacity" begin="0s" dur="7.51s" values="0.2;0.8;0.2" repeatCount="indefinite"/></circle><circle cx="617.09" cy="328.67" r="1.4" fill="#dbe6ff" opacity="0.2"><animate attributeName="opacity" begin="0s" dur="4.18s" values="0.2;0.8;0.2" repeatCount="indefinite"/></circle><circle cx="285.52" cy="182.87" r="1.4" fill="#dbe6ff" opacity="0.2"><animate attributeName="opacity" begin="0s" dur="4.81s" values="0.2;0.8;0.2" repeatCount="indefinite"/></circle><circle cx="349.44" cy="377.83" r="1.4" fill="#dbe6ff" opacity="0.2"><animate attributeName="opacity" begin="0s" dur="6.79s" values="0.2;0.8;0.2" repeatCount="indefinite"/></circle><circle cx="615.89" cy="392.99" r="1.4" fill="#dbe6ff" opacity="0.2"><animate attributeName="opacity" begin="0s" dur="4.93s" values="0.2;0.8;0.2" repeatCount="indefinite"/></circle><circle cx="337.95" cy="116.5" r="1.4" fill="#dbe6ff" opacity="0.2"><animate attributeName="opacity" begin="0s" dur="5.09s" values="0.2;0.8;0.2" repeatCount="indefinite"/></circle><text x="415" y="196" text-anchor="middle" font-family="Georgia, 'Times New Roman', serif" font-size="30" fill="url(#gilded)" font-weight="bold" letter-spacing="3">No such legend</text><rect x="285" y="218" width="260" height="1" fill="url(#rule-fade)"/><rect x="30" y="245" width="55" height="1" fill="url(#rule-fade)"/><rect x="745" y="245" width="55" height="1" fill="url(#rule-fade)"/><circle cx="95" cy="245.5" r="1.8" fill="#d9b45b" opacity="0.8"/><circle cx="735" cy="245.5" r="1.8" fill="#d9b45b" opacity="0.8"/><text x="415" y="250" text-anchor="middle" font-family="Georgia, 'Times New Roman', serif" font-size="15.5" fill="url(#gilded)" font-style="italic" letter-spacing="0.5">The archives bear no epic of octocat.</text><text x="415" y="391" text-anchor="middle" font-family="Georgia, 'Times New Roman', serif" font-size="13" fill="#8b93a7">✦ forge yours at git-epic.dev</text></svg>