<svg xmlns="http://www.w3.org/2000/svg" width="830" height="415" viewBox="0 0 830 415" role="img"><defs><radialGradient id="nebula" cx="50%" cy="45%" r="65%"><stop offset="0%" stop-color="#2b2a5e" stop-opacity="0.85"/><stop offset="45%" stop-color="#1a1c3f" stop-opacity="0.45"/><stop offset="100%" stop-color="#070b14" stop-opacity="0"/></radialGradient><radialGradient id="spark-glow" cx="50%" cy="50%" r="50%"><stop offset="0%" stop-color="#ffd27d" stop-opacity="0.9"/><stop offset="40%" stop-color="#ffb45e" stop-opacity="0.35"/><stop offset="100%" stop-color="#ffb45e" stop-opacity="0"/></radialGradient><linearGradient id="gilded" x1="0" y1="0" x2="0" y2="1"><stop offset="0%" stop-color="#f7ecd0"/><stop offset="100%" stop-color="#d9b45b"/></linearGradient><linearGradient id="rule-fade" x1="0" y1="0" x2="1" y2="0"><stop offset="0%" stop-color="#d9b45b" stop-opacity="0"/><stop offset="50%" stop-color="#d9b45b" stop-opacity="0.8"/><stop offset="100%" stop-color="#d9b45b" stop-opacity="0"/></linearGradient></defs><rect width="830" height="415" fill="#070b14"/><ellipse cx="415" cy="196" rx="300" ry="130" fill="url(#nebula)" opacity="0.7"/><g><circle cx="789.7" cy="55.98" r="0.42" fill="#dbe6ff" opacity="0.51"/><circle cx="522.16" cy="156.5" r="0.88" fill="#dbe6ff" opacity="0.28"/><circle cx="216.53" cy="234.07" r="1.48" fill="#dbe6ff" opacity="0.43"/><circle cx="800.88" cy="123.35" r="0.48" fill="#dbe6ff" opacity="0.19"/><circle cx="700.61" cy="406.86" r="0.62" fill="#dbe6ff" opacity="0.31"/><circle cx="20.69" cy="66.87" r="1.47" fill="#dbe6ff" opacity="0.44"/><circle cx="269.98" cy="353.88" r="0.79" fill="#dbe6ff" opacity="0.28"/><circle cx="343.27" cy="157.1" r="0.46" fill="#dbe6ff" opacity="0.22"/><circle cx="464.93" cy="4.61" r="0.98" fill="#dbe6ff" opacity="0.28"/><circle cx="128.7" cy="69.11" r="1.38" fill="#dbe6ff" opacity="0.13"/><circle cx="120" cy="98.7" r="1.25" fill="#dbe6ff" opacity="0.45"/><circle cx="620.09" cy="136.95" r="1.09" fill="#dbe6ff" opacity="0.28"/><circle cx="601.96" cy="293.21" r="1.27" fill="#dbe6ff" opacity="0.21"/><circle cx="81.42" cy="124.8" r="1.29" fill="#dbe6ff" opacity="0.32"/><circle cx="544.31" cy="269.64" r="0.74" fill="#dbe6ff" opacity="0.27"/><circle cx="239.42" cy="89.08" r="0.55" fill="#dbe6ff" opacity="0.16"/><circle cx="208.42" cy="326.16" r="0.46" fill="#dbe6ff" opacity="0.47"/><circle cx="404.82" cy="155.31" r="0.45" fill="#dbe6ff" opacity="0.14"/><circle cx="191.19" cy="300.94" r="0.96" fill="#dbe6ff" opacity="0.49"/><circle cx="356.91" cy="243.98" r="0.67" fill="#dbe6ff" opacity="0.48"/><circle cx="607.72" cy="280.66" r="0.43" fill="#dbe6ff" opacity="0.41"/><circle cx="509.43" cy="353.63" r="0.84" fill="#dbe6ff" opacity="0.13"/><circle cx="260.35" cy="71.19" r="0.97" fill="#dbe6ff" opacity="0.21"/><circle cx="296.3" cy="83.27" r="0.46" fill="#dbe6ff" opacity="0.23"/><circle cx="334.72" cy="85.47" r="0.47" fill="#dbe6ff" opacity="0.46"/><circle cx="705.67" cy="371.62" r="0.59" fill="#dbe6ff" opacity="0.37"/><circle cx="46.86" cy="193.1" r="0.63" fill="#dbe6ff" opacity="0.54"/><circle cx="219.69" cy="236.01" r="0.47" fill="#dbe6ff" opacity="0.28"/><circle cx="159.71" cy="244.05" r="1.3" fill="#dbe6ff" opacity="0.54"/><circle cx="622.9" cy="249.23" r="0.42" fill="#dbe6ff" opacity="0.41"/><circle cx="415.24" cy="143.93" r="0.52" fill="#dbe6ff" opacity="0.21"/><circle cx="560.82" cy="187.95" r="0.73" fill="#dbe6ff" opacity="0.43"/><circle cx="226.51" cy="100.08" r="0.42" fill="#dbe6ff" opacity="0.32"/><circle cx="8.94" cy="347.33" r="1.31" fill="#dbe6ff" opacity="0.23"/><circle cx="301.67" cy="194.05" r="0.93" fill="#dbe6ff" opacity="0.24"/><circle cx="47.68" cy="206.98" r="0.56" fill="#dbe6ff" opacity="0.11"/><circle cx="313.75" cy="70.74" r="0.81" fill="#dbe6ff" opacity="0.21"/><circle cx="813.19" cy="125.79" r="1.41" fill="#dbe6ff" opacity="0.27"/><circle cx="52.79" cy="339.13" r="1.02" fill="#dbe6ff" opacity="0.41"/><circle cx="737.79" cy="35.65" r="1.4" fill="#dbe6ff" opacity="0.26"/><circle cx="430.35" cy="230.1" r="0.98" fill="#dbe6ff" opacity="0.16"/><circle cx="567.17" cy="296.08" r="0.94" fill="#dbe6ff" opacity="0.39"/><circle cx="312.55" cy="367.06" r="0.73" fill="#dbe6ff" opacity="0.44"/><circle cx="120.75" cy="215.35" r="0.98" fill="#dbe6ff" opacity="0.2"/><circle cx="258.25" cy="211.67" r="1.17" fill="#dbe6ff" opacity="0.19"/><circle cx="387.45" cy="211.05" r="1.31" fill="#dbe6ff" opacity="0.2"/><circle cx="281.55" cy="9.98" r="0.63" fill="#dbe6ff" opacity="0.31"/><circle cx="82.26" cy="37.17" r="0.66" fill="#dbe6ff" opacity="0.46"/><circle cx="248" cy="53.27" r="0.89" fill="#dbe6ff" opacity="0.42"/><circle cx="470.22" cy="51.48" r="1.39" fill="#dbe6ff" opacity="0.39"/><circle cx="5.27" cy="329.78" r="1.14" fill="#dbe6ff" opacity="0.39"/><circle cx="688.25" cy="145.85" r="1.33" fill="#dbe6ff" opacity="0.43"/><circle cx="474.34" cy="27.13" r="1.15" fill="#dbe6ff" opacity="0.24"/><circle cx="532.34" cy="241.78" r="1.22" fill="#dbe6ff" opacity="0.28"/><circle cx="296.96" cy="347.27" r="1.42" fill="#dbe6ff" opacity="0.54"/><circle cx="364.59" cy="29.96" r="1.02" fill="#dbe6ff" opacity="0.1"/><circle cx="144.49" cy="194.82" r="1.31" fill="#dbe6ff" opacity="0.43"/><circle cx="815.48" cy="272.47" r="0.68" fill="#dbe6ff" opacity="0.52"/><circle cx="185.52" cy="274.74" r="1.21" fill="#dbe6ff" opacity="0.25"/><circle cx="510.91" cy="253.29" r="1.16" fill="#dbe6ff" opacity="0.34"/><circle cx="567.46" cy="380.98" r="0.62" fill="#dbe6ff" opacity="0.23"/><circle cx="151.64" cy="308.89" r="0.57" fill="#dbe6ff" opacity="0.35"/><circle cx="92.67" cy="407.5" r="1.24" fill="#dbe6ff" opacity="0.54"/><circle cx="154.76" cy="331.49" r="0.43" fill="#dbe6ff" opacity="0.53"/><circle cx="492.52" cy="314.56" r="1.35" fill="#dbe6ff" opacity="0.41"/><circle cx="262.96" cy="83.52" r="1.44" fill="#dbe6ff" opacity="0.44"/><circle cx="213.91" cy="175.74" r="0.54" fill="#dbe6ff" opacity="0.31"/><circle cx="133.87" cy="282.06" r="0.66" fill="#dbe6ff" opacity="0.36"/><circle cx="213.46" cy="56.48" r="0.71" fill="#dbe6ff" opacity="0.47"/><circle cx="344.9" cy="171.14" r="1.47" fill="#dbe6ff" opacity="0.52"/><circle cx="569.89" cy="206.08" r="1.04" fill="#dbe6ff" opacity="0.5"/><circle cx="630.84" cy="16.52" r="0.84" fill="#dbe6ff" opacity="0.3"/><circle cx="17.43" cy="346.89" r="0.53" fill="#dbe6ff" opacity="0.44"/><circle cx="49.38" cy="233.25" r="1" fill="#dbe6ff" opacity="0.28"/><circle cx="518.57" cy="239.35" r="1.3" fill="#dbe6ff" opacity="0.33"/><circle cx="252.57" cy="205.53" r="0.75" fill="#dbe6ff" opacity="0.29"/><circle cx="450.36" cy="315.99" r="0.55" fill="#dbe6ff" opacity="0.48"/><circle cx="211.21" cy="334.7" r="0.62" fill="#dbe6ff" opacity="0.14"/><circle cx="49.55" cy="283.56" r="1.19" fill="#dbe6ff" opacity="0.49"/><circle cx="684.55" cy="74.76" r="1.04" fill="#dbe6ff" opacity="0.37"/><circle cx="446.86" cy="290.03" r="0.64" fill="#dbe6ff" opacity="0.51"/><circle cx="771.82" cy="286.52" r="0.72" fill="#dbe6ff" opacity="0.24"/><circle cx="229.63" cy="232.91" r="0.44" fill="#dbe6ff" opacity="0.14"/><circle cx="510.53" cy="118.3" r="1.21" fill="#dbe6ff" opacity="0.24"/><circle cx="745.31" cy="321.57" r="1.3" fill="#dbe6ff" opacity="0.43"/><circle cx="590.77" cy="133.48" r="0.67" fill="#dbe6ff" opacity="0.41"/><circle cx="507.15" cy="138.53" r="0.57" fill="#dbe6ff" opacity="0.17"/><circle cx="746.59" cy="127.63" r="0.75" fill="#dbe6ff" opacity="0.2"/><circle cx="140.23" cy="357.03" r="1.22" fill="#dbe6ff" opacity="0.18"/><circle cx="764.95" cy="80.29" r="1.11" fill="#dbe6ff" opacity="0.15"/><circle cx="320.99" cy="11.32" r="1.26" fill="#dbe6ff" opacity="0.37"/><circle cx="717" cy="248.63" r="0.71" fill="#dbe6ff" opacity="0.55"/><circle cx="271.27" cy="105.27" r="0.89" fill="#dbe6ff" opacity="0.31"/><circle cx="115.52" cy="403.55" r="0.43" fill="#dbe6ff" opacity="0.26"/><circle cx="37.77" cy="400.61" r="1.1" fill="#dbe6ff" opacity="0.38"/><circle cx="167.69" cy="26.61" r="1.39" fill="#dbe6ff" opacity="0.44"/><circle cx="340.83" cy="376.45" r="1.37" fill="#dbe6ff" opacity="0.39"/><circle cx="236.44" cy="253.54" r="1.1" fill="#dbe6ff" opacity="0.51"/><circle cx="182.2" cy="400.34" r="0.67" fill="#dbe6ff" opacity="0.15"/><circle cx="89.11" cy="84.31" r="0.88" fill="#dbe6ff" opacity="0.45"/><circle cx="806.83" cy="103.15" r="1.39" fill="#dbe6ff" opacity="0.39"/><circle cx="378.38" cy="177.21" r="1.24" fill="#dbe6ff" opacity="0.13"/><circle cx="484.57" cy="352.34" r="0.75" fill="#dbe6ff" opacity="0.22"/><circle cx="6.71" cy="4.87" r="0.87" fill="#dbe6ff" opacity="0.13"/><circle cx="205.09" cy="162.88" r="0.41" fill="#dbe6ff" opacity="0.25"/><circle cx="139.12" cy="100.01" r="1.03" fill="#dbe6ff" opacity="0.5"/><circle cx="826.37" cy="220.36" r="1.02" fill="#dbe6ff" opacity="0.35"/><circle cx="757.44" cy="332.75" r="0.77" fill="#dbe6ff" opacity="0.14"/><circle cx="511.65" cy="376.44" r="0.94" fill="#dbe6ff" opacity="0.28"/><circle cx="26.35" cy="165.49" r="0.44" fill="#dbe6ff" opacity="0.18"/></g><circle cx="399.73" cy="175.61" r="1.4" fill="#dbe6ff" opacity="0.2"><animate attributeName="opacity" begin="0s" dur="6.27s" values="0.2;0.8;0.2" repeatCount="indefinite"/></circle><circle cx="109.82" cy="17.26" r="1.4" fill="#dbe6ff" opacity="0.2"><animate attributeName="opacity" begin="0s" dur="4.23s" values="0.2;0.8;0.2" repeatCount="indefinite"/></circle><circle cx="330.53" cy="408.79" r="1.4" fill="#dbe6ff" opacity="0.2"><animate attributeName="opacity" begin="0s" dur="7.08s" values="0.2;0.8;0.2" repeatCount="indefinite"/></circle><circle cx="802.77" cy="391.85" r="1.4" fill="#dbe6ff" opacity="0.2"><animate attributeName="opacity" begin="0s" dur="6.55s" values="0.2;0.8;0.2" repeatCount="indefinite"/></circle><circle cx="87.55" cy="9.14" r="1.4" fill="#dbe6ff" opacity="0.2"><animate attributeName="opacity" begin="0s" dur="4.67s" values="0.2;0.8;0.2" repeatCount="indefinite"/></circle><circle cx="158.48" cy="288.25" r="1.4" fill="#dbe6ff" opacity="0.2"><animate attributeName="opacity" begin="0s" dur="4.16s" values="0.2;0.8;0.2" repeatCount="indefinite"/></circle><circle cx="658.1" cy="177.37" r="1.4" fill="#dbe6ff" opacity="0.2"><animate attributeName="opacity" begin="0s" dur="6.22s" values="0.2;0.8;0.2" repeatCount="indefinite"/></circle><circle cx="207.46" cy="92.3" r="1.4" fill="#dbe6ff" opacity="0.2"><animate attributeName="opacity" begin="0s" dur="6.5s" values="0.2;0.8;0.2" repeatCount="indefinite"/></circle><circle cx="444.25" cy="141.43" r="1.4" fill="#dbe6ff" opacity="0.2"><animate attributeName="opacity" begin="0s" dur="6.61s" values="0.2;0.8;0.2" repeatCount="indefinite"/></circle><circle cx="223.51" cy="116.52" r="1.4" fill="#dbe6ff" opacity="0.2"><animate attributeName="opacity" begin="0s" dur="6.14s" values="0.2;0.8;0.2" repeatCount="indefinite"/></circle><circle cx="503.5" cy="137.2" r="1.4" fill="#dbe6ff" opacity="0.2"><animate attributeName="opacity" begin="0s" dur="6.97s" values="0.2;0.8;0.2" repeatCount="indefinite"/></circle><circle cx="339.78" cy="142.31" r="1.4" fill="#dbe6ff" opacity="0.2"><animate attributeName="opacity" begin="0s" dur="5.67s" values="0.2;0.8;0.2" repeatCount="indefinite"/></circle><circle cx="38.46" cy="299.14" r="1.4" fill="#dbe6ff" opacity="0.2"><animate attributeName="opacity" begin="0s" dur="4.38s" values="0.2;0.8;0.2" repeatCount="indefinite"/></circle><circle cx="296.05" cy="307.99" r="1.4" fill="#dbe6ff" opacity="0.2"><animate attributeName="opacity" begin="0s" dur="4.65s" values="0.2;0.8;0.2" repeatCount="indefinite"/></circle><circle cx="582.85" cy="15.8" r="1.4" fill="#dbe6ff" opacity="0.2"><animate attributeName="opacity" begin="0s" dur="4.13s" values="0.2;0.8;0.2" repeatCount="indefinite"/></circle><circle cx="10.22" cy="194.93" r="1.4" fill="#dbe6ff" opacity="0.2"><animate attributeName="opacity" begin="0s" dur="7.69s" values="0.2;0.8;0.2" repeatCount="indefinite"/></circle><circle cx="491.01" cy="324.6" r="1.4" fill="#dbe6ff" opacity="0.2"><animate attributeName="opacity" begin="0s" dur="5.4s" values="0.2;0.8;0.2" repeatCount="indefinite"/></circle><circle cx="721.96" cy="121.94" r="1.4" fill="#dbe6ff" opacity="0.2"><animate attributeName="opacity" begin="0s" dur="4.58s" values="0.2;0.8;0.2" repeatCount="indefinite"/></circle><circle cx="208.37" cy="362.51" r="1.4" fill="#dbe6ff" opacity="0.2"><animate attributeName="opacity" begin="0s" dur="7.53s" values="0.2;0.8;0.2" repeatCount="indefinite"/></circle><circle cx="190.52" cy="387.08" r="1.4" fill="#dbe6ff" opacity="0.2"><animate attributeName="opacity" begin="0s" dur="7.29s" values="0.2;0.8;0.2" repeatCount="indefinite"/></circle><circle cx="11.54" cy="257.94" r="1.4" fill="#dbe6ff" opacity="0.2"><animate attributeName="opacity" begin="0s" dur="6.99s" values="0.2;0.8;0.2" repeatCount="indefinite"/></circle><circle cx="740.29" cy="366.94" r="1.4" fill="#dbe6ff" opacity="0.2"><animate attributeName="opacity" begin="0s" dur="7.75s" values="0.2;0.8;0.2" repeatCount="indefinite"/></circle><circle cx="616.01" cy="330.36" r="1.4" fill="#dbe6ff" opacity="0.2"><animate attributeName="opacity" begin="0s" dur="4.36s" values="0.2;0.8;0.2" repeatCount="indefinite"/></circle><circle cx="755.01" cy="236.03" r="1.4" fill="#dbe6ff" opacity="0.2"><animate attributeName="opacity" begin="0s" dur="5.34s" values="0.2;0.8;0.2" repeatCount="indefinite"/></circle><circle cx="362.52" cy="82.26" r="1.4" fill="#dbe6ff" opacity="0.2"><animate attributeName="opacity" begin="0s" dur="4.88s" values="0.2;0.8;0.2" repeatCount="indefinite"/></circle><circle cx="84.57" cy="91.2" r="1.4" fill="#dbe6ff" opacity="0.2"><animate attributeName="opacity" begin="0s" dur="4.69s" values="0.2;0.8;0.2" repeatCount="indefinite"/></circle><circle cx="772.34" cy="144.68" r="1.4" fill="#dbe6ff" opacity="0.2"><animate attributeName="opacity" begin="0s" dur="6.87s" values="0.2;0.8;0.2" repeatCount="indefinite"/></circle><circle cx="409.12" cy="338.21" r="1.4" fill="#dbe6ff" opacity="0.2"><animate attributeName="opacity" begin="0s" dur="4.93s" values="0.2;0.8;0.2" repeatCount="indefinite"/></circle><circle cx="440.22" cy="213.38" r="1.4" fill="#dbe6ff" opacity="0.2"><animate attributeName="opacity" begin="0s" dur="6.34s" values="0.2;0.8;0.2" repeatCount="indefinite"/></circle><circle cx="116.81" cy="121.51" r="1.4" fill="#dbe6ff" opacity="0.2"><animate attributeName="opacity" begin="0s" dur="5.87s" values="0.2;0.8;0.2" repeatCount="indefinite"/></circle><circle cx="278.76" cy="32.41" r="1.4" fill="#dbe6ff" opacity="0.2"><animate attributeName="opacity" begin="0s" dur="4.51s" values="0.2;0.8;0.2" repeatCount="indefinite"/></circle><circle cx="232.81" cy="252.65" r="1.4" fill="#dbe6ff" opacity="0.2"><animate attributeName="opacity" begin="0s" dur="5.33s" values="0.2;0.8;0.2" repeatCount="indefinite"/></circle><circle cx="199.07" cy="403.43" r="1.4" fill="#dbe6ff" opacity="0.2"><animate attributeName="opacity" begin="0s" dur="7.69s" values="0.2;0.8;0.2" repeatCount="indefinite"/></circle><circle cx="821.39" cy="194.09" r="1.4" fill="#dbe6ff" opacity="0.2"><animate attributeName="opacity" begin="0s" dur="7.11s" values="0.2;0.8;0.2" repeatCount="indefinite"/></circle><circle cx="565.06" cy="130.83" r="1.4" fill="#dbe6ff" opacity="0.2"><animate attributeName="opacity" begin="0s" dur="4.88s" values="0.2;0.8;0.2" repeatCount="indefinite"/></circle><circle cx="580.01" cy="298.05" r="1.4" fill="#dbe6ff" opacity="0.2"><animate attributeName="opacity" begin="0s" dur="5.13s" values="0.2;0.8;0.2" repeatCount="indefinite"/></circle><circle cx="601.97" cy="374.04" r="1.4" fill="#dbe6ff" opacity="0.2"><animate attributeName="opacity" begin="0s" dur="6.01s" values="0.2;0.8;0.2" repeatCount="indefinite"/></circle><circle cx="331.56" cy="88.11" r="1.4" fill="#dbe6ff" opacity="0.2"><animate attributeName="opacity" begin="0s" dur="4.91s" values="0.2;0.8;0.2" repeatCount="indefinite"/></circle><circle cx="73.9" cy="236.03" r="1.4" fill="#dbe6ff" opacity="0.2"><animate attributeName="opacity" begin="0s" dur="6.59s" values="0.2;0.8;0.2" repeatCount="indefinite"/></circle><circle cx="706.99" cy="145.91" r="1.4" fill="#dbe6ff" opacity="0.2"><animate attributeName="opacity" begin="0s" dur="7.51s" values="0.2;0.8;0.2" repeatCount="indefinite"/></circle><circle cx="259.99" cy="25.82" r="1.4" fill="#dbe6ff" opacity="0.2"><animate attributeName="opacity" begin="0s" dur="4.46s" values="0.2;0.8;0.2" repeatCount="indefinite"/></circle><circle cx="448.31" cy="304.91" r="1.4" fill="#dbe6ff" opacity="0.2"><animate attributeName="opacity" begin="0s" dur="6.74s" values="0.2;0.8;0.2" repeatCount="indefinite"/></circle><circle cx="115.56" cy="413.14" r="1.4" fill="#dbe6ff" opacity="0.2"><animate attributeName="opacity" begin="0s" dur="5.84s" values="0.2;0.8;0.2" repeatCount="indefinite"/></circle><circle cx="452.31" cy="303.68" r="1.4" fill="#dbe6ff" opacity="0.2"><animate attributeName="opacity" begin="0s" dur="7.84s" values="0.2;0.8;0.2" repeatCount="indefinite"/></circle><text x="415" y="196" text-anchor="middle" font-family="Georgia, 'Times New Roman', serif" font-size="30" fill="url(#gilded)" font-weight="bold" letter-spacing="3">The epic is still being written</text><rect x="285" y="218" width="260" height="1" fill="url(#rule-fade)"/><rect x="30" y="245" width="55" height="1" fill="url(#rule-fade)"/><rect x="745" y="245" width="55" height="1" fill="url(#rule-fade)"/><circle cx="95" cy="245.5" r="1.8" fill="#d9b45b" opacity="0.8"/><circle cx="735" cy="245.5" r="1.8" fill="#d9b45b" opacity="0.8"/><text x="415" y="250" text-anchor="middle" font-family="Georgia, 'Times New Roman', serif" font-size="15.5" fill="url(#gilded)" font-style="italic" letter-spacing="0.5">Return shortly to witness it unfold.</text><text x="415" y="391" text-anchor="middle" font-family="Georgia, 'Times New Roman', serif" font-size="13" fill="#8b93a7">✦ forge yours at git-epic.dev</text></svg>