<svg xmlns="http://www.w3.org/2000/svg" width="688" height="1812" viewBox="0 0 688 1812" role="img"><title>The Epic of saga-weaver</title><desc>In the year 2018, the developer first set foot upon the public forge, and the epic began. Then came the year of abundance: the labors of 2019 doubled those of the year before. Then began the relentless campaign: thirty-five days of unbroken toil. And lo, meridian rose from nothing, and nine hundred stars gathered to witness it. And renown gathered upon the developer: a hundred stars in all. Then came the Dark Age: two hundred and twelve days, and not a single commit. In the year 2022, the developer forsook JavaScript, and there was much refactoring. And renown gathered upon the developer: a thousand stars in all.</desc><text x="24" y="28" font-family="system-ui, -apple-system, 'Segoe UI', Roboto, sans-serif" font-size="13" fill="#3a2417" text-anchor="start" letter-spacing="0.5">saga-weaver · JavaScript artisan</text><g transform="translate(24,0)"><clipPath id="export-row-0"><rect x="0" y="0" width="621" height="360"/></clipPath><g clip-path="url(#export-row-0)" transform="translate(0,48)"><defs><linearGradient id="mural-sky" x1="0" y1="0" x2="0" y2="1"><stop offset="0%" stop-color="#f6b26b"/><stop offset="100%" stop-color="#fbe3bd"/></linearGradient></defs><rect x="0" y="0" width="621" height="150" fill="url(#mural-sky)"/><rect x="0" y="150" width="621" height="60" fill="#d98b4a"/><g transform="translate(-24,0)"><g transform="translate(24,0)"><rect x="0" y="210" width="196" height="90" fill="#b9793d"/></g><g transform="translate(208,0)"><rect x="0" y="210" width="219" height="90" fill="#b9793d"/></g><g transform="translate(415,0)"><rect x="0" y="210" width="230" height="90" fill="#b9793d"/></g></g><polyline points="0,300 621,300" fill="none" stroke="#caa268" stroke-width="4"/><g transform="translate(-24,0)"><g transform="translate(30,300) scale(20.07,128)"><rect x="0.2" y="-0.8" width="0.6" height="0.8" fill="#a86a3a" stroke="#3a2417" stroke-width="1" vector-effect="non-scaling-stroke"/><polygon points="0.15,-0.8 0.85,-0.8 0.5,-1" fill="#6f3f20" stroke="#3a2417" stroke-width="1" vector-effect="non-scaling-stroke"/><rect x="0.42" y="-0.3" width="0.16" height="0.3" fill="#6f3f20" stroke="#3a2417" stroke-width="1" vector-effect="non-scaling-stroke"/><rect x="0.3" y="-0.6" width="0.12" height="0.12" fill="#6f3f20" stroke="#3a2417" stroke-width="1" vector-effect="non-scaling-stroke"/></g><g transform="translate(58.67,300) scale(20.07,78)"><rect x="0.4" y="-0.85" width="0.2" height="0.85" fill="#a86a3a" stroke="#3a2417" stroke-width="1" vector-effect="non-scaling-stroke"/><polygon points="0.4,-0.85 0.6,-0.85 0.5,-1" fill="#6f3f20" stroke="#3a2417" stroke-width="1" vector-effect="non-scaling-stroke"/></g><g transform="translate(87.33,300) scale(20.07,128)"><rect x="0.2" y="-0.8" width="0.6" height="0.8" fill="#a86a3a" stroke="#3a2417" stroke-width="1" vector-effect="non-scaling-stroke"/><polygon points="0.15,-0.8 0.85,-0.8 0.5,-1" fill="#6f3f20" stroke="#3a2417" stroke-width="1" vector-effect="non-scaling-stroke"/><rect x="0.42" y="-0.3" width="0.16" height="0.3" fill="#6f3f20" stroke="#3a2417" stroke-width="1" vector-effect="non-scaling-stroke"/><rect x="0.3" y="-0.6" width="0.12" height="0.12" fill="#6f3f20" stroke="#3a2417" stroke-width="1" vector-effect="non-scaling-stroke"/></g><g transform="translate(116,300) scale(20.07,16)"><polygon points="0.1,0 0.35,-0.5 0.6,-0.6 0.9,-0.3 1,0" fill="#a86a3a" stroke="#3a2417" stroke-width="1" vector-effect="non-scaling-stroke"/><circle cx="0.7" cy="-0.15" r="0.08" fill="#6f3f20" stroke="#3a2417" stroke-width="1" vector-effect="non-scaling-stroke"/></g><g transform="translate(144.67,300) scale(20.07,128)"><rect x="0.2" y="-0.8" width="0.6" height="0.8" fill="#a86a3a" stroke="#3a2417" stroke-width="1" vector-effect="non-scaling-stroke"/><polygon points="0.15,-0.8 0.85,-0.8 0.5,-1" fill="#6f3f20" stroke="#3a2417" stroke-width="1" vector-effect="non-scaling-stroke"/><rect x="0.42" y="-0.3" width="0.16" height="0.3" fill="#6f3f20" stroke="#3a2417" stroke-width="1" vector-effect="non-scaling-stroke"/><rect x="0.3" y="-0.6" width="0.12" height="0.12" fill="#6f3f20" stroke="#3a2417" stroke-width="1" vector-effect="non-scaling-stroke"/></g><g transform="translate(173.33,300) scale(20.07,78)"><rect x="0.4" y="-0.85" width="0.2" height="0.85" fill="#a86a3a" stroke="#3a2417" stroke-width="1" vector-effect="non-scaling-stroke"/><polygon points="0.4,-0.85 0.6,-0.85 0.5,-1" fill="#6f3f20" stroke="#3a2417" stroke-width="1" vector-effect="non-scaling-stroke"/></g><g transform="translate(214,300) scale(22.75,128)"><rect x="0.2" y="-0.8" width="0.6" height="0.8" fill="#a86a3a" stroke="#3a2417" stroke-width="1" vector-effect="non-scaling-stroke"/><polygon points="0.15,-0.8 0.85,-0.8 0.5,-1" fill="#6f3f20" stroke="#3a2417" stroke-width="1" vector-effect="non-scaling-stroke"/><rect x="0.42" y="-0.3" width="0.16" height="0.3" fill="#6f3f20" stroke="#3a2417" stroke-width="1" vector-effect="non-scaling-stroke"/><rect x="0.3" y="-0.6" width="0.12" height="0.12" fill="#6f3f20" stroke="#3a2417" stroke-width="1" vector-effect="non-scaling-stroke"/></g><g transform="translate(246.5,300) scale(22.75,78)"><rect x="0.4" y="-0.85" width="0.2" height="0.85" fill="#a86a3a" stroke="#3a2417" stroke-width="1" vector-effect="non-scaling-stroke"/><polygon points="0.4,-0.85 0.6,-0.85 0.5,-1" fill="#6f3f20" stroke="#3a2417" stroke-width="1" vector-effect="non-scaling-stroke"/></g><g transform="translate(279,300) scale(22.75,128)"><rect x="0.2" y="-0.8" width="0.6" height="0.8" fill="#a86a3a" stroke="#3a2417" stroke-width="1" vector-effect="non-scaling-stroke"/><polygon points="0.15,-0.8 0.85,-0.8 0.5,-1" fill="#6f3f20" stroke="#3a2417" stroke-width="1" vector-effect="non-scaling-stroke"/><rect x="0.42" y="-0.3" width="0.16" height="0.3" fill="#6f3f20" stroke="#3a2417" stroke-width="1" vector-effect="non-scaling-stroke"/><rect x="0.3" y="-0.6" width="0.12" height="0.12" fill="#6f3f20" stroke="#3a2417" stroke-width="1" vector-effect="non-scaling-stroke"/></g><g transform="translate(311.5,300) scale(22.75,16)"><polygon points="0.1,0 0.35,-0.5 0.6,-0.6 0.9,-0.3 1,0" fill="#a86a3a" stroke="#3a2417" stroke-width="1" vector-effect="non-scaling-stroke"/><circle cx="0.7" cy="-0.15" r="0.08" fill="#6f3f20" stroke="#3a2417" stroke-width="1" vector-effect="non-scaling-stroke"/></g><g transform="translate(344,300) scale(22.75,128)"><rect x="0.2" y="-0.8" width="0.6" height="0.8" fill="#a86a3a" stroke="#3a2417" stroke-width="1" vector-effect="non-scaling-stroke"/><polygon points="0.15,-0.8 0.85,-0.8 0.5,-1" fill="#6f3f20" stroke="#3a2417" stroke-width="1" vector-effect="non-scaling-stroke"/><rect x="0.42" y="-0.3" width="0.16" height="0.3" fill="#6f3f20" stroke="#3a2417" stroke-width="1" vector-effect="non-scaling-stroke"/><rect x="0.3" y="-0.6" width="0.12" height="0.12" fill="#6f3f20" stroke="#3a2417" stroke-width="1" vector-effect="non-scaling-stroke"/></g><g transform="translate(376.5,300) scale(22.75,78)"><rect x="0.4" y="-0.85" width="0.2" height="0.85" fill="#a86a3a" stroke="#3a2417" stroke-width="1" vector-effect="non-scaling-stroke"/><polygon points="0.4,-0.85 0.6,-0.85 0.5,-1" fill="#6f3f20" stroke="#3a2417" stroke-width="1" vector-effect="non-scaling-stroke"/></g><g transform="translate(421,300) scale(21.8,128)"><rect x="0.2" y="-0.8" width="0.6" height="0.8" fill="#a86a3a" stroke="#3a2417" stroke-width="1" vector-effect="non-scaling-stroke"/><polygon points="0.15,-0.8 0.85,-0.8 0.5,-1" fill="#6f3f20" stroke="#3a2417" stroke-width="1" vector-effect="non-scaling-stroke"/><rect x="0.42" y="-0.3" width="0.16" height="0.3" fill="#6f3f20" stroke="#3a2417" stroke-width="1" vector-effect="non-scaling-stroke"/><rect x="0.3" y="-0.6" width="0.12" height="0.12" fill="#6f3f20" stroke="#3a2417" stroke-width="1" vector-effect="non-scaling-stroke"/></g><g transform="translate(452.14,300) scale(21.8,78)"><rect x="0.4" y="-0.85" width="0.2" height="0.85" fill="#a86a3a" stroke="#3a2417" stroke-width="1" vector-effect="non-scaling-stroke"/><polygon points="0.4,-0.85 0.6,-0.85 0.5,-1" fill="#6f3f20" stroke="#3a2417" stroke-width="1" vector-effect="non-scaling-stroke"/></g><g transform="translate(483.29,300) scale(21.8,128)"><rect x="0.2" y="-0.8" width="0.6" height="0.8" fill="#a86a3a" stroke="#3a2417" stroke-width="1" vector-effect="non-scaling-stroke"/><polygon points="0.15,-0.8 0.85,-0.8 0.5,-1" fill="#6f3f20" stroke="#3a2417" stroke-width="1" vector-effect="non-scaling-stroke"/><rect x="0.42" y="-0.3" width="0.16" height="0.3" fill="#6f3f20" stroke="#3a2417" stroke-width="1" vector-effect="non-scaling-stroke"/><rect x="0.3" y="-0.6" width="0.12" height="0.12" fill="#6f3f20" stroke="#3a2417" stroke-width="1" vector-effect="non-scaling-stroke"/></g><g transform="translate(514.43,300) scale(21.8,16)"><polygon points="0.1,0 0.35,-0.5 0.6,-0.6 0.9,-0.3 1,0" fill="#a86a3a" stroke="#3a2417" stroke-width="1" vector-effect="non-scaling-stroke"/><circle cx="0.7" cy="-0.15" r="0.08" fill="#6f3f20" stroke="#3a2417" stroke-width="1" vector-effect="non-scaling-stroke"/></g><g transform="translate(545.57,300) scale(21.8,128)"><rect x="0.2" y="-0.8" width="0.6" height="0.8" fill="#a86a3a" stroke="#3a2417" stroke-width="1" vector-effect="non-scaling-stroke"/><polygon points="0.15,-0.8 0.85,-0.8 0.5,-1" fill="#6f3f20" stroke="#3a2417" stroke-width="1" vector-effect="non-scaling-stroke"/><rect x="0.42" y="-0.3" width="0.16" height="0.3" fill="#6f3f20" stroke="#3a2417" stroke-width="1" vector-effect="non-scaling-stroke"/><rect x="0.3" y="-0.6" width="0.12" height="0.12" fill="#6f3f20" stroke="#3a2417" stroke-width="1" vector-effect="non-scaling-stroke"/></g><g transform="translate(576.71,300) scale(21.8,78)"><rect x="0.4" y="-0.85" width="0.2" height="0.85" fill="#a86a3a" stroke="#3a2417" stroke-width="1" vector-effect="non-scaling-stroke"/><polygon points="0.4,-0.85 0.6,-0.85 0.5,-1" fill="#6f3f20" stroke="#3a2417" stroke-width="1" vector-effect="non-scaling-stroke"/></g><g transform="translate(607.86,300) scale(21.8,128)"><rect x="0.2" y="-0.8" width="0.6" height="0.8" fill="#a86a3a" stroke="#3a2417" stroke-width="1" vector-effect="non-scaling-stroke"/><polygon points="0.15,-0.8 0.85,-0.8 0.5,-1" fill="#6f3f20" stroke="#3a2417" stroke-width="1" vector-effect="non-scaling-stroke"/><rect x="0.42" y="-0.3" width="0.16" height="0.3" fill="#6f3f20" stroke="#3a2417" stroke-width="1" vector-effect="non-scaling-stroke"/><rect x="0.3" y="-0.6" width="0.12" height="0.12" fill="#6f3f20" stroke="#3a2417" stroke-width="1" vector-effect="non-scaling-stroke"/></g><g transform="translate(214,300) scale(136.5,97.68)"><rect x="0.45" y="-0.55" width="0.1" height="0.55" fill="#c8763c" stroke="#3a2417" stroke-width="1" vector-effect="non-scaling-stroke"/><rect x="0.15" y="-1" width="0.7" height="0.45" fill="#8f4a24" stroke="#3a2417" stroke-width="1" vector-effect="non-scaling-stroke"/></g><text x="282.25" y="197.32" font-family="system-ui, -apple-system, 'Segoe UI', Roboto, sans-serif" font-size="9" fill="#3a2417" text-anchor="middle" letter-spacing="0.5">210 issues</text><g transform="translate(421,300) scale(25.43,74)"><polygon points="0.3,0 0.7,0 0.62,-0.6 0.38,-0.6" fill="#c8763c" stroke="#3a2417" stroke-width="1" vector-effect="non-scaling-stroke"/><circle cx="0.5" cy="-0.78" r="0.16" fill="#8f4a24" stroke="#3a2417" stroke-width="1" vector-effect="non-scaling-stroke"/></g><g transform="translate(446.43,300) scale(25.43,74)"><polygon points="0.3,0 0.7,0 0.62,-0.6 0.38,-0.6" fill="#c8763c" stroke="#3a2417" stroke-width="1" vector-effect="non-scaling-stroke"/><circle cx="0.5" cy="-0.78" r="0.16" fill="#8f4a24" stroke="#3a2417" stroke-width="1" vector-effect="non-scaling-stroke"/></g><g transform="translate(471.87,300) scale(25.43,74)"><polygon points="0.3,0 0.7,0 0.62,-0.6 0.38,-0.6" fill="#c8763c" stroke="#3a2417" stroke-width="1" vector-effect="non-scaling-stroke"/><circle cx="0.5" cy="-0.78" r="0.16" fill="#8f4a24" stroke="#3a2417" stroke-width="1" vector-effect="non-scaling-stroke"/></g><g transform="translate(497.3,300) scale(25.43,74)"><polygon points="0.3,0 0.7,0 0.62,-0.6 0.38,-0.6" fill="#c8763c" stroke="#3a2417" stroke-width="1" vector-effect="non-scaling-stroke"/><circle cx="0.5" cy="-0.78" r="0.16" fill="#8f4a24" stroke="#3a2417" stroke-width="1" vector-effect="non-scaling-stroke"/></g><g transform="translate(522.73,300) scale(25.43,74)"><polygon points="0.3,0 0.7,0 0.62,-0.6 0.38,-0.6" fill="#c8763c" stroke="#3a2417" stroke-width="1" vector-effect="non-scaling-stroke"/><circle cx="0.5" cy="-0.78" r="0.16" fill="#8f4a24" stroke="#3a2417" stroke-width="1" vector-effect="non-scaling-stroke"/></g><g transform="translate(548.17,300) scale(25.43,74)"><polygon points="0.3,0 0.7,0 0.62,-0.6 0.38,-0.6" fill="#c8763c" stroke="#3a2417" stroke-width="1" vector-effect="non-scaling-stroke"/><circle cx="0.5" cy="-0.78" r="0.16" fill="#8f4a24" stroke="#3a2417" stroke-width="1" vector-effect="non-scaling-stroke"/></g><text x="497.3" y="221" font-family="system-ui, -apple-system, 'Segoe UI', Roboto, sans-serif" font-size="9" fill="#3a2417" text-anchor="middle" letter-spacing="0.5">1.2k followers</text><rect x="24" y="300" width="1.39" height="31" fill="#8a4a22"/><rect x="25.39" y="328.52" width="196.33" height="2.48" fill="#f0d5a8"/><rect x="221.72" y="300" width="1.39" height="31" fill="#8a4a22"/><rect x="223.11" y="328.52" width="211.64" height="2.48" fill="#f0d5a8"/><rect x="434.75" y="300" width="1.39" height="31" fill="#8a4a22"/><rect x="436.14" y="328.52" width="165.69" height="2.48" fill="#f0d5a8"/><rect x="601.84" y="324.8" width="41.77" height="6.2" fill="#e3b877"/><rect x="643.61" y="318.6" width="1.39" height="12.4" fill="#d18f4b"/><text x="116" y="52" font-family="system-ui, -apple-system, 'Segoe UI', Roboto, sans-serif" font-size="14" fill="#3a2417" text-anchor="middle" letter-spacing="1.5" font-weight="bold">THE FOUNDING</text><text x="311.5" y="52" font-family="system-ui, -apple-system, 'Segoe UI', Roboto, sans-serif" font-size="14" fill="#3a2417" text-anchor="middle" letter-spacing="1.5" font-weight="bold">THE YEAR OF ABUNDANCE</text><text x="530" y="52" font-family="system-ui, -apple-system, 'Segoe UI', Roboto, sans-serif" font-size="14" fill="#3a2417" text-anchor="middle" letter-spacing="1.5" font-weight="bold">THE LONG CAMPAIGN</text></g></g><clipPath id="export-row-1"><rect x="0" y="0" width="437" height="360"/></clipPath><g clip-path="url(#export-row-1)" transform="translate(0,424)"><defs><linearGradient id="mural-sky" x1="0" y1="0" x2="0" y2="1"><stop offset="0%" stop-color="#f6b26b"/><stop offset="100%" stop-color="#fbe3bd"/></linearGradient></defs><rect x="0" y="0" width="437" height="150" fill="url(#mural-sky)"/><rect x="0" y="150" width="437" height="60" fill="#d98b4a"/><g transform="translate(-645,0)"><g transform="translate(645,0)"><rect x="0" y="210" width="242" height="90" fill="#b9793d"/></g><g transform="translate(875,0)"><rect x="0" y="210" width="207" height="90" fill="#b9793d"/></g></g><polyline points="0,300 437,300" fill="none" stroke="#caa268" stroke-width="4"/><g transform="translate(-645,0)"><g transform="translate(651,300) scale(25.43,128)"><rect x="0.2" y="-0.8" width="0.6" height="0.8" fill="#a86a3a" stroke="#3a2417" stroke-width="1" vector-effect="non-scaling-stroke"/><polygon points="0.15,-0.8 0.85,-0.8 0.5,-1" fill="#6f3f20" stroke="#3a2417" stroke-width="1" vector-effect="non-scaling-stroke"/><rect x="0.42" y="-0.3" width="0.16" height="0.3" fill="#6f3f20" stroke="#3a2417" stroke-width="1" vector-effect="non-scaling-stroke"/><rect x="0.3" y="-0.6" width="0.12" height="0.12" fill="#6f3f20" stroke="#3a2417" stroke-width="1" vector-effect="non-scaling-stroke"/></g><g transform="translate(687.33,300) scale(25.43,78)"><rect x="0.4" y="-0.85" width="0.2" height="0.85" fill="#a86a3a" stroke="#3a2417" stroke-width="1" vector-effect="non-scaling-stroke"/><polygon points="0.4,-0.85 0.6,-0.85 0.5,-1" fill="#6f3f20" stroke="#3a2417" stroke-width="1" vector-effect="non-scaling-stroke"/></g><g transform="translate(723.67,300) scale(25.43,128)"><rect x="0.2" y="-0.8" width="0.6" height="0.8" fill="#a86a3a" stroke="#3a2417" stroke-width="1" vector-effect="non-scaling-stroke"/><polygon points="0.15,-0.8 0.85,-0.8 0.5,-1" fill="#6f3f20" stroke="#3a2417" stroke-width="1" vector-effect="non-scaling-stroke"/><rect x="0.42" y="-0.3" width="0.16" height="0.3" fill="#6f3f20" stroke="#3a2417" stroke-width="1" vector-effect="non-scaling-stroke"/><rect x="0.3" y="-0.6" width="0.12" height="0.12" fill="#6f3f20" stroke="#3a2417" stroke-width="1" vector-effect="non-scaling-stroke"/></g><g transform="translate(760,300) scale(25.43,16)"><polygon points="0.1,0 0.35,-0.5 0.6,-0.6 0.9,-0.3 1,0" fill="#a86a3a" stroke="#3a2417" stroke-width="1" vector-effect="non-scaling-stroke"/><circle cx="0.7" cy="-0.15" r="0.08" fill="#6f3f20" stroke="#3a2417" stroke-width="1" vector-effect="non-scaling-stroke"/></g><g transform="translate(796.33,300) scale(25.43,128)"><rect x="0.2" y="-0.8" width="0.6" height="0.8" fill="#a86a3a" stroke="#3a2417" stroke-width="1" vector-effect="non-scaling-stroke"/><polygon points="0.15,-0.8 0.85,-0.8 0.5,-1" fill="#6f3f20" stroke="#3a2417" stroke-width="1" vector-effect="non-scaling-stroke"/><rect x="0.42" y="-0.3" width="0.16" height="0.3" fill="#6f3f20" stroke="#3a2417" stroke-width="1" vector-effect="non-scaling-stroke"/><rect x="0.3" y="-0.6" width="0.12" height="0.12" fill="#6f3f20" stroke="#3a2417" stroke-width="1" vector-effect="non-scaling-stroke"/></g><g transform="translate(832.67,300) scale(25.43,78)"><rect x="0.4" y="-0.85" width="0.2" height="0.85" fill="#a86a3a" stroke="#3a2417" stroke-width="1" vector-effect="non-scaling-stroke"/><polygon points="0.4,-0.85 0.6,-0.85 0.5,-1" fill="#6f3f20" stroke="#3a2417" stroke-width="1" vector-effect="non-scaling-stroke"/></g><g transform="translate(881,300) scale(22.75,128)"><rect x="0.2" y="-0.8" width="0.6" height="0.8" fill="#a86a3a" stroke="#3a2417" stroke-width="1" vector-effect="non-scaling-stroke"/><polygon points="0.15,-0.8 0.85,-0.8 0.5,-1" fill="#6f3f20" stroke="#3a2417" stroke-width="1" vector-effect="non-scaling-stroke"/><rect x="0.42" y="-0.3" width="0.16" height="0.3" fill="#6f3f20" stroke="#3a2417" stroke-width="1" vector-effect="non-scaling-stroke"/><rect x="0.3" y="-0.6" width="0.12" height="0.12" fill="#6f3f20" stroke="#3a2417" stroke-width="1" vector-effect="non-scaling-stroke"/></g><g transform="translate(913.5,300) scale(22.75,78)"><rect x="0.4" y="-0.85" width="0.2" height="0.85" fill="#a86a3a" stroke="#3a2417" stroke-width="1" vector-effect="non-scaling-stroke"/><polygon points="0.4,-0.85 0.6,-0.85 0.5,-1" fill="#6f3f20" stroke="#3a2417" stroke-width="1" vector-effect="non-scaling-stroke"/></g><g transform="translate(946,300) scale(22.75,128)"><rect x="0.2" y="-0.8" width="0.6" height="0.8" fill="#a86a3a" stroke="#3a2417" stroke-width="1" vector-effect="non-scaling-stroke"/><polygon points="0.15,-0.8 0.85,-0.8 0.5,-1" fill="#6f3f20" stroke="#3a2417" stroke-width="1" vector-effect="non-scaling-stroke"/><rect x="0.42" y="-0.3" width="0.16" height="0.3" fill="#6f3f20" stroke="#3a2417" stroke-width="1" vector-effect="non-scaling-stroke"/><rect x="0.3" y="-0.6" width="0.12" height="0.12" fill="#6f3f20" stroke="#3a2417" stroke-width="1" vector-effect="non-scaling-stroke"/></g><g transform="translate(978.5,300) scale(22.75,16)"><polygon points="0.1,0 0.35,-0.5 0.6,-0.6 0.9,-0.3 1,0" fill="#a86a3a" stroke="#3a2417" stroke-width="1" vector-effect="non-scaling-stroke"/><circle cx="0.7" cy="-0.15" r="0.08" fill="#6f3f20" stroke="#3a2417" stroke-width="1" vector-effect="non-scaling-stroke"/></g><g transform="translate(1011,300) scale(22.75,128)"><rect x="0.2" y="-0.8" width="0.6" height="0.8" fill="#a86a3a" stroke="#3a2417" stroke-width="1" vector-effect="non-scaling-stroke"/><polygon points="0.15,-0.8 0.85,-0.8 0.5,-1" fill="#6f3f20" stroke="#3a2417" stroke-width="1" vector-effect="non-scaling-stroke"/><rect x="0.42" y="-0.3" width="0.16" height="0.3" fill="#6f3f20" stroke="#3a2417" stroke-width="1" vector-effect="non-scaling-stroke"/><rect x="0.3" y="-0.6" width="0.12" height="0.12" fill="#6f3f20" stroke="#3a2417" stroke-width="1" vector-effect="non-scaling-stroke"/></g><g transform="translate(1043.5,300) scale(22.75,78)"><rect x="0.4" y="-0.85" width="0.2" height="0.85" fill="#a86a3a" stroke="#3a2417" stroke-width="1" vector-effect="non-scaling-stroke"/><polygon points="0.4,-0.85 0.6,-0.85 0.5,-1" fill="#6f3f20" stroke="#3a2417" stroke-width="1" vector-effect="non-scaling-stroke"/></g><g transform="translate(651,300) scale(152.6,109.52)"><polygon points="0.15,0 0.15,-0.7 0.5,-0.9 0.85,-0.7 0.85,0" fill="#f2c14e" stroke="#3a2417" stroke-width="1" vector-effect="non-scaling-stroke"/><polygon points="0.3,-0.9 0.38,-1 0.46,-0.9 0.54,-1 0.62,-0.9 0.7,-1 0.78,-0.9" fill="#8f4a24" stroke="#3a2417" stroke-width="1" vector-effect="non-scaling-stroke"/></g><text x="727.3" y="185.48" font-family="system-ui, -apple-system, 'Segoe UI', Roboto, sans-serif" font-size="9" fill="#3a2417" text-anchor="middle" letter-spacing="0.5">1k ★</text><g transform="translate(881,300) scale(136.5,97.68)"><polygon points="0,0 0.55,0 1,-1 0.5,-1" fill="#c8763c" stroke="#3a2417" stroke-width="1" vector-effect="non-scaling-stroke"/></g><text x="949.25" y="197.32" font-family="system-ui, -apple-system, 'Segoe UI', Roboto, sans-serif" font-size="9" fill="#3a2417" text-anchor="middle" letter-spacing="0.5">152 forks</text><rect x="645" y="324.8" width="19" height="6.2" fill="#e3b877"/><rect x="664" y="328.52" width="418" height="2.48" fill="#f0d5a8"/><text x="760" y="52" font-family="system-ui, -apple-system, 'Segoe UI', Roboto, sans-serif" font-size="14" fill="#3a2417" text-anchor="middle" letter-spacing="1.5" font-weight="bold">THE FLAGSHIP RISES</text><text x="978.5" y="52" font-family="system-ui, -apple-system, 'Segoe UI', Roboto, sans-serif" font-size="14" fill="#3a2417" text-anchor="middle" letter-spacing="1.5" font-weight="bold">A GATHERING OF STARS</text></g></g><clipPath id="export-row-2"><rect x="0" y="0" width="460" height="360"/></clipPath><g clip-path="url(#export-row-2)" transform="translate(0,800)"><defs><linearGradient id="mural-sky" x1="0" y1="0" x2="0" y2="1"><stop offset="0%" stop-color="#f6b26b"/><stop offset="100%" stop-color="#fbe3bd"/></linearGradient></defs><rect x="0" y="0" width="460" height="150" fill="url(#mural-sky)"/><rect x="0" y="150" width="460" height="60" fill="#d98b4a"/><g transform="translate(-1082,0)"><g transform="translate(1082,0)"><rect x="0" y="210" width="265" height="90" fill="#b9793d"/></g><g transform="translate(1335,0)"><rect x="0" y="210" width="207" height="90" fill="#b9793d"/></g></g><polyline points="0,300 460,300" fill="none" stroke="#caa268" stroke-width="4"/><g transform="translate(-1082,0)"><g transform="translate(1088,300) scale(28.12,128)"><rect x="0.2" y="-0.8" width="0.6" height="0.8" fill="#a86a3a" stroke="#3a2417" stroke-width="1" vector-effect="non-scaling-stroke"/><polygon points="0.15,-0.8 0.85,-0.8 0.5,-1" fill="#6f3f20" stroke="#3a2417" stroke-width="1" vector-effect="non-scaling-stroke"/><rect x="0.42" y="-0.3" width="0.16" height="0.3" fill="#6f3f20" stroke="#3a2417" stroke-width="1" vector-effect="non-scaling-stroke"/><rect x="0.3" y="-0.6" width="0.12" height="0.12" fill="#6f3f20" stroke="#3a2417" stroke-width="1" vector-effect="non-scaling-stroke"/></g><g transform="translate(1128.17,300) scale(28.12,78)"><rect x="0.4" y="-0.85" width="0.2" height="0.85" fill="#a86a3a" stroke="#3a2417" stroke-width="1" vector-effect="non-scaling-stroke"/><polygon points="0.4,-0.85 0.6,-0.85 0.5,-1" fill="#6f3f20" stroke="#3a2417" stroke-width="1" vector-effect="non-scaling-stroke"/></g><g transform="translate(1168.33,300) scale(28.12,128)"><rect x="0.2" y="-0.8" width="0.6" height="0.8" fill="#a86a3a" stroke="#3a2417" stroke-width="1" vector-effect="non-scaling-stroke"/><polygon points="0.15,-0.8 0.85,-0.8 0.5,-1" fill="#6f3f20" stroke="#3a2417" stroke-width="1" vector-effect="non-scaling-stroke"/><rect x="0.42" y="-0.3" width="0.16" height="0.3" fill="#6f3f20" stroke="#3a2417" stroke-width="1" vector-effect="non-scaling-stroke"/><rect x="0.3" y="-0.6" width="0.12" height="0.12" fill="#6f3f20" stroke="#3a2417" stroke-width="1" vector-effect="non-scaling-stroke"/></g><g transform="translate(1208.5,300) scale(28.12,16)"><polygon points="0.1,0 0.35,-0.5 0.6,-0.6 0.9,-0.3 1,0" fill="#a86a3a" stroke="#3a2417" stroke-width="1" vector-effect="non-scaling-stroke"/><circle cx="0.7" cy="-0.15" r="0.08" fill="#6f3f20" stroke="#3a2417" stroke-width="1" vector-effect="non-scaling-stroke"/></g><g transform="translate(1248.67,300) scale(28.12,128)"><rect x="0.2" y="-0.8" width="0.6" height="0.8" fill="#a86a3a" stroke="#3a2417" stroke-width="1" vector-effect="non-scaling-stroke"/><polygon points="0.15,-0.8 0.85,-0.8 0.5,-1" fill="#6f3f20" stroke="#3a2417" stroke-width="1" vector-effect="non-scaling-stroke"/><rect x="0.42" y="-0.3" width="0.16" height="0.3" fill="#6f3f20" stroke="#3a2417" stroke-width="1" vector-effect="non-scaling-stroke"/><rect x="0.3" y="-0.6" width="0.12" height="0.12" fill="#6f3f20" stroke="#3a2417" stroke-width="1" vector-effect="non-scaling-stroke"/></g><g transform="translate(1288.83,300) scale(28.12,78)"><rect x="0.4" y="-0.85" width="0.2" height="0.85" fill="#a86a3a" stroke="#3a2417" stroke-width="1" vector-effect="non-scaling-stroke"/><polygon points="0.4,-0.85 0.6,-0.85 0.5,-1" fill="#6f3f20" stroke="#3a2417" stroke-width="1" vector-effect="non-scaling-stroke"/></g><g transform="translate(1341,300) scale(19.5,128)"><rect x="0.2" y="-0.8" width="0.6" height="0.8" fill="#a86a3a" stroke="#3a2417" stroke-width="1" vector-effect="non-scaling-stroke"/><polygon points="0.15,-0.8 0.85,-0.8 0.5,-1" fill="#6f3f20" stroke="#3a2417" stroke-width="1" vector-effect="non-scaling-stroke"/><rect x="0.42" y="-0.3" width="0.16" height="0.3" fill="#6f3f20" stroke="#3a2417" stroke-width="1" vector-effect="non-scaling-stroke"/><rect x="0.3" y="-0.6" width="0.12" height="0.12" fill="#6f3f20" stroke="#3a2417" stroke-width="1" vector-effect="non-scaling-stroke"/></g><g transform="translate(1368.86,300) scale(19.5,78)"><rect x="0.4" y="-0.85" width="0.2" height="0.85" fill="#a86a3a" stroke="#3a2417" stroke-width="1" vector-effect="non-scaling-stroke"/><polygon points="0.4,-0.85 0.6,-0.85 0.5,-1" fill="#6f3f20" stroke="#3a2417" stroke-width="1" vector-effect="non-scaling-stroke"/></g><g transform="translate(1396.71,300) scale(19.5,128)"><rect x="0.2" y="-0.8" width="0.6" height="0.8" fill="#a86a3a" stroke="#3a2417" stroke-width="1" vector-effect="non-scaling-stroke"/><polygon points="0.15,-0.8 0.85,-0.8 0.5,-1" fill="#6f3f20" stroke="#3a2417" stroke-width="1" vector-effect="non-scaling-stroke"/><rect x="0.42" y="-0.3" width="0.16" height="0.3" fill="#6f3f20" stroke="#3a2417" stroke-width="1" vector-effect="non-scaling-stroke"/><rect x="0.3" y="-0.6" width="0.12" height="0.12" fill="#6f3f20" stroke="#3a2417" stroke-width="1" vector-effect="non-scaling-stroke"/></g><g transform="translate(1424.57,300) scale(19.5,16)"><polygon points="0.1,0 0.35,-0.5 0.6,-0.6 0.9,-0.3 1,0" fill="#a86a3a" stroke="#3a2417" stroke-width="1" vector-effect="non-scaling-stroke"/><circle cx="0.7" cy="-0.15" r="0.08" fill="#6f3f20" stroke="#3a2417" stroke-width="1" vector-effect="non-scaling-stroke"/></g><g transform="translate(1452.43,300) scale(19.5,128)"><rect x="0.2" y="-0.8" width="0.6" height="0.8" fill="#a86a3a" stroke="#3a2417" stroke-width="1" vector-effect="non-scaling-stroke"/><polygon points="0.15,-0.8 0.85,-0.8 0.5,-1" fill="#6f3f20" stroke="#3a2417" stroke-width="1" vector-effect="non-scaling-stroke"/><rect x="0.42" y="-0.3" width="0.16" height="0.3" fill="#6f3f20" stroke="#3a2417" stroke-width="1" vector-effect="non-scaling-stroke"/><rect x="0.3" y="-0.6" width="0.12" height="0.12" fill="#6f3f20" stroke="#3a2417" stroke-width="1" vector-effect="non-scaling-stroke"/></g><g transform="translate(1480.29,300) scale(19.5,78)"><rect x="0.4" y="-0.85" width="0.2" height="0.85" fill="#a86a3a" stroke="#3a2417" stroke-width="1" vector-effect="non-scaling-stroke"/><polygon points="0.4,-0.85 0.6,-0.85 0.5,-1" fill="#6f3f20" stroke="#3a2417" stroke-width="1" vector-effect="non-scaling-stroke"/></g><g transform="translate(1508.14,300) scale(19.5,128)"><rect x="0.2" y="-0.8" width="0.6" height="0.8" fill="#a86a3a" stroke="#3a2417" stroke-width="1" vector-effect="non-scaling-stroke"/><polygon points="0.15,-0.8 0.85,-0.8 0.5,-1" fill="#6f3f20" stroke="#3a2417" stroke-width="1" vector-effect="non-scaling-stroke"/><rect x="0.42" y="-0.3" width="0.16" height="0.3" fill="#6f3f20" stroke="#3a2417" stroke-width="1" vector-effect="non-scaling-stroke"/><rect x="0.3" y="-0.6" width="0.12" height="0.12" fill="#6f3f20" stroke="#3a2417" stroke-width="1" vector-effect="non-scaling-stroke"/></g><g transform="translate(1088,300) scale(168.7,109.52)"><rect x="0.1" y="-0.5" width="0.12" height="0.5" fill="#c8763c" stroke="#3a2417" stroke-width="1" vector-effect="non-scaling-stroke"/><rect x="0.78" y="-0.5" width="0.12" height="0.5" fill="#c8763c" stroke="#3a2417" stroke-width="1" vector-effect="non-scaling-stroke"/><rect x="0" y="-0.5" width="1" height="0.16" fill="#8f4a24" stroke="#3a2417" stroke-width="1" vector-effect="non-scaling-stroke"/></g><text x="1172.35" y="185.48" font-family="system-ui, -apple-system, 'Segoe UI', Roboto, sans-serif" font-size="9" fill="#3a2417" text-anchor="middle" letter-spacing="0.5">640 PRs</text><g transform="translate(1341,164) scale(68.25,74)"><rect x="0.46" y="-1" width="0.08" height="1" fill="#8f4a24" stroke="#3a2417" stroke-width="1" vector-effect="non-scaling-stroke"/><rect x="0.3" y="-1" width="0.4" height="0.55" fill="#8f4a24" stroke="#3a2417" stroke-width="1" vector-effect="non-scaling-stroke"/></g><g transform="translate(1409.25,164) scale(68.25,74)"><rect x="0.46" y="-1" width="0.08" height="1" fill="#8f4a24" stroke="#3a2417" stroke-width="1" vector-effect="non-scaling-stroke"/><rect x="0.3" y="-1" width="0.4" height="0.55" fill="#8f4a24" stroke="#3a2417" stroke-width="1" vector-effect="non-scaling-stroke"/></g><rect x="1082" y="328.52" width="29.72" height="2.48" fill="#f0d5a8"/><rect x="1111.72" y="300" width="0.49" height="31" fill="#8a4a22"/><rect x="1112.21" y="328.52" width="103.31" height="2.48" fill="#f0d5a8"/><rect x="1215.52" y="300" width="0.49" height="31" fill="#8a4a22"/><rect x="1216" y="328.52" width="58.96" height="2.48" fill="#f0d5a8"/><rect x="1274.97" y="300" width="0.49" height="31" fill="#8a4a22"/><rect x="1275.45" y="328.52" width="58.96" height="2.48" fill="#f0d5a8"/><rect x="1334.42" y="300" width="0.49" height="31" fill="#8a4a22"/><rect x="1334.9" y="328.52" width="58.47" height="2.48" fill="#f0d5a8"/><rect x="1393.38" y="300" width="0.49" height="31" fill="#8a4a22"/><rect x="1393.86" y="328.52" width="58.96" height="2.48" fill="#f0d5a8"/><rect x="1452.83" y="300" width="0.49" height="31" fill="#8a4a22"/><rect x="1453.31" y="328.52" width="58.96" height="2.48" fill="#f0d5a8"/><rect x="1512.28" y="300" width="0.49" height="31" fill="#8a4a22"/><rect x="1512.76" y="328.52" width="29.24" height="2.48" fill="#f0d5a8"/><text x="1208.5" y="52" font-family="system-ui, -apple-system, 'Segoe UI', Roboto, sans-serif" font-size="14" fill="#3a2417" text-anchor="middle" letter-spacing="1.5" font-weight="bold">THE DARK AGE</text><text x="1438.5" y="52" font-family="system-ui, -apple-system, 'Segoe UI', Roboto, sans-serif" font-size="14" fill="#3a2417" text-anchor="middle" letter-spacing="1.5" font-weight="bold">THE GREAT REFACTOR</text></g></g><clipPath id="export-row-3"><rect x="0" y="0" width="391" height="360"/></clipPath><g clip-path="url(#export-row-3)" transform="translate(0,1176)"><defs><linearGradient id="mural-sky" x1="0" y1="0" x2="0" y2="1"><stop offset="0%" stop-color="#f6b26b"/><stop offset="100%" stop-color="#fbe3bd"/></linearGradient></defs><rect x="0" y="0" width="391" height="150" fill="url(#mural-sky)"/><rect x="0" y="150" width="391" height="60" fill="#d98b4a"/><g transform="translate(-1542,0)"><g transform="translate(1542,0)"><rect x="0" y="210" width="219" height="90" fill="#cf9b57"/></g><g transform="translate(1749,0)"><rect x="0" y="210" width="184" height="90" fill="#e6bd7f"/></g></g><polyline points="0,300 391,300" fill="none" stroke="#caa268" stroke-width="4"/><g transform="translate(-1542,0)"><g transform="translate(1548,300) scale(19.5,128)"><rect x="0.2" y="-0.8" width="0.6" height="0.8" fill="#c07f3f" stroke="#3a2417" stroke-width="1" vector-effect="non-scaling-stroke"/><polygon points="0.15,-0.8 0.85,-0.8 0.5,-1" fill="#7d4a22" stroke="#3a2417" stroke-width="1" vector-effect="non-scaling-stroke"/><rect x="0.42" y="-0.3" width="0.16" height="0.3" fill="#7d4a22" stroke="#3a2417" stroke-width="1" vector-effect="non-scaling-stroke"/><rect x="0.3" y="-0.6" width="0.12" height="0.12" fill="#7d4a22" stroke="#3a2417" stroke-width="1" vector-effect="non-scaling-stroke"/></g><g transform="translate(1575.86,300) scale(19.5,78)"><rect x="0.4" y="-0.85" width="0.2" height="0.85" fill="#c07f3f" stroke="#3a2417" stroke-width="1" vector-effect="non-scaling-stroke"/><polygon points="0.4,-0.85 0.6,-0.85 0.5,-1" fill="#7d4a22" stroke="#3a2417" stroke-width="1" vector-effect="non-scaling-stroke"/></g><g transform="translate(1603.71,300) scale(19.5,128)"><rect x="0.2" y="-0.8" width="0.6" height="0.8" fill="#c07f3f" stroke="#3a2417" stroke-width="1" vector-effect="non-scaling-stroke"/><polygon points="0.15,-0.8 0.85,-0.8 0.5,-1" fill="#7d4a22" stroke="#3a2417" stroke-width="1" vector-effect="non-scaling-stroke"/><rect x="0.42" y="-0.3" width="0.16" height="0.3" fill="#7d4a22" stroke="#3a2417" stroke-width="1" vector-effect="non-scaling-stroke"/><rect x="0.3" y="-0.6" width="0.12" height="0.12" fill="#7d4a22" stroke="#3a2417" stroke-width="1" vector-effect="non-scaling-stroke"/></g><g transform="translate(1631.57,300) scale(19.5,16)"><polygon points="0.1,0 0.35,-0.5 0.6,-0.6 0.9,-0.3 1,0" fill="#c07f3f" stroke="#3a2417" stroke-width="1" vector-effect="non-scaling-stroke"/><circle cx="0.7" cy="-0.15" r="0.08" fill="#7d4a22" stroke="#3a2417" stroke-width="1" vector-effect="non-scaling-stroke"/></g><g transform="translate(1659.43,300) scale(19.5,128)"><rect x="0.2" y="-0.8" width="0.6" height="0.8" fill="#c07f3f" stroke="#3a2417" stroke-width="1" vector-effect="non-scaling-stroke"/><polygon points="0.15,-0.8 0.85,-0.8 0.5,-1" fill="#7d4a22" stroke="#3a2417" stroke-width="1" vector-effect="non-scaling-stroke"/><rect x="0.42" y="-0.3" width="0.16" height="0.3" fill="#7d4a22" stroke="#3a2417" stroke-width="1" vector-effect="non-scaling-stroke"/><rect x="0.3" y="-0.6" width="0.12" height="0.12" fill="#7d4a22" stroke="#3a2417" stroke-width="1" vector-effect="non-scaling-stroke"/></g><g transform="translate(1687.29,300) scale(19.5,78)"><rect x="0.4" y="-0.85" width="0.2" height="0.85" fill="#c07f3f" stroke="#3a2417" stroke-width="1" vector-effect="non-scaling-stroke"/><polygon points="0.4,-0.85 0.6,-0.85 0.5,-1" fill="#7d4a22" stroke="#3a2417" stroke-width="1" vector-effect="non-scaling-stroke"/></g><g transform="translate(1715.14,300) scale(19.5,128)"><rect x="0.2" y="-0.8" width="0.6" height="0.8" fill="#c07f3f" stroke="#3a2417" stroke-width="1" vector-effect="non-scaling-stroke"/><polygon points="0.15,-0.8 0.85,-0.8 0.5,-1" fill="#7d4a22" stroke="#3a2417" stroke-width="1" vector-effect="non-scaling-stroke"/><rect x="0.42" y="-0.3" width="0.16" height="0.3" fill="#7d4a22" stroke="#3a2417" stroke-width="1" vector-effect="non-scaling-stroke"/><rect x="0.3" y="-0.6" width="0.12" height="0.12" fill="#7d4a22" stroke="#3a2417" stroke-width="1" vector-effect="non-scaling-stroke"/></g><g transform="translate(1755,300) scale(17.2,128)"><rect x="0.2" y="-0.8" width="0.6" height="0.8" fill="#d69a54" stroke="#3a2417" stroke-width="1" vector-effect="non-scaling-stroke"/><polygon points="0.15,-0.8 0.85,-0.8 0.5,-1" fill="#8a5228" stroke="#3a2417" stroke-width="1" vector-effect="non-scaling-stroke"/><rect x="0.42" y="-0.3" width="0.16" height="0.3" fill="#8a5228" stroke="#3a2417" stroke-width="1" vector-effect="non-scaling-stroke"/><rect x="0.3" y="-0.6" width="0.12" height="0.12" fill="#8a5228" stroke="#3a2417" stroke-width="1" vector-effect="non-scaling-stroke"/></g><g transform="translate(1779.57,300) scale(17.2,78)"><rect x="0.4" y="-0.85" width="0.2" height="0.85" fill="#d69a54" stroke="#3a2417" stroke-width="1" vector-effect="non-scaling-stroke"/><polygon points="0.4,-0.85 0.6,-0.85 0.5,-1" fill="#8a5228" stroke="#3a2417" stroke-width="1" vector-effect="non-scaling-stroke"/></g><g transform="translate(1804.14,300) scale(17.2,128)"><rect x="0.2" y="-0.8" width="0.6" height="0.8" fill="#d69a54" stroke="#3a2417" stroke-width="1" vector-effect="non-scaling-stroke"/><polygon points="0.15,-0.8 0.85,-0.8 0.5,-1" fill="#8a5228" stroke="#3a2417" stroke-width="1" vector-effect="non-scaling-stroke"/><rect x="0.42" y="-0.3" width="0.16" height="0.3" fill="#8a5228" stroke="#3a2417" stroke-width="1" vector-effect="non-scaling-stroke"/><rect x="0.3" y="-0.6" width="0.12" height="0.12" fill="#8a5228" stroke="#3a2417" stroke-width="1" vector-effect="non-scaling-stroke"/></g><g transform="translate(1828.71,300) scale(17.2,16)"><polygon points="0.1,0 0.35,-0.5 0.6,-0.6 0.9,-0.3 1,0" fill="#d69a54" stroke="#3a2417" stroke-width="1" vector-effect="non-scaling-stroke"/><circle cx="0.7" cy="-0.15" r="0.08" fill="#8a5228" stroke="#3a2417" stroke-width="1" vector-effect="non-scaling-stroke"/></g><g transform="translate(1853.29,300) scale(17.2,128)"><rect x="0.2" y="-0.8" width="0.6" height="0.8" fill="#d69a54" stroke="#3a2417" stroke-width="1" vector-effect="non-scaling-stroke"/><polygon points="0.15,-0.8 0.85,-0.8 0.5,-1" fill="#8a5228" stroke="#3a2417" stroke-width="1" vector-effect="non-scaling-stroke"/><rect x="0.42" y="-0.3" width="0.16" height="0.3" fill="#8a5228" stroke="#3a2417" stroke-width="1" vector-effect="non-scaling-stroke"/><rect x="0.3" y="-0.6" width="0.12" height="0.12" fill="#8a5228" stroke="#3a2417" stroke-width="1" vector-effect="non-scaling-stroke"/></g><g transform="translate(1877.86,300) scale(17.2,78)"><rect x="0.4" y="-0.85" width="0.2" height="0.85" fill="#d69a54" stroke="#3a2417" stroke-width="1" vector-effect="non-scaling-stroke"/><polygon points="0.4,-0.85 0.6,-0.85 0.5,-1" fill="#8a5228" stroke="#3a2417" stroke-width="1" vector-effect="non-scaling-stroke"/></g><g transform="translate(1902.43,300) scale(17.2,128)"><rect x="0.2" y="-0.8" width="0.6" height="0.8" fill="#d69a54" stroke="#3a2417" stroke-width="1" vector-effect="non-scaling-stroke"/><polygon points="0.15,-0.8 0.85,-0.8 0.5,-1" fill="#8a5228" stroke="#3a2417" stroke-width="1" vector-effect="non-scaling-stroke"/><rect x="0.42" y="-0.3" width="0.16" height="0.3" fill="#8a5228" stroke="#3a2417" stroke-width="1" vector-effect="non-scaling-stroke"/><rect x="0.3" y="-0.6" width="0.12" height="0.12" fill="#8a5228" stroke="#3a2417" stroke-width="1" vector-effect="non-scaling-stroke"/></g><rect x="1542" y="328.52" width="14.53" height="2.48" fill="#f0d5a8"/><rect x="1556.53" y="300" width="0.24" height="31" fill="#8a4a22"/><rect x="1556.77" y="328.52" width="29.29" height="2.48" fill="#f0d5a8"/><rect x="1586.06" y="300" width="0.24" height="31" fill="#8a4a22"/><rect x="1586.31" y="328.52" width="29.29" height="2.48" fill="#f0d5a8"/><rect x="1615.6" y="300" width="0.24" height="31" fill="#8a4a22"/><rect x="1615.84" y="328.52" width="29.05" height="2.48" fill="#f0d5a8"/><rect x="1644.89" y="300" width="0.24" height="31" fill="#8a4a22"/><rect x="1645.14" y="328.52" width="29.29" height="2.48" fill="#f0d5a8"/><rect x="1674.43" y="300" width="0.24" height="31" fill="#8a4a22"/><rect x="1674.67" y="328.52" width="29.29" height="2.48" fill="#f0d5a8"/><rect x="1703.97" y="300" width="0.24" height="31" fill="#8a4a22"/><rect x="1704.21" y="328.52" width="29.29" height="2.48" fill="#f0d5a8"/><rect x="1733.51" y="300" width="0.24" height="31" fill="#8a4a22"/><rect x="1733.75" y="328.52" width="29.29" height="2.48" fill="#f0d5a8"/><rect x="1763.04" y="300" width="0.24" height="31" fill="#8a4a22"/><rect x="1763.28" y="328.52" width="29.29" height="2.48" fill="#f0d5a8"/><rect x="1792.58" y="300" width="0.24" height="31" fill="#8a4a22"/><rect x="1792.82" y="328.52" width="29.05" height="2.48" fill="#f0d5a8"/><rect x="1821.87" y="300" width="0.24" height="31" fill="#8a4a22"/><rect x="1822.12" y="328.52" width="29.29" height="2.48" fill="#f0d5a8"/><rect x="1851.41" y="300" width="0.24" height="31" fill="#8a4a22"/><rect x="1851.65" y="328.52" width="29.29" height="2.48" fill="#f0d5a8"/><rect x="1880.95" y="300" width="0.24" height="31" fill="#8a4a22"/><rect x="1881.19" y="328.52" width="29.05" height="2.48" fill="#f0d5a8"/><rect x="1910.24" y="300" width="0.24" height="31" fill="#8a4a22"/><rect x="1910.48" y="328.52" width="22.52" height="2.48" fill="#f0d5a8"/><text x="1645.5" y="52" font-family="system-ui, -apple-system, 'Segoe UI', Roboto, sans-serif" font-size="14" fill="#3a2417" text-anchor="middle" letter-spacing="1.5" font-weight="bold">A GATHERING OF STARS</text><text x="1841" y="52" font-family="system-ui, -apple-system, 'Segoe UI', Roboto, sans-serif" font-size="14" fill="#3a2417" text-anchor="middle" letter-spacing="1.5" font-weight="bold">PRESENT DAY</text></g></g><g transform="translate(0,1452)"><rect x="68.7" y="84" width="555.3" height="34" rx="6" fill="#fbe3bd" stroke="#3a2417" stroke-width="1"/><text x="346.35" y="105.2" font-family="system-ui, -apple-system, 'Segoe UI', Roboto, sans-serif" font-size="12" fill="#3a2417" text-anchor="middle" letter-spacing="0.5">JavaScript Specialist · Heavy PR Contributor · Followed · Star Magnet</text></g><g transform="translate(0,1452)"><rect x="499" y="340" width="8" height="8" fill="#f0d5a8"/><rect x="510" y="340" width="8" height="8" fill="#e3b877"/><rect x="521" y="340" width="8" height="8" fill="#d18f4b"/><rect x="532" y="340" width="8" height="8" fill="#b3672f"/><rect x="543" y="340" width="8" height="8" fill="#8a4a22"/><text x="496" y="348" font-family="system-ui, -apple-system, 'Segoe UI', Roboto, sans-serif" font-size="9" fill="#3a2417" text-anchor="end">Less activity</text><text x="554" y="348" font-family="system-ui, -apple-system, 'Segoe UI', Roboto, sans-serif" font-size="9" fill="#3a2417" text-anchor="start">More activity</text></g></g></svg>